M48
; DRILL file {KiCad 8.0.5} date 2024-12-04T18:31:40+0100
; FORMAT={-:-/ absolute / metric / decimal}
; #@! TF.CreationDate,2024-12-04T18:31:40+01:00
; #@! TF.GenerationSoftware,Kicad,Pcbnew,8.0.5
; #@! TF.FileFunction,Plated,1,2,PTH
FMAT,2
METRIC
; #@! TA.AperFunction,Plated,PTH,ComponentDrill
T1C0.300
; #@! TA.AperFunction,Plated,PTH,ComponentDrill
T2C1.000
; #@! TA.AperFunction,Plated,PTH,ComponentDrill
T3C2.400
; #@! TA.AperFunction,Plated,PTH,ComponentDrill
T4C3.200
; #@! TA.AperFunction,Plated,PTH,ComponentDrill
T5C6.200
%
G90
G05
T1
X52.8Y-171.75
X52.8Y-190.25
X52.8Y-208.75
X54.46Y-167.72
X54.46Y-186.22
X54.46Y-204.72
X54.47Y-175.79
X54.47Y-194.29
X54.47Y-212.79
X58.5Y-166.05
X58.5Y-177.45
X58.5Y-184.55
X58.5Y-195.95
X58.5Y-203.05
X58.5Y-214.45
X62.53Y-175.79
X62.53Y-194.29
X62.53Y-212.79
X62.54Y-167.72
X62.54Y-186.22
X62.54Y-204.72
X64.2Y-171.75
X64.2Y-190.25
X64.2Y-208.75
X69.3Y-171.75
X69.3Y-190.25
X69.3Y-208.75
X70.96Y-167.72
X70.96Y-186.22
X70.96Y-204.72
X70.97Y-175.79
X70.97Y-194.29
X70.97Y-212.79
X75.0Y-166.05
X75.0Y-177.45
X75.0Y-184.55
X75.0Y-195.95
X75.0Y-203.05
X75.0Y-214.45
X79.03Y-175.79
X79.03Y-194.29
X79.03Y-212.79
X79.04Y-167.72
X79.04Y-186.22
X79.04Y-204.72
X80.7Y-171.75
X80.7Y-190.25
X80.7Y-208.75
X85.8Y-171.75
X85.8Y-190.25
X85.8Y-208.75
X87.46Y-167.72
X87.46Y-186.22
X87.46Y-204.72
X87.47Y-175.79
X87.47Y-194.29
X87.47Y-212.79
X91.5Y-166.05
X91.5Y-177.45
X91.5Y-184.55
X91.5Y-195.95
X91.5Y-203.05
X91.5Y-214.45
X95.53Y-175.79
X95.53Y-194.29
X95.53Y-212.79
X95.54Y-167.72
X95.54Y-186.22
X95.54Y-204.72
X97.2Y-171.75
X97.2Y-190.25
X97.2Y-208.75
T3
X62.5Y-136.1
T4
X53.5Y-33.5
X53.5Y-226.5
X96.5Y-33.5
X96.5Y-226.5
T5
X62.5Y-142.5
T2
X62.0Y-114.25G85X63.0Y-114.25
G05
X74.5Y-77.0G85X75.5Y-77.0
G05
X87.0Y-114.25G85X88.0Y-114.25
G05
M30
