%TF.GenerationSoftware,KiCad,Pcbnew,8.0.5*%
%TF.CreationDate,2024-12-04T18:31:37+01:00*%
%TF.ProjectId,DMH_S_H_Noise_PANEL,444d485f-535f-4485-9f4e-6f6973655f50,rev?*%
%TF.SameCoordinates,Original*%
%TF.FileFunction,Legend,Top*%
%TF.FilePolarity,Positive*%
%FSLAX46Y46*%
G04 Gerber Fmt 4.6, Leading zero omitted, Abs format (unit mm)*
G04 Created by KiCad (PCBNEW 8.0.5) date 2024-12-04 18:31:37*
%MOMM*%
%LPD*%
G01*
G04 APERTURE LIST*
%ADD10C,1.000000*%
%ADD11C,0.800000*%
%ADD12C,0.150000*%
%ADD13C,0.875000*%
%ADD14C,0.500000*%
%ADD15C,0.250000*%
%ADD16C,0.000000*%
%ADD17C,12.000000*%
%ADD18O,2.500000X1.500000*%
%ADD19C,0.500000*%
%ADD20C,4.000000*%
%ADD21C,3.100000*%
%ADD22C,2.900000*%
%ADD23C,13.000000*%
G04 APERTURE END LIST*
D10*
X69000000Y-142500000D02*
X78000000Y-142500000D01*
D11*
G36*
X71970411Y-31235903D02*
G01*
X69192882Y-31235903D01*
X68972027Y-31245539D01*
X68744845Y-31281157D01*
X68553985Y-31340680D01*
X68370211Y-31437037D01*
X68201256Y-31577843D01*
X68065670Y-31746249D01*
X67963607Y-31938101D01*
X67899280Y-32149371D01*
X67877261Y-32346993D01*
X67876901Y-32376029D01*
X67893383Y-32584313D01*
X67941439Y-32777257D01*
X68032345Y-32976935D01*
X68158651Y-33152113D01*
X68195394Y-33191800D01*
X68365677Y-33332453D01*
X68551168Y-33428521D01*
X68743471Y-33487776D01*
X68971703Y-33523191D01*
X69192882Y-33532763D01*
X70732589Y-33532763D01*
X70932734Y-33565726D01*
X71001256Y-33616782D01*
X71079094Y-33801514D01*
X71079413Y-33816085D01*
X71017864Y-33987055D01*
X70836514Y-34075669D01*
X70732589Y-34081821D01*
X67977529Y-34081821D01*
X67977529Y-35050000D01*
X70912351Y-35050000D01*
X71111691Y-35039207D01*
X71324515Y-34999086D01*
X71510380Y-34931549D01*
X71695730Y-34821251D01*
X71850084Y-34680589D01*
X71869783Y-34658234D01*
X71986394Y-34496408D01*
X72074337Y-34316172D01*
X72129856Y-34122564D01*
X72149197Y-33920621D01*
X72126818Y-33704282D01*
X72062491Y-33498569D01*
X71960428Y-33308975D01*
X71824843Y-33140997D01*
X71657124Y-33000191D01*
X71480264Y-32903834D01*
X71271769Y-32836648D01*
X71065322Y-32805255D01*
X70912351Y-32799057D01*
X69248569Y-32799057D01*
X69056565Y-32760562D01*
X69029727Y-32739462D01*
X68937738Y-32566314D01*
X68934961Y-32525505D01*
X68995455Y-32337398D01*
X69013119Y-32316434D01*
X69194819Y-32241358D01*
X69248569Y-32239253D01*
X71970411Y-32239253D01*
X71970411Y-31235903D01*
G37*
G36*
X75385517Y-31236803D02*
G01*
X75594780Y-31257915D01*
X75812738Y-31321549D01*
X75983524Y-31423206D01*
X76128150Y-31590316D01*
X76209239Y-31800774D01*
X76230007Y-32004780D01*
X76220443Y-32143632D01*
X76160207Y-32358413D01*
X76049867Y-32537290D01*
X75895559Y-32680264D01*
X75703419Y-32787334D01*
X75126029Y-33031577D01*
X75669225Y-33508339D01*
X76072714Y-33139043D01*
X76162596Y-33031577D01*
X77338869Y-33031577D01*
X77308404Y-33075104D01*
X77164968Y-33218178D01*
X76279832Y-34052512D01*
X77220656Y-34887822D01*
X77239041Y-34903589D01*
X77377948Y-35050000D01*
X76061968Y-35050000D01*
X75972086Y-34955233D01*
X75624284Y-34652372D01*
X75561011Y-34705782D01*
X75376531Y-34839798D01*
X75193390Y-34937441D01*
X75003011Y-35002498D01*
X74796815Y-35038755D01*
X74566224Y-35050000D01*
X73469085Y-35050000D01*
X73340789Y-35045195D01*
X73109057Y-35007663D01*
X72910465Y-34934902D01*
X72708808Y-34798075D01*
X72558890Y-34614656D01*
X72476192Y-34437530D01*
X72426583Y-34235995D01*
X72410048Y-34012456D01*
X72414701Y-33883176D01*
X72415707Y-33876657D01*
X73574598Y-33876657D01*
X73578897Y-33933838D01*
X73690661Y-34100969D01*
X73888206Y-34143370D01*
X74560363Y-34143370D01*
X74578495Y-34143304D01*
X74785573Y-34126747D01*
X74980460Y-34058374D01*
X74269225Y-33417480D01*
X73793440Y-33615806D01*
X73662802Y-33694906D01*
X73574598Y-33876657D01*
X72415707Y-33876657D01*
X72445754Y-33681980D01*
X72529038Y-33464722D01*
X72644007Y-33304426D01*
X72806958Y-33163544D01*
X72975999Y-33065162D01*
X73182833Y-32979797D01*
X73642009Y-32821528D01*
X73457362Y-32657397D01*
X73428097Y-32631008D01*
X73279925Y-32482332D01*
X73160577Y-32323571D01*
X73077180Y-32127212D01*
X73072315Y-32083914D01*
X74185205Y-32083914D01*
X74185825Y-32106834D01*
X74285834Y-32276378D01*
X74533007Y-32492288D01*
X74957990Y-32350628D01*
X75087557Y-32300110D01*
X75199302Y-32128855D01*
X75166051Y-31999097D01*
X74975575Y-31930530D01*
X74459734Y-31930530D01*
X74328873Y-31938775D01*
X74185205Y-32083914D01*
X73072315Y-32083914D01*
X73053873Y-31919783D01*
X73064865Y-31796992D01*
X73140062Y-31588423D01*
X73265984Y-31431900D01*
X73453583Y-31312273D01*
X73660402Y-31251945D01*
X73860851Y-31235903D01*
X75328262Y-31235903D01*
X75385517Y-31236803D01*
G37*
G36*
X80960502Y-31235903D02*
G01*
X80960502Y-32611479D01*
X78703698Y-32611479D01*
X78703698Y-31235903D01*
X77684717Y-31235903D01*
X77684717Y-35050000D01*
X78703698Y-35050000D01*
X78703698Y-33564026D01*
X80960502Y-33564026D01*
X80960502Y-35050000D01*
X81980460Y-35050000D01*
X81980460Y-31235903D01*
X80960502Y-31235903D01*
G37*
G36*
X69448849Y-37955903D02*
G01*
X68457223Y-37955903D01*
X68457223Y-40421779D01*
X68379065Y-40523384D01*
X68283322Y-40478443D01*
X66435869Y-38249972D01*
X66281504Y-38101764D01*
X66097401Y-37984841D01*
X65891936Y-37917641D01*
X65683828Y-37894516D01*
X65618144Y-37893377D01*
X65390267Y-37911734D01*
X65188231Y-37969250D01*
X65017268Y-38069591D01*
X64882610Y-38216426D01*
X64789491Y-38413422D01*
X64748419Y-38609598D01*
X64738870Y-38780467D01*
X64738870Y-41770000D01*
X65735380Y-41770000D01*
X65735380Y-39201542D01*
X65830147Y-39094075D01*
X65920028Y-39144877D01*
X67998046Y-41552135D01*
X68164082Y-41689237D01*
X68361880Y-41780014D01*
X68566052Y-41822975D01*
X68737614Y-41832526D01*
X68940383Y-41806482D01*
X69124941Y-41725982D01*
X69278844Y-41587471D01*
X69389650Y-41387393D01*
X69440092Y-41171067D01*
X69448849Y-41018709D01*
X69448849Y-37955903D01*
G37*
G36*
X72949247Y-37964692D02*
G01*
X73156654Y-37990494D01*
X73350252Y-38032462D01*
X73573549Y-38106364D01*
X73776922Y-38202547D01*
X73961289Y-38319356D01*
X74127565Y-38455136D01*
X74162323Y-38488108D01*
X74323225Y-38666125D01*
X74461031Y-38864311D01*
X74573552Y-39080275D01*
X74643890Y-39264238D01*
X74695521Y-39456821D01*
X74727322Y-39656801D01*
X74738172Y-39862951D01*
X74736024Y-39957387D01*
X74712360Y-40187382D01*
X74663777Y-40407363D01*
X74591795Y-40615698D01*
X74497935Y-40810756D01*
X74383718Y-40990903D01*
X74250663Y-41154508D01*
X74149102Y-41257733D01*
X73961709Y-41411420D01*
X73795106Y-41516693D01*
X73613311Y-41605136D01*
X73415992Y-41675718D01*
X73202815Y-41727410D01*
X72973450Y-41759180D01*
X72727565Y-41770000D01*
X71932310Y-41770000D01*
X71807281Y-41767273D01*
X71569697Y-41745850D01*
X71348468Y-41703990D01*
X71143262Y-41642724D01*
X70953746Y-41563082D01*
X70779589Y-41466096D01*
X70582985Y-41322041D01*
X70409212Y-41154508D01*
X70353827Y-41091155D01*
X70228124Y-40920738D01*
X70121867Y-40734431D01*
X70036576Y-40533866D01*
X69973771Y-40320677D01*
X69934973Y-40096494D01*
X69922036Y-39868813D01*
X70935799Y-39868813D01*
X70936833Y-39912378D01*
X70971606Y-40122017D01*
X71051386Y-40312765D01*
X71170272Y-40477466D01*
X71327162Y-40614175D01*
X71501799Y-40703313D01*
X71713553Y-40757680D01*
X71932310Y-40773489D01*
X72727565Y-40773489D01*
X72946322Y-40757680D01*
X73158076Y-40703313D01*
X73332713Y-40614175D01*
X73489602Y-40477466D01*
X73516225Y-40446953D01*
X73627762Y-40276470D01*
X73699013Y-40081371D01*
X73724075Y-39868813D01*
X73716489Y-39750329D01*
X73666597Y-39547618D01*
X73574336Y-39364817D01*
X73444662Y-39209357D01*
X73312282Y-39105570D01*
X73131460Y-39018883D01*
X72934268Y-38972718D01*
X72727565Y-38959253D01*
X71932310Y-38959253D01*
X71781233Y-38966184D01*
X71574468Y-39004455D01*
X71384956Y-39083383D01*
X71215213Y-39209357D01*
X71139173Y-39291906D01*
X71029752Y-39463473D01*
X70960179Y-39658253D01*
X70935799Y-39868813D01*
X69922036Y-39868813D01*
X69921703Y-39862951D01*
X69922390Y-39810902D01*
X69938582Y-39606180D01*
X69975446Y-39407934D01*
X70031859Y-39217391D01*
X70106699Y-39035775D01*
X70224452Y-38823175D01*
X70367053Y-38628831D01*
X70532310Y-38455136D01*
X70698586Y-38319356D01*
X70882952Y-38202547D01*
X71086325Y-38106364D01*
X71309622Y-38032462D01*
X71503221Y-37990494D01*
X71710627Y-37964692D01*
X71932310Y-37955903D01*
X72727565Y-37955903D01*
X72949247Y-37964692D01*
G37*
G36*
X75228611Y-37955903D02*
G01*
X75228611Y-41770000D01*
X76247593Y-41770000D01*
X76247593Y-37955903D01*
X75228611Y-37955903D01*
G37*
G36*
X80772924Y-37955903D02*
G01*
X77995394Y-37955903D01*
X77774539Y-37965539D01*
X77547358Y-38001157D01*
X77356498Y-38060680D01*
X77172723Y-38157037D01*
X77003768Y-38297843D01*
X76868183Y-38466249D01*
X76766120Y-38658101D01*
X76701793Y-38869371D01*
X76679773Y-39066993D01*
X76679414Y-39096029D01*
X76695896Y-39304313D01*
X76743952Y-39497257D01*
X76834858Y-39696935D01*
X76961164Y-39872113D01*
X76997907Y-39911800D01*
X77168190Y-40052453D01*
X77353680Y-40148521D01*
X77545983Y-40207776D01*
X77774215Y-40243191D01*
X77995394Y-40252763D01*
X79535101Y-40252763D01*
X79735247Y-40285726D01*
X79803768Y-40336782D01*
X79881607Y-40521514D01*
X79881926Y-40536085D01*
X79820377Y-40707055D01*
X79639027Y-40795669D01*
X79535101Y-40801821D01*
X76780042Y-40801821D01*
X76780042Y-41770000D01*
X79714864Y-41770000D01*
X79914204Y-41759207D01*
X80127027Y-41719086D01*
X80312893Y-41651549D01*
X80498242Y-41541251D01*
X80652597Y-41400589D01*
X80672296Y-41378234D01*
X80788907Y-41216408D01*
X80876849Y-41036172D01*
X80932369Y-40842564D01*
X80951710Y-40640621D01*
X80929331Y-40424282D01*
X80865004Y-40218569D01*
X80762941Y-40028975D01*
X80627355Y-39860997D01*
X80459637Y-39720191D01*
X80282777Y-39623834D01*
X80074281Y-39556648D01*
X79867834Y-39525255D01*
X79714864Y-39519057D01*
X78051082Y-39519057D01*
X77859078Y-39480562D01*
X77832240Y-39459462D01*
X77740250Y-39286314D01*
X77737474Y-39245505D01*
X77797968Y-39057398D01*
X77815632Y-39036434D01*
X77997331Y-38961358D01*
X78051082Y-38959253D01*
X80772924Y-38959253D01*
X80772924Y-37955903D01*
G37*
G36*
X81890579Y-37955903D02*
G01*
X81680958Y-37980087D01*
X81504323Y-38067275D01*
X81385958Y-38241942D01*
X81352268Y-38465882D01*
X81352268Y-41244389D01*
X81378002Y-41450105D01*
X81470060Y-41622563D01*
X81652733Y-41737469D01*
X81852160Y-41769493D01*
X81884718Y-41770000D01*
X85334403Y-41770000D01*
X85334403Y-40801821D01*
X82456246Y-40801821D01*
X82366364Y-40694354D01*
X82366364Y-40206845D01*
X85317795Y-40206845D01*
X85317795Y-39479002D01*
X82366364Y-39479002D01*
X82366364Y-39053042D01*
X82456246Y-38959253D01*
X85334403Y-38959253D01*
X85334403Y-37955903D01*
X81890579Y-37955903D01*
G37*
D12*
G36*
X55287997Y-150972951D02*
G01*
X55287997Y-151474626D01*
X56119888Y-151474626D01*
X56119888Y-152880000D01*
X56629379Y-152880000D01*
X56629379Y-151474626D01*
X57458339Y-151474626D01*
X57458339Y-150972951D01*
X55287997Y-150972951D01*
G37*
G36*
X59229311Y-150977982D02*
G01*
X59337756Y-150996597D01*
X59445648Y-151034070D01*
X59535791Y-151086611D01*
X59610607Y-151152226D01*
X59673423Y-151231750D01*
X59721127Y-151321669D01*
X59751428Y-151419923D01*
X59762037Y-151524452D01*
X59761904Y-151538531D01*
X59750384Y-151648633D01*
X59717322Y-151751860D01*
X59658552Y-151844868D01*
X59582763Y-151915240D01*
X59616378Y-151937269D01*
X59688524Y-152005923D01*
X59736238Y-152095884D01*
X59758953Y-152198918D01*
X59764968Y-152309937D01*
X59764968Y-152696817D01*
X59766050Y-152776974D01*
X59773273Y-152880000D01*
X59260851Y-152880000D01*
X59257485Y-152852045D01*
X59252547Y-152751528D01*
X59252547Y-152364647D01*
X59230364Y-152262641D01*
X59149697Y-152204380D01*
X59044940Y-152192212D01*
X58163224Y-152192212D01*
X58163224Y-152880000D01*
X57656176Y-152880000D01*
X57656176Y-151488304D01*
X58163224Y-151488304D01*
X58163224Y-151761367D01*
X59059106Y-151761367D01*
X59116944Y-151754373D01*
X59201744Y-151699818D01*
X59203826Y-151697192D01*
X59238381Y-151602609D01*
X59237718Y-151587977D01*
X59196371Y-151496608D01*
X59157705Y-151467164D01*
X59059106Y-151446294D01*
X58205233Y-151446294D01*
X58163224Y-151488304D01*
X57656176Y-151488304D01*
X57656176Y-151090676D01*
X57687683Y-151002505D01*
X57782205Y-150972951D01*
X59126517Y-150972951D01*
X59229311Y-150977982D01*
G37*
G36*
X60015561Y-150972951D02*
G01*
X60015561Y-152880000D01*
X60525052Y-152880000D01*
X60525052Y-150972951D01*
X60015561Y-150972951D01*
G37*
G36*
X62675855Y-152880000D02*
G01*
X62769960Y-152846473D01*
X62796022Y-152759832D01*
X62796022Y-151835617D01*
X62291905Y-151835617D01*
X62291905Y-152350481D01*
X62255757Y-152390048D01*
X61771179Y-152390048D01*
X61661801Y-152381071D01*
X61555923Y-152351026D01*
X61468605Y-152303476D01*
X61390160Y-152233733D01*
X61330717Y-152151382D01*
X61290827Y-152056008D01*
X61273441Y-151951189D01*
X61272924Y-151929406D01*
X61285113Y-151824126D01*
X61319900Y-151726736D01*
X61374611Y-151640953D01*
X61412631Y-151599678D01*
X61497502Y-151536691D01*
X61592258Y-151497227D01*
X61695641Y-151478092D01*
X61771179Y-151474626D01*
X62793091Y-151474626D01*
X62793091Y-150972951D01*
X61771179Y-150972951D01*
X61660338Y-150977346D01*
X61556635Y-150990247D01*
X61459835Y-151011231D01*
X61348187Y-151048182D01*
X61246500Y-151096273D01*
X61154317Y-151154678D01*
X61071179Y-151222568D01*
X60988550Y-151309415D01*
X60917250Y-151406587D01*
X60858373Y-151512887D01*
X60820953Y-151603695D01*
X60792747Y-151698967D01*
X60774315Y-151798090D01*
X60766219Y-151900451D01*
X60765875Y-151926475D01*
X60772511Y-152043084D01*
X60791910Y-152155122D01*
X60823312Y-152261739D01*
X60865958Y-152362086D01*
X60919086Y-152455314D01*
X60981937Y-152540572D01*
X61009630Y-152572254D01*
X61096516Y-152656020D01*
X61194818Y-152728048D01*
X61281897Y-152776541D01*
X61376655Y-152816362D01*
X61479258Y-152846995D01*
X61589873Y-152867925D01*
X61708665Y-152878636D01*
X61771179Y-152880000D01*
X62675855Y-152880000D01*
G37*
G36*
X64934612Y-152880000D02*
G01*
X65028718Y-152846473D01*
X65054780Y-152759832D01*
X65054780Y-151835617D01*
X64550663Y-151835617D01*
X64550663Y-152350481D01*
X64514515Y-152390048D01*
X64029937Y-152390048D01*
X63920558Y-152381071D01*
X63814681Y-152351026D01*
X63727363Y-152303476D01*
X63648918Y-152233733D01*
X63589475Y-152151382D01*
X63549585Y-152056008D01*
X63532198Y-151951189D01*
X63531681Y-151929406D01*
X63543871Y-151824126D01*
X63578658Y-151726736D01*
X63633369Y-151640953D01*
X63671388Y-151599678D01*
X63756260Y-151536691D01*
X63851016Y-151497227D01*
X63954398Y-151478092D01*
X64029937Y-151474626D01*
X65051849Y-151474626D01*
X65051849Y-150972951D01*
X64029937Y-150972951D01*
X63919095Y-150977346D01*
X63815392Y-150990247D01*
X63718593Y-151011231D01*
X63606945Y-151048182D01*
X63505258Y-151096273D01*
X63413075Y-151154678D01*
X63329937Y-151222568D01*
X63247308Y-151309415D01*
X63176008Y-151406587D01*
X63117131Y-151512887D01*
X63079711Y-151603695D01*
X63051505Y-151698967D01*
X63033073Y-151798090D01*
X63024977Y-151900451D01*
X63024633Y-151926475D01*
X63031269Y-152043084D01*
X63050668Y-152155122D01*
X63082070Y-152261739D01*
X63124716Y-152362086D01*
X63177844Y-152455314D01*
X63240695Y-152540572D01*
X63268388Y-152572254D01*
X63355274Y-152656020D01*
X63453576Y-152728048D01*
X63540655Y-152776541D01*
X63635413Y-152816362D01*
X63738016Y-152846995D01*
X63848631Y-152867925D01*
X63967422Y-152878636D01*
X64029937Y-152880000D01*
X64934612Y-152880000D01*
G37*
G36*
X65591626Y-150972951D02*
G01*
X65486815Y-150985043D01*
X65398497Y-151028637D01*
X65339315Y-151115971D01*
X65322470Y-151227941D01*
X65322470Y-152617194D01*
X65335337Y-152720052D01*
X65381366Y-152806281D01*
X65472702Y-152863734D01*
X65572416Y-152879746D01*
X65588695Y-152880000D01*
X67313538Y-152880000D01*
X67313538Y-152395910D01*
X65874459Y-152395910D01*
X65829518Y-152342177D01*
X65829518Y-152098422D01*
X67305233Y-152098422D01*
X67305233Y-151734501D01*
X65829518Y-151734501D01*
X65829518Y-151521521D01*
X65874459Y-151474626D01*
X67313538Y-151474626D01*
X67313538Y-150972951D01*
X65591626Y-150972951D01*
G37*
G36*
X69124077Y-150977982D02*
G01*
X69232522Y-150996597D01*
X69340415Y-151034070D01*
X69430557Y-151086611D01*
X69505373Y-151152226D01*
X69568189Y-151231750D01*
X69615893Y-151321669D01*
X69646194Y-151419923D01*
X69656804Y-151524452D01*
X69656671Y-151538531D01*
X69645150Y-151648633D01*
X69612088Y-151751860D01*
X69553318Y-151844868D01*
X69477529Y-151915240D01*
X69511144Y-151937269D01*
X69583290Y-152005923D01*
X69631004Y-152095884D01*
X69653720Y-152198918D01*
X69659734Y-152309937D01*
X69659734Y-152696817D01*
X69660816Y-152776974D01*
X69668039Y-152880000D01*
X69155617Y-152880000D01*
X69152251Y-152852045D01*
X69147313Y-152751528D01*
X69147313Y-152364647D01*
X69125130Y-152262641D01*
X69044464Y-152204380D01*
X68939707Y-152192212D01*
X68057990Y-152192212D01*
X68057990Y-152880000D01*
X67550942Y-152880000D01*
X67550942Y-151488304D01*
X68057990Y-151488304D01*
X68057990Y-151761367D01*
X68953873Y-151761367D01*
X69011710Y-151754373D01*
X69096510Y-151699818D01*
X69098593Y-151697192D01*
X69133147Y-151602609D01*
X69132484Y-151587977D01*
X69091137Y-151496608D01*
X69052471Y-151467164D01*
X68953873Y-151446294D01*
X68100000Y-151446294D01*
X68057990Y-151488304D01*
X67550942Y-151488304D01*
X67550942Y-151090676D01*
X67582449Y-151002505D01*
X67676971Y-150972951D01*
X69021284Y-150972951D01*
X69124077Y-150977982D01*
G37*
G36*
X81377320Y-154931263D02*
G01*
X81475590Y-154921142D01*
X81575521Y-154884398D01*
X81656608Y-154818920D01*
X81696301Y-154758339D01*
X82270272Y-153570830D01*
X82306908Y-153548848D01*
X82351360Y-153599162D01*
X82351360Y-154900000D01*
X82838869Y-154900000D01*
X82838869Y-153511723D01*
X82832181Y-153400217D01*
X82812568Y-153304269D01*
X82774253Y-153209934D01*
X82711426Y-153122329D01*
X82662526Y-153076971D01*
X82575651Y-153020362D01*
X82484231Y-152983491D01*
X82381153Y-152963877D01*
X82331821Y-152961688D01*
X82226114Y-152971882D01*
X82116896Y-153009350D01*
X82024687Y-153071518D01*
X81947128Y-153155392D01*
X81891987Y-153239708D01*
X81853105Y-153315352D01*
X81424703Y-154246894D01*
X81377320Y-154283042D01*
X81329448Y-154246894D01*
X80901046Y-153315352D01*
X80851753Y-153221889D01*
X80795014Y-153140033D01*
X80715178Y-153059569D01*
X80620297Y-153001309D01*
X80508016Y-152968249D01*
X80422330Y-152961688D01*
X80314344Y-152972418D01*
X80217638Y-153002086D01*
X80124449Y-153052663D01*
X80091626Y-153076971D01*
X80016880Y-153152869D01*
X79961505Y-153248185D01*
X79930203Y-153350395D01*
X79916968Y-153453928D01*
X79915282Y-153511723D01*
X79915282Y-154900000D01*
X80402791Y-154900000D01*
X80402791Y-153601605D01*
X80447243Y-153551290D01*
X80483880Y-153573272D01*
X81057850Y-154765666D01*
X81122002Y-154846780D01*
X81210324Y-154900355D01*
X81314990Y-154927371D01*
X81377320Y-154931263D01*
G37*
G36*
X84330209Y-152963035D02*
G01*
X84442339Y-152978214D01*
X84542281Y-153010349D01*
X84630425Y-153059541D01*
X84707162Y-153125891D01*
X84772884Y-153209500D01*
X84827983Y-153310467D01*
X85511374Y-154814026D01*
X85542149Y-154900000D01*
X84970621Y-154900000D01*
X84948639Y-154834054D01*
X84847522Y-154598604D01*
X83727425Y-154598604D01*
X83629727Y-154831123D01*
X83609700Y-154900000D01*
X83024494Y-154900000D01*
X83055268Y-154814026D01*
X83340749Y-154180949D01*
X83912561Y-154180949D01*
X84662875Y-154180949D01*
X84371737Y-153505861D01*
X84368346Y-153498361D01*
X84284787Y-153447243D01*
X84281636Y-153447285D01*
X84200767Y-153505861D01*
X83912561Y-154180949D01*
X83340749Y-154180949D01*
X83733286Y-153310467D01*
X83754012Y-153267991D01*
X83812745Y-153173979D01*
X83882042Y-153097286D01*
X83962751Y-153037811D01*
X84055724Y-152995454D01*
X84161809Y-152970113D01*
X84281856Y-152961688D01*
X84330209Y-152963035D01*
G37*
G36*
X88089113Y-152992951D02*
G01*
X87593300Y-152992951D01*
X87593300Y-154225889D01*
X87554222Y-154276692D01*
X87506350Y-154254221D01*
X86582623Y-153139986D01*
X86505441Y-153065882D01*
X86413390Y-153007420D01*
X86310657Y-152973820D01*
X86206603Y-152962258D01*
X86173761Y-152961688D01*
X86059823Y-152970867D01*
X85958805Y-152999625D01*
X85873323Y-153049795D01*
X85805994Y-153123213D01*
X85759434Y-153221711D01*
X85738898Y-153319799D01*
X85734124Y-153405233D01*
X85734124Y-154900000D01*
X86232379Y-154900000D01*
X86232379Y-153615771D01*
X86279762Y-153562037D01*
X86324703Y-153587438D01*
X87363712Y-154791067D01*
X87446730Y-154859618D01*
X87545629Y-154905007D01*
X87647715Y-154926487D01*
X87733496Y-154931263D01*
X87834881Y-154918241D01*
X87927159Y-154877991D01*
X88004111Y-154808735D01*
X88059514Y-154708696D01*
X88084735Y-154600533D01*
X88089113Y-154524354D01*
X88089113Y-152992951D01*
G37*
G36*
X89868667Y-154900000D02*
G01*
X89994965Y-154895158D01*
X90106562Y-154880435D01*
X90203956Y-154855530D01*
X90312581Y-154805967D01*
X90398018Y-154737062D01*
X90461448Y-154648104D01*
X90504049Y-154538383D01*
X90523041Y-154442040D01*
X90531478Y-154333320D01*
X90532030Y-154294277D01*
X90532030Y-152992951D01*
X90022540Y-152992951D01*
X90022540Y-154237613D01*
X90000602Y-154340353D01*
X89917439Y-154405156D01*
X89834961Y-154415910D01*
X89048011Y-154415910D01*
X88949906Y-154398466D01*
X88879441Y-154323731D01*
X88865806Y-154237613D01*
X88865806Y-152992951D01*
X88356315Y-152992951D01*
X88356315Y-154294277D01*
X88361344Y-154407190D01*
X88376765Y-154507626D01*
X88414356Y-154622648D01*
X88472494Y-154716730D01*
X88552365Y-154790582D01*
X88655153Y-154844914D01*
X88782045Y-154880435D01*
X88893744Y-154895158D01*
X89020167Y-154900000D01*
X89868667Y-154900000D01*
G37*
G36*
X91888059Y-152963035D02*
G01*
X92000190Y-152978214D01*
X92100131Y-153010349D01*
X92188275Y-153059541D01*
X92265013Y-153125891D01*
X92330735Y-153209500D01*
X92385834Y-153310467D01*
X93069225Y-154814026D01*
X93100000Y-154900000D01*
X92528471Y-154900000D01*
X92506489Y-154834054D01*
X92405373Y-154598604D01*
X91285275Y-154598604D01*
X91187578Y-154831123D01*
X91167550Y-154900000D01*
X90582344Y-154900000D01*
X90613119Y-154814026D01*
X90898600Y-154180949D01*
X91470411Y-154180949D01*
X92220725Y-154180949D01*
X91929588Y-153505861D01*
X91926196Y-153498361D01*
X91842637Y-153447243D01*
X91839486Y-153447285D01*
X91758618Y-153505861D01*
X91470411Y-154180949D01*
X90898600Y-154180949D01*
X91291137Y-153310467D01*
X91311863Y-153267991D01*
X91370596Y-153173979D01*
X91439892Y-153097286D01*
X91520602Y-153037811D01*
X91613574Y-152995454D01*
X91719659Y-152970113D01*
X91839707Y-152961688D01*
X91888059Y-152963035D01*
G37*
G36*
X95157990Y-154900000D02*
G01*
X95157990Y-154415910D01*
X93844452Y-154415910D01*
X93747251Y-154401820D01*
X93684190Y-154321526D01*
X93676413Y-154234682D01*
X93676413Y-152992951D01*
X93166922Y-152992951D01*
X93166922Y-154283042D01*
X93171048Y-154393638D01*
X93183959Y-154493255D01*
X93216221Y-154609040D01*
X93267416Y-154705399D01*
X93339440Y-154782383D01*
X93434187Y-154840045D01*
X93553552Y-154878435D01*
X93660371Y-154894612D01*
X93782903Y-154900000D01*
X95157990Y-154900000D01*
G37*
G36*
X80287997Y-156352951D02*
G01*
X80287997Y-156854626D01*
X81119888Y-156854626D01*
X81119888Y-158260000D01*
X81629379Y-158260000D01*
X81629379Y-156854626D01*
X82458339Y-156854626D01*
X82458339Y-156352951D01*
X80287997Y-156352951D01*
G37*
G36*
X84229311Y-156357982D02*
G01*
X84337756Y-156376597D01*
X84445648Y-156414070D01*
X84535791Y-156466611D01*
X84610607Y-156532226D01*
X84673423Y-156611750D01*
X84721127Y-156701669D01*
X84751428Y-156799923D01*
X84762037Y-156904452D01*
X84761904Y-156918531D01*
X84750384Y-157028633D01*
X84717322Y-157131860D01*
X84658552Y-157224868D01*
X84582763Y-157295240D01*
X84616378Y-157317269D01*
X84688524Y-157385923D01*
X84736238Y-157475884D01*
X84758953Y-157578918D01*
X84764968Y-157689937D01*
X84764968Y-158076817D01*
X84766050Y-158156974D01*
X84773273Y-158260000D01*
X84260851Y-158260000D01*
X84257485Y-158232045D01*
X84252547Y-158131528D01*
X84252547Y-157744647D01*
X84230364Y-157642641D01*
X84149697Y-157584380D01*
X84044940Y-157572212D01*
X83163224Y-157572212D01*
X83163224Y-158260000D01*
X82656176Y-158260000D01*
X82656176Y-156868304D01*
X83163224Y-156868304D01*
X83163224Y-157141367D01*
X84059106Y-157141367D01*
X84116944Y-157134373D01*
X84201744Y-157079818D01*
X84203826Y-157077192D01*
X84238381Y-156982609D01*
X84237718Y-156967977D01*
X84196371Y-156876608D01*
X84157705Y-156847164D01*
X84059106Y-156826294D01*
X83205233Y-156826294D01*
X83163224Y-156868304D01*
X82656176Y-156868304D01*
X82656176Y-156470676D01*
X82687683Y-156382505D01*
X82782205Y-156352951D01*
X84126517Y-156352951D01*
X84229311Y-156357982D01*
G37*
G36*
X85015561Y-156352951D02*
G01*
X85015561Y-158260000D01*
X85525052Y-158260000D01*
X85525052Y-156352951D01*
X85015561Y-156352951D01*
G37*
G36*
X87675855Y-158260000D02*
G01*
X87769960Y-158226473D01*
X87796022Y-158139832D01*
X87796022Y-157215617D01*
X87291905Y-157215617D01*
X87291905Y-157730481D01*
X87255757Y-157770048D01*
X86771179Y-157770048D01*
X86661801Y-157761071D01*
X86555923Y-157731026D01*
X86468605Y-157683476D01*
X86390160Y-157613733D01*
X86330717Y-157531382D01*
X86290827Y-157436008D01*
X86273441Y-157331189D01*
X86272924Y-157309406D01*
X86285113Y-157204126D01*
X86319900Y-157106736D01*
X86374611Y-157020953D01*
X86412631Y-156979678D01*
X86497502Y-156916691D01*
X86592258Y-156877227D01*
X86695641Y-156858092D01*
X86771179Y-156854626D01*
X87793091Y-156854626D01*
X87793091Y-156352951D01*
X86771179Y-156352951D01*
X86660338Y-156357346D01*
X86556635Y-156370247D01*
X86459835Y-156391231D01*
X86348187Y-156428182D01*
X86246500Y-156476273D01*
X86154317Y-156534678D01*
X86071179Y-156602568D01*
X85988550Y-156689415D01*
X85917250Y-156786587D01*
X85858373Y-156892887D01*
X85820953Y-156983695D01*
X85792747Y-157078967D01*
X85774315Y-157178090D01*
X85766219Y-157280451D01*
X85765875Y-157306475D01*
X85772511Y-157423084D01*
X85791910Y-157535122D01*
X85823312Y-157641739D01*
X85865958Y-157742086D01*
X85919086Y-157835314D01*
X85981937Y-157920572D01*
X86009630Y-157952254D01*
X86096516Y-158036020D01*
X86194818Y-158108048D01*
X86281897Y-158156541D01*
X86376655Y-158196362D01*
X86479258Y-158226995D01*
X86589873Y-158247925D01*
X86708665Y-158258636D01*
X86771179Y-158260000D01*
X87675855Y-158260000D01*
G37*
G36*
X89934612Y-158260000D02*
G01*
X90028718Y-158226473D01*
X90054780Y-158139832D01*
X90054780Y-157215617D01*
X89550663Y-157215617D01*
X89550663Y-157730481D01*
X89514515Y-157770048D01*
X89029937Y-157770048D01*
X88920558Y-157761071D01*
X88814681Y-157731026D01*
X88727363Y-157683476D01*
X88648918Y-157613733D01*
X88589475Y-157531382D01*
X88549585Y-157436008D01*
X88532198Y-157331189D01*
X88531681Y-157309406D01*
X88543871Y-157204126D01*
X88578658Y-157106736D01*
X88633369Y-157020953D01*
X88671388Y-156979678D01*
X88756260Y-156916691D01*
X88851016Y-156877227D01*
X88954398Y-156858092D01*
X89029937Y-156854626D01*
X90051849Y-156854626D01*
X90051849Y-156352951D01*
X89029937Y-156352951D01*
X88919095Y-156357346D01*
X88815392Y-156370247D01*
X88718593Y-156391231D01*
X88606945Y-156428182D01*
X88505258Y-156476273D01*
X88413075Y-156534678D01*
X88329937Y-156602568D01*
X88247308Y-156689415D01*
X88176008Y-156786587D01*
X88117131Y-156892887D01*
X88079711Y-156983695D01*
X88051505Y-157078967D01*
X88033073Y-157178090D01*
X88024977Y-157280451D01*
X88024633Y-157306475D01*
X88031269Y-157423084D01*
X88050668Y-157535122D01*
X88082070Y-157641739D01*
X88124716Y-157742086D01*
X88177844Y-157835314D01*
X88240695Y-157920572D01*
X88268388Y-157952254D01*
X88355274Y-158036020D01*
X88453576Y-158108048D01*
X88540655Y-158156541D01*
X88635413Y-158196362D01*
X88738016Y-158226995D01*
X88848631Y-158247925D01*
X88967422Y-158258636D01*
X89029937Y-158260000D01*
X89934612Y-158260000D01*
G37*
G36*
X90591626Y-156352951D02*
G01*
X90486815Y-156365043D01*
X90398497Y-156408637D01*
X90339315Y-156495971D01*
X90322470Y-156607941D01*
X90322470Y-157997194D01*
X90335337Y-158100052D01*
X90381366Y-158186281D01*
X90472702Y-158243734D01*
X90572416Y-158259746D01*
X90588695Y-158260000D01*
X92313538Y-158260000D01*
X92313538Y-157775910D01*
X90874459Y-157775910D01*
X90829518Y-157722177D01*
X90829518Y-157478422D01*
X92305233Y-157478422D01*
X92305233Y-157114501D01*
X90829518Y-157114501D01*
X90829518Y-156901521D01*
X90874459Y-156854626D01*
X92313538Y-156854626D01*
X92313538Y-156352951D01*
X90591626Y-156352951D01*
G37*
G36*
X94124077Y-156357982D02*
G01*
X94232522Y-156376597D01*
X94340415Y-156414070D01*
X94430557Y-156466611D01*
X94505373Y-156532226D01*
X94568189Y-156611750D01*
X94615893Y-156701669D01*
X94646194Y-156799923D01*
X94656804Y-156904452D01*
X94656671Y-156918531D01*
X94645150Y-157028633D01*
X94612088Y-157131860D01*
X94553318Y-157224868D01*
X94477529Y-157295240D01*
X94511144Y-157317269D01*
X94583290Y-157385923D01*
X94631004Y-157475884D01*
X94653720Y-157578918D01*
X94659734Y-157689937D01*
X94659734Y-158076817D01*
X94660816Y-158156974D01*
X94668039Y-158260000D01*
X94155617Y-158260000D01*
X94152251Y-158232045D01*
X94147313Y-158131528D01*
X94147313Y-157744647D01*
X94125130Y-157642641D01*
X94044464Y-157584380D01*
X93939707Y-157572212D01*
X93057990Y-157572212D01*
X93057990Y-158260000D01*
X92550942Y-158260000D01*
X92550942Y-156868304D01*
X93057990Y-156868304D01*
X93057990Y-157141367D01*
X93953873Y-157141367D01*
X94011710Y-157134373D01*
X94096510Y-157079818D01*
X94098593Y-157077192D01*
X94133147Y-156982609D01*
X94132484Y-156967977D01*
X94091137Y-156876608D01*
X94052471Y-156847164D01*
X93953873Y-156826294D01*
X93100000Y-156826294D01*
X93057990Y-156868304D01*
X92550942Y-156868304D01*
X92550942Y-156470676D01*
X92582449Y-156382505D01*
X92676971Y-156352951D01*
X94021284Y-156352951D01*
X94124077Y-156357982D01*
G37*
D13*
G36*
X69027163Y-226355344D02*
G01*
X69027163Y-227202501D01*
X71693440Y-227202501D01*
X71880122Y-227193377D01*
X72077528Y-227159535D01*
X72247627Y-227102731D01*
X72413998Y-227010279D01*
X72548586Y-226892855D01*
X72565387Y-226874238D01*
X72672990Y-226716619D01*
X72740282Y-226556729D01*
X72779885Y-226381893D01*
X72791067Y-226219423D01*
X72778225Y-226048247D01*
X72731552Y-225860630D01*
X72652029Y-225689917D01*
X72540998Y-225540189D01*
X72443144Y-225448348D01*
X72282812Y-225345833D01*
X72109570Y-225279551D01*
X71928871Y-225242904D01*
X71748855Y-225228762D01*
X71683182Y-225227797D01*
X70100000Y-225227797D01*
X70031612Y-225149151D01*
X70061532Y-224805501D01*
X70124790Y-224743097D01*
X72667969Y-224743097D01*
X72667969Y-223865166D01*
X69507589Y-223865166D01*
X69337578Y-223896764D01*
X69209599Y-224016887D01*
X69169068Y-224184025D01*
X69095551Y-225526140D01*
X69128585Y-225704242D01*
X69265893Y-225816214D01*
X69394749Y-225834741D01*
X71590003Y-225834741D01*
X71759045Y-225863583D01*
X71825087Y-225908258D01*
X71893680Y-226071414D01*
X71894330Y-226092905D01*
X71840825Y-226260292D01*
X71825087Y-226277553D01*
X71667487Y-226350041D01*
X71590003Y-226355344D01*
X69027163Y-226355344D01*
G37*
G36*
X76336053Y-223825618D02*
G01*
X76507744Y-223881624D01*
X76659264Y-223985700D01*
X76709483Y-224040683D01*
X76797322Y-224201977D01*
X76839925Y-224384585D01*
X76850750Y-224564434D01*
X76850750Y-227202501D01*
X75958287Y-227202501D01*
X75958287Y-226718655D01*
X73650192Y-226718655D01*
X73478487Y-226707155D01*
X73299071Y-226656583D01*
X73155234Y-226551960D01*
X73133058Y-226524868D01*
X73055928Y-226365762D01*
X73032990Y-226189503D01*
X73055109Y-226039370D01*
X73132881Y-225891161D01*
X74390492Y-225891161D01*
X74444347Y-225944161D01*
X75958287Y-225944161D01*
X75958287Y-224928600D01*
X75884769Y-224832002D01*
X75806978Y-224861066D01*
X74424686Y-225837305D01*
X74390492Y-225891161D01*
X73132881Y-225891161D01*
X73135572Y-225886032D01*
X73216676Y-225797661D01*
X73356123Y-225686852D01*
X75713799Y-223976297D01*
X75833278Y-223899173D01*
X76001351Y-223830922D01*
X76174564Y-223810456D01*
X76336053Y-223825618D01*
G37*
G36*
X80068782Y-223873072D02*
G01*
X80243466Y-223903166D01*
X80426777Y-223966089D01*
X80587462Y-224058250D01*
X80724930Y-224178896D01*
X80839011Y-224329810D01*
X80914410Y-224487485D01*
X80960908Y-224667641D01*
X80974546Y-224843969D01*
X80973169Y-224897780D01*
X80947008Y-225076806D01*
X80888634Y-225238483D01*
X80784128Y-225397191D01*
X80641155Y-225522720D01*
X80747146Y-225593900D01*
X80865277Y-225727684D01*
X80948158Y-225893129D01*
X80995842Y-226081216D01*
X81008740Y-226253617D01*
X81002422Y-226363680D01*
X80961044Y-226551527D01*
X80884977Y-226722969D01*
X80778786Y-226874238D01*
X80653549Y-226994955D01*
X80501069Y-227091181D01*
X80317910Y-227159535D01*
X80133894Y-227193377D01*
X79959839Y-227202501D01*
X78289462Y-227202501D01*
X78115408Y-227193377D01*
X77931391Y-227159535D01*
X77748232Y-227091181D01*
X77595753Y-226994955D01*
X77470516Y-226874238D01*
X77396600Y-226775819D01*
X77309984Y-226610683D01*
X77256537Y-226427886D01*
X77240562Y-226253617D01*
X77246293Y-226137852D01*
X77252227Y-226107438D01*
X78171493Y-226107438D01*
X78173286Y-226140245D01*
X78239881Y-226298924D01*
X78330930Y-226368000D01*
X78499756Y-226398942D01*
X79749546Y-226398942D01*
X79858547Y-226387797D01*
X80009421Y-226298924D01*
X80028457Y-226272202D01*
X80077809Y-226107438D01*
X80076473Y-226081410D01*
X80004291Y-225921935D01*
X79921109Y-225857787D01*
X79749546Y-225826192D01*
X78499756Y-225826192D01*
X78402069Y-225834300D01*
X78245010Y-225921935D01*
X78229089Y-225941512D01*
X78171493Y-226107438D01*
X77252227Y-226107438D01*
X77283931Y-225944953D01*
X77356750Y-225772118D01*
X77464804Y-225628367D01*
X77608147Y-225522720D01*
X77568902Y-225494755D01*
X77435365Y-225360405D01*
X77340778Y-225194279D01*
X77291476Y-225027262D01*
X77285673Y-224963648D01*
X78191155Y-224963648D01*
X78250139Y-225128634D01*
X78323404Y-225194200D01*
X78494626Y-225232926D01*
X79754675Y-225232926D01*
X79855734Y-225221823D01*
X79999162Y-225128634D01*
X80058147Y-224963648D01*
X79999162Y-224798662D01*
X79925898Y-224736843D01*
X79754675Y-224698645D01*
X78494626Y-224698645D01*
X78402514Y-224707723D01*
X78250139Y-224798662D01*
X78191155Y-224963648D01*
X77285673Y-224963648D01*
X77274756Y-224843969D01*
X77288394Y-224667641D01*
X77334891Y-224487485D01*
X77410290Y-224329810D01*
X77524372Y-224178896D01*
X77640766Y-224073758D01*
X77798171Y-223977482D01*
X77978285Y-223910336D01*
X78150297Y-223876538D01*
X78338189Y-223865166D01*
X79911113Y-223865166D01*
X80068782Y-223873072D01*
G37*
D12*
G36*
X58830007Y-132831744D02*
G01*
X57838869Y-132831744D01*
X57729491Y-132823840D01*
X57623614Y-132796656D01*
X57536295Y-132752087D01*
X57457850Y-132683733D01*
X57398407Y-132601382D01*
X57358517Y-132506008D01*
X57341131Y-132401189D01*
X57340614Y-132379406D01*
X57352803Y-132274126D01*
X57387590Y-132176736D01*
X57442301Y-132090953D01*
X57480321Y-132049678D01*
X57565192Y-131986691D01*
X57659948Y-131947227D01*
X57763331Y-131928092D01*
X57838869Y-131924626D01*
X58830007Y-131924626D01*
X58830007Y-131422951D01*
X57838869Y-131422951D01*
X57728028Y-131427346D01*
X57624325Y-131440247D01*
X57527525Y-131461231D01*
X57415877Y-131498182D01*
X57314190Y-131546273D01*
X57222007Y-131604678D01*
X57138869Y-131672568D01*
X57056241Y-131759415D01*
X56984940Y-131856587D01*
X56926064Y-131962887D01*
X56888644Y-132053695D01*
X56860437Y-132148967D01*
X56842005Y-132248090D01*
X56833909Y-132350451D01*
X56833566Y-132376475D01*
X56840201Y-132493247D01*
X56859600Y-132605338D01*
X56891002Y-132711933D01*
X56933648Y-132812215D01*
X56986776Y-132905369D01*
X57049628Y-132990577D01*
X57077320Y-133022254D01*
X57164207Y-133106020D01*
X57262509Y-133178048D01*
X57349587Y-133226541D01*
X57444345Y-133266362D01*
X57546948Y-133296995D01*
X57657563Y-133317925D01*
X57776355Y-133328636D01*
X57838869Y-133330000D01*
X58830007Y-133330000D01*
X58830007Y-132831744D01*
G37*
G36*
X61047732Y-133330000D02*
G01*
X61047732Y-132845910D01*
X59734194Y-132845910D01*
X59636993Y-132831820D01*
X59573932Y-132751526D01*
X59566155Y-132664682D01*
X59566155Y-131422951D01*
X59056664Y-131422951D01*
X59056664Y-132713042D01*
X59060790Y-132823638D01*
X59073701Y-132923255D01*
X59105963Y-133039040D01*
X59157158Y-133135399D01*
X59229182Y-133212383D01*
X59323929Y-133270045D01*
X59443294Y-133308435D01*
X59550113Y-133324612D01*
X59672644Y-133330000D01*
X61047732Y-133330000D01*
G37*
G36*
X62636242Y-131427346D02*
G01*
X62739945Y-131440247D01*
X62836745Y-131461231D01*
X62948393Y-131498182D01*
X63050080Y-131546273D01*
X63142263Y-131604678D01*
X63225401Y-131672568D01*
X63242780Y-131689054D01*
X63323231Y-131778062D01*
X63392134Y-131877155D01*
X63448395Y-131985137D01*
X63483564Y-132077119D01*
X63509379Y-132173410D01*
X63525280Y-132273400D01*
X63530705Y-132376475D01*
X63529631Y-132423693D01*
X63517799Y-132538691D01*
X63493507Y-132648681D01*
X63457516Y-132752849D01*
X63410586Y-132850378D01*
X63353477Y-132940451D01*
X63286950Y-133022254D01*
X63236170Y-133073866D01*
X63142473Y-133150710D01*
X63059172Y-133203346D01*
X62968274Y-133247568D01*
X62869614Y-133282859D01*
X62763026Y-133308705D01*
X62648344Y-133324590D01*
X62525401Y-133330000D01*
X62127774Y-133330000D01*
X62065259Y-133328636D01*
X61946467Y-133317925D01*
X61835853Y-133296995D01*
X61733249Y-133266362D01*
X61638492Y-133226541D01*
X61551413Y-133178048D01*
X61453111Y-133106020D01*
X61366224Y-133022254D01*
X61338532Y-132990577D01*
X61275681Y-132905369D01*
X61222552Y-132812215D01*
X61179907Y-132711933D01*
X61148504Y-132605338D01*
X61129105Y-132493247D01*
X61122637Y-132379406D01*
X61629518Y-132379406D01*
X61630035Y-132401189D01*
X61647421Y-132506008D01*
X61687312Y-132601382D01*
X61746755Y-132683733D01*
X61825200Y-132752087D01*
X61912518Y-132796656D01*
X62018395Y-132823840D01*
X62127774Y-132831744D01*
X62525401Y-132831744D01*
X62634779Y-132823840D01*
X62740657Y-132796656D01*
X62827975Y-132752087D01*
X62906420Y-132683733D01*
X62919731Y-132668476D01*
X62975499Y-132583235D01*
X63011125Y-132485685D01*
X63023656Y-132379406D01*
X63019863Y-132320164D01*
X62994917Y-132218809D01*
X62948787Y-132127408D01*
X62883949Y-132049678D01*
X62817760Y-131997785D01*
X62727349Y-131954441D01*
X62628753Y-131931359D01*
X62525401Y-131924626D01*
X62127774Y-131924626D01*
X62052235Y-131928092D01*
X61948853Y-131947227D01*
X61854097Y-131986691D01*
X61769225Y-132049678D01*
X61731205Y-132090953D01*
X61676495Y-132176736D01*
X61641708Y-132274126D01*
X61629518Y-132379406D01*
X61122637Y-132379406D01*
X61122470Y-132376475D01*
X61122813Y-132350451D01*
X61130910Y-132248090D01*
X61149342Y-132148967D01*
X61177548Y-132053695D01*
X61214968Y-131962887D01*
X61273845Y-131856587D01*
X61345145Y-131759415D01*
X61427774Y-131672568D01*
X61510912Y-131604678D01*
X61603095Y-131546273D01*
X61704781Y-131498182D01*
X61816430Y-131461231D01*
X61913229Y-131440247D01*
X62016932Y-131427346D01*
X62127774Y-131422951D01*
X62525401Y-131422951D01*
X62636242Y-131427346D01*
G37*
G36*
X65727425Y-132831744D02*
G01*
X64736287Y-132831744D01*
X64626909Y-132823840D01*
X64521032Y-132796656D01*
X64433713Y-132752087D01*
X64355268Y-132683733D01*
X64295825Y-132601382D01*
X64255935Y-132506008D01*
X64238549Y-132401189D01*
X64238032Y-132379406D01*
X64250222Y-132274126D01*
X64285008Y-132176736D01*
X64339719Y-132090953D01*
X64377739Y-132049678D01*
X64462610Y-131986691D01*
X64557366Y-131947227D01*
X64660749Y-131928092D01*
X64736287Y-131924626D01*
X65727425Y-131924626D01*
X65727425Y-131422951D01*
X64736287Y-131422951D01*
X64625446Y-131427346D01*
X64521743Y-131440247D01*
X64424943Y-131461231D01*
X64313295Y-131498182D01*
X64211608Y-131546273D01*
X64119425Y-131604678D01*
X64036287Y-131672568D01*
X63953659Y-131759415D01*
X63882358Y-131856587D01*
X63823482Y-131962887D01*
X63786062Y-132053695D01*
X63757855Y-132148967D01*
X63739423Y-132248090D01*
X63731327Y-132350451D01*
X63730984Y-132376475D01*
X63737619Y-132493247D01*
X63757018Y-132605338D01*
X63788420Y-132711933D01*
X63831066Y-132812215D01*
X63884194Y-132905369D01*
X63947046Y-132990577D01*
X63974738Y-133022254D01*
X64061625Y-133106020D01*
X64159927Y-133178048D01*
X64247005Y-133226541D01*
X64341763Y-133266362D01*
X64444366Y-133296995D01*
X64554981Y-133317925D01*
X64673773Y-133328636D01*
X64736287Y-133330000D01*
X65727425Y-133330000D01*
X65727425Y-132831744D01*
G37*
G36*
X65965317Y-131422951D02*
G01*
X65965317Y-133330000D01*
X66477739Y-133330000D01*
X66477739Y-132486873D01*
X67384857Y-133251353D01*
X67458111Y-133318277D01*
X67468876Y-133330000D01*
X68225052Y-133330000D01*
X68154648Y-133261766D01*
X68152268Y-133259658D01*
X67035101Y-132348632D01*
X67018492Y-132317369D01*
X67035101Y-132286594D01*
X68076552Y-131473754D01*
X68127355Y-131422951D01*
X67418562Y-131422951D01*
X67348301Y-131495546D01*
X67340404Y-131502086D01*
X66477739Y-132204528D01*
X66477739Y-131422951D01*
X65965317Y-131422951D01*
G37*
G36*
X84532449Y-120472951D02*
G01*
X83143684Y-120472951D01*
X83033257Y-120477769D01*
X82919666Y-120495578D01*
X82824236Y-120525340D01*
X82732349Y-120573518D01*
X82647871Y-120643921D01*
X82580078Y-120728124D01*
X82529047Y-120824050D01*
X82496883Y-120929685D01*
X82485874Y-121028496D01*
X82485694Y-121043014D01*
X82493935Y-121147156D01*
X82517963Y-121243628D01*
X82563416Y-121343467D01*
X82626569Y-121431056D01*
X82644940Y-121450900D01*
X82730082Y-121521226D01*
X82822827Y-121569260D01*
X82918979Y-121598888D01*
X83033095Y-121616595D01*
X83143684Y-121621381D01*
X83913538Y-121621381D01*
X84013610Y-121637863D01*
X84047871Y-121663391D01*
X84086790Y-121755757D01*
X84086950Y-121763042D01*
X84056175Y-121848527D01*
X83965500Y-121892834D01*
X83913538Y-121895910D01*
X82536008Y-121895910D01*
X82536008Y-122380000D01*
X84003419Y-122380000D01*
X84103089Y-122374603D01*
X84209501Y-122354543D01*
X84302433Y-122320774D01*
X84395108Y-122265625D01*
X84472285Y-122195294D01*
X84482135Y-122184117D01*
X84540440Y-122103204D01*
X84584412Y-122013086D01*
X84612171Y-121916282D01*
X84621842Y-121815310D01*
X84610652Y-121707141D01*
X84578489Y-121604284D01*
X84527457Y-121509487D01*
X84459665Y-121425498D01*
X84375805Y-121355095D01*
X84287375Y-121306917D01*
X84183128Y-121273324D01*
X84079904Y-121257627D01*
X84003419Y-121254528D01*
X83171528Y-121254528D01*
X83075526Y-121235281D01*
X83062107Y-121224731D01*
X83016112Y-121138157D01*
X83014724Y-121117752D01*
X83044971Y-121023699D01*
X83053803Y-121013217D01*
X83144653Y-120975679D01*
X83171528Y-120974626D01*
X84532449Y-120974626D01*
X84532449Y-120472951D01*
G37*
G36*
X86804884Y-122380000D02*
G01*
X86804884Y-121895910D01*
X85491346Y-121895910D01*
X85394146Y-121881820D01*
X85331085Y-121801526D01*
X85323307Y-121714682D01*
X85323307Y-120472951D01*
X84813817Y-120472951D01*
X84813817Y-121763042D01*
X84817943Y-121873638D01*
X84830854Y-121973255D01*
X84863115Y-122089040D01*
X84914311Y-122185399D01*
X84986335Y-122262383D01*
X85081081Y-122320045D01*
X85200446Y-122358435D01*
X85307265Y-122374612D01*
X85429797Y-122380000D01*
X86804884Y-122380000D01*
G37*
G36*
X87266015Y-120472951D02*
G01*
X87161204Y-120485043D01*
X87072887Y-120528637D01*
X87013704Y-120615971D01*
X86996859Y-120727941D01*
X86996859Y-122117194D01*
X87009726Y-122220052D01*
X87055755Y-122306281D01*
X87147092Y-122363734D01*
X87246805Y-122379746D01*
X87263084Y-122380000D01*
X88987927Y-122380000D01*
X88987927Y-121895910D01*
X87548848Y-121895910D01*
X87503907Y-121842177D01*
X87503907Y-121598422D01*
X88979623Y-121598422D01*
X88979623Y-121234501D01*
X87503907Y-121234501D01*
X87503907Y-121021521D01*
X87548848Y-120974626D01*
X88987927Y-120974626D01*
X88987927Y-120472951D01*
X87266015Y-120472951D01*
G37*
G36*
X90843684Y-120883768D02*
G01*
X90905722Y-120939944D01*
X91177320Y-121988722D01*
X91210181Y-122088924D01*
X91264502Y-122194752D01*
X91333820Y-122279259D01*
X91418438Y-122342724D01*
X91518657Y-122385426D01*
X91634779Y-122407646D01*
X91712212Y-122411263D01*
X91832226Y-122403451D01*
X91936572Y-122380732D01*
X92045870Y-122333012D01*
X92132760Y-122265783D01*
X92198393Y-122181149D01*
X92243922Y-122081210D01*
X92266643Y-121991653D01*
X92518213Y-120563321D01*
X92527006Y-120472951D01*
X91997487Y-120472951D01*
X91992114Y-120546224D01*
X91776203Y-121845596D01*
X91709281Y-121910076D01*
X91641870Y-121851458D01*
X91359037Y-120816357D01*
X91320628Y-120708800D01*
X91269557Y-120619283D01*
X91188738Y-120535783D01*
X91102763Y-120486226D01*
X90997721Y-120454958D01*
X90898614Y-120443164D01*
X90843684Y-120441688D01*
X90736412Y-120447632D01*
X90621113Y-120472009D01*
X90524982Y-120515611D01*
X90446185Y-120578865D01*
X90382889Y-120662194D01*
X90333261Y-120766024D01*
X90309281Y-120838339D01*
X90020586Y-121851458D01*
X89953663Y-121910076D01*
X89886252Y-121846085D01*
X89687438Y-120556482D01*
X89682065Y-120472951D01*
X89147173Y-120472951D01*
X89155478Y-120563321D01*
X89390439Y-121988722D01*
X89418386Y-122096812D01*
X89465953Y-122193436D01*
X89534369Y-122275790D01*
X89624865Y-122341067D01*
X89738669Y-122386460D01*
X89847322Y-122406572D01*
X89939497Y-122411263D01*
X90043331Y-122405048D01*
X90158338Y-122379450D01*
X90257334Y-122333436D01*
X90340767Y-122266358D01*
X90409084Y-122177568D01*
X90462733Y-122066416D01*
X90488067Y-121988722D01*
X90782135Y-120939944D01*
X90843684Y-120883768D01*
G37*
G36*
X51160293Y-120472951D02*
G01*
X51160293Y-122380000D01*
X51669784Y-122380000D01*
X51669784Y-120472951D01*
X51160293Y-120472951D01*
G37*
G36*
X54302233Y-120472951D02*
G01*
X53806420Y-120472951D01*
X53806420Y-121705889D01*
X53767341Y-121756692D01*
X53719470Y-121734221D01*
X52795743Y-120619986D01*
X52718561Y-120545882D01*
X52626510Y-120487420D01*
X52523777Y-120453820D01*
X52419723Y-120442258D01*
X52386881Y-120441688D01*
X52272943Y-120450867D01*
X52171925Y-120479625D01*
X52086443Y-120529795D01*
X52019114Y-120603213D01*
X51972554Y-120701711D01*
X51952018Y-120799799D01*
X51947244Y-120885233D01*
X51947244Y-122380000D01*
X52445499Y-122380000D01*
X52445499Y-121095771D01*
X52492882Y-121042037D01*
X52537823Y-121067438D01*
X53576832Y-122271067D01*
X53659850Y-122339618D01*
X53758749Y-122385007D01*
X53860835Y-122406487D01*
X53946616Y-122411263D01*
X54048001Y-122398241D01*
X54140279Y-122357991D01*
X54217231Y-122288735D01*
X54272634Y-122188696D01*
X54297855Y-122080533D01*
X54302233Y-122004354D01*
X54302233Y-120472951D01*
G37*
G36*
X56054740Y-120476577D02*
G01*
X56163655Y-120490919D01*
X56260539Y-120515493D01*
X56362474Y-120557482D01*
X56450589Y-120611939D01*
X56526797Y-120677627D01*
X56550891Y-120702857D01*
X56615259Y-120785231D01*
X56667004Y-120876518D01*
X56705161Y-120975288D01*
X56728764Y-121080112D01*
X56736846Y-121189560D01*
X56733999Y-121254337D01*
X56715821Y-121364098D01*
X56681900Y-121467990D01*
X56633463Y-121564510D01*
X56571738Y-121652156D01*
X56546799Y-121680457D01*
X56462477Y-121757119D01*
X56380559Y-121810535D01*
X56287203Y-121853290D01*
X56181615Y-121884309D01*
X56063002Y-121902520D01*
X55958200Y-121907145D01*
X55087718Y-121907145D01*
X55087718Y-122380000D01*
X54580670Y-122380000D01*
X54580670Y-121015170D01*
X55087718Y-121015170D01*
X55087718Y-121442107D01*
X55969435Y-121442107D01*
X56009373Y-121440503D01*
X56111772Y-121414427D01*
X56188277Y-121349295D01*
X56212789Y-121307389D01*
X56232729Y-121210076D01*
X56226940Y-121153113D01*
X56185346Y-121061577D01*
X56159197Y-121034143D01*
X56067257Y-120986226D01*
X55969435Y-120974626D01*
X55123866Y-120974626D01*
X55087718Y-121015170D01*
X54580670Y-121015170D01*
X54580670Y-120590676D01*
X54608060Y-120506306D01*
X54703769Y-120472951D01*
X55958200Y-120472951D01*
X56054740Y-120476577D01*
G37*
G36*
X58442150Y-122380000D02*
G01*
X58568448Y-122375158D01*
X58680045Y-122360435D01*
X58777439Y-122335530D01*
X58886063Y-122285967D01*
X58971501Y-122217062D01*
X59034931Y-122128104D01*
X59077532Y-122018383D01*
X59096524Y-121922040D01*
X59104961Y-121813320D01*
X59105513Y-121774277D01*
X59105513Y-120472951D01*
X58596023Y-120472951D01*
X58596023Y-121717613D01*
X58574085Y-121820353D01*
X58490922Y-121885156D01*
X58408444Y-121895910D01*
X57621494Y-121895910D01*
X57523389Y-121878466D01*
X57452924Y-121803731D01*
X57439288Y-121717613D01*
X57439288Y-120472951D01*
X56929798Y-120472951D01*
X56929798Y-121774277D01*
X56934827Y-121887190D01*
X56950248Y-121987626D01*
X56987838Y-122102648D01*
X57045976Y-122196730D01*
X57125847Y-122270582D01*
X57228636Y-122324914D01*
X57355528Y-122360435D01*
X57467227Y-122375158D01*
X57593650Y-122380000D01*
X58442150Y-122380000D01*
G37*
G36*
X59289672Y-120472951D02*
G01*
X59289672Y-120974626D01*
X60121563Y-120974626D01*
X60121563Y-122380000D01*
X60631054Y-122380000D01*
X60631054Y-120974626D01*
X61460014Y-120974626D01*
X61460014Y-120472951D01*
X59289672Y-120472951D01*
G37*
G36*
X64765108Y-122380000D02*
G01*
X64765108Y-121895910D01*
X63451570Y-121895910D01*
X63354370Y-121881820D01*
X63291309Y-121801526D01*
X63283531Y-121714682D01*
X63283531Y-120472951D01*
X62774041Y-120472951D01*
X62774041Y-121763042D01*
X62778167Y-121873638D01*
X62791078Y-121973255D01*
X62823339Y-122089040D01*
X62874535Y-122185399D01*
X62946559Y-122262383D01*
X63041305Y-122320045D01*
X63160670Y-122358435D01*
X63267489Y-122374612D01*
X63390021Y-122380000D01*
X64765108Y-122380000D01*
G37*
G36*
X65226239Y-120472951D02*
G01*
X65121428Y-120485043D01*
X65033111Y-120528637D01*
X64973928Y-120615971D01*
X64957083Y-120727941D01*
X64957083Y-122117194D01*
X64969950Y-122220052D01*
X65015979Y-122306281D01*
X65107316Y-122363734D01*
X65207029Y-122379746D01*
X65223308Y-122380000D01*
X66948151Y-122380000D01*
X66948151Y-121895910D01*
X65509072Y-121895910D01*
X65464131Y-121842177D01*
X65464131Y-121598422D01*
X66939847Y-121598422D01*
X66939847Y-121234501D01*
X65464131Y-121234501D01*
X65464131Y-121021521D01*
X65509072Y-120974626D01*
X66948151Y-120974626D01*
X66948151Y-120472951D01*
X65226239Y-120472951D01*
G37*
G36*
X67812771Y-122062972D02*
G01*
X67867880Y-122164560D01*
X67933681Y-122248300D01*
X68010631Y-122314452D01*
X68099188Y-122363272D01*
X68199812Y-122395016D01*
X68312960Y-122409943D01*
X68361829Y-122411263D01*
X68480737Y-122402991D01*
X68586095Y-122378004D01*
X68678663Y-122336045D01*
X68759200Y-122276857D01*
X68828467Y-122200183D01*
X68887225Y-122105765D01*
X68907956Y-122062972D01*
X69585485Y-120557459D01*
X69616260Y-120472951D01*
X69025192Y-120472951D01*
X69002722Y-120540362D01*
X68442917Y-121852435D01*
X68364271Y-121911542D01*
X68283182Y-121852435D01*
X67717516Y-120540362D01*
X67697977Y-120472951D01*
X67098605Y-120472951D01*
X67129379Y-120557459D01*
X67812771Y-122062972D01*
G37*
G36*
X69987997Y-120472951D02*
G01*
X69883187Y-120485043D01*
X69794869Y-120528637D01*
X69735687Y-120615971D01*
X69718842Y-120727941D01*
X69718842Y-122117194D01*
X69731709Y-122220052D01*
X69777738Y-122306281D01*
X69869074Y-122363734D01*
X69968788Y-122379746D01*
X69985067Y-122380000D01*
X71709910Y-122380000D01*
X71709910Y-121895910D01*
X70270831Y-121895910D01*
X70225890Y-121842177D01*
X70225890Y-121598422D01*
X71701605Y-121598422D01*
X71701605Y-121234501D01*
X70225890Y-121234501D01*
X70225890Y-121021521D01*
X70270831Y-120974626D01*
X71709910Y-120974626D01*
X71709910Y-120472951D01*
X69987997Y-120472951D01*
G37*
G36*
X73927146Y-122380000D02*
G01*
X73927146Y-121895910D01*
X72613608Y-121895910D01*
X72516408Y-121881820D01*
X72453347Y-121801526D01*
X72445569Y-121714682D01*
X72445569Y-120472951D01*
X71936078Y-120472951D01*
X71936078Y-121763042D01*
X71940204Y-121873638D01*
X71953115Y-121973255D01*
X71985377Y-122089040D01*
X72036573Y-122185399D01*
X72108596Y-122262383D01*
X72203343Y-122320045D01*
X72322708Y-122358435D01*
X72429527Y-122374612D01*
X72552059Y-122380000D01*
X73927146Y-122380000D01*
G37*
G36*
X72175787Y-88427982D02*
G01*
X72284231Y-88446597D01*
X72392124Y-88484070D01*
X72482267Y-88536611D01*
X72557083Y-88602226D01*
X72619899Y-88681750D01*
X72667603Y-88771669D01*
X72697904Y-88869923D01*
X72708513Y-88974452D01*
X72708380Y-88988531D01*
X72696860Y-89098633D01*
X72663798Y-89201860D01*
X72605028Y-89294868D01*
X72529239Y-89365240D01*
X72562854Y-89387269D01*
X72635000Y-89455923D01*
X72682713Y-89545884D01*
X72705429Y-89648918D01*
X72711444Y-89759937D01*
X72711444Y-90146817D01*
X72712526Y-90226974D01*
X72719748Y-90330000D01*
X72207327Y-90330000D01*
X72203961Y-90302045D01*
X72199023Y-90201528D01*
X72199023Y-89814647D01*
X72176840Y-89712641D01*
X72096173Y-89654380D01*
X71991416Y-89642212D01*
X71109700Y-89642212D01*
X71109700Y-90330000D01*
X70602651Y-90330000D01*
X70602651Y-88938304D01*
X71109700Y-88938304D01*
X71109700Y-89211367D01*
X72005582Y-89211367D01*
X72063419Y-89204373D01*
X72148220Y-89149818D01*
X72150302Y-89147192D01*
X72184857Y-89052609D01*
X72184193Y-89037977D01*
X72142847Y-88946608D01*
X72104181Y-88917164D01*
X72005582Y-88896294D01*
X71151709Y-88896294D01*
X71109700Y-88938304D01*
X70602651Y-88938304D01*
X70602651Y-88540676D01*
X70634159Y-88452505D01*
X70728681Y-88422951D01*
X72072993Y-88422951D01*
X72175787Y-88427982D01*
G37*
G36*
X74177871Y-88393035D02*
G01*
X74290001Y-88408214D01*
X74389943Y-88440349D01*
X74478087Y-88489541D01*
X74554824Y-88555891D01*
X74620547Y-88639500D01*
X74675645Y-88740467D01*
X75359037Y-90244026D01*
X75389811Y-90330000D01*
X74818283Y-90330000D01*
X74796301Y-90264054D01*
X74695185Y-90028604D01*
X73575087Y-90028604D01*
X73477390Y-90261123D01*
X73457362Y-90330000D01*
X72872156Y-90330000D01*
X72902931Y-90244026D01*
X73188412Y-89610949D01*
X73760223Y-89610949D01*
X74510537Y-89610949D01*
X74219399Y-88935861D01*
X74216008Y-88928361D01*
X74132449Y-88877243D01*
X74129298Y-88877285D01*
X74048429Y-88935861D01*
X73760223Y-89610949D01*
X73188412Y-89610949D01*
X73580949Y-88740467D01*
X73601675Y-88697991D01*
X73660408Y-88603979D01*
X73729704Y-88527286D01*
X73810414Y-88467811D01*
X73903386Y-88425454D01*
X74009471Y-88400113D01*
X74129518Y-88391688D01*
X74177871Y-88393035D01*
G37*
G36*
X75083042Y-88422951D02*
G01*
X75083042Y-88924626D01*
X75914933Y-88924626D01*
X75914933Y-90330000D01*
X76424424Y-90330000D01*
X76424424Y-88924626D01*
X77253384Y-88924626D01*
X77253384Y-88422951D01*
X75083042Y-88422951D01*
G37*
G36*
X77717446Y-88422951D02*
G01*
X77612635Y-88435043D01*
X77524317Y-88478637D01*
X77465135Y-88565971D01*
X77448290Y-88677941D01*
X77448290Y-90067194D01*
X77461157Y-90170052D01*
X77507186Y-90256281D01*
X77598522Y-90313734D01*
X77698236Y-90329746D01*
X77714515Y-90330000D01*
X79439358Y-90330000D01*
X79439358Y-89845910D01*
X78000279Y-89845910D01*
X77955338Y-89792177D01*
X77955338Y-89548422D01*
X79431053Y-89548422D01*
X79431053Y-89184501D01*
X77955338Y-89184501D01*
X77955338Y-88971521D01*
X78000279Y-88924626D01*
X79439358Y-88924626D01*
X79439358Y-88422951D01*
X77717446Y-88422951D01*
G37*
G36*
X53257083Y-198472951D02*
G01*
X51868318Y-198472951D01*
X51757891Y-198477769D01*
X51644300Y-198495578D01*
X51548870Y-198525340D01*
X51456983Y-198573518D01*
X51372505Y-198643921D01*
X51304712Y-198728124D01*
X51253681Y-198824050D01*
X51221517Y-198929685D01*
X51210508Y-199028496D01*
X51210328Y-199043014D01*
X51218569Y-199147156D01*
X51242597Y-199243628D01*
X51288050Y-199343467D01*
X51351203Y-199431056D01*
X51369574Y-199450900D01*
X51454716Y-199521226D01*
X51547461Y-199569260D01*
X51643613Y-199598888D01*
X51757729Y-199616595D01*
X51868318Y-199621381D01*
X52638172Y-199621381D01*
X52738244Y-199637863D01*
X52772505Y-199663391D01*
X52811424Y-199755757D01*
X52811584Y-199763042D01*
X52780809Y-199848527D01*
X52690134Y-199892834D01*
X52638172Y-199895910D01*
X51260642Y-199895910D01*
X51260642Y-200380000D01*
X52728053Y-200380000D01*
X52827723Y-200374603D01*
X52934135Y-200354543D01*
X53027067Y-200320774D01*
X53119742Y-200265625D01*
X53196919Y-200195294D01*
X53206769Y-200184117D01*
X53265074Y-200103204D01*
X53309046Y-200013086D01*
X53336805Y-199916282D01*
X53346476Y-199815310D01*
X53335286Y-199707141D01*
X53303123Y-199604284D01*
X53252091Y-199509487D01*
X53184299Y-199425498D01*
X53100439Y-199355095D01*
X53012009Y-199306917D01*
X52907762Y-199273324D01*
X52804538Y-199257627D01*
X52728053Y-199254528D01*
X51896162Y-199254528D01*
X51800160Y-199235281D01*
X51786741Y-199224731D01*
X51740746Y-199138157D01*
X51739358Y-199117752D01*
X51769605Y-199023699D01*
X51778437Y-199013217D01*
X51869287Y-198975679D01*
X51896162Y-198974626D01*
X53257083Y-198974626D01*
X53257083Y-198472951D01*
G37*
G36*
X55529518Y-200380000D02*
G01*
X55529518Y-199895910D01*
X54215980Y-199895910D01*
X54118780Y-199881820D01*
X54055719Y-199801526D01*
X54047941Y-199714682D01*
X54047941Y-198472951D01*
X53538451Y-198472951D01*
X53538451Y-199763042D01*
X53542577Y-199873638D01*
X53555488Y-199973255D01*
X53587749Y-200089040D01*
X53638945Y-200185399D01*
X53710969Y-200262383D01*
X53805715Y-200320045D01*
X53925080Y-200358435D01*
X54031899Y-200374612D01*
X54154431Y-200380000D01*
X55529518Y-200380000D01*
G37*
G36*
X55990649Y-198472951D02*
G01*
X55885838Y-198485043D01*
X55797521Y-198528637D01*
X55738338Y-198615971D01*
X55721493Y-198727941D01*
X55721493Y-200117194D01*
X55734360Y-200220052D01*
X55780389Y-200306281D01*
X55871726Y-200363734D01*
X55971439Y-200379746D01*
X55987718Y-200380000D01*
X57712561Y-200380000D01*
X57712561Y-199895910D01*
X56273482Y-199895910D01*
X56228541Y-199842177D01*
X56228541Y-199598422D01*
X57704257Y-199598422D01*
X57704257Y-199234501D01*
X56228541Y-199234501D01*
X56228541Y-199021521D01*
X56273482Y-198974626D01*
X57712561Y-198974626D01*
X57712561Y-198472951D01*
X55990649Y-198472951D01*
G37*
G36*
X59568318Y-198883768D02*
G01*
X59630356Y-198939944D01*
X59901954Y-199988722D01*
X59934815Y-200088924D01*
X59989136Y-200194752D01*
X60058454Y-200279259D01*
X60143072Y-200342724D01*
X60243291Y-200385426D01*
X60359413Y-200407646D01*
X60436846Y-200411263D01*
X60556860Y-200403451D01*
X60661206Y-200380732D01*
X60770504Y-200333012D01*
X60857394Y-200265783D01*
X60923027Y-200181149D01*
X60968556Y-200081210D01*
X60991277Y-199991653D01*
X61242847Y-198563321D01*
X61251640Y-198472951D01*
X60722121Y-198472951D01*
X60716748Y-198546224D01*
X60500837Y-199845596D01*
X60433915Y-199910076D01*
X60366504Y-199851458D01*
X60083671Y-198816357D01*
X60045262Y-198708800D01*
X59994191Y-198619283D01*
X59913372Y-198535783D01*
X59827397Y-198486226D01*
X59722355Y-198454958D01*
X59623248Y-198443164D01*
X59568318Y-198441688D01*
X59461046Y-198447632D01*
X59345747Y-198472009D01*
X59249616Y-198515611D01*
X59170819Y-198578865D01*
X59107523Y-198662194D01*
X59057895Y-198766024D01*
X59033915Y-198838339D01*
X58745220Y-199851458D01*
X58678297Y-199910076D01*
X58610886Y-199846085D01*
X58412072Y-198556482D01*
X58406699Y-198472951D01*
X57871807Y-198472951D01*
X57880112Y-198563321D01*
X58115073Y-199988722D01*
X58143020Y-200096812D01*
X58190587Y-200193436D01*
X58259003Y-200275790D01*
X58349499Y-200341067D01*
X58463303Y-200386460D01*
X58571956Y-200406572D01*
X58664131Y-200411263D01*
X58767965Y-200405048D01*
X58882972Y-200379450D01*
X58981968Y-200333436D01*
X59065401Y-200266358D01*
X59133718Y-200177568D01*
X59187367Y-200066416D01*
X59212701Y-199988722D01*
X59506769Y-198939944D01*
X59568318Y-198883768D01*
G37*
G36*
X62581786Y-198472951D02*
G01*
X62581786Y-200380000D01*
X63091277Y-200380000D01*
X63091277Y-198472951D01*
X62581786Y-198472951D01*
G37*
G36*
X65723726Y-198472951D02*
G01*
X65227913Y-198472951D01*
X65227913Y-199705889D01*
X65188834Y-199756692D01*
X65140963Y-199734221D01*
X64217236Y-198619986D01*
X64140054Y-198545882D01*
X64048003Y-198487420D01*
X63945270Y-198453820D01*
X63841216Y-198442258D01*
X63808374Y-198441688D01*
X63694436Y-198450867D01*
X63593418Y-198479625D01*
X63507936Y-198529795D01*
X63440607Y-198603213D01*
X63394047Y-198701711D01*
X63373511Y-198799799D01*
X63368737Y-198885233D01*
X63368737Y-200380000D01*
X63866992Y-200380000D01*
X63866992Y-199095771D01*
X63914375Y-199042037D01*
X63959316Y-199067438D01*
X64998325Y-200271067D01*
X65081343Y-200339618D01*
X65180242Y-200385007D01*
X65282328Y-200406487D01*
X65368109Y-200411263D01*
X65469494Y-200398241D01*
X65561772Y-200357991D01*
X65638724Y-200288735D01*
X65694127Y-200188696D01*
X65719348Y-200080533D01*
X65723726Y-200004354D01*
X65723726Y-198472951D01*
G37*
G36*
X69666225Y-199881744D02*
G01*
X68675087Y-199881744D01*
X68565709Y-199873840D01*
X68459832Y-199846656D01*
X68372513Y-199802087D01*
X68294068Y-199733733D01*
X68234625Y-199651382D01*
X68194735Y-199556008D01*
X68177349Y-199451189D01*
X68176832Y-199429406D01*
X68189021Y-199324126D01*
X68223808Y-199226736D01*
X68278519Y-199140953D01*
X68316539Y-199099678D01*
X68401410Y-199036691D01*
X68496166Y-198997227D01*
X68599549Y-198978092D01*
X68675087Y-198974626D01*
X69666225Y-198974626D01*
X69666225Y-198472951D01*
X68675087Y-198472951D01*
X68564246Y-198477346D01*
X68460543Y-198490247D01*
X68363743Y-198511231D01*
X68252095Y-198548182D01*
X68150408Y-198596273D01*
X68058225Y-198654678D01*
X67975087Y-198722568D01*
X67892459Y-198809415D01*
X67821158Y-198906587D01*
X67762282Y-199012887D01*
X67724862Y-199103695D01*
X67696655Y-199198967D01*
X67678223Y-199298090D01*
X67670127Y-199400451D01*
X67669784Y-199426475D01*
X67676419Y-199543247D01*
X67695818Y-199655338D01*
X67727220Y-199761933D01*
X67769866Y-199862215D01*
X67822994Y-199955369D01*
X67885846Y-200040577D01*
X67913538Y-200072254D01*
X68000425Y-200156020D01*
X68098727Y-200228048D01*
X68185805Y-200276541D01*
X68280563Y-200316362D01*
X68383166Y-200346995D01*
X68493781Y-200367925D01*
X68612573Y-200378636D01*
X68675087Y-200380000D01*
X69666225Y-200380000D01*
X69666225Y-199881744D01*
G37*
G36*
X71883950Y-200380000D02*
G01*
X71883950Y-199895910D01*
X70570412Y-199895910D01*
X70473211Y-199881820D01*
X70410150Y-199801526D01*
X70402373Y-199714682D01*
X70402373Y-198472951D01*
X69892882Y-198472951D01*
X69892882Y-199763042D01*
X69897008Y-199873638D01*
X69909919Y-199973255D01*
X69942181Y-200089040D01*
X69993376Y-200185399D01*
X70065400Y-200262383D01*
X70160147Y-200320045D01*
X70279512Y-200358435D01*
X70386331Y-200374612D01*
X70508862Y-200380000D01*
X71883950Y-200380000D01*
G37*
G36*
X72078856Y-198472951D02*
G01*
X72078856Y-200380000D01*
X72591277Y-200380000D01*
X72591277Y-199536873D01*
X73498395Y-200301353D01*
X73571649Y-200368277D01*
X73582414Y-200380000D01*
X74338590Y-200380000D01*
X74268186Y-200311766D01*
X74265806Y-200309658D01*
X73148639Y-199398632D01*
X73132031Y-199367369D01*
X73148639Y-199336594D01*
X74190091Y-198523754D01*
X74240893Y-198472951D01*
X73532100Y-198472951D01*
X73461839Y-198545546D01*
X73453943Y-198552086D01*
X72591277Y-199254528D01*
X72591277Y-198472951D01*
X72078856Y-198472951D01*
G37*
G36*
X74542777Y-199887606D02*
G01*
X74542777Y-200380000D01*
X75052268Y-200380000D01*
X75052268Y-199887606D01*
X74542777Y-199887606D01*
G37*
G36*
X76714051Y-198477346D02*
G01*
X76817754Y-198490247D01*
X76914554Y-198511231D01*
X77026202Y-198548182D01*
X77127889Y-198596273D01*
X77220072Y-198654678D01*
X77303210Y-198722568D01*
X77320589Y-198739054D01*
X77401040Y-198828062D01*
X77469943Y-198927155D01*
X77526204Y-199035137D01*
X77561373Y-199127119D01*
X77587188Y-199223410D01*
X77603089Y-199323400D01*
X77608514Y-199426475D01*
X77607440Y-199473693D01*
X77595608Y-199588691D01*
X77571316Y-199698681D01*
X77535325Y-199802849D01*
X77488395Y-199900378D01*
X77431286Y-199990451D01*
X77364759Y-200072254D01*
X77313979Y-200123866D01*
X77220282Y-200200710D01*
X77136981Y-200253346D01*
X77046083Y-200297568D01*
X76947424Y-200332859D01*
X76840835Y-200358705D01*
X76726153Y-200374590D01*
X76603210Y-200380000D01*
X76205583Y-200380000D01*
X76143068Y-200378636D01*
X76024276Y-200367925D01*
X75913662Y-200346995D01*
X75811059Y-200316362D01*
X75716301Y-200276541D01*
X75629222Y-200228048D01*
X75530920Y-200156020D01*
X75444033Y-200072254D01*
X75416341Y-200040577D01*
X75353490Y-199955369D01*
X75300361Y-199862215D01*
X75257716Y-199761933D01*
X75226313Y-199655338D01*
X75206914Y-199543247D01*
X75200446Y-199429406D01*
X75707327Y-199429406D01*
X75707844Y-199451189D01*
X75725230Y-199556008D01*
X75765121Y-199651382D01*
X75824564Y-199733733D01*
X75903009Y-199802087D01*
X75990327Y-199846656D01*
X76096204Y-199873840D01*
X76205583Y-199881744D01*
X76603210Y-199881744D01*
X76712588Y-199873840D01*
X76818466Y-199846656D01*
X76905784Y-199802087D01*
X76984229Y-199733733D01*
X76997540Y-199718476D01*
X77053309Y-199633235D01*
X77088934Y-199535685D01*
X77101465Y-199429406D01*
X77097672Y-199370164D01*
X77072726Y-199268809D01*
X77026596Y-199177408D01*
X76961759Y-199099678D01*
X76895569Y-199047785D01*
X76805158Y-199004441D01*
X76706562Y-198981359D01*
X76603210Y-198974626D01*
X76205583Y-198974626D01*
X76130044Y-198978092D01*
X76026662Y-198997227D01*
X75931906Y-199036691D01*
X75847034Y-199099678D01*
X75809014Y-199140953D01*
X75754304Y-199226736D01*
X75719517Y-199324126D01*
X75707327Y-199429406D01*
X75200446Y-199429406D01*
X75200279Y-199426475D01*
X75200623Y-199400451D01*
X75208719Y-199298090D01*
X75227151Y-199198967D01*
X75255357Y-199103695D01*
X75292777Y-199012887D01*
X75351654Y-198906587D01*
X75422954Y-198809415D01*
X75505583Y-198722568D01*
X75588721Y-198654678D01*
X75680904Y-198596273D01*
X75782590Y-198548182D01*
X75894239Y-198511231D01*
X75991038Y-198490247D01*
X76094741Y-198477346D01*
X76205583Y-198472951D01*
X76603210Y-198472951D01*
X76714051Y-198477346D01*
G37*
G36*
X79351919Y-200380000D02*
G01*
X79478217Y-200375158D01*
X79589815Y-200360435D01*
X79687209Y-200335530D01*
X79795833Y-200285967D01*
X79881270Y-200217062D01*
X79944700Y-200128104D01*
X79987301Y-200018383D01*
X80006293Y-199922040D01*
X80014730Y-199813320D01*
X80015283Y-199774277D01*
X80015283Y-198472951D01*
X79505792Y-198472951D01*
X79505792Y-199717613D01*
X79483854Y-199820353D01*
X79400691Y-199885156D01*
X79318214Y-199895910D01*
X78531263Y-199895910D01*
X78433158Y-199878466D01*
X78362693Y-199803731D01*
X78349058Y-199717613D01*
X78349058Y-198472951D01*
X77839567Y-198472951D01*
X77839567Y-199774277D01*
X77844597Y-199887190D01*
X77860018Y-199987626D01*
X77897608Y-200102648D01*
X77955746Y-200196730D01*
X78035617Y-200270582D01*
X78138406Y-200324914D01*
X78265297Y-200360435D01*
X78376996Y-200375158D01*
X78503419Y-200380000D01*
X79351919Y-200380000D01*
G37*
G36*
X80199442Y-198472951D02*
G01*
X80199442Y-198974626D01*
X81031333Y-198974626D01*
X81031333Y-200380000D01*
X81540823Y-200380000D01*
X81540823Y-198974626D01*
X82369784Y-198974626D01*
X82369784Y-198472951D01*
X80199442Y-198472951D01*
G37*
G36*
X88532449Y-198472951D02*
G01*
X87143684Y-198472951D01*
X87033257Y-198477769D01*
X86919666Y-198495578D01*
X86824236Y-198525340D01*
X86732349Y-198573518D01*
X86647871Y-198643921D01*
X86580078Y-198728124D01*
X86529047Y-198824050D01*
X86496883Y-198929685D01*
X86485874Y-199028496D01*
X86485694Y-199043014D01*
X86493935Y-199147156D01*
X86517963Y-199243628D01*
X86563416Y-199343467D01*
X86626569Y-199431056D01*
X86644940Y-199450900D01*
X86730082Y-199521226D01*
X86822827Y-199569260D01*
X86918979Y-199598888D01*
X87033095Y-199616595D01*
X87143684Y-199621381D01*
X87913538Y-199621381D01*
X88013610Y-199637863D01*
X88047871Y-199663391D01*
X88086790Y-199755757D01*
X88086950Y-199763042D01*
X88056175Y-199848527D01*
X87965500Y-199892834D01*
X87913538Y-199895910D01*
X86536008Y-199895910D01*
X86536008Y-200380000D01*
X88003419Y-200380000D01*
X88103089Y-200374603D01*
X88209501Y-200354543D01*
X88302433Y-200320774D01*
X88395108Y-200265625D01*
X88472285Y-200195294D01*
X88482135Y-200184117D01*
X88540440Y-200103204D01*
X88584412Y-200013086D01*
X88612171Y-199916282D01*
X88621842Y-199815310D01*
X88610652Y-199707141D01*
X88578489Y-199604284D01*
X88527457Y-199509487D01*
X88459665Y-199425498D01*
X88375805Y-199355095D01*
X88287375Y-199306917D01*
X88183128Y-199273324D01*
X88079904Y-199257627D01*
X88003419Y-199254528D01*
X87171528Y-199254528D01*
X87075526Y-199235281D01*
X87062107Y-199224731D01*
X87016112Y-199138157D01*
X87014724Y-199117752D01*
X87044971Y-199023699D01*
X87053803Y-199013217D01*
X87144653Y-198975679D01*
X87171528Y-198974626D01*
X88532449Y-198974626D01*
X88532449Y-198472951D01*
G37*
G36*
X90804884Y-200380000D02*
G01*
X90804884Y-199895910D01*
X89491346Y-199895910D01*
X89394146Y-199881820D01*
X89331085Y-199801526D01*
X89323307Y-199714682D01*
X89323307Y-198472951D01*
X88813817Y-198472951D01*
X88813817Y-199763042D01*
X88817943Y-199873638D01*
X88830854Y-199973255D01*
X88863115Y-200089040D01*
X88914311Y-200185399D01*
X88986335Y-200262383D01*
X89081081Y-200320045D01*
X89200446Y-200358435D01*
X89307265Y-200374612D01*
X89429797Y-200380000D01*
X90804884Y-200380000D01*
G37*
G36*
X91266015Y-198472951D02*
G01*
X91161204Y-198485043D01*
X91072887Y-198528637D01*
X91013704Y-198615971D01*
X90996859Y-198727941D01*
X90996859Y-200117194D01*
X91009726Y-200220052D01*
X91055755Y-200306281D01*
X91147092Y-200363734D01*
X91246805Y-200379746D01*
X91263084Y-200380000D01*
X92987927Y-200380000D01*
X92987927Y-199895910D01*
X91548848Y-199895910D01*
X91503907Y-199842177D01*
X91503907Y-199598422D01*
X92979623Y-199598422D01*
X92979623Y-199234501D01*
X91503907Y-199234501D01*
X91503907Y-199021521D01*
X91548848Y-198974626D01*
X92987927Y-198974626D01*
X92987927Y-198472951D01*
X91266015Y-198472951D01*
G37*
G36*
X94843684Y-198883768D02*
G01*
X94905722Y-198939944D01*
X95177320Y-199988722D01*
X95210181Y-200088924D01*
X95264502Y-200194752D01*
X95333820Y-200279259D01*
X95418438Y-200342724D01*
X95518657Y-200385426D01*
X95634779Y-200407646D01*
X95712212Y-200411263D01*
X95832226Y-200403451D01*
X95936572Y-200380732D01*
X96045870Y-200333012D01*
X96132760Y-200265783D01*
X96198393Y-200181149D01*
X96243922Y-200081210D01*
X96266643Y-199991653D01*
X96518213Y-198563321D01*
X96527006Y-198472951D01*
X95997487Y-198472951D01*
X95992114Y-198546224D01*
X95776203Y-199845596D01*
X95709281Y-199910076D01*
X95641870Y-199851458D01*
X95359037Y-198816357D01*
X95320628Y-198708800D01*
X95269557Y-198619283D01*
X95188738Y-198535783D01*
X95102763Y-198486226D01*
X94997721Y-198454958D01*
X94898614Y-198443164D01*
X94843684Y-198441688D01*
X94736412Y-198447632D01*
X94621113Y-198472009D01*
X94524982Y-198515611D01*
X94446185Y-198578865D01*
X94382889Y-198662194D01*
X94333261Y-198766024D01*
X94309281Y-198838339D01*
X94020586Y-199851458D01*
X93953663Y-199910076D01*
X93886252Y-199846085D01*
X93687438Y-198556482D01*
X93682065Y-198472951D01*
X93147173Y-198472951D01*
X93155478Y-198563321D01*
X93390439Y-199988722D01*
X93418386Y-200096812D01*
X93465953Y-200193436D01*
X93534369Y-200275790D01*
X93624865Y-200341067D01*
X93738669Y-200386460D01*
X93847322Y-200406572D01*
X93939497Y-200411263D01*
X94043331Y-200405048D01*
X94158338Y-200379450D01*
X94257334Y-200333436D01*
X94340767Y-200266358D01*
X94409084Y-200177568D01*
X94462733Y-200066416D01*
X94488067Y-199988722D01*
X94782135Y-198939944D01*
X94843684Y-198883768D01*
G37*
G36*
X53392393Y-179972951D02*
G01*
X53392393Y-181880000D01*
X53901884Y-181880000D01*
X53901884Y-179972951D01*
X53392393Y-179972951D01*
G37*
G36*
X56534333Y-179972951D02*
G01*
X56038520Y-179972951D01*
X56038520Y-181205889D01*
X55999441Y-181256692D01*
X55951570Y-181234221D01*
X55027843Y-180119986D01*
X54950661Y-180045882D01*
X54858610Y-179987420D01*
X54755877Y-179953820D01*
X54651823Y-179942258D01*
X54618981Y-179941688D01*
X54505043Y-179950867D01*
X54404025Y-179979625D01*
X54318543Y-180029795D01*
X54251214Y-180103213D01*
X54204654Y-180201711D01*
X54184118Y-180299799D01*
X54179344Y-180385233D01*
X54179344Y-181880000D01*
X54677599Y-181880000D01*
X54677599Y-180595771D01*
X54724982Y-180542037D01*
X54769923Y-180567438D01*
X55808932Y-181771067D01*
X55891950Y-181839618D01*
X55990849Y-181885007D01*
X56092935Y-181906487D01*
X56178716Y-181911263D01*
X56280101Y-181898241D01*
X56372379Y-181857991D01*
X56449331Y-181788735D01*
X56504734Y-181688696D01*
X56529955Y-181580533D01*
X56534333Y-181504354D01*
X56534333Y-179972951D01*
G37*
G36*
X58286840Y-179976577D02*
G01*
X58395755Y-179990919D01*
X58492639Y-180015493D01*
X58594574Y-180057482D01*
X58682689Y-180111939D01*
X58758897Y-180177627D01*
X58782991Y-180202857D01*
X58847359Y-180285231D01*
X58899104Y-180376518D01*
X58937261Y-180475288D01*
X58960864Y-180580112D01*
X58968946Y-180689560D01*
X58966099Y-180754337D01*
X58947921Y-180864098D01*
X58914000Y-180967990D01*
X58865563Y-181064510D01*
X58803838Y-181152156D01*
X58778899Y-181180457D01*
X58694577Y-181257119D01*
X58612659Y-181310535D01*
X58519303Y-181353290D01*
X58413715Y-181384309D01*
X58295102Y-181402520D01*
X58190300Y-181407145D01*
X57319818Y-181407145D01*
X57319818Y-181880000D01*
X56812770Y-181880000D01*
X56812770Y-180515170D01*
X57319818Y-180515170D01*
X57319818Y-180942107D01*
X58201535Y-180942107D01*
X58241473Y-180940503D01*
X58343872Y-180914427D01*
X58420377Y-180849295D01*
X58444889Y-180807389D01*
X58464829Y-180710076D01*
X58459040Y-180653113D01*
X58417446Y-180561577D01*
X58391297Y-180534143D01*
X58299357Y-180486226D01*
X58201535Y-180474626D01*
X57355966Y-180474626D01*
X57319818Y-180515170D01*
X56812770Y-180515170D01*
X56812770Y-180090676D01*
X56840160Y-180006306D01*
X56935869Y-179972951D01*
X58190300Y-179972951D01*
X58286840Y-179976577D01*
G37*
G36*
X60674250Y-181880000D02*
G01*
X60800548Y-181875158D01*
X60912145Y-181860435D01*
X61009539Y-181835530D01*
X61118163Y-181785967D01*
X61203601Y-181717062D01*
X61267031Y-181628104D01*
X61309632Y-181518383D01*
X61328624Y-181422040D01*
X61337061Y-181313320D01*
X61337613Y-181274277D01*
X61337613Y-179972951D01*
X60828123Y-179972951D01*
X60828123Y-181217613D01*
X60806185Y-181320353D01*
X60723022Y-181385156D01*
X60640544Y-181395910D01*
X59853594Y-181395910D01*
X59755489Y-181378466D01*
X59685024Y-181303731D01*
X59671388Y-181217613D01*
X59671388Y-179972951D01*
X59161898Y-179972951D01*
X59161898Y-181274277D01*
X59166927Y-181387190D01*
X59182348Y-181487626D01*
X59219938Y-181602648D01*
X59278076Y-181696730D01*
X59357947Y-181770582D01*
X59460736Y-181824914D01*
X59587628Y-181860435D01*
X59699327Y-181875158D01*
X59825750Y-181880000D01*
X60674250Y-181880000D01*
G37*
G36*
X61521772Y-179972951D02*
G01*
X61521772Y-180474626D01*
X62353663Y-180474626D01*
X62353663Y-181880000D01*
X62863154Y-181880000D01*
X62863154Y-180474626D01*
X63692114Y-180474626D01*
X63692114Y-179972951D01*
X61521772Y-179972951D01*
G37*
G36*
X56002681Y-216976577D02*
G01*
X56111597Y-216990919D01*
X56208480Y-217015493D01*
X56310415Y-217057482D01*
X56398531Y-217111939D01*
X56474738Y-217177627D01*
X56498832Y-217202857D01*
X56563200Y-217285231D01*
X56614945Y-217376518D01*
X56653102Y-217475288D01*
X56676705Y-217580112D01*
X56684787Y-217689560D01*
X56681940Y-217754337D01*
X56663762Y-217864098D01*
X56629841Y-217967990D01*
X56581404Y-218064510D01*
X56519679Y-218152156D01*
X56494741Y-218180457D01*
X56410419Y-218257119D01*
X56328500Y-218310535D01*
X56235144Y-218353290D01*
X56129556Y-218384309D01*
X56010943Y-218402520D01*
X55906141Y-218407145D01*
X55035660Y-218407145D01*
X55035660Y-218880000D01*
X54528611Y-218880000D01*
X54528611Y-217515170D01*
X55035660Y-217515170D01*
X55035660Y-217942107D01*
X55917376Y-217942107D01*
X55957314Y-217940503D01*
X56059713Y-217914427D01*
X56136218Y-217849295D01*
X56160731Y-217807389D01*
X56180670Y-217710076D01*
X56174882Y-217653113D01*
X56133287Y-217561577D01*
X56107138Y-217534143D01*
X56015198Y-217486226D01*
X55917376Y-217474626D01*
X55071808Y-217474626D01*
X55035660Y-217515170D01*
X54528611Y-217515170D01*
X54528611Y-217090676D01*
X54556002Y-217006306D01*
X54651710Y-216972951D01*
X55906141Y-216972951D01*
X56002681Y-216976577D01*
G37*
G36*
X56891905Y-216972951D02*
G01*
X56891905Y-218880000D01*
X57401396Y-218880000D01*
X57401396Y-216972951D01*
X56891905Y-216972951D01*
G37*
G36*
X60033845Y-216972951D02*
G01*
X59538032Y-216972951D01*
X59538032Y-218205889D01*
X59498953Y-218256692D01*
X59451082Y-218234221D01*
X58527355Y-217119986D01*
X58450173Y-217045882D01*
X58358122Y-216987420D01*
X58255389Y-216953820D01*
X58151335Y-216942258D01*
X58118493Y-216941688D01*
X58004554Y-216950867D01*
X57903536Y-216979625D01*
X57818055Y-217029795D01*
X57750726Y-217103213D01*
X57704166Y-217201711D01*
X57683630Y-217299799D01*
X57678856Y-217385233D01*
X57678856Y-218880000D01*
X58177111Y-218880000D01*
X58177111Y-217595771D01*
X58224494Y-217542037D01*
X58269435Y-217567438D01*
X59308444Y-218771067D01*
X59391462Y-218839618D01*
X59490361Y-218885007D01*
X59592447Y-218906487D01*
X59678228Y-218911263D01*
X59779612Y-218898241D01*
X59871891Y-218857991D01*
X59948843Y-218788735D01*
X60004246Y-218688696D01*
X60029467Y-218580533D01*
X60033845Y-218504354D01*
X60033845Y-216972951D01*
G37*
G36*
X60312282Y-216972951D02*
G01*
X60312282Y-218880000D01*
X60824704Y-218880000D01*
X60824704Y-218036873D01*
X61731821Y-218801353D01*
X61805076Y-218868277D01*
X61815841Y-218880000D01*
X62572017Y-218880000D01*
X62501612Y-218811766D01*
X62499232Y-218809658D01*
X61382066Y-217898632D01*
X61365457Y-217867369D01*
X61382066Y-217836594D01*
X62423517Y-217023754D01*
X62474320Y-216972951D01*
X61765527Y-216972951D01*
X61695266Y-217045546D01*
X61687369Y-217052086D01*
X60824704Y-217754528D01*
X60824704Y-216972951D01*
X60312282Y-216972951D01*
G37*
G36*
X71137544Y-217383768D02*
G01*
X71199581Y-217439944D01*
X71471179Y-218488722D01*
X71504040Y-218588924D01*
X71558361Y-218694752D01*
X71627679Y-218779259D01*
X71712297Y-218842724D01*
X71812516Y-218885426D01*
X71928639Y-218907646D01*
X72006071Y-218911263D01*
X72126085Y-218903451D01*
X72230431Y-218880732D01*
X72339729Y-218833012D01*
X72426619Y-218765783D01*
X72492252Y-218681149D01*
X72537781Y-218581210D01*
X72560502Y-218491653D01*
X72812072Y-217063321D01*
X72820865Y-216972951D01*
X72291347Y-216972951D01*
X72285973Y-217046224D01*
X72070063Y-218345596D01*
X72003140Y-218410076D01*
X71935729Y-218351458D01*
X71652896Y-217316357D01*
X71614488Y-217208800D01*
X71563416Y-217119283D01*
X71482598Y-217035783D01*
X71396623Y-216986226D01*
X71291581Y-216954958D01*
X71192474Y-216943164D01*
X71137544Y-216941688D01*
X71030271Y-216947632D01*
X70914972Y-216972009D01*
X70818841Y-217015611D01*
X70740045Y-217078865D01*
X70676749Y-217162194D01*
X70627120Y-217266024D01*
X70603140Y-217338339D01*
X70314445Y-218351458D01*
X70247523Y-218410076D01*
X70180112Y-218346085D01*
X69981298Y-217056482D01*
X69975925Y-216972951D01*
X69441033Y-216972951D01*
X69449337Y-217063321D01*
X69684299Y-218488722D01*
X69712246Y-218596812D01*
X69759812Y-218693436D01*
X69828228Y-218775790D01*
X69918724Y-218841067D01*
X70032529Y-218886460D01*
X70141182Y-218906572D01*
X70233356Y-218911263D01*
X70337190Y-218905048D01*
X70452197Y-218879450D01*
X70551194Y-218833436D01*
X70634627Y-218766358D01*
X70702944Y-218677568D01*
X70756592Y-218566416D01*
X70781926Y-218488722D01*
X71075994Y-217439944D01*
X71137544Y-217383768D01*
G37*
G36*
X74661479Y-216972951D02*
G01*
X74661479Y-217660739D01*
X73533077Y-217660739D01*
X73533077Y-216972951D01*
X73023587Y-216972951D01*
X73023587Y-218880000D01*
X73533077Y-218880000D01*
X73533077Y-218137013D01*
X74661479Y-218137013D01*
X74661479Y-218880000D01*
X75171458Y-218880000D01*
X75171458Y-216972951D01*
X74661479Y-216972951D01*
G37*
G36*
X75458199Y-216972951D02*
G01*
X75458199Y-218880000D01*
X75967690Y-218880000D01*
X75967690Y-216972951D01*
X75458199Y-216972951D01*
G37*
G36*
X76166504Y-216972951D02*
G01*
X76166504Y-217474626D01*
X76998395Y-217474626D01*
X76998395Y-218880000D01*
X77507885Y-218880000D01*
X77507885Y-217474626D01*
X78336846Y-217474626D01*
X78336846Y-216972951D01*
X76166504Y-216972951D01*
G37*
G36*
X78800907Y-216972951D02*
G01*
X78696096Y-216985043D01*
X78607779Y-217028637D01*
X78548597Y-217115971D01*
X78531751Y-217227941D01*
X78531751Y-218617194D01*
X78544619Y-218720052D01*
X78590647Y-218806281D01*
X78681984Y-218863734D01*
X78781697Y-218879746D01*
X78797976Y-218880000D01*
X80522819Y-218880000D01*
X80522819Y-218395910D01*
X79083740Y-218395910D01*
X79038800Y-218342177D01*
X79038800Y-218098422D01*
X80514515Y-218098422D01*
X80514515Y-217734501D01*
X79038800Y-217734501D01*
X79038800Y-217521521D01*
X79083740Y-217474626D01*
X80522819Y-217474626D01*
X80522819Y-216972951D01*
X78800907Y-216972951D01*
G37*
G36*
X88665531Y-216977469D02*
G01*
X88765333Y-216994665D01*
X88870015Y-217030622D01*
X88961689Y-217083285D01*
X89039986Y-217152226D01*
X89105483Y-217238462D01*
X89148699Y-217328562D01*
X89175314Y-217431508D01*
X89183113Y-217532267D01*
X89182326Y-217563017D01*
X89167377Y-217665317D01*
X89134020Y-217757704D01*
X89074303Y-217848394D01*
X88992603Y-217920125D01*
X89053007Y-217960799D01*
X89120459Y-218037247D01*
X89167890Y-218131787D01*
X89195240Y-218239266D01*
X89202652Y-218337780D01*
X89199010Y-218400673D01*
X89175198Y-218508015D01*
X89131536Y-218605981D01*
X89070761Y-218692421D01*
X88999398Y-218761402D01*
X88912310Y-218816388D01*
X88807655Y-218855448D01*
X88702575Y-218874786D01*
X88603280Y-218880000D01*
X87222820Y-218880000D01*
X87132359Y-218853938D01*
X87096790Y-218759832D01*
X87096790Y-218377836D01*
X87603350Y-218377836D01*
X87642917Y-218420823D01*
X88482624Y-218420823D01*
X88545009Y-218414455D01*
X88631124Y-218363670D01*
X88642165Y-218348400D01*
X88670203Y-218254249D01*
X88669439Y-218239376D01*
X88628193Y-218148248D01*
X88580660Y-218111592D01*
X88482624Y-218093538D01*
X87603350Y-218093538D01*
X87603350Y-218377836D01*
X87096790Y-218377836D01*
X87096790Y-217492212D01*
X87603350Y-217492212D01*
X87603350Y-217754528D01*
X88485555Y-217754528D01*
X88543318Y-217748184D01*
X88625751Y-217694933D01*
X88659456Y-217600655D01*
X88625751Y-217506378D01*
X88583499Y-217471053D01*
X88485555Y-217449225D01*
X87642917Y-217449225D01*
X87603350Y-217492212D01*
X87096790Y-217492212D01*
X87096790Y-217090676D01*
X87128298Y-217002505D01*
X87222820Y-216972951D01*
X88575437Y-216972951D01*
X88665531Y-216977469D01*
G37*
G36*
X91377390Y-218880000D02*
G01*
X91377390Y-218395910D01*
X90063852Y-218395910D01*
X89966652Y-218381820D01*
X89903591Y-218301526D01*
X89895813Y-218214682D01*
X89895813Y-216972951D01*
X89386323Y-216972951D01*
X89386323Y-218263042D01*
X89390449Y-218373638D01*
X89403360Y-218473255D01*
X89435622Y-218589040D01*
X89486817Y-218685399D01*
X89558841Y-218762383D01*
X89653588Y-218820045D01*
X89772952Y-218858435D01*
X89879771Y-218874612D01*
X90002303Y-218880000D01*
X91377390Y-218880000D01*
G37*
G36*
X93028472Y-218880000D02*
G01*
X93154770Y-218875158D01*
X93266368Y-218860435D01*
X93363762Y-218835530D01*
X93472386Y-218785967D01*
X93557823Y-218717062D01*
X93621253Y-218628104D01*
X93663855Y-218518383D01*
X93682846Y-218422040D01*
X93691283Y-218313320D01*
X93691836Y-218274277D01*
X93691836Y-216972951D01*
X93182345Y-216972951D01*
X93182345Y-218217613D01*
X93160407Y-218320353D01*
X93077244Y-218385156D01*
X92994767Y-218395910D01*
X92207816Y-218395910D01*
X92109711Y-218378466D01*
X92039246Y-218303731D01*
X92025611Y-218217613D01*
X92025611Y-216972951D01*
X91516120Y-216972951D01*
X91516120Y-218274277D01*
X91521150Y-218387190D01*
X91536571Y-218487626D01*
X91574161Y-218602648D01*
X91632299Y-218696730D01*
X91712170Y-218770582D01*
X91814959Y-218824914D01*
X91941850Y-218860435D01*
X92053549Y-218875158D01*
X92179972Y-218880000D01*
X93028472Y-218880000D01*
G37*
G36*
X94226239Y-216972951D02*
G01*
X94121428Y-216985043D01*
X94033111Y-217028637D01*
X93973929Y-217115971D01*
X93957083Y-217227941D01*
X93957083Y-218617194D01*
X93969951Y-218720052D01*
X94015979Y-218806281D01*
X94107316Y-218863734D01*
X94207029Y-218879746D01*
X94223308Y-218880000D01*
X95948151Y-218880000D01*
X95948151Y-218395910D01*
X94509072Y-218395910D01*
X94464132Y-218342177D01*
X94464132Y-218098422D01*
X95939847Y-218098422D01*
X95939847Y-217734501D01*
X94464132Y-217734501D01*
X94464132Y-217521521D01*
X94509072Y-217474626D01*
X95948151Y-217474626D01*
X95948151Y-216972951D01*
X94226239Y-216972951D01*
G37*
G36*
X68137264Y-179972951D02*
G01*
X68032453Y-179985043D01*
X67944136Y-180028637D01*
X67884954Y-180115971D01*
X67868108Y-180227941D01*
X67868108Y-181617194D01*
X67880976Y-181720052D01*
X67927004Y-181806281D01*
X68018341Y-181863734D01*
X68118054Y-181879746D01*
X68134333Y-181880000D01*
X69859176Y-181880000D01*
X69859176Y-181395910D01*
X68420097Y-181395910D01*
X68375157Y-181342177D01*
X68375157Y-181098422D01*
X69850872Y-181098422D01*
X69850872Y-180734501D01*
X68375157Y-180734501D01*
X68375157Y-180521521D01*
X68420097Y-180474626D01*
X69859176Y-180474626D01*
X69859176Y-179972951D01*
X68137264Y-179972951D01*
G37*
G36*
X71969923Y-179972951D02*
G01*
X71916678Y-180034989D01*
X71387648Y-180548876D01*
X70886462Y-180034989D01*
X70838590Y-179972951D01*
X70133217Y-179972951D01*
X70186462Y-180034989D01*
X71032030Y-180861995D01*
X70054570Y-181820893D01*
X70004256Y-181880000D01*
X70670551Y-181880000D01*
X70720865Y-181823824D01*
X71356873Y-181191723D01*
X71958688Y-181823824D01*
X72003628Y-181880000D01*
X72729030Y-181880000D01*
X72681158Y-181820893D01*
X71723726Y-180861995D01*
X72572226Y-180034989D01*
X72627913Y-179972951D01*
X71969923Y-179972951D01*
G37*
G36*
X72834054Y-179972951D02*
G01*
X72834054Y-180474626D01*
X73665945Y-180474626D01*
X73665945Y-181880000D01*
X74175436Y-181880000D01*
X74175436Y-180474626D01*
X75004396Y-180474626D01*
X75004396Y-179972951D01*
X72834054Y-179972951D01*
G37*
G36*
X74903279Y-181387606D02*
G01*
X74903279Y-181880000D01*
X75412770Y-181880000D01*
X75412770Y-181387606D01*
X74903279Y-181387606D01*
G37*
G36*
X77557222Y-181381744D02*
G01*
X76566085Y-181381744D01*
X76456706Y-181373840D01*
X76350829Y-181346656D01*
X76263511Y-181302087D01*
X76185066Y-181233733D01*
X76125623Y-181151382D01*
X76085733Y-181056008D01*
X76068346Y-180951189D01*
X76067829Y-180929406D01*
X76080019Y-180824126D01*
X76114806Y-180726736D01*
X76169517Y-180640953D01*
X76207536Y-180599678D01*
X76292408Y-180536691D01*
X76387164Y-180497227D01*
X76490546Y-180478092D01*
X76566085Y-180474626D01*
X77557222Y-180474626D01*
X77557222Y-179972951D01*
X76566085Y-179972951D01*
X76455243Y-179977346D01*
X76351540Y-179990247D01*
X76254741Y-180011231D01*
X76143093Y-180048182D01*
X76041406Y-180096273D01*
X75949223Y-180154678D01*
X75866085Y-180222568D01*
X75783456Y-180309415D01*
X75712156Y-180406587D01*
X75653279Y-180512887D01*
X75615859Y-180603695D01*
X75587653Y-180698967D01*
X75569221Y-180798090D01*
X75561125Y-180900451D01*
X75560781Y-180926475D01*
X75567416Y-181043247D01*
X75586815Y-181155338D01*
X75618218Y-181261933D01*
X75660864Y-181362215D01*
X75713992Y-181455369D01*
X75776843Y-181540577D01*
X75804536Y-181572254D01*
X75891422Y-181656020D01*
X75989724Y-181728048D01*
X76076803Y-181776541D01*
X76171561Y-181816362D01*
X76274164Y-181846995D01*
X76384778Y-181867925D01*
X76503570Y-181878636D01*
X76566085Y-181880000D01*
X77557222Y-181880000D01*
X77557222Y-181381744D01*
G37*
G36*
X79774947Y-181880000D02*
G01*
X79774947Y-181395910D01*
X78461409Y-181395910D01*
X78364209Y-181381820D01*
X78301148Y-181301526D01*
X78293370Y-181214682D01*
X78293370Y-179972951D01*
X77783880Y-179972951D01*
X77783880Y-181263042D01*
X77788006Y-181373638D01*
X77800917Y-181473255D01*
X77833178Y-181589040D01*
X77884374Y-181685399D01*
X77956397Y-181762383D01*
X78051144Y-181820045D01*
X78170509Y-181858435D01*
X78277328Y-181874612D01*
X78399860Y-181880000D01*
X79774947Y-181880000D01*
G37*
G36*
X79969853Y-179972951D02*
G01*
X79969853Y-181880000D01*
X80482275Y-181880000D01*
X80482275Y-181036873D01*
X81389393Y-181801353D01*
X81462647Y-181868277D01*
X81473412Y-181880000D01*
X82229588Y-181880000D01*
X82159183Y-181811766D01*
X82156804Y-181809658D01*
X81039637Y-180898632D01*
X81023028Y-180867369D01*
X81039637Y-180836594D01*
X82081088Y-180023754D01*
X82131891Y-179972951D01*
X81423098Y-179972951D01*
X81352837Y-180045546D01*
X81344940Y-180052086D01*
X80482275Y-180754528D01*
X80482275Y-179972951D01*
X79969853Y-179972951D01*
G37*
G36*
X89985206Y-179972951D02*
G01*
X88596441Y-179972951D01*
X88486014Y-179977769D01*
X88372423Y-179995578D01*
X88276993Y-180025340D01*
X88185106Y-180073518D01*
X88100628Y-180143921D01*
X88032835Y-180228124D01*
X87981804Y-180324050D01*
X87949640Y-180429685D01*
X87938631Y-180528496D01*
X87938451Y-180543014D01*
X87946692Y-180647156D01*
X87970720Y-180743628D01*
X88016173Y-180843467D01*
X88079326Y-180931056D01*
X88097697Y-180950900D01*
X88182839Y-181021226D01*
X88275584Y-181069260D01*
X88371736Y-181098888D01*
X88485852Y-181116595D01*
X88596441Y-181121381D01*
X89366295Y-181121381D01*
X89466367Y-181137863D01*
X89500628Y-181163391D01*
X89539547Y-181255757D01*
X89539707Y-181263042D01*
X89508932Y-181348527D01*
X89418257Y-181392834D01*
X89366295Y-181395910D01*
X87988765Y-181395910D01*
X87988765Y-181880000D01*
X89456176Y-181880000D01*
X89555846Y-181874603D01*
X89662258Y-181854543D01*
X89755190Y-181820774D01*
X89847865Y-181765625D01*
X89925042Y-181695294D01*
X89934892Y-181684117D01*
X89993197Y-181603204D01*
X90037169Y-181513086D01*
X90064928Y-181416282D01*
X90074599Y-181315310D01*
X90063409Y-181207141D01*
X90031246Y-181104284D01*
X89980214Y-181009487D01*
X89912422Y-180925498D01*
X89828562Y-180855095D01*
X89740132Y-180806917D01*
X89635885Y-180773324D01*
X89532661Y-180757627D01*
X89456176Y-180754528D01*
X88624285Y-180754528D01*
X88528283Y-180735281D01*
X88514864Y-180724731D01*
X88468869Y-180638157D01*
X88467481Y-180617752D01*
X88497728Y-180523699D01*
X88506560Y-180513217D01*
X88597410Y-180475679D01*
X88624285Y-180474626D01*
X89985206Y-180474626D01*
X89985206Y-179972951D01*
G37*
G36*
X91692759Y-179973401D02*
G01*
X91797390Y-179983957D01*
X91906369Y-180015774D01*
X91991762Y-180066603D01*
X92064075Y-180150158D01*
X92104620Y-180255387D01*
X92115004Y-180357390D01*
X92110222Y-180426816D01*
X92080104Y-180534206D01*
X92024934Y-180623645D01*
X91947780Y-180695132D01*
X91851710Y-180748667D01*
X91563015Y-180870788D01*
X91834613Y-181109169D01*
X92036357Y-180924521D01*
X92081298Y-180870788D01*
X92669435Y-180870788D01*
X92654202Y-180892552D01*
X92582484Y-180964089D01*
X92139916Y-181381256D01*
X92610328Y-181798911D01*
X92619521Y-181806794D01*
X92688974Y-181880000D01*
X92030984Y-181880000D01*
X91986043Y-181832616D01*
X91812142Y-181681186D01*
X91780506Y-181707891D01*
X91688266Y-181774899D01*
X91596695Y-181823720D01*
X91501506Y-181856249D01*
X91398408Y-181874377D01*
X91283112Y-181880000D01*
X90734543Y-181880000D01*
X90670395Y-181877597D01*
X90554529Y-181858831D01*
X90455233Y-181822451D01*
X90354404Y-181754037D01*
X90279445Y-181662328D01*
X90238096Y-181573765D01*
X90213292Y-181472997D01*
X90205024Y-181361228D01*
X90207351Y-181296588D01*
X90207854Y-181293328D01*
X90787299Y-181293328D01*
X90789449Y-181321919D01*
X90845331Y-181405484D01*
X90944103Y-181426685D01*
X91280182Y-181426685D01*
X91289248Y-181426652D01*
X91392787Y-181418373D01*
X91490230Y-181384187D01*
X91134613Y-181063740D01*
X90896720Y-181162903D01*
X90831401Y-181202453D01*
X90787299Y-181293328D01*
X90207854Y-181293328D01*
X90222877Y-181195990D01*
X90264519Y-181087361D01*
X90322004Y-181007213D01*
X90403479Y-180936772D01*
X90488000Y-180887581D01*
X90591417Y-180844898D01*
X90821005Y-180765764D01*
X90728681Y-180683698D01*
X90714049Y-180670504D01*
X90639963Y-180596166D01*
X90580289Y-180516785D01*
X90538590Y-180418606D01*
X90536158Y-180396957D01*
X91092603Y-180396957D01*
X91092913Y-180408417D01*
X91142917Y-180493189D01*
X91266504Y-180601144D01*
X91478995Y-180530314D01*
X91543779Y-180505055D01*
X91599651Y-180419427D01*
X91583026Y-180354548D01*
X91487788Y-180320265D01*
X91229867Y-180320265D01*
X91164437Y-180324387D01*
X91092603Y-180396957D01*
X90536158Y-180396957D01*
X90526937Y-180314891D01*
X90532433Y-180253496D01*
X90570031Y-180149211D01*
X90632992Y-180070950D01*
X90726792Y-180011136D01*
X90830201Y-179980972D01*
X90930426Y-179972951D01*
X91664131Y-179972951D01*
X91692759Y-179973401D01*
G37*
G36*
X94480251Y-179972951D02*
G01*
X94480251Y-180660739D01*
X93351849Y-180660739D01*
X93351849Y-179972951D01*
X92842359Y-179972951D01*
X92842359Y-181880000D01*
X93351849Y-181880000D01*
X93351849Y-181137013D01*
X94480251Y-181137013D01*
X94480251Y-181880000D01*
X94990230Y-181880000D01*
X94990230Y-179972951D01*
X94480251Y-179972951D01*
G37*
D14*
%TO.C,H7*%
X80000002Y-108250000D02*
X75500000Y-108250000D01*
X81006990Y-104496229D02*
X77105715Y-102253433D01*
X81006990Y-112003772D02*
X77105773Y-114246669D01*
X83746228Y-101756990D02*
X81503331Y-97855773D01*
X83746229Y-114743010D02*
X81503433Y-118644285D01*
X87500000Y-100750000D02*
X87500000Y-96250000D01*
X91253771Y-101756990D02*
X93496567Y-97855715D01*
X91253772Y-114743010D02*
X93496669Y-118644227D01*
X93993010Y-104496228D02*
X97894227Y-102253331D01*
X93993010Y-112003771D02*
X97894285Y-114246567D01*
X95000000Y-108250000D02*
X99500000Y-108250000D01*
%TO.C,H6*%
X55000002Y-108250000D02*
X50500000Y-108250000D01*
X56006990Y-104496229D02*
X52105715Y-102253433D01*
X56006990Y-112003772D02*
X52105773Y-114246669D01*
X58746228Y-101756990D02*
X56503331Y-97855773D01*
X58746229Y-114743010D02*
X56503433Y-118644285D01*
X62500000Y-100750000D02*
X62500000Y-96250000D01*
X66253771Y-101756990D02*
X68496567Y-97855715D01*
X66253772Y-114743010D02*
X68496669Y-118644227D01*
X68993010Y-104496228D02*
X72894227Y-102253331D01*
X68993010Y-112003771D02*
X72894285Y-114246567D01*
X70000000Y-108250000D02*
X74500000Y-108250000D01*
%TO.C,H5*%
X59408660Y-62004996D02*
X67204331Y-66502498D01*
X59408661Y-79995006D02*
X67204332Y-75497502D01*
D15*
X60577752Y-69500415D02*
X59577703Y-69446703D01*
X60579238Y-72513781D02*
X59584382Y-72618213D01*
X60810173Y-68016912D02*
X59831249Y-67811116D01*
X60815004Y-74005963D02*
X59836414Y-74213337D01*
X61204495Y-66535245D02*
X60252774Y-66227232D01*
X61204744Y-75465516D02*
X60253041Y-75773582D01*
X61749397Y-76888244D02*
X60835266Y-77294461D01*
X61753066Y-65103499D02*
X60839190Y-64696713D01*
X63266381Y-62481070D02*
X62456906Y-61893369D01*
X63272245Y-79526998D02*
X62463173Y-80115257D01*
X64217811Y-61304930D02*
X63473973Y-60636090D01*
X64234319Y-80713397D02*
X63491620Y-81383502D01*
X65286603Y-60234319D02*
X64616498Y-59491620D01*
X65304930Y-81782189D02*
X64636090Y-82526027D01*
D14*
X66000000Y-71000000D02*
X57000000Y-71000000D01*
X66004994Y-55408661D02*
X70502498Y-63204332D01*
X66004996Y-86591340D02*
X70502498Y-78795669D01*
D15*
X66473002Y-59272245D02*
X65884743Y-58463173D01*
X66481070Y-82733619D02*
X65893369Y-83543094D01*
X69111756Y-57749397D02*
X68705539Y-56835266D01*
X70534484Y-57204744D02*
X70226418Y-56253041D01*
X71994037Y-56815004D02*
X71786663Y-55836414D01*
X73486219Y-56579238D02*
X73381787Y-55584382D01*
D14*
X75000000Y-62000000D02*
X75000000Y-53000000D01*
D15*
X76499585Y-56577752D02*
X76553297Y-55577703D01*
X77983088Y-56810173D02*
X78188884Y-55831249D01*
X79464755Y-57204495D02*
X79772768Y-56252774D01*
X80896501Y-57753066D02*
X81303287Y-56839190D01*
X83518930Y-59266381D02*
X84106631Y-58456906D01*
X83526998Y-82727755D02*
X84115257Y-83536827D01*
D14*
X83995004Y-55408660D02*
X79497502Y-63204331D01*
X83995006Y-86591339D02*
X79497502Y-78795668D01*
X84000000Y-71000000D02*
X93000000Y-71000000D01*
D15*
X84695070Y-60217811D02*
X85363910Y-59473973D01*
X84713397Y-81765681D02*
X85383502Y-82508380D01*
X85765681Y-61286603D02*
X86508380Y-60616498D01*
X85782189Y-80695070D02*
X86526027Y-81363910D01*
X86727755Y-62473002D02*
X87536827Y-61884743D01*
X86733619Y-79518930D02*
X87543094Y-80106631D01*
X88246934Y-76896501D02*
X89160810Y-77303287D01*
X88250603Y-65111756D02*
X89164734Y-64705539D01*
X88795256Y-66534484D02*
X89746959Y-66226418D01*
X88795505Y-75464755D02*
X89747226Y-75772768D01*
X89184996Y-67994037D02*
X90163586Y-67786663D01*
X89189827Y-73983088D02*
X90168751Y-74188884D01*
X89420762Y-69486219D02*
X90415618Y-69381787D01*
X89422248Y-72499585D02*
X90422297Y-72553297D01*
D14*
X90591339Y-62004994D02*
X82795668Y-66502498D01*
X90591340Y-79995004D02*
X82795669Y-75497502D01*
D16*
%TO.C,H19*%
G36*
X68500000Y-190250000D02*
G01*
X68500000Y-190250000D01*
G75*
G03*
X75000000Y-196750000I6500000J0D01*
G01*
X69500000Y-196750000D01*
X68500000Y-195750000D01*
X68500000Y-190250000D01*
G37*
G36*
X75000000Y-183750000D02*
G01*
X75000000Y-183750000D01*
G75*
G03*
X68500000Y-190250000I0J-6500000D01*
G01*
X68500000Y-184750000D01*
X69500000Y-183750000D01*
X75000000Y-183750000D01*
G37*
G36*
X81500000Y-195750000D02*
G01*
X80500000Y-196750000D01*
X75000000Y-196750000D01*
G75*
G03*
X81500000Y-190250000I0J6500000D01*
G01*
X81500000Y-195750000D01*
G37*
G36*
X81500000Y-184750000D02*
G01*
X81500000Y-190250000D01*
G75*
G03*
X75000000Y-183750000I-6500000J0D01*
G01*
X80500000Y-183750000D01*
X81500000Y-184750000D01*
G37*
%TO.C,H12*%
G36*
X85000000Y-190250000D02*
G01*
X85000000Y-190250000D01*
G75*
G03*
X91500000Y-196750000I6500000J0D01*
G01*
X86000000Y-196750000D01*
X85000000Y-195750000D01*
X85000000Y-190250000D01*
G37*
G36*
X91500000Y-183750000D02*
G01*
X91500000Y-183750000D01*
G75*
G03*
X85000000Y-190250000I0J-6500000D01*
G01*
X85000000Y-184750000D01*
X86000000Y-183750000D01*
X91500000Y-183750000D01*
G37*
G36*
X98000000Y-195750000D02*
G01*
X97000000Y-196750000D01*
X91500000Y-196750000D01*
G75*
G03*
X98000000Y-190250000I0J6500000D01*
G01*
X98000000Y-195750000D01*
G37*
G36*
X98000000Y-184750000D02*
G01*
X98000000Y-190250000D01*
G75*
G03*
X91500000Y-183750000I-6500000J0D01*
G01*
X97000000Y-183750000D01*
X98000000Y-184750000D01*
G37*
%TO.C,H14*%
G36*
X52000000Y-208750000D02*
G01*
X52000000Y-208750000D01*
G75*
G03*
X58500000Y-215250000I6500000J0D01*
G01*
X53000000Y-215250000D01*
X52000000Y-214250000D01*
X52000000Y-208750000D01*
G37*
G36*
X58500000Y-202250000D02*
G01*
X58500000Y-202250000D01*
G75*
G03*
X52000000Y-208750000I0J-6500000D01*
G01*
X52000000Y-203250000D01*
X53000000Y-202250000D01*
X58500000Y-202250000D01*
G37*
G36*
X65000000Y-214250000D02*
G01*
X64000000Y-215250000D01*
X58500000Y-215250000D01*
G75*
G03*
X65000000Y-208750000I0J6500000D01*
G01*
X65000000Y-214250000D01*
G37*
G36*
X65000000Y-203250000D02*
G01*
X65000000Y-208750000D01*
G75*
G03*
X58500000Y-202250000I-6500000J0D01*
G01*
X64000000Y-202250000D01*
X65000000Y-203250000D01*
G37*
%TO.C,H13*%
G36*
X68500000Y-208750000D02*
G01*
X68500000Y-208750000D01*
G75*
G03*
X75000000Y-215250000I6500000J0D01*
G01*
X69500000Y-215250000D01*
X68500000Y-214250000D01*
X68500000Y-208750000D01*
G37*
G36*
X75000000Y-202250000D02*
G01*
X75000000Y-202250000D01*
G75*
G03*
X68500000Y-208750000I0J-6500000D01*
G01*
X68500000Y-203250000D01*
X69500000Y-202250000D01*
X75000000Y-202250000D01*
G37*
G36*
X81500000Y-214250000D02*
G01*
X80500000Y-215250000D01*
X75000000Y-215250000D01*
G75*
G03*
X81500000Y-208750000I0J6500000D01*
G01*
X81500000Y-214250000D01*
G37*
G36*
X81500000Y-203250000D02*
G01*
X81500000Y-208750000D01*
G75*
G03*
X75000000Y-202250000I-6500000J0D01*
G01*
X80500000Y-202250000D01*
X81500000Y-203250000D01*
G37*
%TO.C,H15*%
G36*
X85000000Y-208750000D02*
G01*
X85000000Y-208750000D01*
G75*
G03*
X91500000Y-215250000I6500000J0D01*
G01*
X86000000Y-215250000D01*
X85000000Y-214250000D01*
X85000000Y-208750000D01*
G37*
G36*
X91500000Y-202250000D02*
G01*
X91500000Y-202250000D01*
G75*
G03*
X85000000Y-208750000I0J-6500000D01*
G01*
X85000000Y-203250000D01*
X86000000Y-202250000D01*
X91500000Y-202250000D01*
G37*
G36*
X98000000Y-214250000D02*
G01*
X97000000Y-215250000D01*
X91500000Y-215250000D01*
G75*
G03*
X98000000Y-208750000I0J6500000D01*
G01*
X98000000Y-214250000D01*
G37*
G36*
X98000000Y-203250000D02*
G01*
X98000000Y-208750000D01*
G75*
G03*
X91500000Y-202250000I-6500000J0D01*
G01*
X97000000Y-202250000D01*
X98000000Y-203250000D01*
G37*
%TO.C,H11*%
G36*
X85000000Y-171750000D02*
G01*
X85000000Y-171750000D01*
G75*
G03*
X91500000Y-178250000I6500000J0D01*
G01*
X86000000Y-178250000D01*
X85000000Y-177250000D01*
X85000000Y-171750000D01*
G37*
G36*
X91500000Y-165250000D02*
G01*
X91500000Y-165250000D01*
G75*
G03*
X85000000Y-171750000I0J-6500000D01*
G01*
X85000000Y-166250000D01*
X86000000Y-165250000D01*
X91500000Y-165250000D01*
G37*
G36*
X98000000Y-177250000D02*
G01*
X97000000Y-178250000D01*
X91500000Y-178250000D01*
G75*
G03*
X98000000Y-171750000I0J6500000D01*
G01*
X98000000Y-177250000D01*
G37*
G36*
X98000000Y-166250000D02*
G01*
X98000000Y-171750000D01*
G75*
G03*
X91500000Y-165250000I-6500000J0D01*
G01*
X97000000Y-165250000D01*
X98000000Y-166250000D01*
G37*
%TD*%
%LPC*%
D17*
%TO.C,H7*%
X87500000Y-108250000D03*
D18*
X87500000Y-114250000D03*
%TD*%
D17*
%TO.C,H6*%
X62500000Y-108250000D03*
D18*
X62500000Y-114250000D03*
%TD*%
D17*
%TO.C,H5*%
X75000000Y-71000000D03*
D18*
X75000000Y-77000000D03*
%TD*%
D19*
%TO.C,H10*%
X52800000Y-190250000D03*
X54460000Y-186220000D03*
X54470000Y-194290000D03*
X58500000Y-184550000D03*
D17*
X58500000Y-190250000D03*
D19*
X58500000Y-195950000D03*
X62530000Y-194290000D03*
X62540000Y-186220000D03*
X64200000Y-190250000D03*
%TD*%
D20*
%TO.C,H3*%
X53500000Y-226500000D03*
%TD*%
D19*
%TO.C,H19*%
X69300000Y-190250000D03*
X70960000Y-186220000D03*
X70970000Y-194290000D03*
X75000000Y-184550000D03*
D17*
X75000000Y-190250000D03*
D19*
X75000000Y-195950000D03*
X79030000Y-194290000D03*
X79040000Y-186220000D03*
X80700000Y-190250000D03*
%TD*%
D21*
%TO.C,H16*%
X75000000Y-47500000D03*
%TD*%
D19*
%TO.C,H12*%
X85800000Y-190250000D03*
X87460000Y-186220000D03*
X87470000Y-194290000D03*
X91500000Y-184550000D03*
D17*
X91500000Y-190250000D03*
D19*
X91500000Y-195950000D03*
X95530000Y-194290000D03*
X95540000Y-186220000D03*
X97200000Y-190250000D03*
%TD*%
%TO.C,H8*%
X52800000Y-171750000D03*
X54460000Y-167720000D03*
X54470000Y-175790000D03*
X58500000Y-166050000D03*
D17*
X58500000Y-171750000D03*
D19*
X58500000Y-177450000D03*
X62530000Y-175790000D03*
X62540000Y-167720000D03*
X64200000Y-171750000D03*
%TD*%
D22*
%TO.C,H18*%
X62500000Y-136100000D03*
D23*
X62500000Y-142500000D03*
%TD*%
D19*
%TO.C,H14*%
X52800000Y-208750000D03*
X54460000Y-204720000D03*
X54470000Y-212790000D03*
X58500000Y-203050000D03*
D17*
X58500000Y-208750000D03*
D19*
X58500000Y-214450000D03*
X62530000Y-212790000D03*
X62540000Y-204720000D03*
X64200000Y-208750000D03*
%TD*%
D20*
%TO.C,H2*%
X96500000Y-33500000D03*
%TD*%
%TO.C,H4*%
X96500000Y-226500000D03*
%TD*%
D19*
%TO.C,H13*%
X69300000Y-208750000D03*
X70960000Y-204720000D03*
X70970000Y-212790000D03*
X75000000Y-203050000D03*
D17*
X75000000Y-208750000D03*
D19*
X75000000Y-214450000D03*
X79030000Y-212790000D03*
X79040000Y-204720000D03*
X80700000Y-208750000D03*
%TD*%
D20*
%TO.C,H1*%
X53500000Y-33500000D03*
%TD*%
D19*
%TO.C,H15*%
X85800000Y-208750000D03*
X87460000Y-204720000D03*
X87470000Y-212790000D03*
X91500000Y-203050000D03*
D17*
X91500000Y-208750000D03*
D19*
X91500000Y-214450000D03*
X95530000Y-212790000D03*
X95540000Y-204720000D03*
X97200000Y-208750000D03*
%TD*%
%TO.C,H9*%
X69300000Y-171750000D03*
X70960000Y-167720000D03*
X70970000Y-175790000D03*
X75000000Y-166050000D03*
D17*
X75000000Y-171750000D03*
D19*
X75000000Y-177450000D03*
X79030000Y-175790000D03*
X79040000Y-167720000D03*
X80700000Y-171750000D03*
%TD*%
%TO.C,H11*%
X85800000Y-171750000D03*
X87460000Y-167720000D03*
X87470000Y-175790000D03*
X91500000Y-166050000D03*
D17*
X91500000Y-171750000D03*
D19*
X91500000Y-177450000D03*
X95530000Y-175790000D03*
X95540000Y-167720000D03*
X97200000Y-171750000D03*
%TD*%
%LPD*%
M02*
