%TF.GenerationSoftware,KiCad,Pcbnew,8.0.5*%
%TF.CreationDate,2024-12-04T18:31:37+01:00*%
%TF.ProjectId,DMH_S_H_Noise_PANEL,444d485f-535f-4485-9f4e-6f6973655f50,rev?*%
%TF.SameCoordinates,Original*%
%TF.FileFunction,Legend,Bot*%
%TF.FilePolarity,Positive*%
%FSLAX46Y46*%
G04 Gerber Fmt 4.6, Leading zero omitted, Abs format (unit mm)*
G04 Created by KiCad (PCBNEW 8.0.5) date 2024-12-04 18:31:37*
%MOMM*%
%LPD*%
G01*
G04 APERTURE LIST*
%ADD10C,0.100000*%
%ADD11C,0.300000*%
%ADD12C,12.000000*%
%ADD13O,2.500000X1.500000*%
%ADD14C,0.500000*%
%ADD15C,4.000000*%
%ADD16C,3.100000*%
%ADD17C,2.900000*%
%ADD18C,13.000000*%
%ADD19R,5.000000X10.000000*%
G04 APERTURE END LIST*
D10*
X70000000Y-225450000D02*
X80000000Y-225450000D01*
X80000000Y-227450000D01*
X70000000Y-227450000D01*
X70000000Y-225450000D01*
G36*
X70000000Y-225450000D02*
G01*
X80000000Y-225450000D01*
X80000000Y-227450000D01*
X70000000Y-227450000D01*
X70000000Y-225450000D01*
G37*
D11*
X88857141Y-223628328D02*
X88857141Y-222128328D01*
X88857141Y-222128328D02*
X88357141Y-223199757D01*
X88357141Y-223199757D02*
X87857141Y-222128328D01*
X87857141Y-222128328D02*
X87857141Y-223628328D01*
X87142855Y-223628328D02*
X87142855Y-222128328D01*
X86999998Y-223056900D02*
X86571426Y-223628328D01*
X86571426Y-222628328D02*
X87142855Y-223199757D01*
X85142854Y-223628328D02*
X85999997Y-223628328D01*
X85571426Y-223628328D02*
X85571426Y-222128328D01*
X85571426Y-222128328D02*
X85714283Y-222342614D01*
X85714283Y-222342614D02*
X85857140Y-222485471D01*
X85857140Y-222485471D02*
X85999997Y-222556900D01*
X84499998Y-223485471D02*
X84428569Y-223556900D01*
X84428569Y-223556900D02*
X84499998Y-223628328D01*
X84499998Y-223628328D02*
X84571426Y-223556900D01*
X84571426Y-223556900D02*
X84499998Y-223485471D01*
X84499998Y-223485471D02*
X84499998Y-223628328D01*
X83499997Y-222128328D02*
X83357140Y-222128328D01*
X83357140Y-222128328D02*
X83214283Y-222199757D01*
X83214283Y-222199757D02*
X83142855Y-222271185D01*
X83142855Y-222271185D02*
X83071426Y-222414042D01*
X83071426Y-222414042D02*
X82999997Y-222699757D01*
X82999997Y-222699757D02*
X82999997Y-223056900D01*
X82999997Y-223056900D02*
X83071426Y-223342614D01*
X83071426Y-223342614D02*
X83142855Y-223485471D01*
X83142855Y-223485471D02*
X83214283Y-223556900D01*
X83214283Y-223556900D02*
X83357140Y-223628328D01*
X83357140Y-223628328D02*
X83499997Y-223628328D01*
X83499997Y-223628328D02*
X83642855Y-223556900D01*
X83642855Y-223556900D02*
X83714283Y-223485471D01*
X83714283Y-223485471D02*
X83785712Y-223342614D01*
X83785712Y-223342614D02*
X83857140Y-223056900D01*
X83857140Y-223056900D02*
X83857140Y-222699757D01*
X83857140Y-222699757D02*
X83785712Y-222414042D01*
X83785712Y-222414042D02*
X83714283Y-222271185D01*
X83714283Y-222271185D02*
X83642855Y-222199757D01*
X83642855Y-222199757D02*
X83499997Y-222128328D01*
X81214284Y-223056900D02*
X80071427Y-223056900D01*
X78214284Y-223628328D02*
X78214284Y-222128328D01*
X78214284Y-222128328D02*
X77857141Y-222128328D01*
X77857141Y-222128328D02*
X77642855Y-222199757D01*
X77642855Y-222199757D02*
X77499998Y-222342614D01*
X77499998Y-222342614D02*
X77428569Y-222485471D01*
X77428569Y-222485471D02*
X77357141Y-222771185D01*
X77357141Y-222771185D02*
X77357141Y-222985471D01*
X77357141Y-222985471D02*
X77428569Y-223271185D01*
X77428569Y-223271185D02*
X77499998Y-223414042D01*
X77499998Y-223414042D02*
X77642855Y-223556900D01*
X77642855Y-223556900D02*
X77857141Y-223628328D01*
X77857141Y-223628328D02*
X78214284Y-223628328D01*
X76142855Y-223556900D02*
X76285712Y-223628328D01*
X76285712Y-223628328D02*
X76571427Y-223628328D01*
X76571427Y-223628328D02*
X76714284Y-223556900D01*
X76714284Y-223556900D02*
X76785712Y-223414042D01*
X76785712Y-223414042D02*
X76785712Y-222842614D01*
X76785712Y-222842614D02*
X76714284Y-222699757D01*
X76714284Y-222699757D02*
X76571427Y-222628328D01*
X76571427Y-222628328D02*
X76285712Y-222628328D01*
X76285712Y-222628328D02*
X76142855Y-222699757D01*
X76142855Y-222699757D02*
X76071427Y-222842614D01*
X76071427Y-222842614D02*
X76071427Y-222985471D01*
X76071427Y-222985471D02*
X76785712Y-223128328D01*
X74785713Y-223556900D02*
X74928570Y-223628328D01*
X74928570Y-223628328D02*
X75214284Y-223628328D01*
X75214284Y-223628328D02*
X75357141Y-223556900D01*
X75357141Y-223556900D02*
X75428570Y-223485471D01*
X75428570Y-223485471D02*
X75499998Y-223342614D01*
X75499998Y-223342614D02*
X75499998Y-222914042D01*
X75499998Y-222914042D02*
X75428570Y-222771185D01*
X75428570Y-222771185D02*
X75357141Y-222699757D01*
X75357141Y-222699757D02*
X75214284Y-222628328D01*
X75214284Y-222628328D02*
X74928570Y-222628328D01*
X74928570Y-222628328D02*
X74785713Y-222699757D01*
X73571427Y-223556900D02*
X73714284Y-223628328D01*
X73714284Y-223628328D02*
X73999999Y-223628328D01*
X73999999Y-223628328D02*
X74142856Y-223556900D01*
X74142856Y-223556900D02*
X74214284Y-223414042D01*
X74214284Y-223414042D02*
X74214284Y-222842614D01*
X74214284Y-222842614D02*
X74142856Y-222699757D01*
X74142856Y-222699757D02*
X73999999Y-222628328D01*
X73999999Y-222628328D02*
X73714284Y-222628328D01*
X73714284Y-222628328D02*
X73571427Y-222699757D01*
X73571427Y-222699757D02*
X73499999Y-222842614D01*
X73499999Y-222842614D02*
X73499999Y-222985471D01*
X73499999Y-222985471D02*
X74214284Y-223128328D01*
X72857142Y-223628328D02*
X72857142Y-222628328D01*
X72857142Y-222771185D02*
X72785713Y-222699757D01*
X72785713Y-222699757D02*
X72642856Y-222628328D01*
X72642856Y-222628328D02*
X72428570Y-222628328D01*
X72428570Y-222628328D02*
X72285713Y-222699757D01*
X72285713Y-222699757D02*
X72214285Y-222842614D01*
X72214285Y-222842614D02*
X72214285Y-223628328D01*
X72214285Y-222842614D02*
X72142856Y-222699757D01*
X72142856Y-222699757D02*
X71999999Y-222628328D01*
X71999999Y-222628328D02*
X71785713Y-222628328D01*
X71785713Y-222628328D02*
X71642856Y-222699757D01*
X71642856Y-222699757D02*
X71571427Y-222842614D01*
X71571427Y-222842614D02*
X71571427Y-223628328D01*
X70857142Y-223628328D02*
X70857142Y-222128328D01*
X70857142Y-222699757D02*
X70714285Y-222628328D01*
X70714285Y-222628328D02*
X70428570Y-222628328D01*
X70428570Y-222628328D02*
X70285713Y-222699757D01*
X70285713Y-222699757D02*
X70214285Y-222771185D01*
X70214285Y-222771185D02*
X70142856Y-222914042D01*
X70142856Y-222914042D02*
X70142856Y-223342614D01*
X70142856Y-223342614D02*
X70214285Y-223485471D01*
X70214285Y-223485471D02*
X70285713Y-223556900D01*
X70285713Y-223556900D02*
X70428570Y-223628328D01*
X70428570Y-223628328D02*
X70714285Y-223628328D01*
X70714285Y-223628328D02*
X70857142Y-223556900D01*
X68928570Y-223556900D02*
X69071427Y-223628328D01*
X69071427Y-223628328D02*
X69357142Y-223628328D01*
X69357142Y-223628328D02*
X69499999Y-223556900D01*
X69499999Y-223556900D02*
X69571427Y-223414042D01*
X69571427Y-223414042D02*
X69571427Y-222842614D01*
X69571427Y-222842614D02*
X69499999Y-222699757D01*
X69499999Y-222699757D02*
X69357142Y-222628328D01*
X69357142Y-222628328D02*
X69071427Y-222628328D01*
X69071427Y-222628328D02*
X68928570Y-222699757D01*
X68928570Y-222699757D02*
X68857142Y-222842614D01*
X68857142Y-222842614D02*
X68857142Y-222985471D01*
X68857142Y-222985471D02*
X69571427Y-223128328D01*
X68214285Y-223628328D02*
X68214285Y-222628328D01*
X68214285Y-222914042D02*
X68142856Y-222771185D01*
X68142856Y-222771185D02*
X68071428Y-222699757D01*
X68071428Y-222699757D02*
X67928570Y-222628328D01*
X67928570Y-222628328D02*
X67785713Y-222628328D01*
X66214285Y-222271185D02*
X66142857Y-222199757D01*
X66142857Y-222199757D02*
X66000000Y-222128328D01*
X66000000Y-222128328D02*
X65642857Y-222128328D01*
X65642857Y-222128328D02*
X65500000Y-222199757D01*
X65500000Y-222199757D02*
X65428571Y-222271185D01*
X65428571Y-222271185D02*
X65357142Y-222414042D01*
X65357142Y-222414042D02*
X65357142Y-222556900D01*
X65357142Y-222556900D02*
X65428571Y-222771185D01*
X65428571Y-222771185D02*
X66285714Y-223628328D01*
X66285714Y-223628328D02*
X65357142Y-223628328D01*
X64428571Y-222128328D02*
X64285714Y-222128328D01*
X64285714Y-222128328D02*
X64142857Y-222199757D01*
X64142857Y-222199757D02*
X64071429Y-222271185D01*
X64071429Y-222271185D02*
X64000000Y-222414042D01*
X64000000Y-222414042D02*
X63928571Y-222699757D01*
X63928571Y-222699757D02*
X63928571Y-223056900D01*
X63928571Y-223056900D02*
X64000000Y-223342614D01*
X64000000Y-223342614D02*
X64071429Y-223485471D01*
X64071429Y-223485471D02*
X64142857Y-223556900D01*
X64142857Y-223556900D02*
X64285714Y-223628328D01*
X64285714Y-223628328D02*
X64428571Y-223628328D01*
X64428571Y-223628328D02*
X64571429Y-223556900D01*
X64571429Y-223556900D02*
X64642857Y-223485471D01*
X64642857Y-223485471D02*
X64714286Y-223342614D01*
X64714286Y-223342614D02*
X64785714Y-223056900D01*
X64785714Y-223056900D02*
X64785714Y-222699757D01*
X64785714Y-222699757D02*
X64714286Y-222414042D01*
X64714286Y-222414042D02*
X64642857Y-222271185D01*
X64642857Y-222271185D02*
X64571429Y-222199757D01*
X64571429Y-222199757D02*
X64428571Y-222128328D01*
X63357143Y-222271185D02*
X63285715Y-222199757D01*
X63285715Y-222199757D02*
X63142858Y-222128328D01*
X63142858Y-222128328D02*
X62785715Y-222128328D01*
X62785715Y-222128328D02*
X62642858Y-222199757D01*
X62642858Y-222199757D02*
X62571429Y-222271185D01*
X62571429Y-222271185D02*
X62500000Y-222414042D01*
X62500000Y-222414042D02*
X62500000Y-222556900D01*
X62500000Y-222556900D02*
X62571429Y-222771185D01*
X62571429Y-222771185D02*
X63428572Y-223628328D01*
X63428572Y-223628328D02*
X62500000Y-223628328D01*
X61214287Y-222628328D02*
X61214287Y-223628328D01*
X61571429Y-222056900D02*
X61928572Y-223128328D01*
X61928572Y-223128328D02*
X61000001Y-223128328D01*
X56142856Y-85999757D02*
X56285714Y-85928328D01*
X56285714Y-85928328D02*
X56499999Y-85928328D01*
X56499999Y-85928328D02*
X56714285Y-85999757D01*
X56714285Y-85999757D02*
X56857142Y-86142614D01*
X56857142Y-86142614D02*
X56928571Y-86285471D01*
X56928571Y-86285471D02*
X56999999Y-86571185D01*
X56999999Y-86571185D02*
X56999999Y-86785471D01*
X56999999Y-86785471D02*
X56928571Y-87071185D01*
X56928571Y-87071185D02*
X56857142Y-87214042D01*
X56857142Y-87214042D02*
X56714285Y-87356900D01*
X56714285Y-87356900D02*
X56499999Y-87428328D01*
X56499999Y-87428328D02*
X56357142Y-87428328D01*
X56357142Y-87428328D02*
X56142856Y-87356900D01*
X56142856Y-87356900D02*
X56071428Y-87285471D01*
X56071428Y-87285471D02*
X56071428Y-86785471D01*
X56071428Y-86785471D02*
X56357142Y-86785471D01*
X55428571Y-87428328D02*
X55428571Y-85928328D01*
X55428571Y-85928328D02*
X54571428Y-87428328D01*
X54571428Y-87428328D02*
X54571428Y-85928328D01*
X53857142Y-87428328D02*
X53857142Y-85928328D01*
X53857142Y-85928328D02*
X53499999Y-85928328D01*
X53499999Y-85928328D02*
X53285713Y-85999757D01*
X53285713Y-85999757D02*
X53142856Y-86142614D01*
X53142856Y-86142614D02*
X53071427Y-86285471D01*
X53071427Y-86285471D02*
X52999999Y-86571185D01*
X52999999Y-86571185D02*
X52999999Y-86785471D01*
X52999999Y-86785471D02*
X53071427Y-87071185D01*
X53071427Y-87071185D02*
X53142856Y-87214042D01*
X53142856Y-87214042D02*
X53285713Y-87356900D01*
X53285713Y-87356900D02*
X53499999Y-87428328D01*
X53499999Y-87428328D02*
X53857142Y-87428328D01*
%LPC*%
D12*
%TO.C,H7*%
X87500000Y-108250000D03*
D13*
X87500000Y-114250000D03*
%TD*%
D12*
%TO.C,H6*%
X62500000Y-108250000D03*
D13*
X62500000Y-114250000D03*
%TD*%
D12*
%TO.C,H5*%
X75000000Y-71000000D03*
D13*
X75000000Y-77000000D03*
%TD*%
D14*
%TO.C,H10*%
X52800000Y-190250000D03*
X54460000Y-186220000D03*
X54470000Y-194290000D03*
X58500000Y-184550000D03*
D12*
X58500000Y-190250000D03*
D14*
X58500000Y-195950000D03*
X62530000Y-194290000D03*
X62540000Y-186220000D03*
X64200000Y-190250000D03*
%TD*%
D15*
%TO.C,H3*%
X53500000Y-226500000D03*
%TD*%
D14*
%TO.C,H19*%
X69300000Y-190250000D03*
X70960000Y-186220000D03*
X70970000Y-194290000D03*
X75000000Y-184550000D03*
D12*
X75000000Y-190250000D03*
D14*
X75000000Y-195950000D03*
X79030000Y-194290000D03*
X79040000Y-186220000D03*
X80700000Y-190250000D03*
%TD*%
D16*
%TO.C,H16*%
X75000000Y-47500000D03*
%TD*%
D14*
%TO.C,H12*%
X85800000Y-190250000D03*
X87460000Y-186220000D03*
X87470000Y-194290000D03*
X91500000Y-184550000D03*
D12*
X91500000Y-190250000D03*
D14*
X91500000Y-195950000D03*
X95530000Y-194290000D03*
X95540000Y-186220000D03*
X97200000Y-190250000D03*
%TD*%
%TO.C,H8*%
X52800000Y-171750000D03*
X54460000Y-167720000D03*
X54470000Y-175790000D03*
X58500000Y-166050000D03*
D12*
X58500000Y-171750000D03*
D14*
X58500000Y-177450000D03*
X62530000Y-175790000D03*
X62540000Y-167720000D03*
X64200000Y-171750000D03*
%TD*%
D17*
%TO.C,H18*%
X62500000Y-136100000D03*
D18*
X62500000Y-142500000D03*
%TD*%
D14*
%TO.C,H14*%
X52800000Y-208750000D03*
X54460000Y-204720000D03*
X54470000Y-212790000D03*
X58500000Y-203050000D03*
D12*
X58500000Y-208750000D03*
D14*
X58500000Y-214450000D03*
X62530000Y-212790000D03*
X62540000Y-204720000D03*
X64200000Y-208750000D03*
%TD*%
D15*
%TO.C,H2*%
X96500000Y-33500000D03*
%TD*%
%TO.C,H4*%
X96500000Y-226500000D03*
%TD*%
D14*
%TO.C,H13*%
X69300000Y-208750000D03*
X70960000Y-204720000D03*
X70970000Y-212790000D03*
X75000000Y-203050000D03*
D12*
X75000000Y-208750000D03*
D14*
X75000000Y-214450000D03*
X79030000Y-212790000D03*
X79040000Y-204720000D03*
X80700000Y-208750000D03*
%TD*%
D15*
%TO.C,H1*%
X53500000Y-33500000D03*
%TD*%
D14*
%TO.C,H15*%
X85800000Y-208750000D03*
X87460000Y-204720000D03*
X87470000Y-212790000D03*
X91500000Y-203050000D03*
D12*
X91500000Y-208750000D03*
D14*
X91500000Y-214450000D03*
X95530000Y-212790000D03*
X95540000Y-204720000D03*
X97200000Y-208750000D03*
%TD*%
%TO.C,H9*%
X69300000Y-171750000D03*
X70960000Y-167720000D03*
X70970000Y-175790000D03*
X75000000Y-166050000D03*
D12*
X75000000Y-171750000D03*
D14*
X75000000Y-177450000D03*
X79030000Y-175790000D03*
X79040000Y-167720000D03*
X80700000Y-171750000D03*
%TD*%
%TO.C,H11*%
X85800000Y-171750000D03*
X87460000Y-167720000D03*
X87470000Y-175790000D03*
X91500000Y-166050000D03*
D12*
X91500000Y-171750000D03*
D14*
X91500000Y-177450000D03*
X95530000Y-175790000D03*
X95540000Y-167720000D03*
X97200000Y-171750000D03*
%TD*%
D19*
%TO.C,J0*%
X55000000Y-80000000D03*
%TD*%
%LPD*%
M02*
