%TF.GenerationSoftware,KiCad,Pcbnew,8.0.5*%
%TF.CreationDate,2024-12-04T18:31:37+01:00*%
%TF.ProjectId,DMH_S_H_Noise_PANEL,444d485f-535f-4485-9f4e-6f6973655f50,rev?*%
%TF.SameCoordinates,Original*%
%TF.FileFunction,Copper,L2,Bot*%
%TF.FilePolarity,Positive*%
%FSLAX46Y46*%
G04 Gerber Fmt 4.6, Leading zero omitted, Abs format (unit mm)*
G04 Created by KiCad (PCBNEW 8.0.5) date 2024-12-04 18:31:37*
%MOMM*%
%LPD*%
G01*
G04 APERTURE LIST*
%TA.AperFunction,ConnectorPad*%
%ADD10C,12.000000*%
%TD*%
%TA.AperFunction,ComponentPad*%
%ADD11O,2.500000X1.500000*%
%TD*%
%TA.AperFunction,ComponentPad*%
%ADD12C,0.500000*%
%TD*%
%TA.AperFunction,ComponentPad*%
%ADD13C,4.000000*%
%TD*%
%TA.AperFunction,ComponentPad*%
%ADD14C,2.900000*%
%TD*%
%TA.AperFunction,ComponentPad*%
%ADD15C,13.000000*%
%TD*%
%TA.AperFunction,SMDPad,CuDef*%
%ADD16R,5.000000X10.000000*%
%TD*%
G04 APERTURE END LIST*
D10*
%TO.P,H7,1,1*%
%TO.N,GND*%
X87500000Y-108250000D03*
D11*
X87500000Y-114250000D03*
%TD*%
D10*
%TO.P,H6,1,1*%
%TO.N,GND*%
X62500000Y-108250000D03*
D11*
X62500000Y-114250000D03*
%TD*%
D10*
%TO.P,H5,1,1*%
%TO.N,GND*%
X75000000Y-71000000D03*
D11*
X75000000Y-77000000D03*
%TD*%
D12*
%TO.P,H10,1,1*%
%TO.N,GND*%
X52800000Y-190250000D03*
X54460000Y-186220000D03*
X54470000Y-194290000D03*
X58500000Y-184550000D03*
D10*
X58500000Y-190250000D03*
D12*
X58500000Y-195950000D03*
X62530000Y-194290000D03*
X62540000Y-186220000D03*
X64200000Y-190250000D03*
%TD*%
D13*
%TO.P,H3,1,1*%
%TO.N,GND*%
X53500000Y-226500000D03*
%TD*%
D12*
%TO.P,H19,1,1*%
%TO.N,GND*%
X69300000Y-190250000D03*
X70960000Y-186220000D03*
X70970000Y-194290000D03*
X75000000Y-184550000D03*
D10*
X75000000Y-190250000D03*
D12*
X75000000Y-195950000D03*
X79030000Y-194290000D03*
X79040000Y-186220000D03*
X80700000Y-190250000D03*
%TD*%
%TO.P,H12,1,1*%
%TO.N,GND*%
X85800000Y-190250000D03*
X87460000Y-186220000D03*
X87470000Y-194290000D03*
X91500000Y-184550000D03*
D10*
X91500000Y-190250000D03*
D12*
X91500000Y-195950000D03*
X95530000Y-194290000D03*
X95540000Y-186220000D03*
X97200000Y-190250000D03*
%TD*%
%TO.P,H8,1,1*%
%TO.N,GND*%
X52800000Y-171750000D03*
X54460000Y-167720000D03*
X54470000Y-175790000D03*
X58500000Y-166050000D03*
D10*
X58500000Y-171750000D03*
D12*
X58500000Y-177450000D03*
X62530000Y-175790000D03*
X62540000Y-167720000D03*
X64200000Y-171750000D03*
%TD*%
D14*
%TO.P,H18,1,1*%
%TO.N,GND*%
X62500000Y-136100000D03*
D15*
X62500000Y-142500000D03*
%TD*%
D12*
%TO.P,H14,1,1*%
%TO.N,GND*%
X52800000Y-208750000D03*
X54460000Y-204720000D03*
X54470000Y-212790000D03*
X58500000Y-203050000D03*
D10*
X58500000Y-208750000D03*
D12*
X58500000Y-214450000D03*
X62530000Y-212790000D03*
X62540000Y-204720000D03*
X64200000Y-208750000D03*
%TD*%
D13*
%TO.P,H2,1,1*%
%TO.N,GND*%
X96500000Y-33500000D03*
%TD*%
%TO.P,H4,1,1*%
%TO.N,GND*%
X96500000Y-226500000D03*
%TD*%
D12*
%TO.P,H13,1,1*%
%TO.N,GND*%
X69300000Y-208750000D03*
X70960000Y-204720000D03*
X70970000Y-212790000D03*
X75000000Y-203050000D03*
D10*
X75000000Y-208750000D03*
D12*
X75000000Y-214450000D03*
X79030000Y-212790000D03*
X79040000Y-204720000D03*
X80700000Y-208750000D03*
%TD*%
D13*
%TO.P,H1,1,1*%
%TO.N,GND*%
X53500000Y-33500000D03*
%TD*%
D12*
%TO.P,H15,1,1*%
%TO.N,GND*%
X85800000Y-208750000D03*
X87460000Y-204720000D03*
X87470000Y-212790000D03*
X91500000Y-203050000D03*
D10*
X91500000Y-208750000D03*
D12*
X91500000Y-214450000D03*
X95530000Y-212790000D03*
X95540000Y-204720000D03*
X97200000Y-208750000D03*
%TD*%
%TO.P,H9,1,1*%
%TO.N,GND*%
X69300000Y-171750000D03*
X70960000Y-167720000D03*
X70970000Y-175790000D03*
X75000000Y-166050000D03*
D10*
X75000000Y-171750000D03*
D12*
X75000000Y-177450000D03*
X79030000Y-175790000D03*
X79040000Y-167720000D03*
X80700000Y-171750000D03*
%TD*%
%TO.P,H11,1,1*%
%TO.N,GND*%
X85800000Y-171750000D03*
X87460000Y-167720000D03*
X87470000Y-175790000D03*
X91500000Y-166050000D03*
D10*
X91500000Y-171750000D03*
D12*
X91500000Y-177450000D03*
X95530000Y-175790000D03*
X95540000Y-167720000D03*
X97200000Y-171750000D03*
%TD*%
D16*
%TO.P,J0,1,Pin_1*%
%TO.N,GND*%
X55000000Y-80000000D03*
%TD*%
%TA.AperFunction,Conductor*%
%TO.N,GND*%
G36*
X99442539Y-30520185D02*
G01*
X99488294Y-30572989D01*
X99499500Y-30624500D01*
X99499500Y-229375500D01*
X99479815Y-229442539D01*
X99427011Y-229488294D01*
X99375500Y-229499500D01*
X50624500Y-229499500D01*
X50557461Y-229479815D01*
X50511706Y-229427011D01*
X50500500Y-229375500D01*
X50500500Y-208749993D01*
X53094630Y-208749993D01*
X53094630Y-208750006D01*
X53114101Y-209208394D01*
X53172381Y-209663513D01*
X53269043Y-210112028D01*
X53403399Y-210550746D01*
X53403401Y-210550751D01*
X53574468Y-210976468D01*
X53574472Y-210976479D01*
X53781026Y-211386154D01*
X53781037Y-211386174D01*
X53901317Y-211581521D01*
X54021599Y-211776871D01*
X54294429Y-212145762D01*
X54597560Y-212490186D01*
X54928809Y-212807662D01*
X55285788Y-213095902D01*
X55665925Y-213352830D01*
X56066482Y-213576595D01*
X56066485Y-213576596D01*
X56066494Y-213576601D01*
X56484566Y-213765581D01*
X56484573Y-213765584D01*
X56917185Y-213918435D01*
X57361201Y-214034048D01*
X57813422Y-214111589D01*
X57954946Y-214123634D01*
X58270571Y-214150499D01*
X58270588Y-214150499D01*
X58270590Y-214150500D01*
X58270591Y-214150500D01*
X58729409Y-214150500D01*
X58729410Y-214150500D01*
X58729411Y-214150499D01*
X58729428Y-214150499D01*
X59001523Y-214127339D01*
X59186578Y-214111589D01*
X59638799Y-214034048D01*
X60082815Y-213918435D01*
X60515427Y-213765584D01*
X60933518Y-213576595D01*
X61334075Y-213352830D01*
X61714212Y-213095902D01*
X62071191Y-212807662D01*
X62402440Y-212490186D01*
X62705571Y-212145762D01*
X62978401Y-211776871D01*
X63218964Y-211386172D01*
X63425527Y-210976479D01*
X63596601Y-210550744D01*
X63730955Y-210112035D01*
X63827619Y-209663512D01*
X63885897Y-209208407D01*
X63905370Y-208750000D01*
X63905370Y-208749993D01*
X69594630Y-208749993D01*
X69594630Y-208750006D01*
X69614101Y-209208394D01*
X69672381Y-209663513D01*
X69769043Y-210112028D01*
X69903399Y-210550746D01*
X69903401Y-210550751D01*
X70074468Y-210976468D01*
X70074472Y-210976479D01*
X70281026Y-211386154D01*
X70281037Y-211386174D01*
X70401317Y-211581521D01*
X70521599Y-211776871D01*
X70794429Y-212145762D01*
X71097560Y-212490186D01*
X71428809Y-212807662D01*
X71785788Y-213095902D01*
X72165925Y-213352830D01*
X72566482Y-213576595D01*
X72566485Y-213576596D01*
X72566494Y-213576601D01*
X72984566Y-213765581D01*
X72984573Y-213765584D01*
X73417185Y-213918435D01*
X73861201Y-214034048D01*
X74313422Y-214111589D01*
X74454946Y-214123634D01*
X74770571Y-214150499D01*
X74770588Y-214150499D01*
X74770590Y-214150500D01*
X74770591Y-214150500D01*
X75229409Y-214150500D01*
X75229410Y-214150500D01*
X75229411Y-214150499D01*
X75229428Y-214150499D01*
X75501523Y-214127339D01*
X75686578Y-214111589D01*
X76138799Y-214034048D01*
X76582815Y-213918435D01*
X77015427Y-213765584D01*
X77433518Y-213576595D01*
X77834075Y-213352830D01*
X78214212Y-213095902D01*
X78571191Y-212807662D01*
X78902440Y-212490186D01*
X79205571Y-212145762D01*
X79478401Y-211776871D01*
X79718964Y-211386172D01*
X79925527Y-210976479D01*
X80096601Y-210550744D01*
X80230955Y-210112035D01*
X80327619Y-209663512D01*
X80385897Y-209208407D01*
X80405370Y-208750000D01*
X80405370Y-208749993D01*
X86094630Y-208749993D01*
X86094630Y-208750006D01*
X86114101Y-209208394D01*
X86172381Y-209663513D01*
X86269043Y-210112028D01*
X86403399Y-210550746D01*
X86403401Y-210550751D01*
X86574468Y-210976468D01*
X86574472Y-210976479D01*
X86781026Y-211386154D01*
X86781037Y-211386174D01*
X86901317Y-211581521D01*
X87021599Y-211776871D01*
X87294429Y-212145762D01*
X87597560Y-212490186D01*
X87928809Y-212807662D01*
X88285788Y-213095902D01*
X88665925Y-213352830D01*
X89066482Y-213576595D01*
X89066485Y-213576596D01*
X89066494Y-213576601D01*
X89484566Y-213765581D01*
X89484573Y-213765584D01*
X89917185Y-213918435D01*
X90361201Y-214034048D01*
X90813422Y-214111589D01*
X90954946Y-214123634D01*
X91270571Y-214150499D01*
X91270588Y-214150499D01*
X91270590Y-214150500D01*
X91270591Y-214150500D01*
X91729409Y-214150500D01*
X91729410Y-214150500D01*
X91729411Y-214150499D01*
X91729428Y-214150499D01*
X92001523Y-214127339D01*
X92186578Y-214111589D01*
X92638799Y-214034048D01*
X93082815Y-213918435D01*
X93515427Y-213765584D01*
X93933518Y-213576595D01*
X94334075Y-213352830D01*
X94714212Y-213095902D01*
X95071191Y-212807662D01*
X95402440Y-212490186D01*
X95705571Y-212145762D01*
X95978401Y-211776871D01*
X96218964Y-211386172D01*
X96425527Y-210976479D01*
X96596601Y-210550744D01*
X96730955Y-210112035D01*
X96827619Y-209663512D01*
X96885897Y-209208407D01*
X96905370Y-208750000D01*
X96885897Y-208291593D01*
X96827619Y-207836488D01*
X96730955Y-207387965D01*
X96596601Y-206949256D01*
X96425527Y-206523521D01*
X96425527Y-206523520D01*
X96218973Y-206113845D01*
X96218962Y-206113825D01*
X96167601Y-206030410D01*
X95978401Y-205723129D01*
X95705571Y-205354238D01*
X95402440Y-205009814D01*
X95071191Y-204692338D01*
X94714212Y-204404098D01*
X94334075Y-204147170D01*
X94311723Y-204134683D01*
X93933526Y-203923409D01*
X93933505Y-203923398D01*
X93515433Y-203734418D01*
X93082810Y-203581563D01*
X92638797Y-203465951D01*
X92186588Y-203388412D01*
X92186562Y-203388409D01*
X91729428Y-203349500D01*
X91729410Y-203349500D01*
X91270590Y-203349500D01*
X91270571Y-203349500D01*
X90813437Y-203388409D01*
X90813411Y-203388412D01*
X90361202Y-203465951D01*
X89917189Y-203581563D01*
X89484566Y-203734418D01*
X89066494Y-203923398D01*
X89066473Y-203923409D01*
X88665933Y-204147165D01*
X88665914Y-204147177D01*
X88285793Y-204404094D01*
X87928806Y-204692340D01*
X87597559Y-205009814D01*
X87294435Y-205354230D01*
X87021598Y-205723130D01*
X86781037Y-206113825D01*
X86781026Y-206113845D01*
X86574472Y-206523520D01*
X86574468Y-206523531D01*
X86403401Y-206949248D01*
X86403399Y-206949253D01*
X86269043Y-207387971D01*
X86172381Y-207836486D01*
X86114101Y-208291605D01*
X86094630Y-208749993D01*
X80405370Y-208749993D01*
X80385897Y-208291593D01*
X80327619Y-207836488D01*
X80230955Y-207387965D01*
X80096601Y-206949256D01*
X79925527Y-206523521D01*
X79925527Y-206523520D01*
X79718973Y-206113845D01*
X79718962Y-206113825D01*
X79667601Y-206030410D01*
X79478401Y-205723129D01*
X79205571Y-205354238D01*
X78902440Y-205009814D01*
X78571191Y-204692338D01*
X78214212Y-204404098D01*
X77834075Y-204147170D01*
X77811723Y-204134683D01*
X77433526Y-203923409D01*
X77433505Y-203923398D01*
X77015433Y-203734418D01*
X76582810Y-203581563D01*
X76138797Y-203465951D01*
X75686588Y-203388412D01*
X75686562Y-203388409D01*
X75229428Y-203349500D01*
X75229410Y-203349500D01*
X74770590Y-203349500D01*
X74770571Y-203349500D01*
X74313437Y-203388409D01*
X74313411Y-203388412D01*
X73861202Y-203465951D01*
X73417189Y-203581563D01*
X72984566Y-203734418D01*
X72566494Y-203923398D01*
X72566473Y-203923409D01*
X72165933Y-204147165D01*
X72165914Y-204147177D01*
X71785793Y-204404094D01*
X71428806Y-204692340D01*
X71097559Y-205009814D01*
X70794435Y-205354230D01*
X70521598Y-205723130D01*
X70281037Y-206113825D01*
X70281026Y-206113845D01*
X70074472Y-206523520D01*
X70074468Y-206523531D01*
X69903401Y-206949248D01*
X69903399Y-206949253D01*
X69769043Y-207387971D01*
X69672381Y-207836486D01*
X69614101Y-208291605D01*
X69594630Y-208749993D01*
X63905370Y-208749993D01*
X63885897Y-208291593D01*
X63827619Y-207836488D01*
X63730955Y-207387965D01*
X63596601Y-206949256D01*
X63425527Y-206523521D01*
X63425527Y-206523520D01*
X63218973Y-206113845D01*
X63218962Y-206113825D01*
X63167601Y-206030410D01*
X62978401Y-205723129D01*
X62705571Y-205354238D01*
X62402440Y-205009814D01*
X62071191Y-204692338D01*
X61714212Y-204404098D01*
X61334075Y-204147170D01*
X61311723Y-204134683D01*
X60933526Y-203923409D01*
X60933505Y-203923398D01*
X60515433Y-203734418D01*
X60082810Y-203581563D01*
X59638797Y-203465951D01*
X59186588Y-203388412D01*
X59186562Y-203388409D01*
X58729428Y-203349500D01*
X58729410Y-203349500D01*
X58270590Y-203349500D01*
X58270571Y-203349500D01*
X57813437Y-203388409D01*
X57813411Y-203388412D01*
X57361202Y-203465951D01*
X56917189Y-203581563D01*
X56484566Y-203734418D01*
X56066494Y-203923398D01*
X56066473Y-203923409D01*
X55665933Y-204147165D01*
X55665914Y-204147177D01*
X55285793Y-204404094D01*
X54928806Y-204692340D01*
X54597559Y-205009814D01*
X54294435Y-205354230D01*
X54021598Y-205723130D01*
X53781037Y-206113825D01*
X53781026Y-206113845D01*
X53574472Y-206523520D01*
X53574468Y-206523531D01*
X53403401Y-206949248D01*
X53403399Y-206949253D01*
X53269043Y-207387971D01*
X53172381Y-207836486D01*
X53114101Y-208291605D01*
X53094630Y-208749993D01*
X50500500Y-208749993D01*
X50500500Y-190249993D01*
X53094630Y-190249993D01*
X53094630Y-190250006D01*
X53114101Y-190708394D01*
X53172381Y-191163513D01*
X53269043Y-191612028D01*
X53403399Y-192050746D01*
X53403401Y-192050751D01*
X53574468Y-192476468D01*
X53574472Y-192476479D01*
X53781026Y-192886154D01*
X53781037Y-192886174D01*
X53901317Y-193081521D01*
X54021599Y-193276871D01*
X54294429Y-193645762D01*
X54597560Y-193990186D01*
X54928809Y-194307662D01*
X55285788Y-194595902D01*
X55665925Y-194852830D01*
X56066482Y-195076595D01*
X56066485Y-195076596D01*
X56066494Y-195076601D01*
X56484566Y-195265581D01*
X56484573Y-195265584D01*
X56917185Y-195418435D01*
X57361201Y-195534048D01*
X57813422Y-195611589D01*
X57954946Y-195623634D01*
X58270571Y-195650499D01*
X58270588Y-195650499D01*
X58270590Y-195650500D01*
X58270591Y-195650500D01*
X58729409Y-195650500D01*
X58729410Y-195650500D01*
X58729411Y-195650499D01*
X58729428Y-195650499D01*
X59001523Y-195627339D01*
X59186578Y-195611589D01*
X59638799Y-195534048D01*
X60082815Y-195418435D01*
X60515427Y-195265584D01*
X60933518Y-195076595D01*
X61334075Y-194852830D01*
X61714212Y-194595902D01*
X62071191Y-194307662D01*
X62402440Y-193990186D01*
X62705571Y-193645762D01*
X62978401Y-193276871D01*
X63218964Y-192886172D01*
X63425527Y-192476479D01*
X63596601Y-192050744D01*
X63730955Y-191612035D01*
X63827619Y-191163512D01*
X63885897Y-190708407D01*
X63905370Y-190250000D01*
X63905370Y-190249993D01*
X69594630Y-190249993D01*
X69594630Y-190250006D01*
X69614101Y-190708394D01*
X69672381Y-191163513D01*
X69769043Y-191612028D01*
X69903399Y-192050746D01*
X69903401Y-192050751D01*
X70074468Y-192476468D01*
X70074472Y-192476479D01*
X70281026Y-192886154D01*
X70281037Y-192886174D01*
X70401317Y-193081521D01*
X70521599Y-193276871D01*
X70794429Y-193645762D01*
X71097560Y-193990186D01*
X71428809Y-194307662D01*
X71785788Y-194595902D01*
X72165925Y-194852830D01*
X72566482Y-195076595D01*
X72566485Y-195076596D01*
X72566494Y-195076601D01*
X72984566Y-195265581D01*
X72984573Y-195265584D01*
X73417185Y-195418435D01*
X73861201Y-195534048D01*
X74313422Y-195611589D01*
X74454946Y-195623634D01*
X74770571Y-195650499D01*
X74770588Y-195650499D01*
X74770590Y-195650500D01*
X74770591Y-195650500D01*
X75229409Y-195650500D01*
X75229410Y-195650500D01*
X75229411Y-195650499D01*
X75229428Y-195650499D01*
X75501523Y-195627339D01*
X75686578Y-195611589D01*
X76138799Y-195534048D01*
X76582815Y-195418435D01*
X77015427Y-195265584D01*
X77433518Y-195076595D01*
X77834075Y-194852830D01*
X78214212Y-194595902D01*
X78571191Y-194307662D01*
X78902440Y-193990186D01*
X79205571Y-193645762D01*
X79478401Y-193276871D01*
X79718964Y-192886172D01*
X79925527Y-192476479D01*
X80096601Y-192050744D01*
X80230955Y-191612035D01*
X80327619Y-191163512D01*
X80385897Y-190708407D01*
X80405370Y-190250000D01*
X80405370Y-190249993D01*
X86094630Y-190249993D01*
X86094630Y-190250006D01*
X86114101Y-190708394D01*
X86172381Y-191163513D01*
X86269043Y-191612028D01*
X86403399Y-192050746D01*
X86403401Y-192050751D01*
X86574468Y-192476468D01*
X86574472Y-192476479D01*
X86781026Y-192886154D01*
X86781037Y-192886174D01*
X86901317Y-193081521D01*
X87021599Y-193276871D01*
X87294429Y-193645762D01*
X87597560Y-193990186D01*
X87928809Y-194307662D01*
X88285788Y-194595902D01*
X88665925Y-194852830D01*
X89066482Y-195076595D01*
X89066485Y-195076596D01*
X89066494Y-195076601D01*
X89484566Y-195265581D01*
X89484573Y-195265584D01*
X89917185Y-195418435D01*
X90361201Y-195534048D01*
X90813422Y-195611589D01*
X90954946Y-195623634D01*
X91270571Y-195650499D01*
X91270588Y-195650499D01*
X91270590Y-195650500D01*
X91270591Y-195650500D01*
X91729409Y-195650500D01*
X91729410Y-195650500D01*
X91729411Y-195650499D01*
X91729428Y-195650499D01*
X92001523Y-195627339D01*
X92186578Y-195611589D01*
X92638799Y-195534048D01*
X93082815Y-195418435D01*
X93515427Y-195265584D01*
X93933518Y-195076595D01*
X94334075Y-194852830D01*
X94714212Y-194595902D01*
X95071191Y-194307662D01*
X95402440Y-193990186D01*
X95705571Y-193645762D01*
X95978401Y-193276871D01*
X96218964Y-192886172D01*
X96425527Y-192476479D01*
X96596601Y-192050744D01*
X96730955Y-191612035D01*
X96827619Y-191163512D01*
X96885897Y-190708407D01*
X96905370Y-190250000D01*
X96885897Y-189791593D01*
X96827619Y-189336488D01*
X96730955Y-188887965D01*
X96596601Y-188449256D01*
X96425527Y-188023521D01*
X96425527Y-188023520D01*
X96218973Y-187613845D01*
X96218962Y-187613825D01*
X96167601Y-187530410D01*
X95978401Y-187223129D01*
X95705571Y-186854238D01*
X95402440Y-186509814D01*
X95071191Y-186192338D01*
X94714212Y-185904098D01*
X94334075Y-185647170D01*
X94311723Y-185634683D01*
X93933526Y-185423409D01*
X93933505Y-185423398D01*
X93515433Y-185234418D01*
X93082810Y-185081563D01*
X92638797Y-184965951D01*
X92186588Y-184888412D01*
X92186562Y-184888409D01*
X91729428Y-184849500D01*
X91729410Y-184849500D01*
X91270590Y-184849500D01*
X91270571Y-184849500D01*
X90813437Y-184888409D01*
X90813411Y-184888412D01*
X90361202Y-184965951D01*
X89917189Y-185081563D01*
X89484566Y-185234418D01*
X89066494Y-185423398D01*
X89066473Y-185423409D01*
X88665933Y-185647165D01*
X88665914Y-185647177D01*
X88285793Y-185904094D01*
X87928806Y-186192340D01*
X87597559Y-186509814D01*
X87294435Y-186854230D01*
X87021598Y-187223130D01*
X86781037Y-187613825D01*
X86781026Y-187613845D01*
X86574472Y-188023520D01*
X86574468Y-188023531D01*
X86403401Y-188449248D01*
X86403399Y-188449253D01*
X86269043Y-188887971D01*
X86172381Y-189336486D01*
X86114101Y-189791605D01*
X86094630Y-190249993D01*
X80405370Y-190249993D01*
X80385897Y-189791593D01*
X80327619Y-189336488D01*
X80230955Y-188887965D01*
X80096601Y-188449256D01*
X79925527Y-188023521D01*
X79925527Y-188023520D01*
X79718973Y-187613845D01*
X79718962Y-187613825D01*
X79667601Y-187530410D01*
X79478401Y-187223129D01*
X79205571Y-186854238D01*
X78902440Y-186509814D01*
X78571191Y-186192338D01*
X78214212Y-185904098D01*
X77834075Y-185647170D01*
X77811723Y-185634683D01*
X77433526Y-185423409D01*
X77433505Y-185423398D01*
X77015433Y-185234418D01*
X76582810Y-185081563D01*
X76138797Y-184965951D01*
X75686588Y-184888412D01*
X75686562Y-184888409D01*
X75229428Y-184849500D01*
X75229410Y-184849500D01*
X74770590Y-184849500D01*
X74770571Y-184849500D01*
X74313437Y-184888409D01*
X74313411Y-184888412D01*
X73861202Y-184965951D01*
X73417189Y-185081563D01*
X72984566Y-185234418D01*
X72566494Y-185423398D01*
X72566473Y-185423409D01*
X72165933Y-185647165D01*
X72165914Y-185647177D01*
X71785793Y-185904094D01*
X71428806Y-186192340D01*
X71097559Y-186509814D01*
X70794435Y-186854230D01*
X70521598Y-187223130D01*
X70281037Y-187613825D01*
X70281026Y-187613845D01*
X70074472Y-188023520D01*
X70074468Y-188023531D01*
X69903401Y-188449248D01*
X69903399Y-188449253D01*
X69769043Y-188887971D01*
X69672381Y-189336486D01*
X69614101Y-189791605D01*
X69594630Y-190249993D01*
X63905370Y-190249993D01*
X63885897Y-189791593D01*
X63827619Y-189336488D01*
X63730955Y-188887965D01*
X63596601Y-188449256D01*
X63425527Y-188023521D01*
X63425527Y-188023520D01*
X63218973Y-187613845D01*
X63218962Y-187613825D01*
X63167601Y-187530410D01*
X62978401Y-187223129D01*
X62705571Y-186854238D01*
X62402440Y-186509814D01*
X62071191Y-186192338D01*
X61714212Y-185904098D01*
X61334075Y-185647170D01*
X61311723Y-185634683D01*
X60933526Y-185423409D01*
X60933505Y-185423398D01*
X60515433Y-185234418D01*
X60082810Y-185081563D01*
X59638797Y-184965951D01*
X59186588Y-184888412D01*
X59186562Y-184888409D01*
X58729428Y-184849500D01*
X58729410Y-184849500D01*
X58270590Y-184849500D01*
X58270571Y-184849500D01*
X57813437Y-184888409D01*
X57813411Y-184888412D01*
X57361202Y-184965951D01*
X56917189Y-185081563D01*
X56484566Y-185234418D01*
X56066494Y-185423398D01*
X56066473Y-185423409D01*
X55665933Y-185647165D01*
X55665914Y-185647177D01*
X55285793Y-185904094D01*
X54928806Y-186192340D01*
X54597559Y-186509814D01*
X54294435Y-186854230D01*
X54021598Y-187223130D01*
X53781037Y-187613825D01*
X53781026Y-187613845D01*
X53574472Y-188023520D01*
X53574468Y-188023531D01*
X53403401Y-188449248D01*
X53403399Y-188449253D01*
X53269043Y-188887971D01*
X53172381Y-189336486D01*
X53114101Y-189791605D01*
X53094630Y-190249993D01*
X50500500Y-190249993D01*
X50500500Y-171749993D01*
X53094630Y-171749993D01*
X53094630Y-171750006D01*
X53114101Y-172208394D01*
X53172381Y-172663513D01*
X53269043Y-173112028D01*
X53403399Y-173550746D01*
X53403401Y-173550751D01*
X53574468Y-173976468D01*
X53574472Y-173976479D01*
X53781026Y-174386154D01*
X53781037Y-174386174D01*
X53901317Y-174581521D01*
X54021599Y-174776871D01*
X54294429Y-175145762D01*
X54597560Y-175490186D01*
X54928809Y-175807662D01*
X55285788Y-176095902D01*
X55665925Y-176352830D01*
X56066482Y-176576595D01*
X56066485Y-176576596D01*
X56066494Y-176576601D01*
X56484566Y-176765581D01*
X56484573Y-176765584D01*
X56917185Y-176918435D01*
X57361201Y-177034048D01*
X57813422Y-177111589D01*
X57954946Y-177123634D01*
X58270571Y-177150499D01*
X58270588Y-177150499D01*
X58270590Y-177150500D01*
X58270591Y-177150500D01*
X58729409Y-177150500D01*
X58729410Y-177150500D01*
X58729411Y-177150499D01*
X58729428Y-177150499D01*
X59001523Y-177127339D01*
X59186578Y-177111589D01*
X59638799Y-177034048D01*
X60082815Y-176918435D01*
X60515427Y-176765584D01*
X60933518Y-176576595D01*
X61334075Y-176352830D01*
X61714212Y-176095902D01*
X62071191Y-175807662D01*
X62402440Y-175490186D01*
X62705571Y-175145762D01*
X62978401Y-174776871D01*
X63218964Y-174386172D01*
X63425527Y-173976479D01*
X63596601Y-173550744D01*
X63730955Y-173112035D01*
X63827619Y-172663512D01*
X63885897Y-172208407D01*
X63905370Y-171750000D01*
X63905370Y-171749993D01*
X69594630Y-171749993D01*
X69594630Y-171750006D01*
X69614101Y-172208394D01*
X69672381Y-172663513D01*
X69769043Y-173112028D01*
X69903399Y-173550746D01*
X69903401Y-173550751D01*
X70074468Y-173976468D01*
X70074472Y-173976479D01*
X70281026Y-174386154D01*
X70281037Y-174386174D01*
X70401317Y-174581521D01*
X70521599Y-174776871D01*
X70794429Y-175145762D01*
X71097560Y-175490186D01*
X71428809Y-175807662D01*
X71785788Y-176095902D01*
X72165925Y-176352830D01*
X72566482Y-176576595D01*
X72566485Y-176576596D01*
X72566494Y-176576601D01*
X72984566Y-176765581D01*
X72984573Y-176765584D01*
X73417185Y-176918435D01*
X73861201Y-177034048D01*
X74313422Y-177111589D01*
X74454946Y-177123634D01*
X74770571Y-177150499D01*
X74770588Y-177150499D01*
X74770590Y-177150500D01*
X74770591Y-177150500D01*
X75229409Y-177150500D01*
X75229410Y-177150500D01*
X75229411Y-177150499D01*
X75229428Y-177150499D01*
X75501523Y-177127339D01*
X75686578Y-177111589D01*
X76138799Y-177034048D01*
X76582815Y-176918435D01*
X77015427Y-176765584D01*
X77433518Y-176576595D01*
X77834075Y-176352830D01*
X78214212Y-176095902D01*
X78571191Y-175807662D01*
X78902440Y-175490186D01*
X79205571Y-175145762D01*
X79478401Y-174776871D01*
X79718964Y-174386172D01*
X79925527Y-173976479D01*
X80096601Y-173550744D01*
X80230955Y-173112035D01*
X80327619Y-172663512D01*
X80385897Y-172208407D01*
X80405370Y-171750000D01*
X80405370Y-171749993D01*
X86094630Y-171749993D01*
X86094630Y-171750006D01*
X86114101Y-172208394D01*
X86172381Y-172663513D01*
X86269043Y-173112028D01*
X86403399Y-173550746D01*
X86403401Y-173550751D01*
X86574468Y-173976468D01*
X86574472Y-173976479D01*
X86781026Y-174386154D01*
X86781037Y-174386174D01*
X86901317Y-174581521D01*
X87021599Y-174776871D01*
X87294429Y-175145762D01*
X87597560Y-175490186D01*
X87928809Y-175807662D01*
X88285788Y-176095902D01*
X88665925Y-176352830D01*
X89066482Y-176576595D01*
X89066485Y-176576596D01*
X89066494Y-176576601D01*
X89484566Y-176765581D01*
X89484573Y-176765584D01*
X89917185Y-176918435D01*
X90361201Y-177034048D01*
X90813422Y-177111589D01*
X90954946Y-177123634D01*
X91270571Y-177150499D01*
X91270588Y-177150499D01*
X91270590Y-177150500D01*
X91270591Y-177150500D01*
X91729409Y-177150500D01*
X91729410Y-177150500D01*
X91729411Y-177150499D01*
X91729428Y-177150499D01*
X92001523Y-177127339D01*
X92186578Y-177111589D01*
X92638799Y-177034048D01*
X93082815Y-176918435D01*
X93515427Y-176765584D01*
X93933518Y-176576595D01*
X94334075Y-176352830D01*
X94714212Y-176095902D01*
X95071191Y-175807662D01*
X95402440Y-175490186D01*
X95705571Y-175145762D01*
X95978401Y-174776871D01*
X96218964Y-174386172D01*
X96425527Y-173976479D01*
X96596601Y-173550744D01*
X96730955Y-173112035D01*
X96827619Y-172663512D01*
X96885897Y-172208407D01*
X96905370Y-171750000D01*
X96885897Y-171291593D01*
X96827619Y-170836488D01*
X96730955Y-170387965D01*
X96596601Y-169949256D01*
X96425527Y-169523521D01*
X96425527Y-169523520D01*
X96218973Y-169113845D01*
X96218962Y-169113825D01*
X96167601Y-169030410D01*
X95978401Y-168723129D01*
X95705571Y-168354238D01*
X95402440Y-168009814D01*
X95071191Y-167692338D01*
X94714212Y-167404098D01*
X94334075Y-167147170D01*
X94311723Y-167134683D01*
X93933526Y-166923409D01*
X93933505Y-166923398D01*
X93515433Y-166734418D01*
X93082810Y-166581563D01*
X92638797Y-166465951D01*
X92186588Y-166388412D01*
X92186562Y-166388409D01*
X91729428Y-166349500D01*
X91729410Y-166349500D01*
X91270590Y-166349500D01*
X91270571Y-166349500D01*
X90813437Y-166388409D01*
X90813411Y-166388412D01*
X90361202Y-166465951D01*
X89917189Y-166581563D01*
X89484566Y-166734418D01*
X89066494Y-166923398D01*
X89066473Y-166923409D01*
X88665933Y-167147165D01*
X88665914Y-167147177D01*
X88285793Y-167404094D01*
X87928806Y-167692340D01*
X87597559Y-168009814D01*
X87294435Y-168354230D01*
X87021598Y-168723130D01*
X86781037Y-169113825D01*
X86781026Y-169113845D01*
X86574472Y-169523520D01*
X86574468Y-169523531D01*
X86403401Y-169949248D01*
X86403399Y-169949253D01*
X86269043Y-170387971D01*
X86172381Y-170836486D01*
X86114101Y-171291605D01*
X86094630Y-171749993D01*
X80405370Y-171749993D01*
X80385897Y-171291593D01*
X80327619Y-170836488D01*
X80230955Y-170387965D01*
X80096601Y-169949256D01*
X79925527Y-169523521D01*
X79925527Y-169523520D01*
X79718973Y-169113845D01*
X79718962Y-169113825D01*
X79667601Y-169030410D01*
X79478401Y-168723129D01*
X79205571Y-168354238D01*
X78902440Y-168009814D01*
X78571191Y-167692338D01*
X78214212Y-167404098D01*
X77834075Y-167147170D01*
X77811723Y-167134683D01*
X77433526Y-166923409D01*
X77433505Y-166923398D01*
X77015433Y-166734418D01*
X76582810Y-166581563D01*
X76138797Y-166465951D01*
X75686588Y-166388412D01*
X75686562Y-166388409D01*
X75229428Y-166349500D01*
X75229410Y-166349500D01*
X74770590Y-166349500D01*
X74770571Y-166349500D01*
X74313437Y-166388409D01*
X74313411Y-166388412D01*
X73861202Y-166465951D01*
X73417189Y-166581563D01*
X72984566Y-166734418D01*
X72566494Y-166923398D01*
X72566473Y-166923409D01*
X72165933Y-167147165D01*
X72165914Y-167147177D01*
X71785793Y-167404094D01*
X71428806Y-167692340D01*
X71097559Y-168009814D01*
X70794435Y-168354230D01*
X70521598Y-168723130D01*
X70281037Y-169113825D01*
X70281026Y-169113845D01*
X70074472Y-169523520D01*
X70074468Y-169523531D01*
X69903401Y-169949248D01*
X69903399Y-169949253D01*
X69769043Y-170387971D01*
X69672381Y-170836486D01*
X69614101Y-171291605D01*
X69594630Y-171749993D01*
X63905370Y-171749993D01*
X63885897Y-171291593D01*
X63827619Y-170836488D01*
X63730955Y-170387965D01*
X63596601Y-169949256D01*
X63425527Y-169523521D01*
X63425527Y-169523520D01*
X63218973Y-169113845D01*
X63218962Y-169113825D01*
X63167601Y-169030410D01*
X62978401Y-168723129D01*
X62705571Y-168354238D01*
X62402440Y-168009814D01*
X62071191Y-167692338D01*
X61714212Y-167404098D01*
X61334075Y-167147170D01*
X61311723Y-167134683D01*
X60933526Y-166923409D01*
X60933505Y-166923398D01*
X60515433Y-166734418D01*
X60082810Y-166581563D01*
X59638797Y-166465951D01*
X59186588Y-166388412D01*
X59186562Y-166388409D01*
X58729428Y-166349500D01*
X58729410Y-166349500D01*
X58270590Y-166349500D01*
X58270571Y-166349500D01*
X57813437Y-166388409D01*
X57813411Y-166388412D01*
X57361202Y-166465951D01*
X56917189Y-166581563D01*
X56484566Y-166734418D01*
X56066494Y-166923398D01*
X56066473Y-166923409D01*
X55665933Y-167147165D01*
X55665914Y-167147177D01*
X55285793Y-167404094D01*
X54928806Y-167692340D01*
X54597559Y-168009814D01*
X54294435Y-168354230D01*
X54021598Y-168723130D01*
X53781037Y-169113825D01*
X53781026Y-169113845D01*
X53574472Y-169523520D01*
X53574468Y-169523531D01*
X53403401Y-169949248D01*
X53403399Y-169949253D01*
X53269043Y-170387971D01*
X53172381Y-170836486D01*
X53114101Y-171291605D01*
X53094630Y-171749993D01*
X50500500Y-171749993D01*
X50500500Y-133412465D01*
X77499500Y-133412465D01*
X77499500Y-151587534D01*
X77529898Y-151759937D01*
X77589775Y-151924446D01*
X77677309Y-152076057D01*
X77789836Y-152210163D01*
X77923942Y-152322690D01*
X77923943Y-152322691D01*
X77923945Y-152322692D01*
X78075555Y-152410225D01*
X78240062Y-152470101D01*
X78412468Y-152500500D01*
X78412472Y-152500500D01*
X96587528Y-152500500D01*
X96587532Y-152500500D01*
X96759938Y-152470101D01*
X96924445Y-152410225D01*
X97076055Y-152322692D01*
X97210163Y-152210163D01*
X97322692Y-152076055D01*
X97410225Y-151924445D01*
X97470101Y-151759938D01*
X97500500Y-151587532D01*
X97500500Y-151500000D01*
X97500500Y-151434108D01*
X97500500Y-133434108D01*
X97500500Y-133412468D01*
X97470101Y-133240062D01*
X97410225Y-133075555D01*
X97322692Y-132923945D01*
X97322691Y-132923943D01*
X97322690Y-132923942D01*
X97210163Y-132789836D01*
X97076057Y-132677309D01*
X96924446Y-132589775D01*
X96759937Y-132529898D01*
X96587534Y-132499500D01*
X96587532Y-132499500D01*
X96565892Y-132499500D01*
X78565892Y-132499500D01*
X78500000Y-132499500D01*
X78412468Y-132499500D01*
X78412465Y-132499500D01*
X78240062Y-132529898D01*
X78075553Y-132589775D01*
X77923942Y-132677309D01*
X77789836Y-132789836D01*
X77677309Y-132923942D01*
X77589775Y-133075553D01*
X77529898Y-133240062D01*
X77499500Y-133412465D01*
X50500500Y-133412465D01*
X50500500Y-108250000D01*
X58494675Y-108250000D01*
X58513962Y-108642591D01*
X58513962Y-108642597D01*
X58513963Y-108642599D01*
X58571637Y-109031406D01*
X58667143Y-109412684D01*
X58799561Y-109782770D01*
X58799562Y-109782772D01*
X58967620Y-110138100D01*
X59169692Y-110475236D01*
X59403846Y-110790956D01*
X59667807Y-111082192D01*
X59959043Y-111346153D01*
X59959049Y-111346158D01*
X60274761Y-111580306D01*
X60274763Y-111580307D01*
X60611899Y-111782379D01*
X60611902Y-111782380D01*
X60611903Y-111782381D01*
X60967228Y-111950438D01*
X61337316Y-112082857D01*
X61718600Y-112178364D01*
X62107409Y-112236038D01*
X62500000Y-112255325D01*
X62892591Y-112236038D01*
X63281400Y-112178364D01*
X63662684Y-112082857D01*
X64032772Y-111950438D01*
X64388097Y-111782381D01*
X64725239Y-111580306D01*
X65040951Y-111346158D01*
X65332192Y-111082192D01*
X65596158Y-110790951D01*
X65830306Y-110475239D01*
X66032381Y-110138097D01*
X66200438Y-109782772D01*
X66332857Y-109412684D01*
X66428364Y-109031400D01*
X66486038Y-108642591D01*
X66505325Y-108250000D01*
X83494675Y-108250000D01*
X83513962Y-108642591D01*
X83513962Y-108642597D01*
X83513963Y-108642599D01*
X83571637Y-109031406D01*
X83667143Y-109412684D01*
X83799561Y-109782770D01*
X83799562Y-109782772D01*
X83967620Y-110138100D01*
X84169692Y-110475236D01*
X84403846Y-110790956D01*
X84667807Y-111082192D01*
X84959043Y-111346153D01*
X84959049Y-111346158D01*
X85274761Y-111580306D01*
X85274763Y-111580307D01*
X85611899Y-111782379D01*
X85611902Y-111782380D01*
X85611903Y-111782381D01*
X85967228Y-111950438D01*
X86337316Y-112082857D01*
X86718600Y-112178364D01*
X87107409Y-112236038D01*
X87500000Y-112255325D01*
X87892591Y-112236038D01*
X88281400Y-112178364D01*
X88662684Y-112082857D01*
X89032772Y-111950438D01*
X89388097Y-111782381D01*
X89725239Y-111580306D01*
X90040951Y-111346158D01*
X90332192Y-111082192D01*
X90596158Y-110790951D01*
X90830306Y-110475239D01*
X91032381Y-110138097D01*
X91200438Y-109782772D01*
X91332857Y-109412684D01*
X91428364Y-109031400D01*
X91486038Y-108642591D01*
X91505325Y-108250000D01*
X91486038Y-107857409D01*
X91428364Y-107468600D01*
X91332857Y-107087316D01*
X91200438Y-106717228D01*
X91032381Y-106361903D01*
X90830306Y-106024761D01*
X90596158Y-105709049D01*
X90596153Y-105709043D01*
X90332192Y-105417807D01*
X90040956Y-105153846D01*
X89725236Y-104919692D01*
X89388100Y-104717620D01*
X89032772Y-104549562D01*
X89032770Y-104549561D01*
X88662684Y-104417143D01*
X88281406Y-104321637D01*
X88281401Y-104321636D01*
X88281400Y-104321636D01*
X88137256Y-104300254D01*
X87892599Y-104263963D01*
X87892597Y-104263962D01*
X87892591Y-104263962D01*
X87500000Y-104244675D01*
X87107409Y-104263962D01*
X87107403Y-104263962D01*
X87107400Y-104263963D01*
X86718593Y-104321637D01*
X86337315Y-104417143D01*
X85967229Y-104549561D01*
X85967227Y-104549562D01*
X85611899Y-104717620D01*
X85274763Y-104919692D01*
X84959043Y-105153846D01*
X84667807Y-105417807D01*
X84403846Y-105709043D01*
X84169692Y-106024763D01*
X83967620Y-106361899D01*
X83799562Y-106717227D01*
X83799561Y-106717229D01*
X83667143Y-107087315D01*
X83571637Y-107468593D01*
X83571636Y-107468600D01*
X83513962Y-107857409D01*
X83494675Y-108250000D01*
X66505325Y-108250000D01*
X66486038Y-107857409D01*
X66428364Y-107468600D01*
X66332857Y-107087316D01*
X66200438Y-106717228D01*
X66032381Y-106361903D01*
X65830306Y-106024761D01*
X65596158Y-105709049D01*
X65596153Y-105709043D01*
X65332192Y-105417807D01*
X65040956Y-105153846D01*
X64725236Y-104919692D01*
X64388100Y-104717620D01*
X64032772Y-104549562D01*
X64032770Y-104549561D01*
X63662684Y-104417143D01*
X63281406Y-104321637D01*
X63281401Y-104321636D01*
X63281400Y-104321636D01*
X63137256Y-104300254D01*
X62892599Y-104263963D01*
X62892597Y-104263962D01*
X62892591Y-104263962D01*
X62500000Y-104244675D01*
X62107409Y-104263962D01*
X62107403Y-104263962D01*
X62107400Y-104263963D01*
X61718593Y-104321637D01*
X61337315Y-104417143D01*
X60967229Y-104549561D01*
X60967227Y-104549562D01*
X60611899Y-104717620D01*
X60274763Y-104919692D01*
X59959043Y-105153846D01*
X59667807Y-105417807D01*
X59403846Y-105709043D01*
X59169692Y-106024763D01*
X58967620Y-106361899D01*
X58799562Y-106717227D01*
X58799561Y-106717229D01*
X58667143Y-107087315D01*
X58571637Y-107468593D01*
X58571636Y-107468600D01*
X58513962Y-107857409D01*
X58494675Y-108250000D01*
X50500500Y-108250000D01*
X50500500Y-85047844D01*
X52000000Y-85047844D01*
X52006401Y-85107372D01*
X52006403Y-85107379D01*
X52056645Y-85242086D01*
X52056649Y-85242093D01*
X52142809Y-85357187D01*
X52142812Y-85357190D01*
X52257906Y-85443350D01*
X52257913Y-85443354D01*
X52392620Y-85493596D01*
X52392627Y-85493598D01*
X52452155Y-85499999D01*
X52452172Y-85500000D01*
X54750000Y-85500000D01*
X55250000Y-85500000D01*
X57547828Y-85500000D01*
X57547844Y-85499999D01*
X57607372Y-85493598D01*
X57607379Y-85493596D01*
X57742086Y-85443354D01*
X57742093Y-85443350D01*
X57857187Y-85357190D01*
X57857190Y-85357187D01*
X57943350Y-85242093D01*
X57943354Y-85242086D01*
X57993596Y-85107379D01*
X57993598Y-85107372D01*
X57999999Y-85047844D01*
X58000000Y-85047827D01*
X58000000Y-80250000D01*
X55250000Y-80250000D01*
X55250000Y-85500000D01*
X54750000Y-85500000D01*
X54750000Y-80250000D01*
X52000000Y-80250000D01*
X52000000Y-85047844D01*
X50500500Y-85047844D01*
X50500500Y-74952155D01*
X52000000Y-74952155D01*
X52000000Y-79750000D01*
X54750000Y-79750000D01*
X55250000Y-79750000D01*
X58000000Y-79750000D01*
X58000000Y-74952172D01*
X57999999Y-74952155D01*
X57993598Y-74892627D01*
X57993596Y-74892620D01*
X57943354Y-74757913D01*
X57943350Y-74757906D01*
X57857190Y-74642812D01*
X57857187Y-74642809D01*
X57742093Y-74556649D01*
X57742086Y-74556645D01*
X57607379Y-74506403D01*
X57607372Y-74506401D01*
X57547844Y-74500000D01*
X55250000Y-74500000D01*
X55250000Y-79750000D01*
X54750000Y-79750000D01*
X54750000Y-74500000D01*
X52452155Y-74500000D01*
X52392627Y-74506401D01*
X52392620Y-74506403D01*
X52257913Y-74556645D01*
X52257906Y-74556649D01*
X52142812Y-74642809D01*
X52142809Y-74642812D01*
X52056649Y-74757906D01*
X52056645Y-74757913D01*
X52006403Y-74892620D01*
X52006401Y-74892627D01*
X52000000Y-74952155D01*
X50500500Y-74952155D01*
X50500500Y-71000000D01*
X70994675Y-71000000D01*
X71013962Y-71392591D01*
X71013962Y-71392597D01*
X71013963Y-71392599D01*
X71071637Y-71781406D01*
X71167143Y-72162684D01*
X71299561Y-72532770D01*
X71299562Y-72532772D01*
X71467620Y-72888100D01*
X71669692Y-73225236D01*
X71903846Y-73540956D01*
X72167807Y-73832192D01*
X72459043Y-74096153D01*
X72459049Y-74096158D01*
X72774761Y-74330306D01*
X72774763Y-74330307D01*
X73111899Y-74532379D01*
X73111902Y-74532380D01*
X73111903Y-74532381D01*
X73467228Y-74700438D01*
X73837316Y-74832857D01*
X74218600Y-74928364D01*
X74607409Y-74986038D01*
X75000000Y-75005325D01*
X75392591Y-74986038D01*
X75781400Y-74928364D01*
X76162684Y-74832857D01*
X76532772Y-74700438D01*
X76888097Y-74532381D01*
X77225239Y-74330306D01*
X77540951Y-74096158D01*
X77832192Y-73832192D01*
X78096158Y-73540951D01*
X78330306Y-73225239D01*
X78532381Y-72888097D01*
X78700438Y-72532772D01*
X78832857Y-72162684D01*
X78928364Y-71781400D01*
X78986038Y-71392591D01*
X79005325Y-71000000D01*
X78986038Y-70607409D01*
X78928364Y-70218600D01*
X78832857Y-69837316D01*
X78700438Y-69467228D01*
X78532381Y-69111903D01*
X78330306Y-68774761D01*
X78096158Y-68459049D01*
X78096153Y-68459043D01*
X77832192Y-68167807D01*
X77540956Y-67903846D01*
X77225236Y-67669692D01*
X76888100Y-67467620D01*
X76532772Y-67299562D01*
X76532770Y-67299561D01*
X76162684Y-67167143D01*
X75781406Y-67071637D01*
X75781401Y-67071636D01*
X75781400Y-67071636D01*
X75637256Y-67050254D01*
X75392599Y-67013963D01*
X75392597Y-67013962D01*
X75392591Y-67013962D01*
X75000000Y-66994675D01*
X74607409Y-67013962D01*
X74607403Y-67013962D01*
X74607400Y-67013963D01*
X74218593Y-67071637D01*
X73837315Y-67167143D01*
X73467229Y-67299561D01*
X73467227Y-67299562D01*
X73111899Y-67467620D01*
X72774763Y-67669692D01*
X72459043Y-67903846D01*
X72167807Y-68167807D01*
X71903846Y-68459043D01*
X71669692Y-68774763D01*
X71467620Y-69111899D01*
X71299562Y-69467227D01*
X71299561Y-69467229D01*
X71167143Y-69837315D01*
X71071637Y-70218593D01*
X71071636Y-70218600D01*
X71013962Y-70607409D01*
X70994675Y-71000000D01*
X50500500Y-71000000D01*
X50500500Y-47381995D01*
X73199500Y-47381995D01*
X73199500Y-47618004D01*
X73199501Y-47618020D01*
X73230306Y-47852010D01*
X73291394Y-48079993D01*
X73381714Y-48298045D01*
X73381719Y-48298056D01*
X73452677Y-48420957D01*
X73499727Y-48502450D01*
X73499729Y-48502453D01*
X73499730Y-48502454D01*
X73643406Y-48689697D01*
X73643412Y-48689704D01*
X73810295Y-48856587D01*
X73810301Y-48856592D01*
X73997550Y-49000273D01*
X74128918Y-49076118D01*
X74201943Y-49118280D01*
X74201948Y-49118282D01*
X74201951Y-49118284D01*
X74420007Y-49208606D01*
X74647986Y-49269693D01*
X74881989Y-49300500D01*
X74881996Y-49300500D01*
X75118004Y-49300500D01*
X75118011Y-49300500D01*
X75352014Y-49269693D01*
X75579993Y-49208606D01*
X75798049Y-49118284D01*
X76002450Y-49000273D01*
X76189699Y-48856592D01*
X76356592Y-48689699D01*
X76500273Y-48502450D01*
X76618284Y-48298049D01*
X76708606Y-48079993D01*
X76769693Y-47852014D01*
X76800500Y-47618011D01*
X76800500Y-47381989D01*
X76769693Y-47147986D01*
X76708606Y-46920007D01*
X76618284Y-46701951D01*
X76618282Y-46701948D01*
X76618280Y-46701943D01*
X76576118Y-46628918D01*
X76500273Y-46497550D01*
X76356592Y-46310301D01*
X76356587Y-46310295D01*
X76189704Y-46143412D01*
X76189697Y-46143406D01*
X76002454Y-45999730D01*
X76002453Y-45999729D01*
X76002450Y-45999727D01*
X75920957Y-45952677D01*
X75798056Y-45881719D01*
X75798045Y-45881714D01*
X75579993Y-45791394D01*
X75352010Y-45730306D01*
X75118020Y-45699501D01*
X75118017Y-45699500D01*
X75118011Y-45699500D01*
X74881989Y-45699500D01*
X74881983Y-45699500D01*
X74881979Y-45699501D01*
X74647989Y-45730306D01*
X74420006Y-45791394D01*
X74201954Y-45881714D01*
X74201943Y-45881719D01*
X73997545Y-45999730D01*
X73810302Y-46143406D01*
X73810295Y-46143412D01*
X73643412Y-46310295D01*
X73643406Y-46310302D01*
X73499730Y-46497545D01*
X73381719Y-46701943D01*
X73381714Y-46701954D01*
X73291394Y-46920006D01*
X73230306Y-47147989D01*
X73199501Y-47381979D01*
X73199500Y-47381995D01*
X50500500Y-47381995D01*
X50500500Y-30624500D01*
X50520185Y-30557461D01*
X50572989Y-30511706D01*
X50624500Y-30500500D01*
X99375500Y-30500500D01*
X99442539Y-30520185D01*
G37*
%TD.AperFunction*%
%TD*%
M02*
