%TF.GenerationSoftware,KiCad,Pcbnew,8.0.5*%
%TF.CreationDate,2024-12-04T18:31:37+01:00*%
%TF.ProjectId,DMH_S_H_Noise_PANEL,444d485f-535f-4485-9f4e-6f6973655f50,rev?*%
%TF.SameCoordinates,Original*%
%TF.FileFunction,Profile,NP*%
%FSLAX46Y46*%
G04 Gerber Fmt 4.6, Leading zero omitted, Abs format (unit mm)*
G04 Created by KiCad (PCBNEW 8.0.5) date 2024-12-04 18:31:37*
%MOMM*%
%LPD*%
G01*
G04 APERTURE LIST*
%TA.AperFunction,Profile*%
%ADD10C,0.050000*%
%TD*%
G04 APERTURE END LIST*
D10*
X50000000Y-30000000D02*
X100000000Y-30000000D01*
X100000000Y-230000000D01*
X50000000Y-230000000D01*
X50000000Y-30000000D01*
%TO.C,H7*%
X91000000Y-108250000D02*
G75*
G02*
X84000000Y-108250000I-3500000J0D01*
G01*
X84000000Y-108250000D02*
G75*
G02*
X91000000Y-108250000I3500000J0D01*
G01*
%TO.C,H6*%
X66000000Y-108250000D02*
G75*
G02*
X59000000Y-108250000I-3500000J0D01*
G01*
X59000000Y-108250000D02*
G75*
G02*
X66000000Y-108250000I3500000J0D01*
G01*
%TO.C,H5*%
X78500000Y-71000000D02*
G75*
G02*
X71500000Y-71000000I-3500000J0D01*
G01*
X71500000Y-71000000D02*
G75*
G02*
X78500000Y-71000000I3500000J0D01*
G01*
%TO.C,H10*%
X63400000Y-190250000D02*
G75*
G02*
X53600000Y-190250000I-4900000J0D01*
G01*
X53600000Y-190250000D02*
G75*
G02*
X63400000Y-190250000I4900000J0D01*
G01*
%TO.C,H19*%
X79900000Y-190250000D02*
G75*
G02*
X70100000Y-190250000I-4900000J0D01*
G01*
X70100000Y-190250000D02*
G75*
G02*
X79900000Y-190250000I4900000J0D01*
G01*
%TO.C,H17*%
X78000000Y-133500000D02*
X78000000Y-151500000D01*
X78500000Y-133000000D02*
X96500000Y-133000000D01*
X78500000Y-152000000D02*
X96500000Y-152000000D01*
X97000000Y-133500000D02*
X97000000Y-151500000D01*
X78000000Y-133500000D02*
G75*
G02*
X78500000Y-133000000I500001J-1D01*
G01*
X78500000Y-152000000D02*
G75*
G02*
X78000000Y-151500000I1J500001D01*
G01*
X96500000Y-133000000D02*
G75*
G02*
X97000000Y-133500000I0J-500000D01*
G01*
X97000000Y-151500000D02*
G75*
G02*
X96500000Y-152000000I-500000J0D01*
G01*
%TO.C,H12*%
X96400000Y-190250000D02*
G75*
G02*
X86600000Y-190250000I-4900000J0D01*
G01*
X86600000Y-190250000D02*
G75*
G02*
X96400000Y-190250000I4900000J0D01*
G01*
%TO.C,H8*%
X63400000Y-171750000D02*
G75*
G02*
X53600000Y-171750000I-4900000J0D01*
G01*
X53600000Y-171750000D02*
G75*
G02*
X63400000Y-171750000I4900000J0D01*
G01*
%TO.C,H14*%
X63400000Y-208750000D02*
G75*
G02*
X53600000Y-208750000I-4900000J0D01*
G01*
X53600000Y-208750000D02*
G75*
G02*
X63400000Y-208750000I4900000J0D01*
G01*
%TO.C,H13*%
X79900000Y-208750000D02*
G75*
G02*
X70100000Y-208750000I-4900000J0D01*
G01*
X70100000Y-208750000D02*
G75*
G02*
X79900000Y-208750000I4900000J0D01*
G01*
%TO.C,H15*%
X96400000Y-208750000D02*
G75*
G02*
X86600000Y-208750000I-4900000J0D01*
G01*
X86600000Y-208750000D02*
G75*
G02*
X96400000Y-208750000I4900000J0D01*
G01*
%TO.C,H9*%
X79900000Y-171750000D02*
G75*
G02*
X70100000Y-171750000I-4900000J0D01*
G01*
X70100000Y-171750000D02*
G75*
G02*
X79900000Y-171750000I4900000J0D01*
G01*
%TO.C,H11*%
X96400000Y-171750000D02*
G75*
G02*
X86600000Y-171750000I-4900000J0D01*
G01*
X86600000Y-171750000D02*
G75*
G02*
X96400000Y-171750000I4900000J0D01*
G01*
%TD*%
M02*
