%TF.GenerationSoftware,KiCad,Pcbnew,8.0.5*%
%TF.CreationDate,2024-12-04T18:47:01+01:00*%
%TF.ProjectId,DMH_S_H_Noise_PCB_Conn,444d485f-535f-4485-9f4e-6f6973655f50,1*%
%TF.SameCoordinates,Original*%
%TF.FileFunction,Copper,L1,Top*%
%TF.FilePolarity,Positive*%
%FSLAX46Y46*%
G04 Gerber Fmt 4.6, Leading zero omitted, Abs format (unit mm)*
G04 Created by KiCad (PCBNEW 8.0.5) date 2024-12-04 18:47:01*
%MOMM*%
%LPD*%
G01*
G04 APERTURE LIST*
G04 Aperture macros list*
%AMHorizOval*
0 Thick line with rounded ends*
0 $1 width*
0 $2 $3 position (X,Y) of the first rounded end (center of the circle)*
0 $4 $5 position (X,Y) of the second rounded end (center of the circle)*
0 Add line between two ends*
20,1,$1,$2,$3,$4,$5,0*
0 Add two circle primitives to create the rounded ends*
1,1,$1,$2,$3*
1,1,$1,$4,$5*%
G04 Aperture macros list end*
%TA.AperFunction,ComponentPad*%
%ADD10HorizOval,1.508000X-0.533159X0.533159X0.533159X-0.533159X0*%
%TD*%
%TA.AperFunction,ComponentPad*%
%ADD11O,3.016000X1.508000*%
%TD*%
%TA.AperFunction,ComponentPad*%
%ADD12O,1.508000X3.016000*%
%TD*%
%TA.AperFunction,ComponentPad*%
%ADD13HorizOval,1.508000X0.533159X0.533159X-0.533159X-0.533159X0*%
%TD*%
%TA.AperFunction,ComponentPad*%
%ADD14R,1.700000X1.700000*%
%TD*%
%TA.AperFunction,ComponentPad*%
%ADD15O,1.700000X1.700000*%
%TD*%
%TA.AperFunction,Conductor*%
%ADD16C,0.200000*%
%TD*%
G04 APERTURE END LIST*
D10*
%TO.P,J7,S*%
%TO.N,GND*%
X63096190Y-204153810D03*
D11*
%TO.P,J7,T*%
%TO.N,/Inputs and Outputs/Pink*%
X59000000Y-215250000D03*
D12*
%TO.P,J7,TN*%
%TO.N,Net-(J70-Pin_4)*%
X65000000Y-211250000D03*
%TD*%
D10*
%TO.P,J5,S*%
%TO.N,GND*%
X86903810Y-176346190D03*
D11*
%TO.P,J5,T*%
%TO.N,/Inputs and Outputs/S&H Out*%
X91000000Y-165250000D03*
D12*
%TO.P,J5,TN*%
%TO.N,Net-(J70-Pin_2)*%
X85000000Y-169250000D03*
%TD*%
D10*
%TO.P,J1,S*%
%TO.N,GND*%
X63096190Y-167153810D03*
D11*
%TO.P,J1,T*%
%TO.N,/Inputs and Outputs/Input*%
X59000000Y-178250000D03*
D12*
%TO.P,J1,TN*%
%TO.N,/Inputs and Outputs/White*%
X65000000Y-174250000D03*
%TD*%
D13*
%TO.P,J3,S*%
%TO.N,GND*%
X79596190Y-176346190D03*
D12*
%TO.P,J3,T*%
%TO.N,/Inputs and Outputs/External Clock*%
X68500000Y-172250000D03*
D11*
%TO.P,J3,TN*%
%TO.N,/Inputs and Outputs/Internal Clock*%
X72500000Y-178250000D03*
%TD*%
D13*
%TO.P,J8,S*%
%TO.N,GND*%
X79596190Y-213346190D03*
D12*
%TO.P,J8,T*%
%TO.N,/Inputs and Outputs/White*%
X68500000Y-209250000D03*
D11*
%TO.P,J8,TN*%
%TO.N,Net-(J70-Pin_5)*%
X72500000Y-215250000D03*
%TD*%
D10*
%TO.P,J9,S*%
%TO.N,GND*%
X86903810Y-213346190D03*
D11*
%TO.P,J9,T*%
%TO.N,/Inputs and Outputs/Blue*%
X91000000Y-202250000D03*
D12*
%TO.P,J9,TN*%
%TO.N,Net-(J70-Pin_6)*%
X85000000Y-206250000D03*
%TD*%
D14*
%TO.P,J70,1,Pin_1*%
%TO.N,Net-(J70-Pin_1)*%
X97650000Y-161100000D03*
D15*
%TO.P,J70,2,Pin_2*%
%TO.N,Net-(J70-Pin_2)*%
X95110000Y-161100000D03*
%TO.P,J70,3,Pin_3*%
%TO.N,Net-(J70-Pin_3)*%
X92570000Y-161100000D03*
%TO.P,J70,4,Pin_4*%
%TO.N,Net-(J70-Pin_4)*%
X90030000Y-161100000D03*
%TO.P,J70,5,Pin_5*%
%TO.N,Net-(J70-Pin_5)*%
X87490000Y-161100000D03*
%TO.P,J70,6,Pin_6*%
%TO.N,Net-(J70-Pin_6)*%
X84950000Y-161100000D03*
%TD*%
D13*
%TO.P,J4,S*%
%TO.N,GND*%
X79596190Y-194846190D03*
D12*
%TO.P,J4,T*%
%TO.N,/Inputs and Outputs/Clock Out*%
X68500000Y-190750000D03*
D11*
%TO.P,J4,TN*%
%TO.N,Net-(J70-Pin_1)*%
X72500000Y-196750000D03*
%TD*%
D14*
%TO.P,J50,1,Pin_1*%
%TO.N,/Inputs and Outputs/Input*%
X52350000Y-161100000D03*
D15*
%TO.P,J50,2,Pin_2*%
%TO.N,/Inputs and Outputs/Slew In*%
X54890000Y-161100000D03*
%TO.P,J50,3,Pin_3*%
%TO.N,/Inputs and Outputs/S&H*%
X57430000Y-161100000D03*
%TO.P,J50,4,Pin_4*%
%TO.N,/Inputs and Outputs/External Clock*%
X59970000Y-161100000D03*
%TO.P,J50,5,Pin_5*%
%TO.N,/Inputs and Outputs/Internal Clock*%
X62510000Y-161100000D03*
%TO.P,J50,6,Pin_6*%
%TO.N,/Inputs and Outputs/Clock Out*%
X65050000Y-161100000D03*
%TD*%
D10*
%TO.P,J2,S*%
%TO.N,GND*%
X63096190Y-185653810D03*
D11*
%TO.P,J2,T*%
%TO.N,/Inputs and Outputs/Slew In*%
X59000000Y-196750000D03*
D12*
%TO.P,J2,TN*%
%TO.N,/Inputs and Outputs/S&H*%
X65000000Y-192750000D03*
%TD*%
D14*
%TO.P,J60,1,Pin_1*%
%TO.N,/Inputs and Outputs/S&H Out*%
X81350000Y-161100000D03*
D15*
%TO.P,J60,2,Pin_2*%
%TO.N,/Inputs and Outputs/Slew Out*%
X78810000Y-161100000D03*
%TO.P,J60,3,Pin_3*%
%TO.N,/Inputs and Outputs/Pink*%
X76270000Y-161100000D03*
%TO.P,J60,4,Pin_4*%
%TO.N,/Inputs and Outputs/White*%
X73730000Y-161100000D03*
%TO.P,J60,5,Pin_5*%
%TO.N,/Inputs and Outputs/Blue*%
X71190000Y-161100000D03*
%TO.P,J60,6,Pin_6*%
%TO.N,GND*%
X68650000Y-161100000D03*
%TD*%
D10*
%TO.P,J6,S*%
%TO.N,GND*%
X86903810Y-194846190D03*
D11*
%TO.P,J6,T*%
%TO.N,/Inputs and Outputs/Slew Out*%
X91000000Y-183750000D03*
D12*
%TO.P,J6,TN*%
%TO.N,Net-(J70-Pin_3)*%
X85000000Y-187750000D03*
%TD*%
D16*
%TO.N,/Inputs and Outputs/White*%
X65000000Y-174250000D02*
X66750000Y-176000000D01*
X73730000Y-161100000D02*
X65000000Y-169830000D01*
X65000000Y-169830000D02*
X65000000Y-174250000D01*
X68500000Y-193500000D02*
X68500000Y-209250000D01*
X66750000Y-176000000D02*
X66750000Y-191750000D01*
X66750000Y-191750000D02*
X68500000Y-193500000D01*
%TO.N,Net-(J70-Pin_2)*%
X92014000Y-164196000D02*
X89304000Y-164196000D01*
X89304000Y-164196000D02*
X85000000Y-168500000D01*
X95110000Y-161100000D02*
X92014000Y-164196000D01*
X85000000Y-168500000D02*
X85000000Y-169250000D01*
%TO.N,Net-(J70-Pin_3)*%
X85000000Y-184750000D02*
X85000000Y-187750000D01*
X92570000Y-161100000D02*
X94070000Y-159600000D01*
X96260000Y-160260000D02*
X96260000Y-173490000D01*
X95600000Y-159600000D02*
X96260000Y-160260000D01*
X96260000Y-173490000D02*
X85000000Y-184750000D01*
X94070000Y-159600000D02*
X95600000Y-159600000D01*
%TO.N,/Inputs and Outputs/Pink*%
X67750000Y-215250000D02*
X59000000Y-215250000D01*
X76270000Y-161100000D02*
X76270000Y-206730000D01*
X76270000Y-206730000D02*
X67750000Y-215250000D01*
%TO.N,Net-(J70-Pin_4)*%
X75000000Y-161456346D02*
X70000000Y-166456346D01*
X70000000Y-210250000D02*
X69000000Y-211250000D01*
X90030000Y-161100000D02*
X88530000Y-159600000D01*
X69000000Y-211250000D02*
X65000000Y-211250000D01*
X88530000Y-159600000D02*
X76020241Y-159600000D01*
X75000000Y-160620241D02*
X75000000Y-161456346D01*
X76020241Y-159600000D02*
X75000000Y-160620241D01*
X70000000Y-166456346D02*
X70000000Y-210250000D01*
%TO.N,Net-(J70-Pin_5)*%
X82500000Y-166090000D02*
X82500000Y-205250000D01*
X82500000Y-205250000D02*
X72500000Y-215250000D01*
X87490000Y-161100000D02*
X82500000Y-166090000D01*
%TD*%
%TA.AperFunction,Conductor*%
%TO.N,GND*%
G36*
X54892285Y-159516719D02*
G01*
X54918518Y-159502931D01*
X54942950Y-159500500D01*
X57377050Y-159500500D01*
X57432285Y-159516719D01*
X57458518Y-159502931D01*
X57482950Y-159500500D01*
X59917050Y-159500500D01*
X59972285Y-159516719D01*
X59998518Y-159502931D01*
X60022950Y-159500500D01*
X62457050Y-159500500D01*
X62512285Y-159516719D01*
X62538518Y-159502931D01*
X62562950Y-159500500D01*
X64997050Y-159500500D01*
X65052285Y-159516719D01*
X65078518Y-159502931D01*
X65102950Y-159500500D01*
X71137050Y-159500500D01*
X71192285Y-159516719D01*
X71218518Y-159502931D01*
X71242950Y-159500500D01*
X73677050Y-159500500D01*
X73732285Y-159516719D01*
X73758518Y-159502931D01*
X73782950Y-159500500D01*
X74971143Y-159500500D01*
X75038182Y-159520185D01*
X75083937Y-159572989D01*
X75093881Y-159642147D01*
X75064856Y-159705703D01*
X75058842Y-159712162D01*
X74767805Y-160003198D01*
X74738553Y-160032451D01*
X74677230Y-160065935D01*
X74607538Y-160060951D01*
X74579751Y-160046345D01*
X74407830Y-159925965D01*
X74193663Y-159826097D01*
X74193659Y-159826096D01*
X74193655Y-159826094D01*
X73965413Y-159764938D01*
X73965403Y-159764936D01*
X73772142Y-159748028D01*
X73730344Y-159731677D01*
X73711985Y-159743477D01*
X73687858Y-159748028D01*
X73494596Y-159764936D01*
X73494586Y-159764938D01*
X73266344Y-159826094D01*
X73266335Y-159826098D01*
X73052171Y-159925964D01*
X73052169Y-159925965D01*
X72858597Y-160061505D01*
X72691505Y-160228597D01*
X72561575Y-160414158D01*
X72506998Y-160457783D01*
X72437500Y-160464977D01*
X72375145Y-160433454D01*
X72358425Y-160414158D01*
X72228494Y-160228597D01*
X72061402Y-160061506D01*
X72061395Y-160061501D01*
X71867834Y-159925967D01*
X71867830Y-159925965D01*
X71867828Y-159925964D01*
X71653663Y-159826097D01*
X71653659Y-159826096D01*
X71653655Y-159826094D01*
X71425413Y-159764938D01*
X71425403Y-159764936D01*
X71232142Y-159748028D01*
X71190344Y-159731677D01*
X71171985Y-159743477D01*
X71147858Y-159748028D01*
X70954596Y-159764936D01*
X70954586Y-159764938D01*
X70726344Y-159826094D01*
X70726335Y-159826098D01*
X70512171Y-159925964D01*
X70512169Y-159925965D01*
X70318597Y-160061505D01*
X70151508Y-160228594D01*
X70021269Y-160414595D01*
X69966692Y-160458219D01*
X69897193Y-160465412D01*
X69834839Y-160433890D01*
X69818119Y-160414594D01*
X69688113Y-160228926D01*
X69688108Y-160228920D01*
X69521082Y-160061894D01*
X69327578Y-159926399D01*
X69113492Y-159826570D01*
X69113486Y-159826567D01*
X68900000Y-159769364D01*
X68900000Y-160666988D01*
X68842993Y-160634075D01*
X68715826Y-160600000D01*
X68584174Y-160600000D01*
X68457007Y-160634075D01*
X68400000Y-160666988D01*
X68400000Y-159769364D01*
X68399999Y-159769364D01*
X68186513Y-159826567D01*
X68186507Y-159826570D01*
X67972422Y-159926399D01*
X67972420Y-159926400D01*
X67778926Y-160061886D01*
X67778920Y-160061891D01*
X67611891Y-160228920D01*
X67611886Y-160228926D01*
X67476400Y-160422420D01*
X67476399Y-160422422D01*
X67376570Y-160636507D01*
X67376567Y-160636513D01*
X67319364Y-160849999D01*
X67319364Y-160850000D01*
X68216988Y-160850000D01*
X68184075Y-160907007D01*
X68150000Y-161034174D01*
X68150000Y-161165826D01*
X68184075Y-161292993D01*
X68216988Y-161350000D01*
X67319364Y-161350000D01*
X67376567Y-161563486D01*
X67376570Y-161563492D01*
X67476399Y-161777578D01*
X67611894Y-161971082D01*
X67778917Y-162138105D01*
X67972421Y-162273600D01*
X68186507Y-162373429D01*
X68186516Y-162373433D01*
X68400000Y-162430634D01*
X68400000Y-161533012D01*
X68457007Y-161565925D01*
X68584174Y-161600000D01*
X68715826Y-161600000D01*
X68842993Y-161565925D01*
X68900000Y-161533012D01*
X68900000Y-162430633D01*
X69113483Y-162373433D01*
X69113492Y-162373429D01*
X69327578Y-162273600D01*
X69521082Y-162138105D01*
X69688105Y-161971082D01*
X69818119Y-161785405D01*
X69872696Y-161741781D01*
X69942195Y-161734588D01*
X70004549Y-161766110D01*
X70021269Y-161785405D01*
X70151505Y-161971401D01*
X70318599Y-162138495D01*
X70415384Y-162206265D01*
X70512165Y-162274032D01*
X70512167Y-162274033D01*
X70512170Y-162274035D01*
X70726337Y-162373903D01*
X70954592Y-162435063D01*
X71131034Y-162450500D01*
X71189999Y-162455659D01*
X71190000Y-162455659D01*
X71190001Y-162455659D01*
X71204106Y-162454424D01*
X71217842Y-162453223D01*
X71286342Y-162466989D01*
X71336525Y-162515604D01*
X71352459Y-162583633D01*
X71329084Y-162649476D01*
X71316331Y-162664432D01*
X64631286Y-169349478D01*
X64519481Y-169461282D01*
X64519479Y-169461285D01*
X64469361Y-169548094D01*
X64469359Y-169548096D01*
X64440425Y-169598209D01*
X64440424Y-169598210D01*
X64440423Y-169598215D01*
X64399499Y-169750943D01*
X64399499Y-169750945D01*
X64399499Y-169919046D01*
X64399500Y-169919059D01*
X64399500Y-172318682D01*
X64379815Y-172385721D01*
X64345675Y-172419139D01*
X64346440Y-172420192D01*
X64182753Y-172539115D01*
X64043115Y-172678753D01*
X63927058Y-172838495D01*
X63837408Y-173014441D01*
X63776389Y-173202236D01*
X63745500Y-173397263D01*
X63745500Y-175102736D01*
X63776389Y-175297763D01*
X63837408Y-175485558D01*
X63837409Y-175485561D01*
X63911663Y-175631290D01*
X63927058Y-175661504D01*
X64043115Y-175821246D01*
X64182753Y-175960884D01*
X64322507Y-176062419D01*
X64342499Y-176076944D01*
X64518439Y-176166591D01*
X64643637Y-176207270D01*
X64706236Y-176227610D01*
X64901264Y-176258500D01*
X64901269Y-176258500D01*
X65098736Y-176258500D01*
X65293763Y-176227610D01*
X65310693Y-176222109D01*
X65481561Y-176166591D01*
X65657501Y-176076944D01*
X65757285Y-176004446D01*
X65823088Y-175980968D01*
X65891142Y-175996793D01*
X65917849Y-176017085D01*
X66113181Y-176212416D01*
X66146666Y-176273739D01*
X66149500Y-176300097D01*
X66149500Y-191072007D01*
X66129815Y-191139046D01*
X66077011Y-191184801D01*
X66007853Y-191194745D01*
X65944297Y-191165720D01*
X65937819Y-191159688D01*
X65817246Y-191039115D01*
X65657504Y-190923058D01*
X65657503Y-190923057D01*
X65657501Y-190923056D01*
X65481561Y-190833409D01*
X65481558Y-190833408D01*
X65293763Y-190772389D01*
X65098736Y-190741500D01*
X65098731Y-190741500D01*
X64901269Y-190741500D01*
X64901264Y-190741500D01*
X64706236Y-190772389D01*
X64518441Y-190833408D01*
X64342495Y-190923058D01*
X64182753Y-191039115D01*
X64043115Y-191178753D01*
X63927058Y-191338495D01*
X63837408Y-191514441D01*
X63776389Y-191702236D01*
X63745500Y-191897263D01*
X63745500Y-193602736D01*
X63776389Y-193797763D01*
X63837408Y-193985558D01*
X63837409Y-193985561D01*
X63914192Y-194136254D01*
X63927058Y-194161504D01*
X64043115Y-194321246D01*
X64182753Y-194460884D01*
X64322507Y-194562419D01*
X64342499Y-194576944D01*
X64518439Y-194666591D01*
X64643637Y-194707270D01*
X64706236Y-194727610D01*
X64901264Y-194758500D01*
X64901269Y-194758500D01*
X65098736Y-194758500D01*
X65293763Y-194727610D01*
X65310693Y-194722109D01*
X65481561Y-194666591D01*
X65657501Y-194576944D01*
X65773542Y-194492636D01*
X65817246Y-194460884D01*
X65817248Y-194460881D01*
X65817252Y-194460879D01*
X65956879Y-194321252D01*
X65956881Y-194321248D01*
X65956884Y-194321246D01*
X66007779Y-194251192D01*
X66072944Y-194161501D01*
X66162591Y-193985561D01*
X66223610Y-193797763D01*
X66246095Y-193655799D01*
X66254500Y-193602736D01*
X66254500Y-192403097D01*
X66274185Y-192336058D01*
X66326989Y-192290303D01*
X66396147Y-192280359D01*
X66459703Y-192309384D01*
X66466181Y-192315416D01*
X67863181Y-193712416D01*
X67896666Y-193773739D01*
X67899500Y-193800097D01*
X67899500Y-207318682D01*
X67879815Y-207385721D01*
X67845675Y-207419139D01*
X67846440Y-207420192D01*
X67682753Y-207539115D01*
X67543115Y-207678753D01*
X67427058Y-207838495D01*
X67337408Y-208014441D01*
X67276389Y-208202236D01*
X67245500Y-208397263D01*
X67245500Y-210102736D01*
X67276389Y-210297763D01*
X67337936Y-210487182D01*
X67339931Y-210557023D01*
X67303851Y-210616856D01*
X67241150Y-210647684D01*
X67220005Y-210649500D01*
X66378500Y-210649500D01*
X66311461Y-210629815D01*
X66265706Y-210577011D01*
X66254500Y-210525500D01*
X66254500Y-210397263D01*
X66223610Y-210202236D01*
X66191280Y-210102736D01*
X66162591Y-210014439D01*
X66072944Y-209838499D01*
X66065486Y-209828234D01*
X65956884Y-209678753D01*
X65817246Y-209539115D01*
X65657504Y-209423058D01*
X65657503Y-209423057D01*
X65657501Y-209423056D01*
X65481561Y-209333409D01*
X65481558Y-209333408D01*
X65293763Y-209272389D01*
X65098736Y-209241500D01*
X65098731Y-209241500D01*
X64901269Y-209241500D01*
X64901264Y-209241500D01*
X64706236Y-209272389D01*
X64518441Y-209333408D01*
X64342495Y-209423058D01*
X64182753Y-209539115D01*
X64043115Y-209678753D01*
X63927058Y-209838495D01*
X63837408Y-210014441D01*
X63776389Y-210202236D01*
X63745500Y-210397263D01*
X63745500Y-212102736D01*
X63776389Y-212297763D01*
X63837408Y-212485558D01*
X63837409Y-212485561D01*
X63914192Y-212636254D01*
X63927058Y-212661504D01*
X64043115Y-212821246D01*
X64182753Y-212960884D01*
X64322507Y-213062419D01*
X64342499Y-213076944D01*
X64518439Y-213166591D01*
X64643637Y-213207270D01*
X64706236Y-213227610D01*
X64901264Y-213258500D01*
X64901269Y-213258500D01*
X65098736Y-213258500D01*
X65293763Y-213227610D01*
X65310693Y-213222109D01*
X65481561Y-213166591D01*
X65657501Y-213076944D01*
X65773542Y-212992636D01*
X65817246Y-212960884D01*
X65817248Y-212960881D01*
X65817252Y-212960879D01*
X65956879Y-212821252D01*
X65956881Y-212821248D01*
X65956884Y-212821246D01*
X66007779Y-212751192D01*
X66072944Y-212661501D01*
X66162591Y-212485561D01*
X66223610Y-212297763D01*
X66246095Y-212155799D01*
X66254500Y-212102736D01*
X66254500Y-211974500D01*
X66274185Y-211907461D01*
X66326989Y-211861706D01*
X66378500Y-211850500D01*
X68913331Y-211850500D01*
X68913347Y-211850501D01*
X68920943Y-211850501D01*
X69079054Y-211850501D01*
X69079057Y-211850501D01*
X69231785Y-211809577D01*
X69281904Y-211780639D01*
X69368716Y-211730520D01*
X69480520Y-211618716D01*
X69480520Y-211618714D01*
X69490728Y-211608507D01*
X69490729Y-211608504D01*
X70480520Y-210618716D01*
X70559577Y-210481784D01*
X70600501Y-210329057D01*
X70600501Y-210170942D01*
X70600501Y-210163347D01*
X70600500Y-210163329D01*
X70600500Y-197677993D01*
X70620185Y-197610954D01*
X70672989Y-197565199D01*
X70742147Y-197555255D01*
X70805703Y-197584280D01*
X70812181Y-197590312D01*
X70928753Y-197706884D01*
X71078234Y-197815486D01*
X71088499Y-197822944D01*
X71264439Y-197912591D01*
X71389637Y-197953270D01*
X71452236Y-197973610D01*
X71647264Y-198004500D01*
X71647269Y-198004500D01*
X73352736Y-198004500D01*
X73547763Y-197973610D01*
X73735561Y-197912591D01*
X73911501Y-197822944D01*
X74001192Y-197757779D01*
X74071246Y-197706884D01*
X74071248Y-197706881D01*
X74071252Y-197706879D01*
X74210879Y-197567252D01*
X74210881Y-197567248D01*
X74210884Y-197567246D01*
X74261779Y-197497192D01*
X74326944Y-197407501D01*
X74416591Y-197231561D01*
X74477610Y-197043763D01*
X74508500Y-196848736D01*
X74508500Y-196651263D01*
X74477610Y-196456236D01*
X74438492Y-196335844D01*
X74416591Y-196268439D01*
X74326944Y-196092499D01*
X74286324Y-196036590D01*
X74210884Y-195932753D01*
X74071246Y-195793115D01*
X73911504Y-195677058D01*
X73911503Y-195677057D01*
X73911501Y-195677056D01*
X73735561Y-195587409D01*
X73735558Y-195587408D01*
X73547763Y-195526389D01*
X73352736Y-195495500D01*
X73352731Y-195495500D01*
X71647269Y-195495500D01*
X71647264Y-195495500D01*
X71452236Y-195526389D01*
X71264441Y-195587408D01*
X71088495Y-195677058D01*
X70928753Y-195793115D01*
X70928749Y-195793119D01*
X70812181Y-195909688D01*
X70750858Y-195943173D01*
X70681166Y-195938189D01*
X70625233Y-195896317D01*
X70600816Y-195830853D01*
X70600500Y-195822007D01*
X70600500Y-179177993D01*
X70620185Y-179110954D01*
X70672989Y-179065199D01*
X70742147Y-179055255D01*
X70805703Y-179084280D01*
X70812181Y-179090312D01*
X70928753Y-179206884D01*
X71078234Y-179315486D01*
X71088499Y-179322944D01*
X71264439Y-179412591D01*
X71389637Y-179453270D01*
X71452236Y-179473610D01*
X71647264Y-179504500D01*
X71647269Y-179504500D01*
X73352736Y-179504500D01*
X73547763Y-179473610D01*
X73735561Y-179412591D01*
X73911501Y-179322944D01*
X74001192Y-179257779D01*
X74071246Y-179206884D01*
X74071248Y-179206881D01*
X74071252Y-179206879D01*
X74210879Y-179067252D01*
X74210881Y-179067248D01*
X74210884Y-179067246D01*
X74261779Y-178997192D01*
X74326944Y-178907501D01*
X74416591Y-178731561D01*
X74477610Y-178543763D01*
X74508500Y-178348736D01*
X74508500Y-178151263D01*
X74477610Y-177956236D01*
X74438492Y-177835844D01*
X74416591Y-177768439D01*
X74326944Y-177592499D01*
X74286324Y-177536590D01*
X74210884Y-177432753D01*
X74071246Y-177293115D01*
X73911504Y-177177058D01*
X73911503Y-177177057D01*
X73911501Y-177177056D01*
X73735561Y-177087409D01*
X73735558Y-177087408D01*
X73547763Y-177026389D01*
X73352736Y-176995500D01*
X73352731Y-176995500D01*
X71647269Y-176995500D01*
X71647264Y-176995500D01*
X71452236Y-177026389D01*
X71264441Y-177087408D01*
X71088495Y-177177058D01*
X70928753Y-177293115D01*
X70928749Y-177293119D01*
X70812181Y-177409688D01*
X70750858Y-177443173D01*
X70681166Y-177438189D01*
X70625233Y-177396317D01*
X70600816Y-177330853D01*
X70600500Y-177322007D01*
X70600500Y-166756442D01*
X70620185Y-166689403D01*
X70636814Y-166668766D01*
X75195161Y-162110418D01*
X75256484Y-162076934D01*
X75326176Y-162081918D01*
X75370523Y-162110419D01*
X75398599Y-162138495D01*
X75495384Y-162206265D01*
X75592165Y-162274032D01*
X75592167Y-162274033D01*
X75592170Y-162274035D01*
X75597898Y-162276706D01*
X75650339Y-162322872D01*
X75669500Y-162389090D01*
X75669500Y-206429902D01*
X75649815Y-206496941D01*
X75633181Y-206517583D01*
X67537584Y-214613181D01*
X67476261Y-214646666D01*
X67449903Y-214649500D01*
X60931318Y-214649500D01*
X60864279Y-214629815D01*
X60830860Y-214595675D01*
X60829808Y-214596440D01*
X60710884Y-214432753D01*
X60571246Y-214293115D01*
X60411504Y-214177058D01*
X60411503Y-214177057D01*
X60411501Y-214177056D01*
X60235561Y-214087409D01*
X60235558Y-214087408D01*
X60047763Y-214026389D01*
X59852736Y-213995500D01*
X59852731Y-213995500D01*
X58147269Y-213995500D01*
X58147264Y-213995500D01*
X57952236Y-214026389D01*
X57764441Y-214087408D01*
X57588495Y-214177058D01*
X57428753Y-214293115D01*
X57289115Y-214432753D01*
X57173058Y-214592495D01*
X57083408Y-214768441D01*
X57022389Y-214956236D01*
X56991500Y-215151263D01*
X56991500Y-215348736D01*
X57022389Y-215543763D01*
X57083070Y-215730519D01*
X57083409Y-215731561D01*
X57173056Y-215907501D01*
X57173058Y-215907504D01*
X57289115Y-216067246D01*
X57428753Y-216206884D01*
X57578234Y-216315486D01*
X57588499Y-216322944D01*
X57764439Y-216412591D01*
X57889637Y-216453270D01*
X57952236Y-216473610D01*
X58147264Y-216504500D01*
X58147269Y-216504500D01*
X59852736Y-216504500D01*
X60047763Y-216473610D01*
X60235561Y-216412591D01*
X60411501Y-216322944D01*
X60501192Y-216257779D01*
X60571246Y-216206884D01*
X60571248Y-216206881D01*
X60571252Y-216206879D01*
X60710879Y-216067252D01*
X60710881Y-216067248D01*
X60710884Y-216067246D01*
X60829808Y-215903560D01*
X60831238Y-215904599D01*
X60877407Y-215862833D01*
X60931318Y-215850500D01*
X67663331Y-215850500D01*
X67663347Y-215850501D01*
X67670943Y-215850501D01*
X67829054Y-215850501D01*
X67829057Y-215850501D01*
X67981785Y-215809577D01*
X68031904Y-215780639D01*
X68118716Y-215730520D01*
X68230520Y-215618716D01*
X68230520Y-215618714D01*
X68240728Y-215608507D01*
X68240729Y-215608504D01*
X76750520Y-207098716D01*
X76829577Y-206961784D01*
X76870501Y-206809057D01*
X76870501Y-206650942D01*
X76870501Y-206643347D01*
X76870500Y-206643329D01*
X76870500Y-195280657D01*
X77809031Y-195280657D01*
X77809031Y-195478040D01*
X77839909Y-195672996D01*
X77900901Y-195860715D01*
X77900902Y-195860718D01*
X77990514Y-196036590D01*
X78016486Y-196072338D01*
X78016487Y-196072338D01*
X78582897Y-195505928D01*
X78599935Y-195569512D01*
X78665761Y-195683527D01*
X78758853Y-195776619D01*
X78872868Y-195842445D01*
X78936449Y-195859481D01*
X78370040Y-196425890D01*
X78370040Y-196425891D01*
X78405795Y-196451868D01*
X78581661Y-196541477D01*
X78581664Y-196541478D01*
X78769383Y-196602470D01*
X78964340Y-196633349D01*
X79161722Y-196633349D01*
X79356678Y-196602470D01*
X79544397Y-196541478D01*
X79544400Y-196541477D01*
X79720270Y-196451866D01*
X79879958Y-196335844D01*
X79879959Y-196335844D01*
X80306125Y-195909678D01*
X80306125Y-195909677D01*
X79772966Y-195376519D01*
X80126519Y-195022966D01*
X80659678Y-195556125D01*
X81085843Y-195129959D01*
X81085843Y-195129958D01*
X81201865Y-194970269D01*
X81201869Y-194970263D01*
X81291477Y-194794401D01*
X81291479Y-194794395D01*
X81352470Y-194606680D01*
X81383349Y-194411723D01*
X81383349Y-194214339D01*
X81352470Y-194019383D01*
X81291478Y-193831664D01*
X81291477Y-193831661D01*
X81201869Y-193655799D01*
X81201861Y-193655786D01*
X81175891Y-193620041D01*
X81175890Y-193620040D01*
X80609482Y-194186448D01*
X80592446Y-194122868D01*
X80526620Y-194008852D01*
X80433528Y-193915760D01*
X80319512Y-193849934D01*
X80255929Y-193832897D01*
X80822338Y-193266488D01*
X80786588Y-193240514D01*
X80610718Y-193150902D01*
X80610715Y-193150901D01*
X80422996Y-193089909D01*
X80228040Y-193059031D01*
X80030657Y-193059031D01*
X79835699Y-193089909D01*
X79647984Y-193150900D01*
X79647978Y-193150902D01*
X79472116Y-193240510D01*
X79472110Y-193240514D01*
X79312421Y-193356536D01*
X79312419Y-193356537D01*
X78886255Y-193782700D01*
X78886255Y-193782701D01*
X79419413Y-194315859D01*
X79065860Y-194669412D01*
X78532701Y-194136254D01*
X78532700Y-194136254D01*
X78106536Y-194562419D01*
X78106535Y-194562421D01*
X77990513Y-194722109D01*
X77900902Y-194897979D01*
X77900901Y-194897982D01*
X77839909Y-195085701D01*
X77809031Y-195280657D01*
X76870500Y-195280657D01*
X76870500Y-176780657D01*
X77809031Y-176780657D01*
X77809031Y-176978040D01*
X77839909Y-177172996D01*
X77900901Y-177360715D01*
X77900902Y-177360718D01*
X77990514Y-177536590D01*
X78016486Y-177572338D01*
X78016487Y-177572338D01*
X78582897Y-177005928D01*
X78599935Y-177069512D01*
X78665761Y-177183527D01*
X78758853Y-177276619D01*
X78872868Y-177342445D01*
X78936449Y-177359481D01*
X78370040Y-177925890D01*
X78370040Y-177925891D01*
X78405795Y-177951868D01*
X78581661Y-178041477D01*
X78581664Y-178041478D01*
X78769383Y-178102470D01*
X78964340Y-178133349D01*
X79161722Y-178133349D01*
X79356678Y-178102470D01*
X79544397Y-178041478D01*
X79544400Y-178041477D01*
X79720270Y-177951866D01*
X79879958Y-177835844D01*
X79879959Y-177835844D01*
X80306125Y-177409678D01*
X80306125Y-177409677D01*
X79772966Y-176876519D01*
X80126519Y-176522966D01*
X80659678Y-177056125D01*
X81085843Y-176629959D01*
X81085843Y-176629958D01*
X81201865Y-176470269D01*
X81201869Y-176470263D01*
X81291477Y-176294401D01*
X81291479Y-176294395D01*
X81352470Y-176106680D01*
X81383349Y-175911723D01*
X81383349Y-175714339D01*
X81352470Y-175519383D01*
X81291478Y-175331664D01*
X81291477Y-175331661D01*
X81201869Y-175155799D01*
X81201861Y-175155786D01*
X81175891Y-175120041D01*
X81175890Y-175120040D01*
X80609482Y-175686448D01*
X80592446Y-175622868D01*
X80526620Y-175508852D01*
X80433528Y-175415760D01*
X80319512Y-175349934D01*
X80255929Y-175332897D01*
X80822338Y-174766488D01*
X80786588Y-174740514D01*
X80610718Y-174650902D01*
X80610715Y-174650901D01*
X80422996Y-174589909D01*
X80228040Y-174559031D01*
X80030657Y-174559031D01*
X79835699Y-174589909D01*
X79647984Y-174650900D01*
X79647978Y-174650902D01*
X79472116Y-174740510D01*
X79472110Y-174740514D01*
X79312421Y-174856536D01*
X79312419Y-174856537D01*
X78886255Y-175282700D01*
X78886255Y-175282701D01*
X79419413Y-175815859D01*
X79065860Y-176169412D01*
X78532701Y-175636254D01*
X78532700Y-175636254D01*
X78106536Y-176062419D01*
X78106535Y-176062421D01*
X77990513Y-176222109D01*
X77900902Y-176397979D01*
X77900901Y-176397982D01*
X77839909Y-176585701D01*
X77809031Y-176780657D01*
X76870500Y-176780657D01*
X76870500Y-162389090D01*
X76890185Y-162322051D01*
X76942101Y-162276706D01*
X76947830Y-162274035D01*
X77141401Y-162138495D01*
X77308495Y-161971401D01*
X77438425Y-161785842D01*
X77493002Y-161742217D01*
X77562500Y-161735023D01*
X77624855Y-161766546D01*
X77641575Y-161785842D01*
X77771500Y-161971395D01*
X77771505Y-161971401D01*
X77938599Y-162138495D01*
X78035384Y-162206265D01*
X78132165Y-162274032D01*
X78132167Y-162274033D01*
X78132170Y-162274035D01*
X78346337Y-162373903D01*
X78574592Y-162435063D01*
X78751034Y-162450500D01*
X78809999Y-162455659D01*
X78810000Y-162455659D01*
X78810001Y-162455659D01*
X78868966Y-162450500D01*
X79045408Y-162435063D01*
X79273663Y-162373903D01*
X79487830Y-162274035D01*
X79681401Y-162138495D01*
X79803329Y-162016566D01*
X79864648Y-161983084D01*
X79934340Y-161988068D01*
X79990274Y-162029939D01*
X80007189Y-162060917D01*
X80056202Y-162192328D01*
X80056206Y-162192335D01*
X80142452Y-162307544D01*
X80142455Y-162307547D01*
X80257664Y-162393793D01*
X80257671Y-162393797D01*
X80392517Y-162444091D01*
X80392516Y-162444091D01*
X80399444Y-162444835D01*
X80452127Y-162450500D01*
X82247872Y-162450499D01*
X82307483Y-162444091D01*
X82442331Y-162393796D01*
X82557546Y-162307546D01*
X82643796Y-162192331D01*
X82694091Y-162057483D01*
X82700500Y-161997873D01*
X82700499Y-160324499D01*
X82720184Y-160257461D01*
X82772987Y-160211706D01*
X82824499Y-160200500D01*
X83692979Y-160200500D01*
X83760018Y-160220185D01*
X83805773Y-160272989D01*
X83815717Y-160342147D01*
X83794554Y-160395621D01*
X83784748Y-160409626D01*
X83775963Y-160422173D01*
X83676098Y-160636335D01*
X83676094Y-160636344D01*
X83614938Y-160864586D01*
X83614936Y-160864596D01*
X83594341Y-161099999D01*
X83594341Y-161100000D01*
X83614936Y-161335403D01*
X83614938Y-161335413D01*
X83676094Y-161563655D01*
X83676096Y-161563659D01*
X83676097Y-161563663D01*
X83755801Y-161734588D01*
X83775965Y-161777830D01*
X83775967Y-161777834D01*
X83884281Y-161932521D01*
X83911505Y-161971401D01*
X84078599Y-162138495D01*
X84175384Y-162206265D01*
X84272165Y-162274032D01*
X84272167Y-162274033D01*
X84272170Y-162274035D01*
X84486337Y-162373903D01*
X84714592Y-162435063D01*
X84891034Y-162450500D01*
X84949999Y-162455659D01*
X84950000Y-162455659D01*
X84950001Y-162455659D01*
X84964106Y-162454424D01*
X84977842Y-162453223D01*
X85046342Y-162466989D01*
X85096525Y-162515604D01*
X85112459Y-162583633D01*
X85089084Y-162649476D01*
X85076331Y-162664432D01*
X82131286Y-165609478D01*
X82019481Y-165721282D01*
X82019479Y-165721285D01*
X81969361Y-165808094D01*
X81969359Y-165808096D01*
X81940425Y-165858209D01*
X81940424Y-165858210D01*
X81940423Y-165858215D01*
X81899499Y-166010943D01*
X81899499Y-166010945D01*
X81899499Y-166179046D01*
X81899500Y-166179059D01*
X81899500Y-204949902D01*
X81879815Y-205016941D01*
X81863181Y-205037583D01*
X72941584Y-213959181D01*
X72880261Y-213992666D01*
X72853903Y-213995500D01*
X71647264Y-213995500D01*
X71452236Y-214026389D01*
X71264441Y-214087408D01*
X71088495Y-214177058D01*
X70928753Y-214293115D01*
X70789115Y-214432753D01*
X70673058Y-214592495D01*
X70583408Y-214768441D01*
X70522389Y-214956236D01*
X70491500Y-215151263D01*
X70491500Y-215348736D01*
X70522389Y-215543763D01*
X70583070Y-215730519D01*
X70583409Y-215731561D01*
X70673056Y-215907501D01*
X70673058Y-215907504D01*
X70789115Y-216067246D01*
X70928753Y-216206884D01*
X71078234Y-216315486D01*
X71088499Y-216322944D01*
X71264439Y-216412591D01*
X71389637Y-216453270D01*
X71452236Y-216473610D01*
X71647264Y-216504500D01*
X71647269Y-216504500D01*
X73352736Y-216504500D01*
X73547763Y-216473610D01*
X73735561Y-216412591D01*
X73911501Y-216322944D01*
X74001192Y-216257779D01*
X74071246Y-216206884D01*
X74071248Y-216206881D01*
X74071252Y-216206879D01*
X74210879Y-216067252D01*
X74210881Y-216067248D01*
X74210884Y-216067246D01*
X74261779Y-215997192D01*
X74326944Y-215907501D01*
X74416591Y-215731561D01*
X74477610Y-215543763D01*
X74508500Y-215348736D01*
X74508500Y-215151263D01*
X74477610Y-214956236D01*
X74438492Y-214835844D01*
X74416591Y-214768439D01*
X74326944Y-214592499D01*
X74286324Y-214536590D01*
X74254448Y-214492715D01*
X74230968Y-214426909D01*
X74246794Y-214358855D01*
X74267081Y-214332153D01*
X74818577Y-213780657D01*
X77809031Y-213780657D01*
X77809031Y-213978040D01*
X77839909Y-214172996D01*
X77900901Y-214360715D01*
X77900902Y-214360718D01*
X77990514Y-214536590D01*
X78016486Y-214572338D01*
X78016487Y-214572338D01*
X78582897Y-214005928D01*
X78599935Y-214069512D01*
X78665761Y-214183527D01*
X78758853Y-214276619D01*
X78872868Y-214342445D01*
X78936449Y-214359481D01*
X78370040Y-214925890D01*
X78370040Y-214925891D01*
X78405795Y-214951868D01*
X78581661Y-215041477D01*
X78581664Y-215041478D01*
X78769383Y-215102470D01*
X78964340Y-215133349D01*
X79161722Y-215133349D01*
X79356678Y-215102470D01*
X79544397Y-215041478D01*
X79544400Y-215041477D01*
X79720270Y-214951866D01*
X79879958Y-214835844D01*
X79879959Y-214835844D01*
X80306125Y-214409678D01*
X80306125Y-214409677D01*
X79772966Y-213876519D01*
X80126519Y-213522966D01*
X80659678Y-214056125D01*
X81085843Y-213629959D01*
X81085843Y-213629958D01*
X81201865Y-213470269D01*
X81201869Y-213470263D01*
X81291477Y-213294401D01*
X81291479Y-213294395D01*
X81352470Y-213106680D01*
X81383349Y-212911723D01*
X81383349Y-212714339D01*
X85116651Y-212714339D01*
X85116651Y-212911722D01*
X85147529Y-213106678D01*
X85208521Y-213294397D01*
X85208522Y-213294400D01*
X85298133Y-213470270D01*
X85414155Y-213629958D01*
X85414155Y-213629959D01*
X85840321Y-214056125D01*
X86373480Y-213522966D01*
X86727033Y-213876519D01*
X86193875Y-214409678D01*
X86620040Y-214835843D01*
X86779730Y-214951865D01*
X86779736Y-214951869D01*
X86955598Y-215041477D01*
X86955604Y-215041479D01*
X87143320Y-215102470D01*
X87143319Y-215102470D01*
X87338277Y-215133349D01*
X87535660Y-215133349D01*
X87730616Y-215102470D01*
X87918335Y-215041478D01*
X87918338Y-215041477D01*
X88094210Y-214951865D01*
X88129957Y-214925892D01*
X88129957Y-214925890D01*
X87563549Y-214359482D01*
X87627132Y-214342446D01*
X87741148Y-214276620D01*
X87834240Y-214183528D01*
X87900066Y-214069512D01*
X87917102Y-214005929D01*
X88483510Y-214572337D01*
X88483512Y-214572337D01*
X88509485Y-214536590D01*
X88599097Y-214360718D01*
X88599098Y-214360715D01*
X88660090Y-214172996D01*
X88690969Y-213978040D01*
X88690969Y-213780656D01*
X88660090Y-213585699D01*
X88599099Y-213397984D01*
X88599097Y-213397978D01*
X88509489Y-213222116D01*
X88509485Y-213222110D01*
X88393463Y-213062421D01*
X88393462Y-213062419D01*
X87967299Y-212636254D01*
X87967297Y-212636254D01*
X87434139Y-213169412D01*
X87080585Y-212815859D01*
X87613745Y-212282701D01*
X87187579Y-211856535D01*
X87027890Y-211740513D01*
X86852020Y-211650902D01*
X86852017Y-211650901D01*
X86664298Y-211589909D01*
X86469342Y-211559031D01*
X86271960Y-211559031D01*
X86077003Y-211589909D01*
X85889284Y-211650901D01*
X85889281Y-211650902D01*
X85713409Y-211740514D01*
X85677660Y-211766486D01*
X85677659Y-211766487D01*
X86244070Y-212332898D01*
X86180488Y-212349935D01*
X86066473Y-212415761D01*
X85973381Y-212508853D01*
X85907555Y-212622868D01*
X85890518Y-212686450D01*
X85324107Y-212120039D01*
X85324106Y-212120040D01*
X85298134Y-212155789D01*
X85208522Y-212331661D01*
X85208521Y-212331664D01*
X85147529Y-212519383D01*
X85116651Y-212714339D01*
X81383349Y-212714339D01*
X81352470Y-212519383D01*
X81291478Y-212331664D01*
X81291477Y-212331661D01*
X81201869Y-212155799D01*
X81201861Y-212155786D01*
X81175891Y-212120041D01*
X81175890Y-212120040D01*
X80609482Y-212686448D01*
X80592446Y-212622868D01*
X80526620Y-212508852D01*
X80433528Y-212415760D01*
X80319512Y-212349934D01*
X80255929Y-212332897D01*
X80822338Y-211766488D01*
X80786588Y-211740514D01*
X80610718Y-211650902D01*
X80610715Y-211650901D01*
X80422996Y-211589909D01*
X80228040Y-211559031D01*
X80030657Y-211559031D01*
X79835699Y-211589909D01*
X79647984Y-211650900D01*
X79647978Y-211650902D01*
X79472116Y-211740510D01*
X79472110Y-211740514D01*
X79312421Y-211856536D01*
X79312419Y-211856537D01*
X78886255Y-212282700D01*
X78886255Y-212282701D01*
X79419413Y-212815859D01*
X79065860Y-213169412D01*
X78532701Y-212636254D01*
X78532700Y-212636254D01*
X78106536Y-213062419D01*
X78106535Y-213062421D01*
X77990513Y-213222109D01*
X77900902Y-213397979D01*
X77900901Y-213397982D01*
X77839909Y-213585701D01*
X77809031Y-213780657D01*
X74818577Y-213780657D01*
X82980520Y-205618716D01*
X83059577Y-205481784D01*
X83082225Y-205397263D01*
X83745500Y-205397263D01*
X83745500Y-207102736D01*
X83776389Y-207297763D01*
X83817100Y-207423056D01*
X83837409Y-207485561D01*
X83927056Y-207661501D01*
X83927058Y-207661504D01*
X84043115Y-207821246D01*
X84182753Y-207960884D01*
X84332234Y-208069486D01*
X84342499Y-208076944D01*
X84518439Y-208166591D01*
X84628144Y-208202236D01*
X84706236Y-208227610D01*
X84901264Y-208258500D01*
X84901269Y-208258500D01*
X85098736Y-208258500D01*
X85293763Y-208227610D01*
X85481561Y-208166591D01*
X85657501Y-208076944D01*
X85747192Y-208011779D01*
X85817246Y-207960884D01*
X85817248Y-207960881D01*
X85817252Y-207960879D01*
X85956879Y-207821252D01*
X85956881Y-207821248D01*
X85956884Y-207821246D01*
X86007779Y-207751192D01*
X86072944Y-207661501D01*
X86162591Y-207485561D01*
X86223610Y-207297763D01*
X86254500Y-207102736D01*
X86254500Y-205397263D01*
X86223610Y-205202236D01*
X86203270Y-205139637D01*
X86162591Y-205014439D01*
X86072944Y-204838499D01*
X86008622Y-204749966D01*
X85956884Y-204678753D01*
X85817246Y-204539115D01*
X85657504Y-204423058D01*
X85657503Y-204423057D01*
X85657501Y-204423056D01*
X85481561Y-204333409D01*
X85481558Y-204333408D01*
X85293763Y-204272389D01*
X85098736Y-204241500D01*
X85098731Y-204241500D01*
X84901269Y-204241500D01*
X84901264Y-204241500D01*
X84706236Y-204272389D01*
X84518441Y-204333408D01*
X84342495Y-204423058D01*
X84182753Y-204539115D01*
X84043115Y-204678753D01*
X83927058Y-204838495D01*
X83837408Y-205014441D01*
X83776389Y-205202236D01*
X83745500Y-205397263D01*
X83082225Y-205397263D01*
X83100501Y-205329057D01*
X83100501Y-205170942D01*
X83100501Y-205163347D01*
X83100500Y-205163329D01*
X83100500Y-202151263D01*
X88991500Y-202151263D01*
X88991500Y-202348736D01*
X89022389Y-202543763D01*
X89083408Y-202731558D01*
X89083409Y-202731561D01*
X89173056Y-202907501D01*
X89173058Y-202907504D01*
X89289115Y-203067246D01*
X89428753Y-203206884D01*
X89578234Y-203315486D01*
X89588499Y-203322944D01*
X89764439Y-203412591D01*
X89860719Y-203443874D01*
X89952236Y-203473610D01*
X90147264Y-203504500D01*
X90147269Y-203504500D01*
X91852736Y-203504500D01*
X92047763Y-203473610D01*
X92235561Y-203412591D01*
X92411501Y-203322944D01*
X92548539Y-203223381D01*
X92571246Y-203206884D01*
X92571248Y-203206881D01*
X92571252Y-203206879D01*
X92710879Y-203067252D01*
X92710881Y-203067248D01*
X92710884Y-203067246D01*
X92761779Y-202997192D01*
X92826944Y-202907501D01*
X92916591Y-202731561D01*
X92977610Y-202543763D01*
X92991111Y-202458521D01*
X93008500Y-202348736D01*
X93008500Y-202151263D01*
X92977610Y-201956236D01*
X92957270Y-201893637D01*
X92916591Y-201768439D01*
X92826944Y-201592499D01*
X92819486Y-201582234D01*
X92710884Y-201432753D01*
X92571246Y-201293115D01*
X92411504Y-201177058D01*
X92411503Y-201177057D01*
X92411501Y-201177056D01*
X92235561Y-201087409D01*
X92235558Y-201087408D01*
X92047763Y-201026389D01*
X91852736Y-200995500D01*
X91852731Y-200995500D01*
X90147269Y-200995500D01*
X90147264Y-200995500D01*
X89952236Y-201026389D01*
X89764441Y-201087408D01*
X89588495Y-201177058D01*
X89428753Y-201293115D01*
X89289115Y-201432753D01*
X89173058Y-201592495D01*
X89083408Y-201768441D01*
X89022389Y-201956236D01*
X88991500Y-202151263D01*
X83100500Y-202151263D01*
X83100500Y-194214339D01*
X85116651Y-194214339D01*
X85116651Y-194411722D01*
X85147529Y-194606678D01*
X85208521Y-194794397D01*
X85208522Y-194794400D01*
X85298133Y-194970270D01*
X85414155Y-195129958D01*
X85414155Y-195129959D01*
X85840321Y-195556125D01*
X86373480Y-195022966D01*
X86727033Y-195376519D01*
X86193875Y-195909678D01*
X86620040Y-196335843D01*
X86779730Y-196451865D01*
X86779736Y-196451869D01*
X86955598Y-196541477D01*
X86955604Y-196541479D01*
X87143320Y-196602470D01*
X87143319Y-196602470D01*
X87338277Y-196633349D01*
X87535660Y-196633349D01*
X87730616Y-196602470D01*
X87918335Y-196541478D01*
X87918338Y-196541477D01*
X88094210Y-196451865D01*
X88129957Y-196425892D01*
X88129957Y-196425890D01*
X87563549Y-195859482D01*
X87627132Y-195842446D01*
X87741148Y-195776620D01*
X87834240Y-195683528D01*
X87900066Y-195569512D01*
X87917102Y-195505929D01*
X88483510Y-196072337D01*
X88483512Y-196072337D01*
X88509485Y-196036590D01*
X88599097Y-195860718D01*
X88599098Y-195860715D01*
X88660090Y-195672996D01*
X88690969Y-195478040D01*
X88690969Y-195280656D01*
X88660090Y-195085699D01*
X88599099Y-194897984D01*
X88599097Y-194897978D01*
X88509489Y-194722116D01*
X88509485Y-194722110D01*
X88393463Y-194562421D01*
X88393462Y-194562419D01*
X87967299Y-194136254D01*
X87967297Y-194136254D01*
X87434139Y-194669412D01*
X87080585Y-194315859D01*
X87613745Y-193782701D01*
X87187579Y-193356535D01*
X87027890Y-193240513D01*
X86852020Y-193150902D01*
X86852017Y-193150901D01*
X86664298Y-193089909D01*
X86469342Y-193059031D01*
X86271960Y-193059031D01*
X86077003Y-193089909D01*
X85889284Y-193150901D01*
X85889281Y-193150902D01*
X85713409Y-193240514D01*
X85677660Y-193266486D01*
X85677659Y-193266487D01*
X86244070Y-193832898D01*
X86180488Y-193849935D01*
X86066473Y-193915761D01*
X85973381Y-194008853D01*
X85907555Y-194122868D01*
X85890518Y-194186450D01*
X85324107Y-193620039D01*
X85324106Y-193620040D01*
X85298134Y-193655789D01*
X85208522Y-193831661D01*
X85208521Y-193831664D01*
X85147529Y-194019383D01*
X85116651Y-194214339D01*
X83100500Y-194214339D01*
X83100500Y-175714339D01*
X85116651Y-175714339D01*
X85116651Y-175911722D01*
X85147529Y-176106678D01*
X85208521Y-176294397D01*
X85208522Y-176294400D01*
X85298133Y-176470270D01*
X85414155Y-176629958D01*
X85414155Y-176629959D01*
X85840321Y-177056125D01*
X86373480Y-176522966D01*
X86727033Y-176876519D01*
X86193875Y-177409678D01*
X86620040Y-177835843D01*
X86779730Y-177951865D01*
X86779736Y-177951869D01*
X86955598Y-178041477D01*
X86955604Y-178041479D01*
X87143320Y-178102470D01*
X87143319Y-178102470D01*
X87338277Y-178133349D01*
X87535660Y-178133349D01*
X87730616Y-178102470D01*
X87918335Y-178041478D01*
X87918338Y-178041477D01*
X88094210Y-177951865D01*
X88129957Y-177925892D01*
X88129957Y-177925890D01*
X87563549Y-177359482D01*
X87627132Y-177342446D01*
X87741148Y-177276620D01*
X87834240Y-177183528D01*
X87900066Y-177069512D01*
X87917102Y-177005929D01*
X88483510Y-177572337D01*
X88483512Y-177572337D01*
X88509485Y-177536590D01*
X88599097Y-177360718D01*
X88599098Y-177360715D01*
X88660090Y-177172996D01*
X88690969Y-176978040D01*
X88690969Y-176780656D01*
X88660090Y-176585699D01*
X88599099Y-176397984D01*
X88599097Y-176397978D01*
X88509489Y-176222116D01*
X88509485Y-176222110D01*
X88393463Y-176062421D01*
X88393462Y-176062419D01*
X87967299Y-175636254D01*
X87967297Y-175636254D01*
X87434139Y-176169412D01*
X87080585Y-175815859D01*
X87613745Y-175282701D01*
X87187579Y-174856535D01*
X87027890Y-174740513D01*
X86852020Y-174650902D01*
X86852017Y-174650901D01*
X86664298Y-174589909D01*
X86469342Y-174559031D01*
X86271960Y-174559031D01*
X86077003Y-174589909D01*
X85889284Y-174650901D01*
X85889281Y-174650902D01*
X85713409Y-174740514D01*
X85677660Y-174766486D01*
X85677659Y-174766487D01*
X86244070Y-175332898D01*
X86180488Y-175349935D01*
X86066473Y-175415761D01*
X85973381Y-175508853D01*
X85907555Y-175622868D01*
X85890518Y-175686450D01*
X85324107Y-175120039D01*
X85324106Y-175120040D01*
X85298134Y-175155789D01*
X85208522Y-175331661D01*
X85208521Y-175331664D01*
X85147529Y-175519383D01*
X85116651Y-175714339D01*
X83100500Y-175714339D01*
X83100500Y-166390097D01*
X83120185Y-166323058D01*
X83136819Y-166302416D01*
X85048683Y-164390552D01*
X87006470Y-162432764D01*
X87067791Y-162399281D01*
X87126242Y-162400672D01*
X87181990Y-162415609D01*
X87254592Y-162435063D01*
X87431034Y-162450500D01*
X87489999Y-162455659D01*
X87490000Y-162455659D01*
X87490001Y-162455659D01*
X87548966Y-162450500D01*
X87725408Y-162435063D01*
X87953663Y-162373903D01*
X88167830Y-162274035D01*
X88361401Y-162138495D01*
X88528495Y-161971401D01*
X88658425Y-161785842D01*
X88713002Y-161742217D01*
X88782500Y-161735023D01*
X88844855Y-161766546D01*
X88861575Y-161785842D01*
X88991500Y-161971395D01*
X88991505Y-161971401D01*
X89158599Y-162138495D01*
X89255384Y-162206265D01*
X89352165Y-162274032D01*
X89352167Y-162274033D01*
X89352170Y-162274035D01*
X89566337Y-162373903D01*
X89794592Y-162435063D01*
X89971034Y-162450500D01*
X90029999Y-162455659D01*
X90030000Y-162455659D01*
X90030001Y-162455659D01*
X90088966Y-162450500D01*
X90265408Y-162435063D01*
X90493663Y-162373903D01*
X90707830Y-162274035D01*
X90901401Y-162138495D01*
X91068495Y-161971401D01*
X91198425Y-161785842D01*
X91253002Y-161742217D01*
X91322500Y-161735023D01*
X91384855Y-161766546D01*
X91401575Y-161785842D01*
X91531500Y-161971395D01*
X91531505Y-161971401D01*
X91698599Y-162138495D01*
X91795384Y-162206265D01*
X91892165Y-162274032D01*
X91892167Y-162274033D01*
X91892170Y-162274035D01*
X92106337Y-162373903D01*
X92334592Y-162435063D01*
X92511034Y-162450500D01*
X92569999Y-162455659D01*
X92570000Y-162455659D01*
X92570001Y-162455659D01*
X92597843Y-162453223D01*
X92666343Y-162466989D01*
X92716526Y-162515604D01*
X92732460Y-162583633D01*
X92709085Y-162649477D01*
X92696332Y-162664432D01*
X91801584Y-163559181D01*
X91740261Y-163592666D01*
X91713903Y-163595500D01*
X89383057Y-163595500D01*
X89224943Y-163595500D01*
X89072215Y-163636423D01*
X89072214Y-163636423D01*
X89072212Y-163636424D01*
X89072209Y-163636425D01*
X89022096Y-163665359D01*
X89022095Y-163665360D01*
X88978689Y-163690420D01*
X88935285Y-163715479D01*
X88935282Y-163715481D01*
X88823478Y-163827286D01*
X85411097Y-167239666D01*
X85349774Y-167273151D01*
X85298660Y-167272608D01*
X85298574Y-167273152D01*
X85294888Y-167272568D01*
X85294489Y-167272564D01*
X85293764Y-167272390D01*
X85098736Y-167241500D01*
X85098731Y-167241500D01*
X84901269Y-167241500D01*
X84901264Y-167241500D01*
X84706236Y-167272389D01*
X84518441Y-167333408D01*
X84342495Y-167423058D01*
X84182753Y-167539115D01*
X84043115Y-167678753D01*
X83927058Y-167838495D01*
X83837408Y-168014441D01*
X83776389Y-168202236D01*
X83745500Y-168397263D01*
X83745500Y-170102736D01*
X83776389Y-170297763D01*
X83827750Y-170455833D01*
X83837409Y-170485561D01*
X83927056Y-170661501D01*
X83927058Y-170661504D01*
X84043115Y-170821246D01*
X84182753Y-170960884D01*
X84332234Y-171069486D01*
X84342499Y-171076944D01*
X84518439Y-171166591D01*
X84628144Y-171202236D01*
X84706236Y-171227610D01*
X84901264Y-171258500D01*
X84901269Y-171258500D01*
X85098736Y-171258500D01*
X85293763Y-171227610D01*
X85481561Y-171166591D01*
X85657501Y-171076944D01*
X85747192Y-171011779D01*
X85817246Y-170960884D01*
X85817248Y-170960881D01*
X85817252Y-170960879D01*
X85956879Y-170821252D01*
X85956881Y-170821248D01*
X85956884Y-170821246D01*
X86007779Y-170751192D01*
X86072944Y-170661501D01*
X86162591Y-170485561D01*
X86223610Y-170297763D01*
X86250166Y-170130096D01*
X86254500Y-170102736D01*
X86254500Y-168397264D01*
X86225995Y-168217298D01*
X86223610Y-168202237D01*
X86223608Y-168202233D01*
X86223018Y-168198503D01*
X86231972Y-168129209D01*
X86257807Y-168091426D01*
X88826112Y-165523121D01*
X88887433Y-165489638D01*
X88957125Y-165494622D01*
X89013058Y-165536494D01*
X89031722Y-165572485D01*
X89083409Y-165731561D01*
X89173056Y-165907501D01*
X89173058Y-165907504D01*
X89289115Y-166067246D01*
X89428753Y-166206884D01*
X89560244Y-166302416D01*
X89588499Y-166322944D01*
X89764439Y-166412591D01*
X89860719Y-166443874D01*
X89952236Y-166473610D01*
X90147264Y-166504500D01*
X90147269Y-166504500D01*
X91852736Y-166504500D01*
X92047763Y-166473610D01*
X92096021Y-166457930D01*
X92235561Y-166412591D01*
X92411501Y-166322944D01*
X92501192Y-166257779D01*
X92571246Y-166206884D01*
X92571248Y-166206881D01*
X92571252Y-166206879D01*
X92710879Y-166067252D01*
X92710881Y-166067248D01*
X92710884Y-166067246D01*
X92761779Y-165997192D01*
X92826944Y-165907501D01*
X92916591Y-165731561D01*
X92977610Y-165543763D01*
X92991111Y-165458521D01*
X93008500Y-165348736D01*
X93008500Y-165151263D01*
X92977610Y-164956236D01*
X92957270Y-164893637D01*
X92916591Y-164768439D01*
X92826944Y-164592499D01*
X92737615Y-164469547D01*
X92714136Y-164403740D01*
X92729962Y-164335686D01*
X92750249Y-164308984D01*
X94626470Y-162432763D01*
X94687791Y-162399280D01*
X94746238Y-162400670D01*
X94874592Y-162435063D01*
X95051034Y-162450500D01*
X95109999Y-162455659D01*
X95110000Y-162455659D01*
X95110001Y-162455659D01*
X95168966Y-162450500D01*
X95345408Y-162435063D01*
X95499417Y-162393797D01*
X95503407Y-162392728D01*
X95573257Y-162394391D01*
X95631119Y-162433554D01*
X95658623Y-162497782D01*
X95659500Y-162512503D01*
X95659500Y-173189902D01*
X95639815Y-173256941D01*
X95623181Y-173277583D01*
X84519481Y-184381282D01*
X84519477Y-184381287D01*
X84504345Y-184407499D01*
X84504344Y-184407501D01*
X84440423Y-184518215D01*
X84399499Y-184670943D01*
X84399499Y-184670945D01*
X84399499Y-184839046D01*
X84399500Y-184839059D01*
X84399500Y-185818682D01*
X84379815Y-185885721D01*
X84345675Y-185919139D01*
X84346440Y-185920192D01*
X84182753Y-186039115D01*
X84043115Y-186178753D01*
X83927058Y-186338495D01*
X83837408Y-186514441D01*
X83776389Y-186702236D01*
X83745500Y-186897263D01*
X83745500Y-188602736D01*
X83776389Y-188797763D01*
X83827750Y-188955833D01*
X83837409Y-188985561D01*
X83927056Y-189161501D01*
X83927058Y-189161504D01*
X84043115Y-189321246D01*
X84182753Y-189460884D01*
X84332234Y-189569486D01*
X84342499Y-189576944D01*
X84518439Y-189666591D01*
X84643637Y-189707270D01*
X84706236Y-189727610D01*
X84901264Y-189758500D01*
X84901269Y-189758500D01*
X85098736Y-189758500D01*
X85293763Y-189727610D01*
X85481561Y-189666591D01*
X85657501Y-189576944D01*
X85778896Y-189488746D01*
X85817246Y-189460884D01*
X85817248Y-189460881D01*
X85817252Y-189460879D01*
X85956879Y-189321252D01*
X85956881Y-189321248D01*
X85956884Y-189321246D01*
X86060413Y-189178748D01*
X86072944Y-189161501D01*
X86162591Y-188985561D01*
X86223610Y-188797763D01*
X86232521Y-188741500D01*
X86254500Y-188602736D01*
X86254500Y-186897263D01*
X86223610Y-186702236D01*
X86203270Y-186639637D01*
X86162591Y-186514439D01*
X86072944Y-186338499D01*
X86008622Y-186249966D01*
X85956884Y-186178753D01*
X85817246Y-186039115D01*
X85653560Y-185920192D01*
X85654599Y-185918761D01*
X85612833Y-185872593D01*
X85600500Y-185818682D01*
X85600500Y-185050097D01*
X85620185Y-184983058D01*
X85636819Y-184962416D01*
X86947972Y-183651263D01*
X88991500Y-183651263D01*
X88991500Y-183848736D01*
X89022389Y-184043763D01*
X89083408Y-184231558D01*
X89083409Y-184231561D01*
X89173055Y-184407499D01*
X89173058Y-184407504D01*
X89289115Y-184567246D01*
X89428753Y-184706884D01*
X89578234Y-184815486D01*
X89588499Y-184822944D01*
X89764439Y-184912591D01*
X89860719Y-184943874D01*
X89952236Y-184973610D01*
X90147264Y-185004500D01*
X90147269Y-185004500D01*
X91852736Y-185004500D01*
X92047763Y-184973610D01*
X92235561Y-184912591D01*
X92411501Y-184822944D01*
X92548539Y-184723381D01*
X92571246Y-184706884D01*
X92571248Y-184706881D01*
X92571252Y-184706879D01*
X92710879Y-184567252D01*
X92710881Y-184567248D01*
X92710884Y-184567246D01*
X92761779Y-184497192D01*
X92826944Y-184407501D01*
X92916591Y-184231561D01*
X92977610Y-184043763D01*
X92991111Y-183958521D01*
X93008500Y-183848736D01*
X93008500Y-183651263D01*
X92977610Y-183456236D01*
X92957270Y-183393637D01*
X92916591Y-183268439D01*
X92826944Y-183092499D01*
X92819486Y-183082234D01*
X92710884Y-182932753D01*
X92571246Y-182793115D01*
X92411504Y-182677058D01*
X92411503Y-182677057D01*
X92411501Y-182677056D01*
X92235561Y-182587409D01*
X92235558Y-182587408D01*
X92047763Y-182526389D01*
X91852736Y-182495500D01*
X91852731Y-182495500D01*
X90147269Y-182495500D01*
X90147264Y-182495500D01*
X89952236Y-182526389D01*
X89764441Y-182587408D01*
X89588495Y-182677058D01*
X89428753Y-182793115D01*
X89289115Y-182932753D01*
X89173058Y-183092495D01*
X89083408Y-183268441D01*
X89022389Y-183456236D01*
X88991500Y-183651263D01*
X86947972Y-183651263D01*
X91125625Y-179473610D01*
X96740520Y-173858716D01*
X96819577Y-173721784D01*
X96860501Y-173569057D01*
X96860501Y-173410942D01*
X96860501Y-173403347D01*
X96860500Y-173403329D01*
X96860500Y-162574499D01*
X96880185Y-162507460D01*
X96932989Y-162461705D01*
X96984500Y-162450499D01*
X98375500Y-162450499D01*
X98442539Y-162470184D01*
X98488294Y-162522988D01*
X98499500Y-162574499D01*
X98499500Y-216875500D01*
X98479815Y-216942539D01*
X98427011Y-216988294D01*
X98375500Y-216999500D01*
X51624500Y-216999500D01*
X51557461Y-216979815D01*
X51511706Y-216927011D01*
X51500500Y-216875500D01*
X51500500Y-203521959D01*
X61309031Y-203521959D01*
X61309031Y-203719342D01*
X61339909Y-203914298D01*
X61400901Y-204102017D01*
X61400902Y-204102020D01*
X61490513Y-204277890D01*
X61606535Y-204437578D01*
X61606535Y-204437579D01*
X62032701Y-204863745D01*
X62565860Y-204330586D01*
X62919413Y-204684139D01*
X62386255Y-205217298D01*
X62812420Y-205643463D01*
X62972110Y-205759485D01*
X62972116Y-205759489D01*
X63147978Y-205849097D01*
X63147984Y-205849099D01*
X63335700Y-205910090D01*
X63335699Y-205910090D01*
X63530657Y-205940969D01*
X63728040Y-205940969D01*
X63922996Y-205910090D01*
X64110715Y-205849098D01*
X64110718Y-205849097D01*
X64286590Y-205759485D01*
X64322337Y-205733512D01*
X64322337Y-205733510D01*
X63755929Y-205167102D01*
X63819512Y-205150066D01*
X63933528Y-205084240D01*
X64026620Y-204991148D01*
X64092446Y-204877132D01*
X64109482Y-204813549D01*
X64675890Y-205379957D01*
X64675892Y-205379957D01*
X64701865Y-205344210D01*
X64791477Y-205168338D01*
X64791478Y-205168335D01*
X64852470Y-204980616D01*
X64883349Y-204785660D01*
X64883349Y-204588276D01*
X64852470Y-204393319D01*
X64791479Y-204205604D01*
X64791477Y-204205598D01*
X64701869Y-204029736D01*
X64701865Y-204029730D01*
X64585843Y-203870041D01*
X64585842Y-203870039D01*
X64159679Y-203443874D01*
X64159677Y-203443874D01*
X63626519Y-203977032D01*
X63272965Y-203623479D01*
X63806125Y-203090321D01*
X63379959Y-202664155D01*
X63220270Y-202548133D01*
X63044400Y-202458522D01*
X63044397Y-202458521D01*
X62856678Y-202397529D01*
X62661722Y-202366651D01*
X62464340Y-202366651D01*
X62269383Y-202397529D01*
X62081664Y-202458521D01*
X62081661Y-202458522D01*
X61905789Y-202548134D01*
X61870040Y-202574106D01*
X61870039Y-202574107D01*
X62436450Y-203140518D01*
X62372868Y-203157555D01*
X62258853Y-203223381D01*
X62165761Y-203316473D01*
X62099935Y-203430488D01*
X62082898Y-203494070D01*
X61516487Y-202927659D01*
X61516486Y-202927660D01*
X61490514Y-202963409D01*
X61400902Y-203139281D01*
X61400901Y-203139284D01*
X61339909Y-203327003D01*
X61309031Y-203521959D01*
X51500500Y-203521959D01*
X51500500Y-196651263D01*
X56991500Y-196651263D01*
X56991500Y-196848736D01*
X57022389Y-197043763D01*
X57083408Y-197231558D01*
X57083409Y-197231561D01*
X57100500Y-197265103D01*
X57173058Y-197407504D01*
X57289115Y-197567246D01*
X57428753Y-197706884D01*
X57578234Y-197815486D01*
X57588499Y-197822944D01*
X57764439Y-197912591D01*
X57889637Y-197953270D01*
X57952236Y-197973610D01*
X58147264Y-198004500D01*
X58147269Y-198004500D01*
X59852736Y-198004500D01*
X60047763Y-197973610D01*
X60235561Y-197912591D01*
X60411501Y-197822944D01*
X60501192Y-197757779D01*
X60571246Y-197706884D01*
X60571248Y-197706881D01*
X60571252Y-197706879D01*
X60710879Y-197567252D01*
X60710881Y-197567248D01*
X60710884Y-197567246D01*
X60761779Y-197497192D01*
X60826944Y-197407501D01*
X60916591Y-197231561D01*
X60977610Y-197043763D01*
X61008500Y-196848736D01*
X61008500Y-196651263D01*
X60977610Y-196456236D01*
X60938492Y-196335844D01*
X60916591Y-196268439D01*
X60826944Y-196092499D01*
X60786324Y-196036590D01*
X60710884Y-195932753D01*
X60571246Y-195793115D01*
X60411504Y-195677058D01*
X60411503Y-195677057D01*
X60411501Y-195677056D01*
X60235561Y-195587409D01*
X60235558Y-195587408D01*
X60047763Y-195526389D01*
X59852736Y-195495500D01*
X59852731Y-195495500D01*
X58147269Y-195495500D01*
X58147264Y-195495500D01*
X57952236Y-195526389D01*
X57764441Y-195587408D01*
X57588495Y-195677058D01*
X57428753Y-195793115D01*
X57289115Y-195932753D01*
X57173058Y-196092495D01*
X57083408Y-196268441D01*
X57022389Y-196456236D01*
X56991500Y-196651263D01*
X51500500Y-196651263D01*
X51500500Y-185021959D01*
X61309031Y-185021959D01*
X61309031Y-185219342D01*
X61339909Y-185414298D01*
X61400901Y-185602017D01*
X61400902Y-185602020D01*
X61490513Y-185777890D01*
X61606535Y-185937578D01*
X61606535Y-185937579D01*
X62032701Y-186363745D01*
X62565860Y-185830586D01*
X62919413Y-186184139D01*
X62386255Y-186717298D01*
X62812420Y-187143463D01*
X62972110Y-187259485D01*
X62972116Y-187259489D01*
X63147978Y-187349097D01*
X63147984Y-187349099D01*
X63335700Y-187410090D01*
X63335699Y-187410090D01*
X63530657Y-187440969D01*
X63728040Y-187440969D01*
X63922996Y-187410090D01*
X64110715Y-187349098D01*
X64110718Y-187349097D01*
X64286590Y-187259485D01*
X64322337Y-187233512D01*
X64322337Y-187233510D01*
X63755929Y-186667102D01*
X63819512Y-186650066D01*
X63933528Y-186584240D01*
X64026620Y-186491148D01*
X64092446Y-186377132D01*
X64109482Y-186313549D01*
X64675890Y-186879957D01*
X64675892Y-186879957D01*
X64701865Y-186844210D01*
X64791477Y-186668338D01*
X64791478Y-186668335D01*
X64852470Y-186480616D01*
X64883349Y-186285660D01*
X64883349Y-186088276D01*
X64852470Y-185893319D01*
X64791479Y-185705604D01*
X64791477Y-185705598D01*
X64701869Y-185529736D01*
X64701865Y-185529730D01*
X64585843Y-185370041D01*
X64585842Y-185370039D01*
X64159679Y-184943874D01*
X64159677Y-184943874D01*
X63626519Y-185477032D01*
X63272965Y-185123479D01*
X63806125Y-184590321D01*
X63379959Y-184164155D01*
X63220270Y-184048133D01*
X63044400Y-183958522D01*
X63044397Y-183958521D01*
X62856678Y-183897529D01*
X62661722Y-183866651D01*
X62464340Y-183866651D01*
X62269383Y-183897529D01*
X62081664Y-183958521D01*
X62081661Y-183958522D01*
X61905789Y-184048134D01*
X61870040Y-184074106D01*
X61870039Y-184074107D01*
X62436450Y-184640518D01*
X62372868Y-184657555D01*
X62258853Y-184723381D01*
X62165761Y-184816473D01*
X62099935Y-184930488D01*
X62082898Y-184994070D01*
X61516487Y-184427659D01*
X61516486Y-184427660D01*
X61490514Y-184463409D01*
X61400902Y-184639281D01*
X61400901Y-184639284D01*
X61339909Y-184827003D01*
X61309031Y-185021959D01*
X51500500Y-185021959D01*
X51500500Y-178151263D01*
X56991500Y-178151263D01*
X56991500Y-178348736D01*
X57022389Y-178543763D01*
X57083408Y-178731558D01*
X57083409Y-178731561D01*
X57100500Y-178765103D01*
X57173058Y-178907504D01*
X57289115Y-179067246D01*
X57428753Y-179206884D01*
X57578234Y-179315486D01*
X57588499Y-179322944D01*
X57764439Y-179412591D01*
X57889637Y-179453270D01*
X57952236Y-179473610D01*
X58147264Y-179504500D01*
X58147269Y-179504500D01*
X59852736Y-179504500D01*
X60047763Y-179473610D01*
X60235561Y-179412591D01*
X60411501Y-179322944D01*
X60501192Y-179257779D01*
X60571246Y-179206884D01*
X60571248Y-179206881D01*
X60571252Y-179206879D01*
X60710879Y-179067252D01*
X60710881Y-179067248D01*
X60710884Y-179067246D01*
X60761779Y-178997192D01*
X60826944Y-178907501D01*
X60916591Y-178731561D01*
X60977610Y-178543763D01*
X61008500Y-178348736D01*
X61008500Y-178151263D01*
X60977610Y-177956236D01*
X60938492Y-177835844D01*
X60916591Y-177768439D01*
X60826944Y-177592499D01*
X60786324Y-177536590D01*
X60710884Y-177432753D01*
X60571246Y-177293115D01*
X60411504Y-177177058D01*
X60411503Y-177177057D01*
X60411501Y-177177056D01*
X60235561Y-177087409D01*
X60235558Y-177087408D01*
X60047763Y-177026389D01*
X59852736Y-176995500D01*
X59852731Y-176995500D01*
X58147269Y-176995500D01*
X58147264Y-176995500D01*
X57952236Y-177026389D01*
X57764441Y-177087408D01*
X57588495Y-177177058D01*
X57428753Y-177293115D01*
X57289115Y-177432753D01*
X57173058Y-177592495D01*
X57083408Y-177768441D01*
X57022389Y-177956236D01*
X56991500Y-178151263D01*
X51500500Y-178151263D01*
X51500500Y-166521959D01*
X61309031Y-166521959D01*
X61309031Y-166719342D01*
X61339909Y-166914298D01*
X61400901Y-167102017D01*
X61400902Y-167102020D01*
X61490513Y-167277890D01*
X61606535Y-167437578D01*
X61606535Y-167437579D01*
X62032701Y-167863745D01*
X62565860Y-167330586D01*
X62919413Y-167684139D01*
X62386255Y-168217298D01*
X62812420Y-168643463D01*
X62972110Y-168759485D01*
X62972116Y-168759489D01*
X63147978Y-168849097D01*
X63147984Y-168849099D01*
X63335700Y-168910090D01*
X63335699Y-168910090D01*
X63530657Y-168940969D01*
X63728040Y-168940969D01*
X63922996Y-168910090D01*
X64110715Y-168849098D01*
X64110718Y-168849097D01*
X64286590Y-168759485D01*
X64322337Y-168733512D01*
X64322337Y-168733510D01*
X63755929Y-168167102D01*
X63819512Y-168150066D01*
X63933528Y-168084240D01*
X64026620Y-167991148D01*
X64092446Y-167877132D01*
X64109482Y-167813549D01*
X64675890Y-168379957D01*
X64675892Y-168379957D01*
X64701865Y-168344210D01*
X64791477Y-168168338D01*
X64791478Y-168168335D01*
X64852470Y-167980616D01*
X64883349Y-167785660D01*
X64883349Y-167588276D01*
X64852470Y-167393319D01*
X64791479Y-167205604D01*
X64791477Y-167205598D01*
X64701869Y-167029736D01*
X64701865Y-167029730D01*
X64585843Y-166870041D01*
X64585842Y-166870039D01*
X64159679Y-166443874D01*
X64159677Y-166443874D01*
X63626519Y-166977032D01*
X63272965Y-166623479D01*
X63806125Y-166090321D01*
X63379959Y-165664155D01*
X63220270Y-165548133D01*
X63044400Y-165458522D01*
X63044397Y-165458521D01*
X62856678Y-165397529D01*
X62661722Y-165366651D01*
X62464340Y-165366651D01*
X62269383Y-165397529D01*
X62081664Y-165458521D01*
X62081661Y-165458522D01*
X61905789Y-165548134D01*
X61870040Y-165574106D01*
X61870039Y-165574107D01*
X62436450Y-166140518D01*
X62372868Y-166157555D01*
X62258853Y-166223381D01*
X62165761Y-166316473D01*
X62099935Y-166430488D01*
X62082898Y-166494070D01*
X61516487Y-165927659D01*
X61516486Y-165927660D01*
X61490514Y-165963409D01*
X61400902Y-166139281D01*
X61400901Y-166139284D01*
X61339909Y-166327003D01*
X61309031Y-166521959D01*
X51500500Y-166521959D01*
X51500500Y-162574499D01*
X51520185Y-162507460D01*
X51572989Y-162461705D01*
X51624500Y-162450499D01*
X53247871Y-162450499D01*
X53247872Y-162450499D01*
X53307483Y-162444091D01*
X53442331Y-162393796D01*
X53557546Y-162307546D01*
X53643796Y-162192331D01*
X53692810Y-162060916D01*
X53734681Y-162004984D01*
X53800145Y-161980566D01*
X53868418Y-161995417D01*
X53896673Y-162016569D01*
X54018599Y-162138495D01*
X54115384Y-162206265D01*
X54212165Y-162274032D01*
X54212167Y-162274033D01*
X54212170Y-162274035D01*
X54426337Y-162373903D01*
X54654592Y-162435063D01*
X54831034Y-162450500D01*
X54889999Y-162455659D01*
X54890000Y-162455659D01*
X54890001Y-162455659D01*
X54948966Y-162450500D01*
X55125408Y-162435063D01*
X55353663Y-162373903D01*
X55567830Y-162274035D01*
X55761401Y-162138495D01*
X55928495Y-161971401D01*
X56058425Y-161785842D01*
X56113002Y-161742217D01*
X56182500Y-161735023D01*
X56244855Y-161766546D01*
X56261575Y-161785842D01*
X56391500Y-161971395D01*
X56391505Y-161971401D01*
X56558599Y-162138495D01*
X56655384Y-162206265D01*
X56752165Y-162274032D01*
X56752167Y-162274033D01*
X56752170Y-162274035D01*
X56966337Y-162373903D01*
X57194592Y-162435063D01*
X57371034Y-162450500D01*
X57429999Y-162455659D01*
X57430000Y-162455659D01*
X57430001Y-162455659D01*
X57488966Y-162450500D01*
X57665408Y-162435063D01*
X57893663Y-162373903D01*
X58107830Y-162274035D01*
X58301401Y-162138495D01*
X58468495Y-161971401D01*
X58598425Y-161785842D01*
X58653002Y-161742217D01*
X58722500Y-161735023D01*
X58784855Y-161766546D01*
X58801575Y-161785842D01*
X58931500Y-161971395D01*
X58931505Y-161971401D01*
X59098599Y-162138495D01*
X59195384Y-162206265D01*
X59292165Y-162274032D01*
X59292167Y-162274033D01*
X59292170Y-162274035D01*
X59506337Y-162373903D01*
X59734592Y-162435063D01*
X59911034Y-162450500D01*
X59969999Y-162455659D01*
X59970000Y-162455659D01*
X59970001Y-162455659D01*
X60028966Y-162450500D01*
X60205408Y-162435063D01*
X60433663Y-162373903D01*
X60647830Y-162274035D01*
X60841401Y-162138495D01*
X61008495Y-161971401D01*
X61138425Y-161785842D01*
X61193002Y-161742217D01*
X61262500Y-161735023D01*
X61324855Y-161766546D01*
X61341575Y-161785842D01*
X61471500Y-161971395D01*
X61471505Y-161971401D01*
X61638599Y-162138495D01*
X61735384Y-162206265D01*
X61832165Y-162274032D01*
X61832167Y-162274033D01*
X61832170Y-162274035D01*
X62046337Y-162373903D01*
X62274592Y-162435063D01*
X62451034Y-162450500D01*
X62509999Y-162455659D01*
X62510000Y-162455659D01*
X62510001Y-162455659D01*
X62568966Y-162450500D01*
X62745408Y-162435063D01*
X62973663Y-162373903D01*
X63187830Y-162274035D01*
X63381401Y-162138495D01*
X63548495Y-161971401D01*
X63678425Y-161785842D01*
X63733002Y-161742217D01*
X63802500Y-161735023D01*
X63864855Y-161766546D01*
X63881575Y-161785842D01*
X64011500Y-161971395D01*
X64011505Y-161971401D01*
X64178599Y-162138495D01*
X64275384Y-162206265D01*
X64372165Y-162274032D01*
X64372167Y-162274033D01*
X64372170Y-162274035D01*
X64586337Y-162373903D01*
X64814592Y-162435063D01*
X64991034Y-162450500D01*
X65049999Y-162455659D01*
X65050000Y-162455659D01*
X65050001Y-162455659D01*
X65108966Y-162450500D01*
X65285408Y-162435063D01*
X65513663Y-162373903D01*
X65727830Y-162274035D01*
X65921401Y-162138495D01*
X66088495Y-161971401D01*
X66224035Y-161777830D01*
X66323903Y-161563663D01*
X66385063Y-161335408D01*
X66405659Y-161100000D01*
X66385063Y-160864592D01*
X66323903Y-160636337D01*
X66224035Y-160422171D01*
X66218731Y-160414595D01*
X66088494Y-160228597D01*
X65921402Y-160061506D01*
X65921395Y-160061501D01*
X65727834Y-159925967D01*
X65727830Y-159925965D01*
X65727828Y-159925964D01*
X65513663Y-159826097D01*
X65513659Y-159826096D01*
X65513655Y-159826094D01*
X65285413Y-159764938D01*
X65285403Y-159764936D01*
X65092142Y-159748028D01*
X65050344Y-159731677D01*
X65031985Y-159743477D01*
X65007858Y-159748028D01*
X64814596Y-159764936D01*
X64814586Y-159764938D01*
X64586344Y-159826094D01*
X64586335Y-159826098D01*
X64372171Y-159925964D01*
X64372169Y-159925965D01*
X64178597Y-160061505D01*
X64011505Y-160228597D01*
X63881575Y-160414158D01*
X63826998Y-160457783D01*
X63757500Y-160464977D01*
X63695145Y-160433454D01*
X63678425Y-160414158D01*
X63548494Y-160228597D01*
X63381402Y-160061506D01*
X63381395Y-160061501D01*
X63187834Y-159925967D01*
X63187830Y-159925965D01*
X63187828Y-159925964D01*
X62973663Y-159826097D01*
X62973659Y-159826096D01*
X62973655Y-159826094D01*
X62745413Y-159764938D01*
X62745403Y-159764936D01*
X62552142Y-159748028D01*
X62510344Y-159731677D01*
X62491985Y-159743477D01*
X62467858Y-159748028D01*
X62274596Y-159764936D01*
X62274586Y-159764938D01*
X62046344Y-159826094D01*
X62046335Y-159826098D01*
X61832171Y-159925964D01*
X61832169Y-159925965D01*
X61638597Y-160061505D01*
X61471505Y-160228597D01*
X61341575Y-160414158D01*
X61286998Y-160457783D01*
X61217500Y-160464977D01*
X61155145Y-160433454D01*
X61138425Y-160414158D01*
X61008494Y-160228597D01*
X60841402Y-160061506D01*
X60841395Y-160061501D01*
X60647834Y-159925967D01*
X60647830Y-159925965D01*
X60647828Y-159925964D01*
X60433663Y-159826097D01*
X60433659Y-159826096D01*
X60433655Y-159826094D01*
X60205413Y-159764938D01*
X60205403Y-159764936D01*
X60012142Y-159748028D01*
X59970344Y-159731677D01*
X59951985Y-159743477D01*
X59927858Y-159748028D01*
X59734596Y-159764936D01*
X59734586Y-159764938D01*
X59506344Y-159826094D01*
X59506335Y-159826098D01*
X59292171Y-159925964D01*
X59292169Y-159925965D01*
X59098597Y-160061505D01*
X58931505Y-160228597D01*
X58801575Y-160414158D01*
X58746998Y-160457783D01*
X58677500Y-160464977D01*
X58615145Y-160433454D01*
X58598425Y-160414158D01*
X58468494Y-160228597D01*
X58301402Y-160061506D01*
X58301395Y-160061501D01*
X58107834Y-159925967D01*
X58107830Y-159925965D01*
X58107828Y-159925964D01*
X57893663Y-159826097D01*
X57893659Y-159826096D01*
X57893655Y-159826094D01*
X57665413Y-159764938D01*
X57665403Y-159764936D01*
X57472142Y-159748028D01*
X57430344Y-159731677D01*
X57411985Y-159743477D01*
X57387858Y-159748028D01*
X57194596Y-159764936D01*
X57194586Y-159764938D01*
X56966344Y-159826094D01*
X56966335Y-159826098D01*
X56752171Y-159925964D01*
X56752169Y-159925965D01*
X56558597Y-160061505D01*
X56391505Y-160228597D01*
X56261575Y-160414158D01*
X56206998Y-160457783D01*
X56137500Y-160464977D01*
X56075145Y-160433454D01*
X56058425Y-160414158D01*
X55928494Y-160228597D01*
X55761402Y-160061506D01*
X55761395Y-160061501D01*
X55567834Y-159925967D01*
X55567830Y-159925965D01*
X55567828Y-159925964D01*
X55353663Y-159826097D01*
X55353659Y-159826096D01*
X55353655Y-159826094D01*
X55125413Y-159764938D01*
X55125403Y-159764936D01*
X54932142Y-159748028D01*
X54890344Y-159731677D01*
X54871985Y-159743477D01*
X54847858Y-159748028D01*
X54654596Y-159764936D01*
X54654586Y-159764938D01*
X54426344Y-159826094D01*
X54426335Y-159826098D01*
X54212171Y-159925964D01*
X54212169Y-159925965D01*
X54018600Y-160061503D01*
X53896673Y-160183430D01*
X53835350Y-160216914D01*
X53765658Y-160211930D01*
X53709725Y-160170058D01*
X53692810Y-160139081D01*
X53643797Y-160007671D01*
X53643793Y-160007664D01*
X53557547Y-159892455D01*
X53557544Y-159892452D01*
X53442335Y-159806206D01*
X53442328Y-159806202D01*
X53307482Y-159755908D01*
X53307483Y-159755908D01*
X53247883Y-159749501D01*
X53247881Y-159749500D01*
X53247873Y-159749500D01*
X53247865Y-159749500D01*
X51624500Y-159749500D01*
X51557461Y-159729815D01*
X51511706Y-159677011D01*
X51500500Y-159625500D01*
X51500500Y-159624500D01*
X51520185Y-159557461D01*
X51572989Y-159511706D01*
X51624500Y-159500500D01*
X54837050Y-159500500D01*
X54892285Y-159516719D01*
G37*
%TD.AperFunction*%
%TD*%
M02*
