%TF.GenerationSoftware,KiCad,Pcbnew,8.0.5*%
%TF.CreationDate,2024-12-04T18:47:01+01:00*%
%TF.ProjectId,DMH_S_H_Noise_PCB_Conn,444d485f-535f-4485-9f4e-6f6973655f50,1*%
%TF.SameCoordinates,Original*%
%TF.FileFunction,Legend,Bot*%
%TF.FilePolarity,Positive*%
%FSLAX46Y46*%
G04 Gerber Fmt 4.6, Leading zero omitted, Abs format (unit mm)*
G04 Created by KiCad (PCBNEW 8.0.5) date 2024-12-04 18:47:01*
%MOMM*%
%LPD*%
G01*
G04 APERTURE LIST*
G04 Aperture macros list*
%AMHorizOval*
0 Thick line with rounded ends*
0 $1 width*
0 $2 $3 position (X,Y) of the first rounded end (center of the circle)*
0 $4 $5 position (X,Y) of the second rounded end (center of the circle)*
0 Add line between two ends*
20,1,$1,$2,$3,$4,$5,0*
0 Add two circle primitives to create the rounded ends*
1,1,$1,$2,$3*
1,1,$1,$4,$5*%
G04 Aperture macros list end*
%ADD10C,0.100000*%
%ADD11C,0.250000*%
%ADD12C,0.150000*%
%ADD13HorizOval,1.712000X-0.533159X0.533159X0.533159X-0.533159X0*%
%ADD14O,3.220000X1.712000*%
%ADD15O,1.712000X3.220000*%
%ADD16HorizOval,1.712000X0.533159X0.533159X-0.533159X-0.533159X0*%
%ADD17R,1.700000X1.700000*%
%ADD18O,1.700000X1.700000*%
G04 APERTURE END LIST*
D10*
X94750000Y-194500000D02*
X96750000Y-194500000D01*
X96750000Y-204500000D01*
X94750000Y-204500000D01*
X94750000Y-194500000D01*
G36*
X94750000Y-194500000D02*
G01*
X96750000Y-194500000D01*
X96750000Y-204500000D01*
X94750000Y-204500000D01*
X94750000Y-194500000D01*
G37*
D11*
X98449619Y-190511904D02*
X97449619Y-190511904D01*
X97449619Y-190511904D02*
X98163904Y-190845237D01*
X98163904Y-190845237D02*
X97449619Y-191178570D01*
X97449619Y-191178570D02*
X98449619Y-191178570D01*
X98449619Y-191654761D02*
X97449619Y-191654761D01*
X98068666Y-191749999D02*
X98449619Y-192035713D01*
X97782952Y-192035713D02*
X98163904Y-191654761D01*
X98449619Y-192988094D02*
X98449619Y-192416666D01*
X98449619Y-192702380D02*
X97449619Y-192702380D01*
X97449619Y-192702380D02*
X97592476Y-192607142D01*
X97592476Y-192607142D02*
X97687714Y-192511904D01*
X97687714Y-192511904D02*
X97735333Y-192416666D01*
X98354380Y-193416666D02*
X98402000Y-193464285D01*
X98402000Y-193464285D02*
X98449619Y-193416666D01*
X98449619Y-193416666D02*
X98402000Y-193369047D01*
X98402000Y-193369047D02*
X98354380Y-193416666D01*
X98354380Y-193416666D02*
X98449619Y-193416666D01*
X97449619Y-194083332D02*
X97449619Y-194178570D01*
X97449619Y-194178570D02*
X97497238Y-194273808D01*
X97497238Y-194273808D02*
X97544857Y-194321427D01*
X97544857Y-194321427D02*
X97640095Y-194369046D01*
X97640095Y-194369046D02*
X97830571Y-194416665D01*
X97830571Y-194416665D02*
X98068666Y-194416665D01*
X98068666Y-194416665D02*
X98259142Y-194369046D01*
X98259142Y-194369046D02*
X98354380Y-194321427D01*
X98354380Y-194321427D02*
X98402000Y-194273808D01*
X98402000Y-194273808D02*
X98449619Y-194178570D01*
X98449619Y-194178570D02*
X98449619Y-194083332D01*
X98449619Y-194083332D02*
X98402000Y-193988094D01*
X98402000Y-193988094D02*
X98354380Y-193940475D01*
X98354380Y-193940475D02*
X98259142Y-193892856D01*
X98259142Y-193892856D02*
X98068666Y-193845237D01*
X98068666Y-193845237D02*
X97830571Y-193845237D01*
X97830571Y-193845237D02*
X97640095Y-193892856D01*
X97640095Y-193892856D02*
X97544857Y-193940475D01*
X97544857Y-193940475D02*
X97497238Y-193988094D01*
X97497238Y-193988094D02*
X97449619Y-194083332D01*
X98068666Y-195607142D02*
X98068666Y-196369047D01*
X98449619Y-197607142D02*
X97449619Y-197607142D01*
X97449619Y-197607142D02*
X97449619Y-197845237D01*
X97449619Y-197845237D02*
X97497238Y-197988094D01*
X97497238Y-197988094D02*
X97592476Y-198083332D01*
X97592476Y-198083332D02*
X97687714Y-198130951D01*
X97687714Y-198130951D02*
X97878190Y-198178570D01*
X97878190Y-198178570D02*
X98021047Y-198178570D01*
X98021047Y-198178570D02*
X98211523Y-198130951D01*
X98211523Y-198130951D02*
X98306761Y-198083332D01*
X98306761Y-198083332D02*
X98402000Y-197988094D01*
X98402000Y-197988094D02*
X98449619Y-197845237D01*
X98449619Y-197845237D02*
X98449619Y-197607142D01*
X98402000Y-198988094D02*
X98449619Y-198892856D01*
X98449619Y-198892856D02*
X98449619Y-198702380D01*
X98449619Y-198702380D02*
X98402000Y-198607142D01*
X98402000Y-198607142D02*
X98306761Y-198559523D01*
X98306761Y-198559523D02*
X97925809Y-198559523D01*
X97925809Y-198559523D02*
X97830571Y-198607142D01*
X97830571Y-198607142D02*
X97782952Y-198702380D01*
X97782952Y-198702380D02*
X97782952Y-198892856D01*
X97782952Y-198892856D02*
X97830571Y-198988094D01*
X97830571Y-198988094D02*
X97925809Y-199035713D01*
X97925809Y-199035713D02*
X98021047Y-199035713D01*
X98021047Y-199035713D02*
X98116285Y-198559523D01*
X98402000Y-199892856D02*
X98449619Y-199797618D01*
X98449619Y-199797618D02*
X98449619Y-199607142D01*
X98449619Y-199607142D02*
X98402000Y-199511904D01*
X98402000Y-199511904D02*
X98354380Y-199464285D01*
X98354380Y-199464285D02*
X98259142Y-199416666D01*
X98259142Y-199416666D02*
X97973428Y-199416666D01*
X97973428Y-199416666D02*
X97878190Y-199464285D01*
X97878190Y-199464285D02*
X97830571Y-199511904D01*
X97830571Y-199511904D02*
X97782952Y-199607142D01*
X97782952Y-199607142D02*
X97782952Y-199797618D01*
X97782952Y-199797618D02*
X97830571Y-199892856D01*
X98402000Y-200702380D02*
X98449619Y-200607142D01*
X98449619Y-200607142D02*
X98449619Y-200416666D01*
X98449619Y-200416666D02*
X98402000Y-200321428D01*
X98402000Y-200321428D02*
X98306761Y-200273809D01*
X98306761Y-200273809D02*
X97925809Y-200273809D01*
X97925809Y-200273809D02*
X97830571Y-200321428D01*
X97830571Y-200321428D02*
X97782952Y-200416666D01*
X97782952Y-200416666D02*
X97782952Y-200607142D01*
X97782952Y-200607142D02*
X97830571Y-200702380D01*
X97830571Y-200702380D02*
X97925809Y-200749999D01*
X97925809Y-200749999D02*
X98021047Y-200749999D01*
X98021047Y-200749999D02*
X98116285Y-200273809D01*
X98449619Y-201178571D02*
X97782952Y-201178571D01*
X97878190Y-201178571D02*
X97830571Y-201226190D01*
X97830571Y-201226190D02*
X97782952Y-201321428D01*
X97782952Y-201321428D02*
X97782952Y-201464285D01*
X97782952Y-201464285D02*
X97830571Y-201559523D01*
X97830571Y-201559523D02*
X97925809Y-201607142D01*
X97925809Y-201607142D02*
X98449619Y-201607142D01*
X97925809Y-201607142D02*
X97830571Y-201654761D01*
X97830571Y-201654761D02*
X97782952Y-201749999D01*
X97782952Y-201749999D02*
X97782952Y-201892856D01*
X97782952Y-201892856D02*
X97830571Y-201988095D01*
X97830571Y-201988095D02*
X97925809Y-202035714D01*
X97925809Y-202035714D02*
X98449619Y-202035714D01*
X98449619Y-202511904D02*
X97449619Y-202511904D01*
X97830571Y-202511904D02*
X97782952Y-202607142D01*
X97782952Y-202607142D02*
X97782952Y-202797618D01*
X97782952Y-202797618D02*
X97830571Y-202892856D01*
X97830571Y-202892856D02*
X97878190Y-202940475D01*
X97878190Y-202940475D02*
X97973428Y-202988094D01*
X97973428Y-202988094D02*
X98259142Y-202988094D01*
X98259142Y-202988094D02*
X98354380Y-202940475D01*
X98354380Y-202940475D02*
X98402000Y-202892856D01*
X98402000Y-202892856D02*
X98449619Y-202797618D01*
X98449619Y-202797618D02*
X98449619Y-202607142D01*
X98449619Y-202607142D02*
X98402000Y-202511904D01*
X98402000Y-203797618D02*
X98449619Y-203702380D01*
X98449619Y-203702380D02*
X98449619Y-203511904D01*
X98449619Y-203511904D02*
X98402000Y-203416666D01*
X98402000Y-203416666D02*
X98306761Y-203369047D01*
X98306761Y-203369047D02*
X97925809Y-203369047D01*
X97925809Y-203369047D02*
X97830571Y-203416666D01*
X97830571Y-203416666D02*
X97782952Y-203511904D01*
X97782952Y-203511904D02*
X97782952Y-203702380D01*
X97782952Y-203702380D02*
X97830571Y-203797618D01*
X97830571Y-203797618D02*
X97925809Y-203845237D01*
X97925809Y-203845237D02*
X98021047Y-203845237D01*
X98021047Y-203845237D02*
X98116285Y-203369047D01*
X98449619Y-204273809D02*
X97782952Y-204273809D01*
X97973428Y-204273809D02*
X97878190Y-204321428D01*
X97878190Y-204321428D02*
X97830571Y-204369047D01*
X97830571Y-204369047D02*
X97782952Y-204464285D01*
X97782952Y-204464285D02*
X97782952Y-204559523D01*
X97544857Y-205607143D02*
X97497238Y-205654762D01*
X97497238Y-205654762D02*
X97449619Y-205750000D01*
X97449619Y-205750000D02*
X97449619Y-205988095D01*
X97449619Y-205988095D02*
X97497238Y-206083333D01*
X97497238Y-206083333D02*
X97544857Y-206130952D01*
X97544857Y-206130952D02*
X97640095Y-206178571D01*
X97640095Y-206178571D02*
X97735333Y-206178571D01*
X97735333Y-206178571D02*
X97878190Y-206130952D01*
X97878190Y-206130952D02*
X98449619Y-205559524D01*
X98449619Y-205559524D02*
X98449619Y-206178571D01*
X97449619Y-206797619D02*
X97449619Y-206892857D01*
X97449619Y-206892857D02*
X97497238Y-206988095D01*
X97497238Y-206988095D02*
X97544857Y-207035714D01*
X97544857Y-207035714D02*
X97640095Y-207083333D01*
X97640095Y-207083333D02*
X97830571Y-207130952D01*
X97830571Y-207130952D02*
X98068666Y-207130952D01*
X98068666Y-207130952D02*
X98259142Y-207083333D01*
X98259142Y-207083333D02*
X98354380Y-207035714D01*
X98354380Y-207035714D02*
X98402000Y-206988095D01*
X98402000Y-206988095D02*
X98449619Y-206892857D01*
X98449619Y-206892857D02*
X98449619Y-206797619D01*
X98449619Y-206797619D02*
X98402000Y-206702381D01*
X98402000Y-206702381D02*
X98354380Y-206654762D01*
X98354380Y-206654762D02*
X98259142Y-206607143D01*
X98259142Y-206607143D02*
X98068666Y-206559524D01*
X98068666Y-206559524D02*
X97830571Y-206559524D01*
X97830571Y-206559524D02*
X97640095Y-206607143D01*
X97640095Y-206607143D02*
X97544857Y-206654762D01*
X97544857Y-206654762D02*
X97497238Y-206702381D01*
X97497238Y-206702381D02*
X97449619Y-206797619D01*
X97544857Y-207511905D02*
X97497238Y-207559524D01*
X97497238Y-207559524D02*
X97449619Y-207654762D01*
X97449619Y-207654762D02*
X97449619Y-207892857D01*
X97449619Y-207892857D02*
X97497238Y-207988095D01*
X97497238Y-207988095D02*
X97544857Y-208035714D01*
X97544857Y-208035714D02*
X97640095Y-208083333D01*
X97640095Y-208083333D02*
X97735333Y-208083333D01*
X97735333Y-208083333D02*
X97878190Y-208035714D01*
X97878190Y-208035714D02*
X98449619Y-207464286D01*
X98449619Y-207464286D02*
X98449619Y-208083333D01*
X97782952Y-208940476D02*
X98449619Y-208940476D01*
X97402000Y-208702381D02*
X98116285Y-208464286D01*
X98116285Y-208464286D02*
X98116285Y-209083333D01*
D12*
X59863095Y-209204819D02*
X59738095Y-208204819D01*
X59738095Y-208204819D02*
X59357142Y-208204819D01*
X59357142Y-208204819D02*
X59267857Y-208252438D01*
X59267857Y-208252438D02*
X59226190Y-208300057D01*
X59226190Y-208300057D02*
X59190476Y-208395295D01*
X59190476Y-208395295D02*
X59208333Y-208538152D01*
X59208333Y-208538152D02*
X59267857Y-208633390D01*
X59267857Y-208633390D02*
X59321428Y-208681009D01*
X59321428Y-208681009D02*
X59422618Y-208728628D01*
X59422618Y-208728628D02*
X59803571Y-208728628D01*
X58863095Y-209204819D02*
X58779761Y-208538152D01*
X58738095Y-208204819D02*
X58791666Y-208252438D01*
X58791666Y-208252438D02*
X58749999Y-208300057D01*
X58749999Y-208300057D02*
X58696428Y-208252438D01*
X58696428Y-208252438D02*
X58738095Y-208204819D01*
X58738095Y-208204819D02*
X58749999Y-208300057D01*
X58303571Y-208538152D02*
X58386905Y-209204819D01*
X58315476Y-208633390D02*
X58261905Y-208585771D01*
X58261905Y-208585771D02*
X58160714Y-208538152D01*
X58160714Y-208538152D02*
X58017857Y-208538152D01*
X58017857Y-208538152D02*
X57928571Y-208585771D01*
X57928571Y-208585771D02*
X57892857Y-208681009D01*
X57892857Y-208681009D02*
X57958333Y-209204819D01*
X57482143Y-209204819D02*
X57357143Y-208204819D01*
X57339286Y-208823866D02*
X57101190Y-209204819D01*
X57017857Y-208538152D02*
X57446428Y-208919104D01*
X94571428Y-172157200D02*
X94434524Y-172204819D01*
X94434524Y-172204819D02*
X94196428Y-172204819D01*
X94196428Y-172204819D02*
X94095238Y-172157200D01*
X94095238Y-172157200D02*
X94041666Y-172109580D01*
X94041666Y-172109580D02*
X93982143Y-172014342D01*
X93982143Y-172014342D02*
X93970238Y-171919104D01*
X93970238Y-171919104D02*
X94005952Y-171823866D01*
X94005952Y-171823866D02*
X94047619Y-171776247D01*
X94047619Y-171776247D02*
X94136905Y-171728628D01*
X94136905Y-171728628D02*
X94321428Y-171681009D01*
X94321428Y-171681009D02*
X94410714Y-171633390D01*
X94410714Y-171633390D02*
X94452381Y-171585771D01*
X94452381Y-171585771D02*
X94488095Y-171490533D01*
X94488095Y-171490533D02*
X94476190Y-171395295D01*
X94476190Y-171395295D02*
X94416666Y-171300057D01*
X94416666Y-171300057D02*
X94363095Y-171252438D01*
X94363095Y-171252438D02*
X94261905Y-171204819D01*
X94261905Y-171204819D02*
X94023809Y-171204819D01*
X94023809Y-171204819D02*
X93886905Y-171252438D01*
X92767857Y-172204819D02*
X92815476Y-172204819D01*
X92815476Y-172204819D02*
X92904762Y-172157200D01*
X92904762Y-172157200D02*
X93029762Y-172014342D01*
X93029762Y-172014342D02*
X93232143Y-171728628D01*
X93232143Y-171728628D02*
X93309524Y-171585771D01*
X93309524Y-171585771D02*
X93339285Y-171442914D01*
X93339285Y-171442914D02*
X93327381Y-171347676D01*
X93327381Y-171347676D02*
X93267857Y-171252438D01*
X93267857Y-171252438D02*
X93166666Y-171204819D01*
X93166666Y-171204819D02*
X93119047Y-171204819D01*
X93119047Y-171204819D02*
X93029762Y-171252438D01*
X93029762Y-171252438D02*
X92994047Y-171347676D01*
X92994047Y-171347676D02*
X93000000Y-171395295D01*
X93000000Y-171395295D02*
X93059524Y-171490533D01*
X93059524Y-171490533D02*
X93113095Y-171538152D01*
X93113095Y-171538152D02*
X93422619Y-171728628D01*
X93422619Y-171728628D02*
X93476190Y-171776247D01*
X93476190Y-171776247D02*
X93535714Y-171871485D01*
X93535714Y-171871485D02*
X93553571Y-172014342D01*
X93553571Y-172014342D02*
X93517857Y-172109580D01*
X93517857Y-172109580D02*
X93476190Y-172157200D01*
X93476190Y-172157200D02*
X93386904Y-172204819D01*
X93386904Y-172204819D02*
X93244047Y-172204819D01*
X93244047Y-172204819D02*
X93142857Y-172157200D01*
X93142857Y-172157200D02*
X93089285Y-172109580D01*
X93089285Y-172109580D02*
X92922619Y-171919104D01*
X92922619Y-171919104D02*
X92857143Y-171776247D01*
X92857143Y-171776247D02*
X92845238Y-171681009D01*
X92339286Y-172204819D02*
X92214286Y-171204819D01*
X92273809Y-171681009D02*
X91702381Y-171681009D01*
X91767857Y-172204819D02*
X91642857Y-171204819D01*
X90214285Y-171204819D02*
X90023809Y-171204819D01*
X90023809Y-171204819D02*
X89934524Y-171252438D01*
X89934524Y-171252438D02*
X89851190Y-171347676D01*
X89851190Y-171347676D02*
X89827381Y-171538152D01*
X89827381Y-171538152D02*
X89869047Y-171871485D01*
X89869047Y-171871485D02*
X89940476Y-172061961D01*
X89940476Y-172061961D02*
X90047619Y-172157200D01*
X90047619Y-172157200D02*
X90148809Y-172204819D01*
X90148809Y-172204819D02*
X90339285Y-172204819D01*
X90339285Y-172204819D02*
X90428571Y-172157200D01*
X90428571Y-172157200D02*
X90511905Y-172061961D01*
X90511905Y-172061961D02*
X90535714Y-171871485D01*
X90535714Y-171871485D02*
X90494047Y-171538152D01*
X90494047Y-171538152D02*
X90422619Y-171347676D01*
X90422619Y-171347676D02*
X90315476Y-171252438D01*
X90315476Y-171252438D02*
X90214285Y-171204819D01*
X88970238Y-171538152D02*
X89053571Y-172204819D01*
X89398809Y-171538152D02*
X89464286Y-172061961D01*
X89464286Y-172061961D02*
X89428571Y-172157200D01*
X89428571Y-172157200D02*
X89339286Y-172204819D01*
X89339286Y-172204819D02*
X89196428Y-172204819D01*
X89196428Y-172204819D02*
X89095238Y-172157200D01*
X89095238Y-172157200D02*
X89041666Y-172109580D01*
X88636904Y-171538152D02*
X88255952Y-171538152D01*
X88452381Y-171204819D02*
X88559524Y-172061961D01*
X88559524Y-172061961D02*
X88523809Y-172157200D01*
X88523809Y-172157200D02*
X88434524Y-172204819D01*
X88434524Y-172204819D02*
X88339285Y-172204819D01*
X60148809Y-172204819D02*
X60023809Y-171204819D01*
X59589285Y-171538152D02*
X59672619Y-172204819D01*
X59601190Y-171633390D02*
X59547619Y-171585771D01*
X59547619Y-171585771D02*
X59446428Y-171538152D01*
X59446428Y-171538152D02*
X59303571Y-171538152D01*
X59303571Y-171538152D02*
X59214285Y-171585771D01*
X59214285Y-171585771D02*
X59178571Y-171681009D01*
X59178571Y-171681009D02*
X59244047Y-172204819D01*
X58684523Y-171538152D02*
X58809523Y-172538152D01*
X58690476Y-171585771D02*
X58589285Y-171538152D01*
X58589285Y-171538152D02*
X58398809Y-171538152D01*
X58398809Y-171538152D02*
X58309523Y-171585771D01*
X58309523Y-171585771D02*
X58267857Y-171633390D01*
X58267857Y-171633390D02*
X58232142Y-171728628D01*
X58232142Y-171728628D02*
X58267857Y-172014342D01*
X58267857Y-172014342D02*
X58327380Y-172109580D01*
X58327380Y-172109580D02*
X58380952Y-172157200D01*
X58380952Y-172157200D02*
X58482142Y-172204819D01*
X58482142Y-172204819D02*
X58672619Y-172204819D01*
X58672619Y-172204819D02*
X58761904Y-172157200D01*
X57351190Y-171538152D02*
X57434523Y-172204819D01*
X57779761Y-171538152D02*
X57845238Y-172061961D01*
X57845238Y-172061961D02*
X57809523Y-172157200D01*
X57809523Y-172157200D02*
X57720238Y-172204819D01*
X57720238Y-172204819D02*
X57577380Y-172204819D01*
X57577380Y-172204819D02*
X57476190Y-172157200D01*
X57476190Y-172157200D02*
X57422618Y-172109580D01*
X57017856Y-171538152D02*
X56636904Y-171538152D01*
X56833333Y-171204819D02*
X56940476Y-172061961D01*
X56940476Y-172061961D02*
X56904761Y-172157200D01*
X56904761Y-172157200D02*
X56815476Y-172204819D01*
X56815476Y-172204819D02*
X56720237Y-172204819D01*
X78273809Y-171681009D02*
X77940476Y-171681009D01*
X77863095Y-172204819D02*
X78339286Y-172204819D01*
X78339286Y-172204819D02*
X78214286Y-171204819D01*
X78214286Y-171204819D02*
X77738095Y-171204819D01*
X77529762Y-172204819D02*
X76922619Y-171538152D01*
X77446428Y-171538152D02*
X77005952Y-172204819D01*
X76684523Y-171538152D02*
X76303571Y-171538152D01*
X76500000Y-171204819D02*
X76607143Y-172061961D01*
X76607143Y-172061961D02*
X76571428Y-172157200D01*
X76571428Y-172157200D02*
X76482143Y-172204819D01*
X76482143Y-172204819D02*
X76386904Y-172204819D01*
X74708332Y-172109580D02*
X74761904Y-172157200D01*
X74761904Y-172157200D02*
X74910713Y-172204819D01*
X74910713Y-172204819D02*
X75005951Y-172204819D01*
X75005951Y-172204819D02*
X75142856Y-172157200D01*
X75142856Y-172157200D02*
X75226189Y-172061961D01*
X75226189Y-172061961D02*
X75261904Y-171966723D01*
X75261904Y-171966723D02*
X75285713Y-171776247D01*
X75285713Y-171776247D02*
X75267856Y-171633390D01*
X75267856Y-171633390D02*
X75196428Y-171442914D01*
X75196428Y-171442914D02*
X75136904Y-171347676D01*
X75136904Y-171347676D02*
X75029761Y-171252438D01*
X75029761Y-171252438D02*
X74880951Y-171204819D01*
X74880951Y-171204819D02*
X74785713Y-171204819D01*
X74785713Y-171204819D02*
X74648809Y-171252438D01*
X74648809Y-171252438D02*
X74607142Y-171300057D01*
X74148809Y-172204819D02*
X74238094Y-172157200D01*
X74238094Y-172157200D02*
X74273809Y-172061961D01*
X74273809Y-172061961D02*
X74166666Y-171204819D01*
X73624999Y-172204819D02*
X73714284Y-172157200D01*
X73714284Y-172157200D02*
X73755951Y-172109580D01*
X73755951Y-172109580D02*
X73791665Y-172014342D01*
X73791665Y-172014342D02*
X73755951Y-171728628D01*
X73755951Y-171728628D02*
X73696427Y-171633390D01*
X73696427Y-171633390D02*
X73642856Y-171585771D01*
X73642856Y-171585771D02*
X73541665Y-171538152D01*
X73541665Y-171538152D02*
X73398808Y-171538152D01*
X73398808Y-171538152D02*
X73309522Y-171585771D01*
X73309522Y-171585771D02*
X73267856Y-171633390D01*
X73267856Y-171633390D02*
X73232141Y-171728628D01*
X73232141Y-171728628D02*
X73267856Y-172014342D01*
X73267856Y-172014342D02*
X73327379Y-172109580D01*
X73327379Y-172109580D02*
X73380951Y-172157200D01*
X73380951Y-172157200D02*
X73482141Y-172204819D01*
X73482141Y-172204819D02*
X73624999Y-172204819D01*
X72428570Y-172157200D02*
X72529760Y-172204819D01*
X72529760Y-172204819D02*
X72720237Y-172204819D01*
X72720237Y-172204819D02*
X72809522Y-172157200D01*
X72809522Y-172157200D02*
X72851189Y-172109580D01*
X72851189Y-172109580D02*
X72886903Y-172014342D01*
X72886903Y-172014342D02*
X72851189Y-171728628D01*
X72851189Y-171728628D02*
X72791665Y-171633390D01*
X72791665Y-171633390D02*
X72738094Y-171585771D01*
X72738094Y-171585771D02*
X72636903Y-171538152D01*
X72636903Y-171538152D02*
X72446427Y-171538152D01*
X72446427Y-171538152D02*
X72357141Y-171585771D01*
X72005951Y-172204819D02*
X71880951Y-171204819D01*
X71863094Y-171823866D02*
X71624998Y-172204819D01*
X71541665Y-171538152D02*
X71970236Y-171919104D01*
X76714285Y-208204819D02*
X76601190Y-209204819D01*
X76601190Y-209204819D02*
X76321428Y-208490533D01*
X76321428Y-208490533D02*
X76220237Y-209204819D01*
X76220237Y-209204819D02*
X75857142Y-208204819D01*
X75601190Y-209204819D02*
X75476190Y-208204819D01*
X75172618Y-209204819D02*
X75107142Y-208681009D01*
X75107142Y-208681009D02*
X75142856Y-208585771D01*
X75142856Y-208585771D02*
X75232142Y-208538152D01*
X75232142Y-208538152D02*
X75374999Y-208538152D01*
X75374999Y-208538152D02*
X75476190Y-208585771D01*
X75476190Y-208585771D02*
X75529761Y-208633390D01*
X74696428Y-209204819D02*
X74613094Y-208538152D01*
X74571428Y-208204819D02*
X74624999Y-208252438D01*
X74624999Y-208252438D02*
X74583332Y-208300057D01*
X74583332Y-208300057D02*
X74529761Y-208252438D01*
X74529761Y-208252438D02*
X74571428Y-208204819D01*
X74571428Y-208204819D02*
X74583332Y-208300057D01*
X74279761Y-208538152D02*
X73898809Y-208538152D01*
X74095238Y-208204819D02*
X74202381Y-209061961D01*
X74202381Y-209061961D02*
X74166666Y-209157200D01*
X74166666Y-209157200D02*
X74077381Y-209204819D01*
X74077381Y-209204819D02*
X73982142Y-209204819D01*
X73261904Y-209157200D02*
X73363094Y-209204819D01*
X73363094Y-209204819D02*
X73553571Y-209204819D01*
X73553571Y-209204819D02*
X73642856Y-209157200D01*
X73642856Y-209157200D02*
X73678571Y-209061961D01*
X73678571Y-209061961D02*
X73630952Y-208681009D01*
X73630952Y-208681009D02*
X73571428Y-208585771D01*
X73571428Y-208585771D02*
X73470237Y-208538152D01*
X73470237Y-208538152D02*
X73279761Y-208538152D01*
X73279761Y-208538152D02*
X73190475Y-208585771D01*
X73190475Y-208585771D02*
X73154761Y-208681009D01*
X73154761Y-208681009D02*
X73166666Y-208776247D01*
X73166666Y-208776247D02*
X73654761Y-208871485D01*
X92511904Y-208681009D02*
X92374999Y-208728628D01*
X92374999Y-208728628D02*
X92333333Y-208776247D01*
X92333333Y-208776247D02*
X92297618Y-208871485D01*
X92297618Y-208871485D02*
X92315476Y-209014342D01*
X92315476Y-209014342D02*
X92374999Y-209109580D01*
X92374999Y-209109580D02*
X92428571Y-209157200D01*
X92428571Y-209157200D02*
X92529761Y-209204819D01*
X92529761Y-209204819D02*
X92910714Y-209204819D01*
X92910714Y-209204819D02*
X92785714Y-208204819D01*
X92785714Y-208204819D02*
X92452380Y-208204819D01*
X92452380Y-208204819D02*
X92363095Y-208252438D01*
X92363095Y-208252438D02*
X92321428Y-208300057D01*
X92321428Y-208300057D02*
X92285714Y-208395295D01*
X92285714Y-208395295D02*
X92297618Y-208490533D01*
X92297618Y-208490533D02*
X92357142Y-208585771D01*
X92357142Y-208585771D02*
X92410714Y-208633390D01*
X92410714Y-208633390D02*
X92511904Y-208681009D01*
X92511904Y-208681009D02*
X92845237Y-208681009D01*
X91767857Y-209204819D02*
X91857142Y-209157200D01*
X91857142Y-209157200D02*
X91892857Y-209061961D01*
X91892857Y-209061961D02*
X91785714Y-208204819D01*
X90874999Y-208538152D02*
X90958332Y-209204819D01*
X91303570Y-208538152D02*
X91369047Y-209061961D01*
X91369047Y-209061961D02*
X91333332Y-209157200D01*
X91333332Y-209157200D02*
X91244047Y-209204819D01*
X91244047Y-209204819D02*
X91101189Y-209204819D01*
X91101189Y-209204819D02*
X90999999Y-209157200D01*
X90999999Y-209157200D02*
X90946427Y-209109580D01*
X90095237Y-209157200D02*
X90196427Y-209204819D01*
X90196427Y-209204819D02*
X90386904Y-209204819D01*
X90386904Y-209204819D02*
X90476189Y-209157200D01*
X90476189Y-209157200D02*
X90511904Y-209061961D01*
X90511904Y-209061961D02*
X90464285Y-208681009D01*
X90464285Y-208681009D02*
X90404761Y-208585771D01*
X90404761Y-208585771D02*
X90303570Y-208538152D01*
X90303570Y-208538152D02*
X90113094Y-208538152D01*
X90113094Y-208538152D02*
X90023808Y-208585771D01*
X90023808Y-208585771D02*
X89988094Y-208681009D01*
X89988094Y-208681009D02*
X89999999Y-208776247D01*
X89999999Y-208776247D02*
X90488094Y-208871485D01*
X92059523Y-162954819D02*
X92059523Y-163669104D01*
X92059523Y-163669104D02*
X92107142Y-163811961D01*
X92107142Y-163811961D02*
X92202380Y-163907200D01*
X92202380Y-163907200D02*
X92345237Y-163954819D01*
X92345237Y-163954819D02*
X92440475Y-163954819D01*
X91678570Y-162954819D02*
X91011904Y-162954819D01*
X91011904Y-162954819D02*
X91440475Y-163954819D01*
X90440475Y-162954819D02*
X90345237Y-162954819D01*
X90345237Y-162954819D02*
X90249999Y-163002438D01*
X90249999Y-163002438D02*
X90202380Y-163050057D01*
X90202380Y-163050057D02*
X90154761Y-163145295D01*
X90154761Y-163145295D02*
X90107142Y-163335771D01*
X90107142Y-163335771D02*
X90107142Y-163573866D01*
X90107142Y-163573866D02*
X90154761Y-163764342D01*
X90154761Y-163764342D02*
X90202380Y-163859580D01*
X90202380Y-163859580D02*
X90249999Y-163907200D01*
X90249999Y-163907200D02*
X90345237Y-163954819D01*
X90345237Y-163954819D02*
X90440475Y-163954819D01*
X90440475Y-163954819D02*
X90535713Y-163907200D01*
X90535713Y-163907200D02*
X90583332Y-163859580D01*
X90583332Y-163859580D02*
X90630951Y-163764342D01*
X90630951Y-163764342D02*
X90678570Y-163573866D01*
X90678570Y-163573866D02*
X90678570Y-163335771D01*
X90678570Y-163335771D02*
X90630951Y-163145295D01*
X90630951Y-163145295D02*
X90583332Y-163050057D01*
X90583332Y-163050057D02*
X90535713Y-163002438D01*
X90535713Y-163002438D02*
X90440475Y-162954819D01*
X77875000Y-190609580D02*
X77928572Y-190657200D01*
X77928572Y-190657200D02*
X78077381Y-190704819D01*
X78077381Y-190704819D02*
X78172619Y-190704819D01*
X78172619Y-190704819D02*
X78309524Y-190657200D01*
X78309524Y-190657200D02*
X78392857Y-190561961D01*
X78392857Y-190561961D02*
X78428572Y-190466723D01*
X78428572Y-190466723D02*
X78452381Y-190276247D01*
X78452381Y-190276247D02*
X78434524Y-190133390D01*
X78434524Y-190133390D02*
X78363096Y-189942914D01*
X78363096Y-189942914D02*
X78303572Y-189847676D01*
X78303572Y-189847676D02*
X78196429Y-189752438D01*
X78196429Y-189752438D02*
X78047619Y-189704819D01*
X78047619Y-189704819D02*
X77952381Y-189704819D01*
X77952381Y-189704819D02*
X77815477Y-189752438D01*
X77815477Y-189752438D02*
X77773810Y-189800057D01*
X77315477Y-190704819D02*
X77404762Y-190657200D01*
X77404762Y-190657200D02*
X77440477Y-190561961D01*
X77440477Y-190561961D02*
X77333334Y-189704819D01*
X76791667Y-190704819D02*
X76880952Y-190657200D01*
X76880952Y-190657200D02*
X76922619Y-190609580D01*
X76922619Y-190609580D02*
X76958333Y-190514342D01*
X76958333Y-190514342D02*
X76922619Y-190228628D01*
X76922619Y-190228628D02*
X76863095Y-190133390D01*
X76863095Y-190133390D02*
X76809524Y-190085771D01*
X76809524Y-190085771D02*
X76708333Y-190038152D01*
X76708333Y-190038152D02*
X76565476Y-190038152D01*
X76565476Y-190038152D02*
X76476190Y-190085771D01*
X76476190Y-190085771D02*
X76434524Y-190133390D01*
X76434524Y-190133390D02*
X76398809Y-190228628D01*
X76398809Y-190228628D02*
X76434524Y-190514342D01*
X76434524Y-190514342D02*
X76494047Y-190609580D01*
X76494047Y-190609580D02*
X76547619Y-190657200D01*
X76547619Y-190657200D02*
X76648809Y-190704819D01*
X76648809Y-190704819D02*
X76791667Y-190704819D01*
X75595238Y-190657200D02*
X75696428Y-190704819D01*
X75696428Y-190704819D02*
X75886905Y-190704819D01*
X75886905Y-190704819D02*
X75976190Y-190657200D01*
X75976190Y-190657200D02*
X76017857Y-190609580D01*
X76017857Y-190609580D02*
X76053571Y-190514342D01*
X76053571Y-190514342D02*
X76017857Y-190228628D01*
X76017857Y-190228628D02*
X75958333Y-190133390D01*
X75958333Y-190133390D02*
X75904762Y-190085771D01*
X75904762Y-190085771D02*
X75803571Y-190038152D01*
X75803571Y-190038152D02*
X75613095Y-190038152D01*
X75613095Y-190038152D02*
X75523809Y-190085771D01*
X75172619Y-190704819D02*
X75047619Y-189704819D01*
X75029762Y-190323866D02*
X74791666Y-190704819D01*
X74708333Y-190038152D02*
X75136904Y-190419104D01*
X73285713Y-189704819D02*
X73095237Y-189704819D01*
X73095237Y-189704819D02*
X73005952Y-189752438D01*
X73005952Y-189752438D02*
X72922618Y-189847676D01*
X72922618Y-189847676D02*
X72898809Y-190038152D01*
X72898809Y-190038152D02*
X72940475Y-190371485D01*
X72940475Y-190371485D02*
X73011904Y-190561961D01*
X73011904Y-190561961D02*
X73119047Y-190657200D01*
X73119047Y-190657200D02*
X73220237Y-190704819D01*
X73220237Y-190704819D02*
X73410713Y-190704819D01*
X73410713Y-190704819D02*
X73499999Y-190657200D01*
X73499999Y-190657200D02*
X73583333Y-190561961D01*
X73583333Y-190561961D02*
X73607142Y-190371485D01*
X73607142Y-190371485D02*
X73565475Y-190038152D01*
X73565475Y-190038152D02*
X73494047Y-189847676D01*
X73494047Y-189847676D02*
X73386904Y-189752438D01*
X73386904Y-189752438D02*
X73285713Y-189704819D01*
X72041666Y-190038152D02*
X72124999Y-190704819D01*
X72470237Y-190038152D02*
X72535714Y-190561961D01*
X72535714Y-190561961D02*
X72499999Y-190657200D01*
X72499999Y-190657200D02*
X72410714Y-190704819D01*
X72410714Y-190704819D02*
X72267856Y-190704819D01*
X72267856Y-190704819D02*
X72166666Y-190657200D01*
X72166666Y-190657200D02*
X72113094Y-190609580D01*
X71708332Y-190038152D02*
X71327380Y-190038152D01*
X71523809Y-189704819D02*
X71630952Y-190561961D01*
X71630952Y-190561961D02*
X71595237Y-190657200D01*
X71595237Y-190657200D02*
X71505952Y-190704819D01*
X71505952Y-190704819D02*
X71410713Y-190704819D01*
X59559523Y-162954819D02*
X59559523Y-163669104D01*
X59559523Y-163669104D02*
X59607142Y-163811961D01*
X59607142Y-163811961D02*
X59702380Y-163907200D01*
X59702380Y-163907200D02*
X59845237Y-163954819D01*
X59845237Y-163954819D02*
X59940475Y-163954819D01*
X58607142Y-162954819D02*
X59083332Y-162954819D01*
X59083332Y-162954819D02*
X59130951Y-163431009D01*
X59130951Y-163431009D02*
X59083332Y-163383390D01*
X59083332Y-163383390D02*
X58988094Y-163335771D01*
X58988094Y-163335771D02*
X58749999Y-163335771D01*
X58749999Y-163335771D02*
X58654761Y-163383390D01*
X58654761Y-163383390D02*
X58607142Y-163431009D01*
X58607142Y-163431009D02*
X58559523Y-163526247D01*
X58559523Y-163526247D02*
X58559523Y-163764342D01*
X58559523Y-163764342D02*
X58607142Y-163859580D01*
X58607142Y-163859580D02*
X58654761Y-163907200D01*
X58654761Y-163907200D02*
X58749999Y-163954819D01*
X58749999Y-163954819D02*
X58988094Y-163954819D01*
X58988094Y-163954819D02*
X59083332Y-163907200D01*
X59083332Y-163907200D02*
X59130951Y-163859580D01*
X57940475Y-162954819D02*
X57845237Y-162954819D01*
X57845237Y-162954819D02*
X57749999Y-163002438D01*
X57749999Y-163002438D02*
X57702380Y-163050057D01*
X57702380Y-163050057D02*
X57654761Y-163145295D01*
X57654761Y-163145295D02*
X57607142Y-163335771D01*
X57607142Y-163335771D02*
X57607142Y-163573866D01*
X57607142Y-163573866D02*
X57654761Y-163764342D01*
X57654761Y-163764342D02*
X57702380Y-163859580D01*
X57702380Y-163859580D02*
X57749999Y-163907200D01*
X57749999Y-163907200D02*
X57845237Y-163954819D01*
X57845237Y-163954819D02*
X57940475Y-163954819D01*
X57940475Y-163954819D02*
X58035713Y-163907200D01*
X58035713Y-163907200D02*
X58083332Y-163859580D01*
X58083332Y-163859580D02*
X58130951Y-163764342D01*
X58130951Y-163764342D02*
X58178570Y-163573866D01*
X58178570Y-163573866D02*
X58178570Y-163335771D01*
X58178570Y-163335771D02*
X58130951Y-163145295D01*
X58130951Y-163145295D02*
X58083332Y-163050057D01*
X58083332Y-163050057D02*
X58035713Y-163002438D01*
X58035713Y-163002438D02*
X57940475Y-162954819D01*
X61071428Y-190657200D02*
X60934524Y-190704819D01*
X60934524Y-190704819D02*
X60696428Y-190704819D01*
X60696428Y-190704819D02*
X60595238Y-190657200D01*
X60595238Y-190657200D02*
X60541666Y-190609580D01*
X60541666Y-190609580D02*
X60482143Y-190514342D01*
X60482143Y-190514342D02*
X60470238Y-190419104D01*
X60470238Y-190419104D02*
X60505952Y-190323866D01*
X60505952Y-190323866D02*
X60547619Y-190276247D01*
X60547619Y-190276247D02*
X60636905Y-190228628D01*
X60636905Y-190228628D02*
X60821428Y-190181009D01*
X60821428Y-190181009D02*
X60910714Y-190133390D01*
X60910714Y-190133390D02*
X60952381Y-190085771D01*
X60952381Y-190085771D02*
X60988095Y-189990533D01*
X60988095Y-189990533D02*
X60976190Y-189895295D01*
X60976190Y-189895295D02*
X60916666Y-189800057D01*
X60916666Y-189800057D02*
X60863095Y-189752438D01*
X60863095Y-189752438D02*
X60761905Y-189704819D01*
X60761905Y-189704819D02*
X60523809Y-189704819D01*
X60523809Y-189704819D02*
X60386905Y-189752438D01*
X59934524Y-190704819D02*
X60023809Y-190657200D01*
X60023809Y-190657200D02*
X60059524Y-190561961D01*
X60059524Y-190561961D02*
X59952381Y-189704819D01*
X59166666Y-190657200D02*
X59267856Y-190704819D01*
X59267856Y-190704819D02*
X59458333Y-190704819D01*
X59458333Y-190704819D02*
X59547618Y-190657200D01*
X59547618Y-190657200D02*
X59583333Y-190561961D01*
X59583333Y-190561961D02*
X59535714Y-190181009D01*
X59535714Y-190181009D02*
X59476190Y-190085771D01*
X59476190Y-190085771D02*
X59374999Y-190038152D01*
X59374999Y-190038152D02*
X59184523Y-190038152D01*
X59184523Y-190038152D02*
X59095237Y-190085771D01*
X59095237Y-190085771D02*
X59059523Y-190181009D01*
X59059523Y-190181009D02*
X59071428Y-190276247D01*
X59071428Y-190276247D02*
X59559523Y-190371485D01*
X58708332Y-190038152D02*
X58601190Y-190704819D01*
X58601190Y-190704819D02*
X58351190Y-190228628D01*
X58351190Y-190228628D02*
X58220237Y-190704819D01*
X58220237Y-190704819D02*
X57946428Y-190038152D01*
X56886904Y-190704819D02*
X56761904Y-189704819D01*
X56327380Y-190038152D02*
X56410714Y-190704819D01*
X56339285Y-190133390D02*
X56285714Y-190085771D01*
X56285714Y-190085771D02*
X56184523Y-190038152D01*
X56184523Y-190038152D02*
X56041666Y-190038152D01*
X56041666Y-190038152D02*
X55952380Y-190085771D01*
X55952380Y-190085771D02*
X55916666Y-190181009D01*
X55916666Y-190181009D02*
X55982142Y-190704819D01*
X75809523Y-162954819D02*
X75809523Y-163669104D01*
X75809523Y-163669104D02*
X75857142Y-163811961D01*
X75857142Y-163811961D02*
X75952380Y-163907200D01*
X75952380Y-163907200D02*
X76095237Y-163954819D01*
X76095237Y-163954819D02*
X76190475Y-163954819D01*
X74904761Y-162954819D02*
X75095237Y-162954819D01*
X75095237Y-162954819D02*
X75190475Y-163002438D01*
X75190475Y-163002438D02*
X75238094Y-163050057D01*
X75238094Y-163050057D02*
X75333332Y-163192914D01*
X75333332Y-163192914D02*
X75380951Y-163383390D01*
X75380951Y-163383390D02*
X75380951Y-163764342D01*
X75380951Y-163764342D02*
X75333332Y-163859580D01*
X75333332Y-163859580D02*
X75285713Y-163907200D01*
X75285713Y-163907200D02*
X75190475Y-163954819D01*
X75190475Y-163954819D02*
X74999999Y-163954819D01*
X74999999Y-163954819D02*
X74904761Y-163907200D01*
X74904761Y-163907200D02*
X74857142Y-163859580D01*
X74857142Y-163859580D02*
X74809523Y-163764342D01*
X74809523Y-163764342D02*
X74809523Y-163526247D01*
X74809523Y-163526247D02*
X74857142Y-163431009D01*
X74857142Y-163431009D02*
X74904761Y-163383390D01*
X74904761Y-163383390D02*
X74999999Y-163335771D01*
X74999999Y-163335771D02*
X75190475Y-163335771D01*
X75190475Y-163335771D02*
X75285713Y-163383390D01*
X75285713Y-163383390D02*
X75333332Y-163431009D01*
X75333332Y-163431009D02*
X75380951Y-163526247D01*
X74190475Y-162954819D02*
X74095237Y-162954819D01*
X74095237Y-162954819D02*
X73999999Y-163002438D01*
X73999999Y-163002438D02*
X73952380Y-163050057D01*
X73952380Y-163050057D02*
X73904761Y-163145295D01*
X73904761Y-163145295D02*
X73857142Y-163335771D01*
X73857142Y-163335771D02*
X73857142Y-163573866D01*
X73857142Y-163573866D02*
X73904761Y-163764342D01*
X73904761Y-163764342D02*
X73952380Y-163859580D01*
X73952380Y-163859580D02*
X73999999Y-163907200D01*
X73999999Y-163907200D02*
X74095237Y-163954819D01*
X74095237Y-163954819D02*
X74190475Y-163954819D01*
X74190475Y-163954819D02*
X74285713Y-163907200D01*
X74285713Y-163907200D02*
X74333332Y-163859580D01*
X74333332Y-163859580D02*
X74380951Y-163764342D01*
X74380951Y-163764342D02*
X74428570Y-163573866D01*
X74428570Y-163573866D02*
X74428570Y-163335771D01*
X74428570Y-163335771D02*
X74380951Y-163145295D01*
X74380951Y-163145295D02*
X74333332Y-163050057D01*
X74333332Y-163050057D02*
X74285713Y-163002438D01*
X74285713Y-163002438D02*
X74190475Y-162954819D01*
X94642857Y-190657200D02*
X94505953Y-190704819D01*
X94505953Y-190704819D02*
X94267857Y-190704819D01*
X94267857Y-190704819D02*
X94166667Y-190657200D01*
X94166667Y-190657200D02*
X94113095Y-190609580D01*
X94113095Y-190609580D02*
X94053572Y-190514342D01*
X94053572Y-190514342D02*
X94041667Y-190419104D01*
X94041667Y-190419104D02*
X94077381Y-190323866D01*
X94077381Y-190323866D02*
X94119048Y-190276247D01*
X94119048Y-190276247D02*
X94208334Y-190228628D01*
X94208334Y-190228628D02*
X94392857Y-190181009D01*
X94392857Y-190181009D02*
X94482143Y-190133390D01*
X94482143Y-190133390D02*
X94523810Y-190085771D01*
X94523810Y-190085771D02*
X94559524Y-189990533D01*
X94559524Y-189990533D02*
X94547619Y-189895295D01*
X94547619Y-189895295D02*
X94488095Y-189800057D01*
X94488095Y-189800057D02*
X94434524Y-189752438D01*
X94434524Y-189752438D02*
X94333334Y-189704819D01*
X94333334Y-189704819D02*
X94095238Y-189704819D01*
X94095238Y-189704819D02*
X93958334Y-189752438D01*
X93505953Y-190704819D02*
X93595238Y-190657200D01*
X93595238Y-190657200D02*
X93630953Y-190561961D01*
X93630953Y-190561961D02*
X93523810Y-189704819D01*
X92738095Y-190657200D02*
X92839285Y-190704819D01*
X92839285Y-190704819D02*
X93029762Y-190704819D01*
X93029762Y-190704819D02*
X93119047Y-190657200D01*
X93119047Y-190657200D02*
X93154762Y-190561961D01*
X93154762Y-190561961D02*
X93107143Y-190181009D01*
X93107143Y-190181009D02*
X93047619Y-190085771D01*
X93047619Y-190085771D02*
X92946428Y-190038152D01*
X92946428Y-190038152D02*
X92755952Y-190038152D01*
X92755952Y-190038152D02*
X92666666Y-190085771D01*
X92666666Y-190085771D02*
X92630952Y-190181009D01*
X92630952Y-190181009D02*
X92642857Y-190276247D01*
X92642857Y-190276247D02*
X93130952Y-190371485D01*
X92279761Y-190038152D02*
X92172619Y-190704819D01*
X92172619Y-190704819D02*
X91922619Y-190228628D01*
X91922619Y-190228628D02*
X91791666Y-190704819D01*
X91791666Y-190704819D02*
X91517857Y-190038152D01*
X90142856Y-189704819D02*
X89952380Y-189704819D01*
X89952380Y-189704819D02*
X89863095Y-189752438D01*
X89863095Y-189752438D02*
X89779761Y-189847676D01*
X89779761Y-189847676D02*
X89755952Y-190038152D01*
X89755952Y-190038152D02*
X89797618Y-190371485D01*
X89797618Y-190371485D02*
X89869047Y-190561961D01*
X89869047Y-190561961D02*
X89976190Y-190657200D01*
X89976190Y-190657200D02*
X90077380Y-190704819D01*
X90077380Y-190704819D02*
X90267856Y-190704819D01*
X90267856Y-190704819D02*
X90357142Y-190657200D01*
X90357142Y-190657200D02*
X90440476Y-190561961D01*
X90440476Y-190561961D02*
X90464285Y-190371485D01*
X90464285Y-190371485D02*
X90422618Y-190038152D01*
X90422618Y-190038152D02*
X90351190Y-189847676D01*
X90351190Y-189847676D02*
X90244047Y-189752438D01*
X90244047Y-189752438D02*
X90142856Y-189704819D01*
X88898809Y-190038152D02*
X88982142Y-190704819D01*
X89327380Y-190038152D02*
X89392857Y-190561961D01*
X89392857Y-190561961D02*
X89357142Y-190657200D01*
X89357142Y-190657200D02*
X89267857Y-190704819D01*
X89267857Y-190704819D02*
X89124999Y-190704819D01*
X89124999Y-190704819D02*
X89023809Y-190657200D01*
X89023809Y-190657200D02*
X88970237Y-190609580D01*
X88565475Y-190038152D02*
X88184523Y-190038152D01*
X88380952Y-189704819D02*
X88488095Y-190561961D01*
X88488095Y-190561961D02*
X88452380Y-190657200D01*
X88452380Y-190657200D02*
X88363095Y-190704819D01*
X88363095Y-190704819D02*
X88267856Y-190704819D01*
%TO.C,J7*%
X54300000Y-208750000D02*
X54300000Y-206400000D01*
X54300000Y-208750000D02*
X54300000Y-211100000D01*
X62700000Y-208750000D02*
X62700000Y-206400000D01*
X62700000Y-208750000D02*
X62700000Y-211100000D01*
X54311121Y-206406222D02*
G75*
G02*
X58500000Y-203950000I4188879J-2343778D01*
G01*
X58500000Y-203950000D02*
G75*
G02*
X62688879Y-206406222I0J-4800000D01*
G01*
X58500000Y-213550000D02*
G75*
G02*
X54311121Y-211093778I2J4800003D01*
G01*
X62688879Y-211093778D02*
G75*
G02*
X58500000Y-213550000I-4188881J2343781D01*
G01*
%TO.C,J5*%
X87300000Y-171750000D02*
X87300000Y-169400000D01*
X87300000Y-171750000D02*
X87300000Y-174100000D01*
X95700000Y-171750000D02*
X95700000Y-169400000D01*
X95700000Y-171750000D02*
X95700000Y-174100000D01*
X87311121Y-169406222D02*
G75*
G02*
X91500000Y-166950000I4188881J-2343781D01*
G01*
X91500000Y-166950000D02*
G75*
G02*
X95688879Y-169406222I-2J-4800003D01*
G01*
X91500000Y-176550000D02*
G75*
G02*
X87311121Y-174093778I0J4800000D01*
G01*
X95688879Y-174093778D02*
G75*
G02*
X91500000Y-176550000I-4188879J2343778D01*
G01*
%TO.C,J1*%
X54300000Y-171750000D02*
X54300000Y-169400000D01*
X54300000Y-171750000D02*
X54300000Y-174100000D01*
X62700000Y-171750000D02*
X62700000Y-169400000D01*
X62700000Y-171750000D02*
X62700000Y-174100000D01*
X54311121Y-169406222D02*
G75*
G02*
X58500000Y-166950000I4188879J-2343778D01*
G01*
X58500000Y-166950000D02*
G75*
G02*
X62688879Y-169406222I0J-4800000D01*
G01*
X58500000Y-176550000D02*
G75*
G02*
X54311121Y-174093778I2J4800003D01*
G01*
X62688879Y-174093778D02*
G75*
G02*
X58500000Y-176550000I-4188881J2343781D01*
G01*
%TO.C,J3*%
X75000000Y-167550000D02*
X72650000Y-167550000D01*
X75000000Y-167550000D02*
X77350000Y-167550000D01*
X75000000Y-175950000D02*
X72650000Y-175950000D01*
X75000000Y-175950000D02*
X77350000Y-175950000D01*
X70200000Y-171750000D02*
G75*
G02*
X72656222Y-167561121I4800003J-2D01*
G01*
X72656222Y-175938879D02*
G75*
G02*
X70200000Y-171750000I2343781J4188881D01*
G01*
X77343778Y-167561121D02*
G75*
G02*
X79800000Y-171750000I-2343778J-4188879D01*
G01*
X79800000Y-171750000D02*
G75*
G02*
X77343778Y-175938879I-4800000J0D01*
G01*
%TO.C,J8*%
X75000000Y-204550000D02*
X72650000Y-204550000D01*
X75000000Y-204550000D02*
X77350000Y-204550000D01*
X75000000Y-212950000D02*
X72650000Y-212950000D01*
X75000000Y-212950000D02*
X77350000Y-212950000D01*
X70200000Y-208750000D02*
G75*
G02*
X72656222Y-204561121I4800003J-2D01*
G01*
X72656222Y-212938879D02*
G75*
G02*
X70200000Y-208750000I2343781J4188881D01*
G01*
X77343778Y-204561121D02*
G75*
G02*
X79800000Y-208750000I-2343778J-4188879D01*
G01*
X79800000Y-208750000D02*
G75*
G02*
X77343778Y-212938879I-4800000J0D01*
G01*
%TO.C,J9*%
X87300000Y-208750000D02*
X87300000Y-206400000D01*
X87300000Y-208750000D02*
X87300000Y-211100000D01*
X95700000Y-208750000D02*
X95700000Y-206400000D01*
X95700000Y-208750000D02*
X95700000Y-211100000D01*
X87311121Y-206406222D02*
G75*
G02*
X91500000Y-203950000I4188881J-2343781D01*
G01*
X91500000Y-203950000D02*
G75*
G02*
X95688879Y-206406222I-2J-4800003D01*
G01*
X91500000Y-213550000D02*
G75*
G02*
X87311121Y-211093778I0J4800000D01*
G01*
X95688879Y-211093778D02*
G75*
G02*
X91500000Y-213550000I-4188879J2343778D01*
G01*
%TO.C,J4*%
X75000000Y-186050000D02*
X72650000Y-186050000D01*
X75000000Y-186050000D02*
X77350000Y-186050000D01*
X75000000Y-194450000D02*
X72650000Y-194450000D01*
X75000000Y-194450000D02*
X77350000Y-194450000D01*
X70200000Y-190250000D02*
G75*
G02*
X72656222Y-186061121I4800003J-2D01*
G01*
X72656222Y-194438879D02*
G75*
G02*
X70200000Y-190250000I2343781J4188881D01*
G01*
X77343778Y-186061121D02*
G75*
G02*
X79800000Y-190250000I-2343778J-4188879D01*
G01*
X79800000Y-190250000D02*
G75*
G02*
X77343778Y-194438879I-4800000J0D01*
G01*
%TO.C,J2*%
X54300000Y-190250000D02*
X54300000Y-187900000D01*
X54300000Y-190250000D02*
X54300000Y-192600000D01*
X62700000Y-190250000D02*
X62700000Y-187900000D01*
X62700000Y-190250000D02*
X62700000Y-192600000D01*
X54311121Y-187906222D02*
G75*
G02*
X58500000Y-185450000I4188879J-2343778D01*
G01*
X58500000Y-185450000D02*
G75*
G02*
X62688879Y-187906222I0J-4800000D01*
G01*
X58500000Y-195050000D02*
G75*
G02*
X54311121Y-192593778I2J4800003D01*
G01*
X62688879Y-192593778D02*
G75*
G02*
X58500000Y-195050000I-4188881J2343781D01*
G01*
%TO.C,J6*%
X87300000Y-190250000D02*
X87300000Y-187900000D01*
X87300000Y-190250000D02*
X87300000Y-192600000D01*
X95700000Y-190250000D02*
X95700000Y-187900000D01*
X95700000Y-190250000D02*
X95700000Y-192600000D01*
X87311121Y-187906222D02*
G75*
G02*
X91500000Y-185450000I4188881J-2343781D01*
G01*
X91500000Y-185450000D02*
G75*
G02*
X95688879Y-187906222I-2J-4800003D01*
G01*
X91500000Y-195050000D02*
G75*
G02*
X87311121Y-192593778I0J4800000D01*
G01*
X95688879Y-192593778D02*
G75*
G02*
X91500000Y-195050000I-4188879J2343778D01*
G01*
%TD*%
%LPC*%
D13*
%TO.C,J7*%
X63096190Y-204153810D03*
D14*
X59000000Y-215250000D03*
D15*
X65000000Y-211250000D03*
%TD*%
D13*
%TO.C,J5*%
X86903810Y-176346190D03*
D14*
X91000000Y-165250000D03*
D15*
X85000000Y-169250000D03*
%TD*%
D13*
%TO.C,J1*%
X63096190Y-167153810D03*
D14*
X59000000Y-178250000D03*
D15*
X65000000Y-174250000D03*
%TD*%
D16*
%TO.C,J3*%
X79596190Y-176346190D03*
D15*
X68500000Y-172250000D03*
D14*
X72500000Y-178250000D03*
%TD*%
D16*
%TO.C,J8*%
X79596190Y-213346190D03*
D15*
X68500000Y-209250000D03*
D14*
X72500000Y-215250000D03*
%TD*%
D13*
%TO.C,J9*%
X86903810Y-213346190D03*
D14*
X91000000Y-202250000D03*
D15*
X85000000Y-206250000D03*
%TD*%
D17*
%TO.C,J70*%
X97650000Y-161100000D03*
D18*
X95110000Y-161100000D03*
X92570000Y-161100000D03*
X90030000Y-161100000D03*
X87490000Y-161100000D03*
X84950000Y-161100000D03*
%TD*%
D16*
%TO.C,J4*%
X79596190Y-194846190D03*
D15*
X68500000Y-190750000D03*
D14*
X72500000Y-196750000D03*
%TD*%
D17*
%TO.C,J50*%
X52350000Y-161100000D03*
D18*
X54890000Y-161100000D03*
X57430000Y-161100000D03*
X59970000Y-161100000D03*
X62510000Y-161100000D03*
X65050000Y-161100000D03*
%TD*%
D13*
%TO.C,J2*%
X63096190Y-185653810D03*
D14*
X59000000Y-196750000D03*
D15*
X65000000Y-192750000D03*
%TD*%
D17*
%TO.C,J60*%
X81350000Y-161100000D03*
D18*
X78810000Y-161100000D03*
X76270000Y-161100000D03*
X73730000Y-161100000D03*
X71190000Y-161100000D03*
X68650000Y-161100000D03*
%TD*%
D13*
%TO.C,J6*%
X86903810Y-194846190D03*
D14*
X91000000Y-183750000D03*
D15*
X85000000Y-187750000D03*
%TD*%
%LPD*%
M02*
