%TF.GenerationSoftware,KiCad,Pcbnew,8.0.5*%
%TF.CreationDate,2024-12-04T18:45:19+01:00*%
%TF.ProjectId,DMH_S_H_Noise_PCB_Conn,444d485f-535f-4485-9f4e-6f6973655f50,1*%
%TF.SameCoordinates,Original*%
%TF.FileFunction,Drillmap*%
%TF.FilePolarity,Positive*%
%FSLAX45Y45*%
G04 Gerber Fmt 4.5, Leading zero omitted, Abs format (unit mm)*
G04 Created by KiCad (PCBNEW 8.0.5) date 2024-12-04 18:45:19*
%MOMM*%
%LPD*%
G01*
G04 APERTURE LIST*
%ADD10C,0.050000*%
%ADD11C,0.200000*%
%ADD12C,0.100000*%
G04 APERTURE END LIST*
D10*
X5100000Y-15900000D02*
X9900000Y-15900000D01*
X9900000Y-21750000D01*
X5100000Y-21750000D01*
X5100000Y-15900000D01*
D11*
D12*
X5185000Y-16060000D02*
X5285000Y-16160000D01*
X5285000Y-16060000D02*
X5185000Y-16160000D01*
X5439000Y-16060000D02*
X5539000Y-16160000D01*
X5539000Y-16060000D02*
X5439000Y-16160000D01*
X5693000Y-16060000D02*
X5793000Y-16160000D01*
X5793000Y-16060000D02*
X5693000Y-16160000D01*
X5850000Y-17775000D02*
X5950000Y-17875000D01*
X5950000Y-17775000D02*
X5850000Y-17875000D01*
X5975000Y-17775000D02*
X5825000Y-17775000D01*
X5825000Y-17875000D02*
G75*
G02*
X5825000Y-17775000I0J50000D01*
G01*
X5825000Y-17875000D02*
X5975000Y-17875000D01*
X5975000Y-17875000D02*
G75*
G03*
X5975000Y-17775000I0J50000D01*
G01*
X5850000Y-19625000D02*
X5950000Y-19725000D01*
X5950000Y-19625000D02*
X5850000Y-19725000D01*
X5975000Y-19625000D02*
X5825000Y-19625000D01*
X5825000Y-19725000D02*
G75*
G02*
X5825000Y-19625000I0J50000D01*
G01*
X5825000Y-19725000D02*
X5975000Y-19725000D01*
X5975000Y-19725000D02*
G75*
G03*
X5975000Y-19625000I0J50000D01*
G01*
X5850000Y-21475000D02*
X5950000Y-21575000D01*
X5950000Y-21475000D02*
X5850000Y-21575000D01*
X5975000Y-21475000D02*
X5825000Y-21475000D01*
X5825000Y-21575000D02*
G75*
G02*
X5825000Y-21475000I0J50000D01*
G01*
X5825000Y-21575000D02*
X5975000Y-21575000D01*
X5975000Y-21575000D02*
G75*
G03*
X5975000Y-21475000I0J50000D01*
G01*
X5947000Y-16060000D02*
X6047000Y-16160000D01*
X6047000Y-16060000D02*
X5947000Y-16160000D01*
X6201000Y-16060000D02*
X6301000Y-16160000D01*
X6301000Y-16060000D02*
X6201000Y-16160000D01*
X6259619Y-16665381D02*
X6359619Y-16765381D01*
X6359619Y-16665381D02*
X6259619Y-16765381D01*
X6398007Y-16733059D02*
X6291941Y-16626993D01*
X6221231Y-16697703D02*
G75*
G02*
X6291941Y-16626993I35355J35355D01*
G01*
X6221231Y-16697703D02*
X6327297Y-16803769D01*
X6327297Y-16803769D02*
G75*
G03*
X6398007Y-16733059I35355J35355D01*
G01*
X6259619Y-18515381D02*
X6359619Y-18615381D01*
X6359619Y-18515381D02*
X6259619Y-18615381D01*
X6398007Y-18583059D02*
X6291941Y-18476993D01*
X6221231Y-18547703D02*
G75*
G02*
X6291941Y-18476993I35355J35355D01*
G01*
X6221231Y-18547703D02*
X6327297Y-18653769D01*
X6327297Y-18653769D02*
G75*
G03*
X6398007Y-18583059I35355J35355D01*
G01*
X6259619Y-20365381D02*
X6359619Y-20465381D01*
X6359619Y-20365381D02*
X6259619Y-20465381D01*
X6398007Y-20433059D02*
X6291941Y-20326993D01*
X6221231Y-20397703D02*
G75*
G02*
X6291941Y-20326993I35355J35355D01*
G01*
X6221231Y-20397703D02*
X6327297Y-20503769D01*
X6327297Y-20503769D02*
G75*
G03*
X6398007Y-20433059I35355J35355D01*
G01*
X6450000Y-17375000D02*
X6550000Y-17475000D01*
X6550000Y-17375000D02*
X6450000Y-17475000D01*
X6450000Y-17350000D02*
X6450000Y-17500000D01*
X6550000Y-17500000D02*
G75*
G02*
X6450000Y-17500000I-50000J0D01*
G01*
X6550000Y-17500000D02*
X6550000Y-17350000D01*
X6550000Y-17350000D02*
G75*
G03*
X6450000Y-17350000I-50000J0D01*
G01*
X6450000Y-19225000D02*
X6550000Y-19325000D01*
X6550000Y-19225000D02*
X6450000Y-19325000D01*
X6450000Y-19200000D02*
X6450000Y-19350000D01*
X6550000Y-19350000D02*
G75*
G02*
X6450000Y-19350000I-50000J0D01*
G01*
X6550000Y-19350000D02*
X6550000Y-19200000D01*
X6550000Y-19200000D02*
G75*
G03*
X6450000Y-19200000I-50000J0D01*
G01*
X6450000Y-21075000D02*
X6550000Y-21175000D01*
X6550000Y-21075000D02*
X6450000Y-21175000D01*
X6450000Y-21050000D02*
X6450000Y-21200000D01*
X6550000Y-21200000D02*
G75*
G02*
X6450000Y-21200000I-50000J0D01*
G01*
X6550000Y-21200000D02*
X6550000Y-21050000D01*
X6550000Y-21050000D02*
G75*
G03*
X6450000Y-21050000I-50000J0D01*
G01*
X6455000Y-16060000D02*
X6555000Y-16160000D01*
X6555000Y-16060000D02*
X6455000Y-16160000D01*
X6800000Y-17175000D02*
X6900000Y-17275000D01*
X6900000Y-17175000D02*
X6800000Y-17275000D01*
X6900000Y-17300000D02*
X6900000Y-17150000D01*
X6800000Y-17150000D02*
G75*
G02*
X6900000Y-17150000I50000J0D01*
G01*
X6800000Y-17150000D02*
X6800000Y-17300000D01*
X6800000Y-17300000D02*
G75*
G03*
X6900000Y-17300000I50000J0D01*
G01*
X6800000Y-19025000D02*
X6900000Y-19125000D01*
X6900000Y-19025000D02*
X6800000Y-19125000D01*
X6900000Y-19150000D02*
X6900000Y-19000000D01*
X6800000Y-19000000D02*
G75*
G02*
X6900000Y-19000000I50000J0D01*
G01*
X6800000Y-19000000D02*
X6800000Y-19150000D01*
X6800000Y-19150000D02*
G75*
G03*
X6900000Y-19150000I50000J0D01*
G01*
X6800000Y-20875000D02*
X6900000Y-20975000D01*
X6900000Y-20875000D02*
X6800000Y-20975000D01*
X6900000Y-21000000D02*
X6900000Y-20850000D01*
X6800000Y-20850000D02*
G75*
G02*
X6900000Y-20850000I50000J0D01*
G01*
X6800000Y-20850000D02*
X6800000Y-21000000D01*
X6800000Y-21000000D02*
G75*
G03*
X6900000Y-21000000I50000J0D01*
G01*
X6815000Y-16060000D02*
X6915000Y-16160000D01*
X6915000Y-16060000D02*
X6815000Y-16160000D01*
X7069000Y-16060000D02*
X7169000Y-16160000D01*
X7169000Y-16060000D02*
X7069000Y-16160000D01*
X7200000Y-17775000D02*
X7300000Y-17875000D01*
X7300000Y-17775000D02*
X7200000Y-17875000D01*
X7325000Y-17775000D02*
X7175000Y-17775000D01*
X7175000Y-17875000D02*
G75*
G02*
X7175000Y-17775000I0J50000D01*
G01*
X7175000Y-17875000D02*
X7325000Y-17875000D01*
X7325000Y-17875000D02*
G75*
G03*
X7325000Y-17775000I0J50000D01*
G01*
X7200000Y-19625000D02*
X7300000Y-19725000D01*
X7300000Y-19625000D02*
X7200000Y-19725000D01*
X7325000Y-19625000D02*
X7175000Y-19625000D01*
X7175000Y-19725000D02*
G75*
G02*
X7175000Y-19625000I0J50000D01*
G01*
X7175000Y-19725000D02*
X7325000Y-19725000D01*
X7325000Y-19725000D02*
G75*
G03*
X7325000Y-19625000I0J50000D01*
G01*
X7200000Y-21475000D02*
X7300000Y-21575000D01*
X7300000Y-21475000D02*
X7200000Y-21575000D01*
X7325000Y-21475000D02*
X7175000Y-21475000D01*
X7175000Y-21575000D02*
G75*
G02*
X7175000Y-21475000I0J50000D01*
G01*
X7175000Y-21575000D02*
X7325000Y-21575000D01*
X7325000Y-21575000D02*
G75*
G03*
X7325000Y-21475000I0J50000D01*
G01*
X7323000Y-16060000D02*
X7423000Y-16160000D01*
X7423000Y-16060000D02*
X7323000Y-16160000D01*
X7577000Y-16060000D02*
X7677000Y-16160000D01*
X7677000Y-16060000D02*
X7577000Y-16160000D01*
X7831000Y-16060000D02*
X7931000Y-16160000D01*
X7931000Y-16060000D02*
X7831000Y-16160000D01*
X7909619Y-17584619D02*
X8009619Y-17684619D01*
X8009619Y-17584619D02*
X7909619Y-17684619D01*
X7941941Y-17723007D02*
X8048007Y-17616941D01*
X7977297Y-17546231D02*
G75*
G02*
X8048007Y-17616941I35355J-35355D01*
G01*
X7977297Y-17546231D02*
X7871231Y-17652297D01*
X7871231Y-17652297D02*
G75*
G03*
X7941941Y-17723007I35355J-35355D01*
G01*
X7909619Y-19434619D02*
X8009619Y-19534619D01*
X8009619Y-19434619D02*
X7909619Y-19534619D01*
X7941941Y-19573007D02*
X8048007Y-19466941D01*
X7977297Y-19396231D02*
G75*
G02*
X8048007Y-19466941I35355J-35355D01*
G01*
X7977297Y-19396231D02*
X7871231Y-19502297D01*
X7871231Y-19502297D02*
G75*
G03*
X7941941Y-19573007I35355J-35355D01*
G01*
X7909619Y-21284619D02*
X8009619Y-21384619D01*
X8009619Y-21284619D02*
X7909619Y-21384619D01*
X7941941Y-21423007D02*
X8048007Y-21316941D01*
X7977297Y-21246231D02*
G75*
G02*
X8048007Y-21316941I35355J-35355D01*
G01*
X7977297Y-21246231D02*
X7871231Y-21352297D01*
X7871231Y-21352297D02*
G75*
G03*
X7941941Y-21423007I35355J-35355D01*
G01*
X8085000Y-16060000D02*
X8185000Y-16160000D01*
X8185000Y-16060000D02*
X8085000Y-16160000D01*
X8445000Y-16060000D02*
X8545000Y-16160000D01*
X8545000Y-16060000D02*
X8445000Y-16160000D01*
X8450000Y-16875000D02*
X8550000Y-16975000D01*
X8550000Y-16875000D02*
X8450000Y-16975000D01*
X8550000Y-17000000D02*
X8550000Y-16850000D01*
X8450000Y-16850000D02*
G75*
G02*
X8550000Y-16850000I50000J0D01*
G01*
X8450000Y-16850000D02*
X8450000Y-17000000D01*
X8450000Y-17000000D02*
G75*
G03*
X8550000Y-17000000I50000J0D01*
G01*
X8450000Y-18725000D02*
X8550000Y-18825000D01*
X8550000Y-18725000D02*
X8450000Y-18825000D01*
X8550000Y-18850000D02*
X8550000Y-18700000D01*
X8450000Y-18700000D02*
G75*
G02*
X8550000Y-18700000I50000J0D01*
G01*
X8450000Y-18700000D02*
X8450000Y-18850000D01*
X8450000Y-18850000D02*
G75*
G03*
X8550000Y-18850000I50000J0D01*
G01*
X8450000Y-20575000D02*
X8550000Y-20675000D01*
X8550000Y-20575000D02*
X8450000Y-20675000D01*
X8550000Y-20700000D02*
X8550000Y-20550000D01*
X8450000Y-20550000D02*
G75*
G02*
X8550000Y-20550000I50000J0D01*
G01*
X8450000Y-20550000D02*
X8450000Y-20700000D01*
X8450000Y-20700000D02*
G75*
G03*
X8550000Y-20700000I50000J0D01*
G01*
X8640381Y-17584619D02*
X8740381Y-17684619D01*
X8740381Y-17584619D02*
X8640381Y-17684619D01*
X8601993Y-17616941D02*
X8708059Y-17723007D01*
X8778769Y-17652297D02*
G75*
G02*
X8708059Y-17723007I-35355J-35355D01*
G01*
X8778769Y-17652297D02*
X8672703Y-17546231D01*
X8672703Y-17546231D02*
G75*
G03*
X8601993Y-17616941I-35355J-35355D01*
G01*
X8640381Y-19434619D02*
X8740381Y-19534619D01*
X8740381Y-19434619D02*
X8640381Y-19534619D01*
X8601993Y-19466941D02*
X8708059Y-19573007D01*
X8778769Y-19502297D02*
G75*
G02*
X8708059Y-19573007I-35355J-35355D01*
G01*
X8778769Y-19502297D02*
X8672703Y-19396231D01*
X8672703Y-19396231D02*
G75*
G03*
X8601993Y-19466941I-35355J-35355D01*
G01*
X8640381Y-21284619D02*
X8740381Y-21384619D01*
X8740381Y-21284619D02*
X8640381Y-21384619D01*
X8601993Y-21316941D02*
X8708059Y-21423007D01*
X8778769Y-21352297D02*
G75*
G02*
X8708059Y-21423007I-35355J-35355D01*
G01*
X8778769Y-21352297D02*
X8672703Y-21246231D01*
X8672703Y-21246231D02*
G75*
G03*
X8601993Y-21316941I-35355J-35355D01*
G01*
X8699000Y-16060000D02*
X8799000Y-16160000D01*
X8799000Y-16060000D02*
X8699000Y-16160000D01*
X8953000Y-16060000D02*
X9053000Y-16160000D01*
X9053000Y-16060000D02*
X8953000Y-16160000D01*
X9050000Y-16475000D02*
X9150000Y-16575000D01*
X9150000Y-16475000D02*
X9050000Y-16575000D01*
X9025000Y-16575000D02*
X9175000Y-16575000D01*
X9175000Y-16475000D02*
G75*
G02*
X9175000Y-16575000I0J-50000D01*
G01*
X9175000Y-16475000D02*
X9025000Y-16475000D01*
X9025000Y-16475000D02*
G75*
G03*
X9025000Y-16575000I0J-50000D01*
G01*
X9050000Y-18325000D02*
X9150000Y-18425000D01*
X9150000Y-18325000D02*
X9050000Y-18425000D01*
X9025000Y-18425000D02*
X9175000Y-18425000D01*
X9175000Y-18325000D02*
G75*
G02*
X9175000Y-18425000I0J-50000D01*
G01*
X9175000Y-18325000D02*
X9025000Y-18325000D01*
X9025000Y-18325000D02*
G75*
G03*
X9025000Y-18425000I0J-50000D01*
G01*
X9050000Y-20175000D02*
X9150000Y-20275000D01*
X9150000Y-20175000D02*
X9050000Y-20275000D01*
X9025000Y-20275000D02*
X9175000Y-20275000D01*
X9175000Y-20175000D02*
G75*
G02*
X9175000Y-20275000I0J-50000D01*
G01*
X9175000Y-20175000D02*
X9025000Y-20175000D01*
X9025000Y-20175000D02*
G75*
G03*
X9025000Y-20275000I0J-50000D01*
G01*
X9207000Y-16060000D02*
X9307000Y-16160000D01*
X9307000Y-16060000D02*
X9207000Y-16160000D01*
X9461000Y-16060000D02*
X9561000Y-16160000D01*
X9561000Y-16060000D02*
X9461000Y-16160000D01*
X9715000Y-16060000D02*
X9815000Y-16160000D01*
X9815000Y-16060000D02*
X9715000Y-16160000D01*
D11*
X5358277Y-22063984D02*
X5358277Y-21863984D01*
X5358277Y-21863984D02*
X5405896Y-21863984D01*
X5405896Y-21863984D02*
X5434467Y-21873508D01*
X5434467Y-21873508D02*
X5453515Y-21892555D01*
X5453515Y-21892555D02*
X5463039Y-21911603D01*
X5463039Y-21911603D02*
X5472563Y-21949698D01*
X5472563Y-21949698D02*
X5472563Y-21978270D01*
X5472563Y-21978270D02*
X5463039Y-22016365D01*
X5463039Y-22016365D02*
X5453515Y-22035412D01*
X5453515Y-22035412D02*
X5434467Y-22054460D01*
X5434467Y-22054460D02*
X5405896Y-22063984D01*
X5405896Y-22063984D02*
X5358277Y-22063984D01*
X5558277Y-22063984D02*
X5558277Y-21930650D01*
X5558277Y-21968746D02*
X5567801Y-21949698D01*
X5567801Y-21949698D02*
X5577324Y-21940174D01*
X5577324Y-21940174D02*
X5596372Y-21930650D01*
X5596372Y-21930650D02*
X5615420Y-21930650D01*
X5682086Y-22063984D02*
X5682086Y-21930650D01*
X5682086Y-21863984D02*
X5672562Y-21873508D01*
X5672562Y-21873508D02*
X5682086Y-21883031D01*
X5682086Y-21883031D02*
X5691610Y-21873508D01*
X5691610Y-21873508D02*
X5682086Y-21863984D01*
X5682086Y-21863984D02*
X5682086Y-21883031D01*
X5805896Y-22063984D02*
X5786848Y-22054460D01*
X5786848Y-22054460D02*
X5777324Y-22035412D01*
X5777324Y-22035412D02*
X5777324Y-21863984D01*
X5910658Y-22063984D02*
X5891610Y-22054460D01*
X5891610Y-22054460D02*
X5882086Y-22035412D01*
X5882086Y-22035412D02*
X5882086Y-21863984D01*
X6139229Y-22063984D02*
X6139229Y-21863984D01*
X6139229Y-21863984D02*
X6205896Y-22006841D01*
X6205896Y-22006841D02*
X6272562Y-21863984D01*
X6272562Y-21863984D02*
X6272562Y-22063984D01*
X6453515Y-22063984D02*
X6453515Y-21959222D01*
X6453515Y-21959222D02*
X6443991Y-21940174D01*
X6443991Y-21940174D02*
X6424943Y-21930650D01*
X6424943Y-21930650D02*
X6386848Y-21930650D01*
X6386848Y-21930650D02*
X6367801Y-21940174D01*
X6453515Y-22054460D02*
X6434467Y-22063984D01*
X6434467Y-22063984D02*
X6386848Y-22063984D01*
X6386848Y-22063984D02*
X6367801Y-22054460D01*
X6367801Y-22054460D02*
X6358277Y-22035412D01*
X6358277Y-22035412D02*
X6358277Y-22016365D01*
X6358277Y-22016365D02*
X6367801Y-21997317D01*
X6367801Y-21997317D02*
X6386848Y-21987793D01*
X6386848Y-21987793D02*
X6434467Y-21987793D01*
X6434467Y-21987793D02*
X6453515Y-21978270D01*
X6548753Y-21930650D02*
X6548753Y-22130650D01*
X6548753Y-21940174D02*
X6567801Y-21930650D01*
X6567801Y-21930650D02*
X6605896Y-21930650D01*
X6605896Y-21930650D02*
X6624943Y-21940174D01*
X6624943Y-21940174D02*
X6634467Y-21949698D01*
X6634467Y-21949698D02*
X6643991Y-21968746D01*
X6643991Y-21968746D02*
X6643991Y-22025889D01*
X6643991Y-22025889D02*
X6634467Y-22044936D01*
X6634467Y-22044936D02*
X6624943Y-22054460D01*
X6624943Y-22054460D02*
X6605896Y-22063984D01*
X6605896Y-22063984D02*
X6567801Y-22063984D01*
X6567801Y-22063984D02*
X6548753Y-22054460D01*
X6729705Y-22044936D02*
X6739229Y-22054460D01*
X6739229Y-22054460D02*
X6729705Y-22063984D01*
X6729705Y-22063984D02*
X6720182Y-22054460D01*
X6720182Y-22054460D02*
X6729705Y-22044936D01*
X6729705Y-22044936D02*
X6729705Y-22063984D01*
X6729705Y-21940174D02*
X6739229Y-21949698D01*
X6739229Y-21949698D02*
X6729705Y-21959222D01*
X6729705Y-21959222D02*
X6720182Y-21949698D01*
X6720182Y-21949698D02*
X6729705Y-21940174D01*
X6729705Y-21940174D02*
X6729705Y-21959222D01*
D12*
X4997500Y-22342500D02*
X5097500Y-22442500D01*
X5097500Y-22342500D02*
X4997500Y-22442500D01*
D11*
X5463039Y-22483984D02*
X5348753Y-22483984D01*
X5405896Y-22483984D02*
X5405896Y-22283984D01*
X5405896Y-22283984D02*
X5386848Y-22312555D01*
X5386848Y-22312555D02*
X5367801Y-22331603D01*
X5367801Y-22331603D02*
X5348753Y-22341127D01*
X5548753Y-22464936D02*
X5558277Y-22474460D01*
X5558277Y-22474460D02*
X5548753Y-22483984D01*
X5548753Y-22483984D02*
X5539229Y-22474460D01*
X5539229Y-22474460D02*
X5548753Y-22464936D01*
X5548753Y-22464936D02*
X5548753Y-22483984D01*
X5682086Y-22283984D02*
X5701134Y-22283984D01*
X5701134Y-22283984D02*
X5720182Y-22293508D01*
X5720182Y-22293508D02*
X5729705Y-22303031D01*
X5729705Y-22303031D02*
X5739229Y-22322079D01*
X5739229Y-22322079D02*
X5748753Y-22360174D01*
X5748753Y-22360174D02*
X5748753Y-22407793D01*
X5748753Y-22407793D02*
X5739229Y-22445888D01*
X5739229Y-22445888D02*
X5729705Y-22464936D01*
X5729705Y-22464936D02*
X5720182Y-22474460D01*
X5720182Y-22474460D02*
X5701134Y-22483984D01*
X5701134Y-22483984D02*
X5682086Y-22483984D01*
X5682086Y-22483984D02*
X5663039Y-22474460D01*
X5663039Y-22474460D02*
X5653515Y-22464936D01*
X5653515Y-22464936D02*
X5643991Y-22445888D01*
X5643991Y-22445888D02*
X5634467Y-22407793D01*
X5634467Y-22407793D02*
X5634467Y-22360174D01*
X5634467Y-22360174D02*
X5643991Y-22322079D01*
X5643991Y-22322079D02*
X5653515Y-22303031D01*
X5653515Y-22303031D02*
X5663039Y-22293508D01*
X5663039Y-22293508D02*
X5682086Y-22283984D01*
X5872562Y-22283984D02*
X5891610Y-22283984D01*
X5891610Y-22283984D02*
X5910658Y-22293508D01*
X5910658Y-22293508D02*
X5920182Y-22303031D01*
X5920182Y-22303031D02*
X5929705Y-22322079D01*
X5929705Y-22322079D02*
X5939229Y-22360174D01*
X5939229Y-22360174D02*
X5939229Y-22407793D01*
X5939229Y-22407793D02*
X5929705Y-22445888D01*
X5929705Y-22445888D02*
X5920182Y-22464936D01*
X5920182Y-22464936D02*
X5910658Y-22474460D01*
X5910658Y-22474460D02*
X5891610Y-22483984D01*
X5891610Y-22483984D02*
X5872562Y-22483984D01*
X5872562Y-22483984D02*
X5853515Y-22474460D01*
X5853515Y-22474460D02*
X5843991Y-22464936D01*
X5843991Y-22464936D02*
X5834467Y-22445888D01*
X5834467Y-22445888D02*
X5824943Y-22407793D01*
X5824943Y-22407793D02*
X5824943Y-22360174D01*
X5824943Y-22360174D02*
X5834467Y-22322079D01*
X5834467Y-22322079D02*
X5843991Y-22303031D01*
X5843991Y-22303031D02*
X5853515Y-22293508D01*
X5853515Y-22293508D02*
X5872562Y-22283984D01*
X6063039Y-22283984D02*
X6082086Y-22283984D01*
X6082086Y-22283984D02*
X6101134Y-22293508D01*
X6101134Y-22293508D02*
X6110658Y-22303031D01*
X6110658Y-22303031D02*
X6120182Y-22322079D01*
X6120182Y-22322079D02*
X6129705Y-22360174D01*
X6129705Y-22360174D02*
X6129705Y-22407793D01*
X6129705Y-22407793D02*
X6120182Y-22445888D01*
X6120182Y-22445888D02*
X6110658Y-22464936D01*
X6110658Y-22464936D02*
X6101134Y-22474460D01*
X6101134Y-22474460D02*
X6082086Y-22483984D01*
X6082086Y-22483984D02*
X6063039Y-22483984D01*
X6063039Y-22483984D02*
X6043991Y-22474460D01*
X6043991Y-22474460D02*
X6034467Y-22464936D01*
X6034467Y-22464936D02*
X6024943Y-22445888D01*
X6024943Y-22445888D02*
X6015420Y-22407793D01*
X6015420Y-22407793D02*
X6015420Y-22360174D01*
X6015420Y-22360174D02*
X6024943Y-22322079D01*
X6024943Y-22322079D02*
X6034467Y-22303031D01*
X6034467Y-22303031D02*
X6043991Y-22293508D01*
X6043991Y-22293508D02*
X6063039Y-22283984D01*
X6215420Y-22483984D02*
X6215420Y-22350650D01*
X6215420Y-22369698D02*
X6224943Y-22360174D01*
X6224943Y-22360174D02*
X6243991Y-22350650D01*
X6243991Y-22350650D02*
X6272563Y-22350650D01*
X6272563Y-22350650D02*
X6291610Y-22360174D01*
X6291610Y-22360174D02*
X6301134Y-22379222D01*
X6301134Y-22379222D02*
X6301134Y-22483984D01*
X6301134Y-22379222D02*
X6310658Y-22360174D01*
X6310658Y-22360174D02*
X6329705Y-22350650D01*
X6329705Y-22350650D02*
X6358277Y-22350650D01*
X6358277Y-22350650D02*
X6377324Y-22360174D01*
X6377324Y-22360174D02*
X6386848Y-22379222D01*
X6386848Y-22379222D02*
X6386848Y-22483984D01*
X6482086Y-22483984D02*
X6482086Y-22350650D01*
X6482086Y-22369698D02*
X6491610Y-22360174D01*
X6491610Y-22360174D02*
X6510658Y-22350650D01*
X6510658Y-22350650D02*
X6539229Y-22350650D01*
X6539229Y-22350650D02*
X6558277Y-22360174D01*
X6558277Y-22360174D02*
X6567801Y-22379222D01*
X6567801Y-22379222D02*
X6567801Y-22483984D01*
X6567801Y-22379222D02*
X6577324Y-22360174D01*
X6577324Y-22360174D02*
X6596372Y-22350650D01*
X6596372Y-22350650D02*
X6624943Y-22350650D01*
X6624943Y-22350650D02*
X6643991Y-22360174D01*
X6643991Y-22360174D02*
X6653515Y-22379222D01*
X6653515Y-22379222D02*
X6653515Y-22483984D01*
X7043991Y-22274460D02*
X6872563Y-22531603D01*
X7301134Y-22283984D02*
X7320182Y-22283984D01*
X7320182Y-22283984D02*
X7339229Y-22293508D01*
X7339229Y-22293508D02*
X7348753Y-22303031D01*
X7348753Y-22303031D02*
X7358277Y-22322079D01*
X7358277Y-22322079D02*
X7367801Y-22360174D01*
X7367801Y-22360174D02*
X7367801Y-22407793D01*
X7367801Y-22407793D02*
X7358277Y-22445888D01*
X7358277Y-22445888D02*
X7348753Y-22464936D01*
X7348753Y-22464936D02*
X7339229Y-22474460D01*
X7339229Y-22474460D02*
X7320182Y-22483984D01*
X7320182Y-22483984D02*
X7301134Y-22483984D01*
X7301134Y-22483984D02*
X7282086Y-22474460D01*
X7282086Y-22474460D02*
X7272563Y-22464936D01*
X7272563Y-22464936D02*
X7263039Y-22445888D01*
X7263039Y-22445888D02*
X7253515Y-22407793D01*
X7253515Y-22407793D02*
X7253515Y-22360174D01*
X7253515Y-22360174D02*
X7263039Y-22322079D01*
X7263039Y-22322079D02*
X7272563Y-22303031D01*
X7272563Y-22303031D02*
X7282086Y-22293508D01*
X7282086Y-22293508D02*
X7301134Y-22283984D01*
X7453515Y-22464936D02*
X7463039Y-22474460D01*
X7463039Y-22474460D02*
X7453515Y-22483984D01*
X7453515Y-22483984D02*
X7443991Y-22474460D01*
X7443991Y-22474460D02*
X7453515Y-22464936D01*
X7453515Y-22464936D02*
X7453515Y-22483984D01*
X7586848Y-22283984D02*
X7605896Y-22283984D01*
X7605896Y-22283984D02*
X7624944Y-22293508D01*
X7624944Y-22293508D02*
X7634467Y-22303031D01*
X7634467Y-22303031D02*
X7643991Y-22322079D01*
X7643991Y-22322079D02*
X7653515Y-22360174D01*
X7653515Y-22360174D02*
X7653515Y-22407793D01*
X7653515Y-22407793D02*
X7643991Y-22445888D01*
X7643991Y-22445888D02*
X7634467Y-22464936D01*
X7634467Y-22464936D02*
X7624944Y-22474460D01*
X7624944Y-22474460D02*
X7605896Y-22483984D01*
X7605896Y-22483984D02*
X7586848Y-22483984D01*
X7586848Y-22483984D02*
X7567801Y-22474460D01*
X7567801Y-22474460D02*
X7558277Y-22464936D01*
X7558277Y-22464936D02*
X7548753Y-22445888D01*
X7548753Y-22445888D02*
X7539229Y-22407793D01*
X7539229Y-22407793D02*
X7539229Y-22360174D01*
X7539229Y-22360174D02*
X7548753Y-22322079D01*
X7548753Y-22322079D02*
X7558277Y-22303031D01*
X7558277Y-22303031D02*
X7567801Y-22293508D01*
X7567801Y-22293508D02*
X7586848Y-22283984D01*
X7720182Y-22283984D02*
X7843991Y-22283984D01*
X7843991Y-22283984D02*
X7777325Y-22360174D01*
X7777325Y-22360174D02*
X7805896Y-22360174D01*
X7805896Y-22360174D02*
X7824944Y-22369698D01*
X7824944Y-22369698D02*
X7834467Y-22379222D01*
X7834467Y-22379222D02*
X7843991Y-22398269D01*
X7843991Y-22398269D02*
X7843991Y-22445888D01*
X7843991Y-22445888D02*
X7834467Y-22464936D01*
X7834467Y-22464936D02*
X7824944Y-22474460D01*
X7824944Y-22474460D02*
X7805896Y-22483984D01*
X7805896Y-22483984D02*
X7748753Y-22483984D01*
X7748753Y-22483984D02*
X7729706Y-22474460D01*
X7729706Y-22474460D02*
X7720182Y-22464936D01*
X7939229Y-22483984D02*
X7977325Y-22483984D01*
X7977325Y-22483984D02*
X7996372Y-22474460D01*
X7996372Y-22474460D02*
X8005896Y-22464936D01*
X8005896Y-22464936D02*
X8024944Y-22436365D01*
X8024944Y-22436365D02*
X8034467Y-22398269D01*
X8034467Y-22398269D02*
X8034467Y-22322079D01*
X8034467Y-22322079D02*
X8024944Y-22303031D01*
X8024944Y-22303031D02*
X8015420Y-22293508D01*
X8015420Y-22293508D02*
X7996372Y-22283984D01*
X7996372Y-22283984D02*
X7958277Y-22283984D01*
X7958277Y-22283984D02*
X7939229Y-22293508D01*
X7939229Y-22293508D02*
X7929706Y-22303031D01*
X7929706Y-22303031D02*
X7920182Y-22322079D01*
X7920182Y-22322079D02*
X7920182Y-22369698D01*
X7920182Y-22369698D02*
X7929706Y-22388746D01*
X7929706Y-22388746D02*
X7939229Y-22398269D01*
X7939229Y-22398269D02*
X7958277Y-22407793D01*
X7958277Y-22407793D02*
X7996372Y-22407793D01*
X7996372Y-22407793D02*
X8015420Y-22398269D01*
X8015420Y-22398269D02*
X8024944Y-22388746D01*
X8024944Y-22388746D02*
X8034467Y-22369698D01*
X8205896Y-22350650D02*
X8205896Y-22483984D01*
X8158277Y-22274460D02*
X8110658Y-22417317D01*
X8110658Y-22417317D02*
X8234467Y-22417317D01*
X8301134Y-22283984D02*
X8301134Y-22322079D01*
X8377325Y-22283984D02*
X8377325Y-22322079D01*
X8672563Y-22560174D02*
X8663039Y-22550650D01*
X8663039Y-22550650D02*
X8643991Y-22522079D01*
X8643991Y-22522079D02*
X8634468Y-22503031D01*
X8634468Y-22503031D02*
X8624944Y-22474460D01*
X8624944Y-22474460D02*
X8615420Y-22426841D01*
X8615420Y-22426841D02*
X8615420Y-22388746D01*
X8615420Y-22388746D02*
X8624944Y-22341127D01*
X8624944Y-22341127D02*
X8634468Y-22312555D01*
X8634468Y-22312555D02*
X8643991Y-22293508D01*
X8643991Y-22293508D02*
X8663039Y-22264936D01*
X8663039Y-22264936D02*
X8672563Y-22255412D01*
X8853515Y-22483984D02*
X8739230Y-22483984D01*
X8796372Y-22483984D02*
X8796372Y-22283984D01*
X8796372Y-22283984D02*
X8777325Y-22312555D01*
X8777325Y-22312555D02*
X8758277Y-22331603D01*
X8758277Y-22331603D02*
X8739230Y-22341127D01*
X8967801Y-22369698D02*
X8948753Y-22360174D01*
X8948753Y-22360174D02*
X8939230Y-22350650D01*
X8939230Y-22350650D02*
X8929706Y-22331603D01*
X8929706Y-22331603D02*
X8929706Y-22322079D01*
X8929706Y-22322079D02*
X8939230Y-22303031D01*
X8939230Y-22303031D02*
X8948753Y-22293508D01*
X8948753Y-22293508D02*
X8967801Y-22283984D01*
X8967801Y-22283984D02*
X9005896Y-22283984D01*
X9005896Y-22283984D02*
X9024944Y-22293508D01*
X9024944Y-22293508D02*
X9034468Y-22303031D01*
X9034468Y-22303031D02*
X9043991Y-22322079D01*
X9043991Y-22322079D02*
X9043991Y-22331603D01*
X9043991Y-22331603D02*
X9034468Y-22350650D01*
X9034468Y-22350650D02*
X9024944Y-22360174D01*
X9024944Y-22360174D02*
X9005896Y-22369698D01*
X9005896Y-22369698D02*
X8967801Y-22369698D01*
X8967801Y-22369698D02*
X8948753Y-22379222D01*
X8948753Y-22379222D02*
X8939230Y-22388746D01*
X8939230Y-22388746D02*
X8929706Y-22407793D01*
X8929706Y-22407793D02*
X8929706Y-22445888D01*
X8929706Y-22445888D02*
X8939230Y-22464936D01*
X8939230Y-22464936D02*
X8948753Y-22474460D01*
X8948753Y-22474460D02*
X8967801Y-22483984D01*
X8967801Y-22483984D02*
X9005896Y-22483984D01*
X9005896Y-22483984D02*
X9024944Y-22474460D01*
X9024944Y-22474460D02*
X9034468Y-22464936D01*
X9034468Y-22464936D02*
X9043991Y-22445888D01*
X9043991Y-22445888D02*
X9043991Y-22407793D01*
X9043991Y-22407793D02*
X9034468Y-22388746D01*
X9034468Y-22388746D02*
X9024944Y-22379222D01*
X9024944Y-22379222D02*
X9005896Y-22369698D01*
X9282087Y-22483984D02*
X9282087Y-22283984D01*
X9367801Y-22483984D02*
X9367801Y-22379222D01*
X9367801Y-22379222D02*
X9358277Y-22360174D01*
X9358277Y-22360174D02*
X9339230Y-22350650D01*
X9339230Y-22350650D02*
X9310658Y-22350650D01*
X9310658Y-22350650D02*
X9291611Y-22360174D01*
X9291611Y-22360174D02*
X9282087Y-22369698D01*
X9491611Y-22483984D02*
X9472563Y-22474460D01*
X9472563Y-22474460D02*
X9463039Y-22464936D01*
X9463039Y-22464936D02*
X9453515Y-22445888D01*
X9453515Y-22445888D02*
X9453515Y-22388746D01*
X9453515Y-22388746D02*
X9463039Y-22369698D01*
X9463039Y-22369698D02*
X9472563Y-22360174D01*
X9472563Y-22360174D02*
X9491611Y-22350650D01*
X9491611Y-22350650D02*
X9520182Y-22350650D01*
X9520182Y-22350650D02*
X9539230Y-22360174D01*
X9539230Y-22360174D02*
X9548753Y-22369698D01*
X9548753Y-22369698D02*
X9558277Y-22388746D01*
X9558277Y-22388746D02*
X9558277Y-22445888D01*
X9558277Y-22445888D02*
X9548753Y-22464936D01*
X9548753Y-22464936D02*
X9539230Y-22474460D01*
X9539230Y-22474460D02*
X9520182Y-22483984D01*
X9520182Y-22483984D02*
X9491611Y-22483984D01*
X9672563Y-22483984D02*
X9653515Y-22474460D01*
X9653515Y-22474460D02*
X9643992Y-22455412D01*
X9643992Y-22455412D02*
X9643992Y-22283984D01*
X9824944Y-22474460D02*
X9805896Y-22483984D01*
X9805896Y-22483984D02*
X9767801Y-22483984D01*
X9767801Y-22483984D02*
X9748753Y-22474460D01*
X9748753Y-22474460D02*
X9739230Y-22455412D01*
X9739230Y-22455412D02*
X9739230Y-22379222D01*
X9739230Y-22379222D02*
X9748753Y-22360174D01*
X9748753Y-22360174D02*
X9767801Y-22350650D01*
X9767801Y-22350650D02*
X9805896Y-22350650D01*
X9805896Y-22350650D02*
X9824944Y-22360174D01*
X9824944Y-22360174D02*
X9834468Y-22379222D01*
X9834468Y-22379222D02*
X9834468Y-22398269D01*
X9834468Y-22398269D02*
X9739230Y-22417317D01*
X9910658Y-22474460D02*
X9929706Y-22483984D01*
X9929706Y-22483984D02*
X9967801Y-22483984D01*
X9967801Y-22483984D02*
X9986849Y-22474460D01*
X9986849Y-22474460D02*
X9996373Y-22455412D01*
X9996373Y-22455412D02*
X9996373Y-22445888D01*
X9996373Y-22445888D02*
X9986849Y-22426841D01*
X9986849Y-22426841D02*
X9967801Y-22417317D01*
X9967801Y-22417317D02*
X9939230Y-22417317D01*
X9939230Y-22417317D02*
X9920182Y-22407793D01*
X9920182Y-22407793D02*
X9910658Y-22388746D01*
X9910658Y-22388746D02*
X9910658Y-22379222D01*
X9910658Y-22379222D02*
X9920182Y-22360174D01*
X9920182Y-22360174D02*
X9939230Y-22350650D01*
X9939230Y-22350650D02*
X9967801Y-22350650D01*
X9967801Y-22350650D02*
X9986849Y-22360174D01*
X10234468Y-22407793D02*
X10386849Y-22407793D01*
X10310658Y-22483984D02*
X10310658Y-22331603D01*
X10624944Y-22303031D02*
X10634468Y-22293508D01*
X10634468Y-22293508D02*
X10653515Y-22283984D01*
X10653515Y-22283984D02*
X10701135Y-22283984D01*
X10701135Y-22283984D02*
X10720182Y-22293508D01*
X10720182Y-22293508D02*
X10729706Y-22303031D01*
X10729706Y-22303031D02*
X10739230Y-22322079D01*
X10739230Y-22322079D02*
X10739230Y-22341127D01*
X10739230Y-22341127D02*
X10729706Y-22369698D01*
X10729706Y-22369698D02*
X10615420Y-22483984D01*
X10615420Y-22483984D02*
X10739230Y-22483984D01*
X10805896Y-22283984D02*
X10939230Y-22283984D01*
X10939230Y-22283984D02*
X10853515Y-22483984D01*
X11158277Y-22474460D02*
X11177325Y-22483984D01*
X11177325Y-22483984D02*
X11215420Y-22483984D01*
X11215420Y-22483984D02*
X11234468Y-22474460D01*
X11234468Y-22474460D02*
X11243992Y-22455412D01*
X11243992Y-22455412D02*
X11243992Y-22445888D01*
X11243992Y-22445888D02*
X11234468Y-22426841D01*
X11234468Y-22426841D02*
X11215420Y-22417317D01*
X11215420Y-22417317D02*
X11186849Y-22417317D01*
X11186849Y-22417317D02*
X11167801Y-22407793D01*
X11167801Y-22407793D02*
X11158277Y-22388746D01*
X11158277Y-22388746D02*
X11158277Y-22379222D01*
X11158277Y-22379222D02*
X11167801Y-22360174D01*
X11167801Y-22360174D02*
X11186849Y-22350650D01*
X11186849Y-22350650D02*
X11215420Y-22350650D01*
X11215420Y-22350650D02*
X11234468Y-22360174D01*
X11358277Y-22483984D02*
X11339230Y-22474460D01*
X11339230Y-22474460D02*
X11329706Y-22455412D01*
X11329706Y-22455412D02*
X11329706Y-22283984D01*
X11463039Y-22483984D02*
X11443992Y-22474460D01*
X11443992Y-22474460D02*
X11434468Y-22464936D01*
X11434468Y-22464936D02*
X11424944Y-22445888D01*
X11424944Y-22445888D02*
X11424944Y-22388746D01*
X11424944Y-22388746D02*
X11434468Y-22369698D01*
X11434468Y-22369698D02*
X11443992Y-22360174D01*
X11443992Y-22360174D02*
X11463039Y-22350650D01*
X11463039Y-22350650D02*
X11491611Y-22350650D01*
X11491611Y-22350650D02*
X11510658Y-22360174D01*
X11510658Y-22360174D02*
X11520182Y-22369698D01*
X11520182Y-22369698D02*
X11529706Y-22388746D01*
X11529706Y-22388746D02*
X11529706Y-22445888D01*
X11529706Y-22445888D02*
X11520182Y-22464936D01*
X11520182Y-22464936D02*
X11510658Y-22474460D01*
X11510658Y-22474460D02*
X11491611Y-22483984D01*
X11491611Y-22483984D02*
X11463039Y-22483984D01*
X11586849Y-22350650D02*
X11663039Y-22350650D01*
X11615420Y-22283984D02*
X11615420Y-22455412D01*
X11615420Y-22455412D02*
X11624944Y-22474460D01*
X11624944Y-22474460D02*
X11643992Y-22483984D01*
X11643992Y-22483984D02*
X11663039Y-22483984D01*
X11720182Y-22474460D02*
X11739230Y-22483984D01*
X11739230Y-22483984D02*
X11777325Y-22483984D01*
X11777325Y-22483984D02*
X11796373Y-22474460D01*
X11796373Y-22474460D02*
X11805896Y-22455412D01*
X11805896Y-22455412D02*
X11805896Y-22445888D01*
X11805896Y-22445888D02*
X11796373Y-22426841D01*
X11796373Y-22426841D02*
X11777325Y-22417317D01*
X11777325Y-22417317D02*
X11748754Y-22417317D01*
X11748754Y-22417317D02*
X11729706Y-22407793D01*
X11729706Y-22407793D02*
X11720182Y-22388746D01*
X11720182Y-22388746D02*
X11720182Y-22379222D01*
X11720182Y-22379222D02*
X11729706Y-22360174D01*
X11729706Y-22360174D02*
X11748754Y-22350650D01*
X11748754Y-22350650D02*
X11777325Y-22350650D01*
X11777325Y-22350650D02*
X11796373Y-22360174D01*
X11872563Y-22560174D02*
X11882087Y-22550650D01*
X11882087Y-22550650D02*
X11901135Y-22522079D01*
X11901135Y-22522079D02*
X11910658Y-22503031D01*
X11910658Y-22503031D02*
X11920182Y-22474460D01*
X11920182Y-22474460D02*
X11929706Y-22426841D01*
X11929706Y-22426841D02*
X11929706Y-22388746D01*
X11929706Y-22388746D02*
X11920182Y-22341127D01*
X11920182Y-22341127D02*
X11910658Y-22312555D01*
X11910658Y-22312555D02*
X11901135Y-22293508D01*
X11901135Y-22293508D02*
X11882087Y-22264936D01*
X11882087Y-22264936D02*
X11872563Y-22255412D01*
M02*
