M48
; DRILL file {KiCad 8.0.5} date 2024-12-04T18:45:18+0100
; FORMAT={-:-/ absolute / metric / decimal}
; #@! TF.CreationDate,2024-12-04T18:45:18+01:00
; #@! TF.GenerationSoftware,Kicad,Pcbnew,8.0.5
; #@! TF.FileFunction,Plated,1,2,PTH
FMAT,2
METRIC
; #@! TA.AperFunction,Plated,PTH,ComponentDrill
T1C1.000
%
G90
G05
T1
X52.35Y-161.1
X54.89Y-161.1
X57.43Y-161.1
X59.97Y-161.1
X62.51Y-161.1
X65.05Y-161.1
X68.65Y-161.1
X71.19Y-161.1
X73.73Y-161.1
X76.27Y-161.1
X78.81Y-161.1
X81.35Y-161.1
X84.95Y-161.1
X87.49Y-161.1
X90.03Y-161.1
X92.57Y-161.1
X95.11Y-161.1
X97.65Y-161.1
T1
X59.75Y-178.25G85X58.25Y-178.25
G05
X59.75Y-196.75G85X58.25Y-196.75
G05
X59.75Y-215.25G85X58.25Y-215.25
G05
X63.627Y-167.684G85X62.566Y-166.623
G05
X63.627Y-186.184G85X62.566Y-185.123
G05
X63.627Y-204.684G85X62.566Y-203.623
G05
X65.0Y-173.5G85X65.0Y-175.0
G05
X65.0Y-192.0G85X65.0Y-193.5
G05
X65.0Y-210.5G85X65.0Y-212.0
G05
X68.5Y-173.0G85X68.5Y-171.5
G05
X68.5Y-191.5G85X68.5Y-190.0
G05
X68.5Y-210.0G85X68.5Y-208.5
G05
X73.25Y-178.25G85X71.75Y-178.25
G05
X73.25Y-196.75G85X71.75Y-196.75
G05
X73.25Y-215.25G85X71.75Y-215.25
G05
X79.066Y-176.877G85X80.127Y-175.816
G05
X79.066Y-195.377G85X80.127Y-194.316
G05
X79.066Y-213.877G85X80.127Y-212.816
G05
X85.0Y-170.0G85X85.0Y-168.5
G05
X85.0Y-188.5G85X85.0Y-187.0
G05
X85.0Y-207.0G85X85.0Y-205.5
G05
X86.373Y-175.816G85X87.434Y-176.877
G05
X86.373Y-194.316G85X87.434Y-195.377
G05
X86.373Y-212.816G85X87.434Y-213.877
G05
X90.25Y-165.25G85X91.75Y-165.25
G05
X90.25Y-183.75G85X91.75Y-183.75
G05
X90.25Y-202.25G85X91.75Y-202.25
G05
M30
