%TF.GenerationSoftware,KiCad,Pcbnew,8.0.5*%
%TF.CreationDate,2024-12-04T18:47:01+01:00*%
%TF.ProjectId,DMH_S_H_Noise_PCB_Conn,444d485f-535f-4485-9f4e-6f6973655f50,1*%
%TF.SameCoordinates,Original*%
%TF.FileFunction,Soldermask,Bot*%
%TF.FilePolarity,Negative*%
%FSLAX46Y46*%
G04 Gerber Fmt 4.6, Leading zero omitted, Abs format (unit mm)*
G04 Created by KiCad (PCBNEW 8.0.5) date 2024-12-04 18:47:01*
%MOMM*%
%LPD*%
G01*
G04 APERTURE LIST*
G04 Aperture macros list*
%AMHorizOval*
0 Thick line with rounded ends*
0 $1 width*
0 $2 $3 position (X,Y) of the first rounded end (center of the circle)*
0 $4 $5 position (X,Y) of the second rounded end (center of the circle)*
0 Add line between two ends*
20,1,$1,$2,$3,$4,$5,0*
0 Add two circle primitives to create the rounded ends*
1,1,$1,$2,$3*
1,1,$1,$4,$5*%
G04 Aperture macros list end*
%ADD10HorizOval,1.712000X-0.533159X0.533159X0.533159X-0.533159X0*%
%ADD11O,3.220000X1.712000*%
%ADD12O,1.712000X3.220000*%
%ADD13HorizOval,1.712000X0.533159X0.533159X-0.533159X-0.533159X0*%
%ADD14R,1.700000X1.700000*%
%ADD15O,1.700000X1.700000*%
G04 APERTURE END LIST*
D10*
%TO.C,J7*%
X63096190Y-204153810D03*
D11*
X59000000Y-215250000D03*
D12*
X65000000Y-211250000D03*
%TD*%
D10*
%TO.C,J5*%
X86903810Y-176346190D03*
D11*
X91000000Y-165250000D03*
D12*
X85000000Y-169250000D03*
%TD*%
D10*
%TO.C,J1*%
X63096190Y-167153810D03*
D11*
X59000000Y-178250000D03*
D12*
X65000000Y-174250000D03*
%TD*%
D13*
%TO.C,J3*%
X79596190Y-176346190D03*
D12*
X68500000Y-172250000D03*
D11*
X72500000Y-178250000D03*
%TD*%
D13*
%TO.C,J8*%
X79596190Y-213346190D03*
D12*
X68500000Y-209250000D03*
D11*
X72500000Y-215250000D03*
%TD*%
D10*
%TO.C,J9*%
X86903810Y-213346190D03*
D11*
X91000000Y-202250000D03*
D12*
X85000000Y-206250000D03*
%TD*%
D14*
%TO.C,J70*%
X97650000Y-161100000D03*
D15*
X95110000Y-161100000D03*
X92570000Y-161100000D03*
X90030000Y-161100000D03*
X87490000Y-161100000D03*
X84950000Y-161100000D03*
%TD*%
D13*
%TO.C,J4*%
X79596190Y-194846190D03*
D12*
X68500000Y-190750000D03*
D11*
X72500000Y-196750000D03*
%TD*%
D14*
%TO.C,J50*%
X52350000Y-161100000D03*
D15*
X54890000Y-161100000D03*
X57430000Y-161100000D03*
X59970000Y-161100000D03*
X62510000Y-161100000D03*
X65050000Y-161100000D03*
%TD*%
D10*
%TO.C,J2*%
X63096190Y-185653810D03*
D11*
X59000000Y-196750000D03*
D12*
X65000000Y-192750000D03*
%TD*%
D14*
%TO.C,J60*%
X81350000Y-161100000D03*
D15*
X78810000Y-161100000D03*
X76270000Y-161100000D03*
X73730000Y-161100000D03*
X71190000Y-161100000D03*
X68650000Y-161100000D03*
%TD*%
D10*
%TO.C,J6*%
X86903810Y-194846190D03*
D11*
X91000000Y-183750000D03*
D12*
X85000000Y-187750000D03*
%TD*%
M02*
