%TF.GenerationSoftware,KiCad,Pcbnew,8.0.5*%
%TF.CreationDate,2024-12-04T18:47:01+01:00*%
%TF.ProjectId,DMH_S_H_Noise_PCB_Conn,444d485f-535f-4485-9f4e-6f6973655f50,1*%
%TF.SameCoordinates,Original*%
%TF.FileFunction,Legend,Top*%
%TF.FilePolarity,Positive*%
%FSLAX46Y46*%
G04 Gerber Fmt 4.6, Leading zero omitted, Abs format (unit mm)*
G04 Created by KiCad (PCBNEW 8.0.5) date 2024-12-04 18:47:01*
%MOMM*%
%LPD*%
G01*
G04 APERTURE LIST*
G04 Aperture macros list*
%AMHorizOval*
0 Thick line with rounded ends*
0 $1 width*
0 $2 $3 position (X,Y) of the first rounded end (center of the circle)*
0 $4 $5 position (X,Y) of the second rounded end (center of the circle)*
0 Add line between two ends*
20,1,$1,$2,$3,$4,$5,0*
0 Add two circle primitives to create the rounded ends*
1,1,$1,$2,$3*
1,1,$1,$4,$5*%
G04 Aperture macros list end*
%ADD10C,0.150000*%
%ADD11C,0.120000*%
%ADD12HorizOval,1.712000X-0.533159X0.533159X0.533159X-0.533159X0*%
%ADD13O,3.220000X1.712000*%
%ADD14O,1.712000X3.220000*%
%ADD15HorizOval,1.712000X0.533159X0.533159X-0.533159X-0.533159X0*%
%ADD16R,1.700000X1.700000*%
%ADD17O,1.700000X1.700000*%
G04 APERTURE END LIST*
D10*
X64954819Y-205008333D02*
X65669104Y-205008333D01*
X65669104Y-205008333D02*
X65811961Y-205055952D01*
X65811961Y-205055952D02*
X65907200Y-205151190D01*
X65907200Y-205151190D02*
X65954819Y-205294047D01*
X65954819Y-205294047D02*
X65954819Y-205389285D01*
X64954819Y-204627380D02*
X64954819Y-203960714D01*
X64954819Y-203960714D02*
X65954819Y-204389285D01*
X83954819Y-176158333D02*
X84669104Y-176158333D01*
X84669104Y-176158333D02*
X84811961Y-176205952D01*
X84811961Y-176205952D02*
X84907200Y-176301190D01*
X84907200Y-176301190D02*
X84954819Y-176444047D01*
X84954819Y-176444047D02*
X84954819Y-176539285D01*
X83954819Y-175205952D02*
X83954819Y-175682142D01*
X83954819Y-175682142D02*
X84431009Y-175729761D01*
X84431009Y-175729761D02*
X84383390Y-175682142D01*
X84383390Y-175682142D02*
X84335771Y-175586904D01*
X84335771Y-175586904D02*
X84335771Y-175348809D01*
X84335771Y-175348809D02*
X84383390Y-175253571D01*
X84383390Y-175253571D02*
X84431009Y-175205952D01*
X84431009Y-175205952D02*
X84526247Y-175158333D01*
X84526247Y-175158333D02*
X84764342Y-175158333D01*
X84764342Y-175158333D02*
X84859580Y-175205952D01*
X84859580Y-175205952D02*
X84907200Y-175253571D01*
X84907200Y-175253571D02*
X84954819Y-175348809D01*
X84954819Y-175348809D02*
X84954819Y-175586904D01*
X84954819Y-175586904D02*
X84907200Y-175682142D01*
X84907200Y-175682142D02*
X84859580Y-175729761D01*
X64954819Y-168008333D02*
X65669104Y-168008333D01*
X65669104Y-168008333D02*
X65811961Y-168055952D01*
X65811961Y-168055952D02*
X65907200Y-168151190D01*
X65907200Y-168151190D02*
X65954819Y-168294047D01*
X65954819Y-168294047D02*
X65954819Y-168389285D01*
X65954819Y-167008333D02*
X65954819Y-167579761D01*
X65954819Y-167294047D02*
X64954819Y-167294047D01*
X64954819Y-167294047D02*
X65097676Y-167389285D01*
X65097676Y-167389285D02*
X65192914Y-167484523D01*
X65192914Y-167484523D02*
X65240533Y-167579761D01*
X78741666Y-178204819D02*
X78741666Y-178919104D01*
X78741666Y-178919104D02*
X78694047Y-179061961D01*
X78694047Y-179061961D02*
X78598809Y-179157200D01*
X78598809Y-179157200D02*
X78455952Y-179204819D01*
X78455952Y-179204819D02*
X78360714Y-179204819D01*
X79122619Y-178204819D02*
X79741666Y-178204819D01*
X79741666Y-178204819D02*
X79408333Y-178585771D01*
X79408333Y-178585771D02*
X79551190Y-178585771D01*
X79551190Y-178585771D02*
X79646428Y-178633390D01*
X79646428Y-178633390D02*
X79694047Y-178681009D01*
X79694047Y-178681009D02*
X79741666Y-178776247D01*
X79741666Y-178776247D02*
X79741666Y-179014342D01*
X79741666Y-179014342D02*
X79694047Y-179109580D01*
X79694047Y-179109580D02*
X79646428Y-179157200D01*
X79646428Y-179157200D02*
X79551190Y-179204819D01*
X79551190Y-179204819D02*
X79265476Y-179204819D01*
X79265476Y-179204819D02*
X79170238Y-179157200D01*
X79170238Y-179157200D02*
X79122619Y-179109580D01*
X78741666Y-215204819D02*
X78741666Y-215919104D01*
X78741666Y-215919104D02*
X78694047Y-216061961D01*
X78694047Y-216061961D02*
X78598809Y-216157200D01*
X78598809Y-216157200D02*
X78455952Y-216204819D01*
X78455952Y-216204819D02*
X78360714Y-216204819D01*
X79360714Y-215633390D02*
X79265476Y-215585771D01*
X79265476Y-215585771D02*
X79217857Y-215538152D01*
X79217857Y-215538152D02*
X79170238Y-215442914D01*
X79170238Y-215442914D02*
X79170238Y-215395295D01*
X79170238Y-215395295D02*
X79217857Y-215300057D01*
X79217857Y-215300057D02*
X79265476Y-215252438D01*
X79265476Y-215252438D02*
X79360714Y-215204819D01*
X79360714Y-215204819D02*
X79551190Y-215204819D01*
X79551190Y-215204819D02*
X79646428Y-215252438D01*
X79646428Y-215252438D02*
X79694047Y-215300057D01*
X79694047Y-215300057D02*
X79741666Y-215395295D01*
X79741666Y-215395295D02*
X79741666Y-215442914D01*
X79741666Y-215442914D02*
X79694047Y-215538152D01*
X79694047Y-215538152D02*
X79646428Y-215585771D01*
X79646428Y-215585771D02*
X79551190Y-215633390D01*
X79551190Y-215633390D02*
X79360714Y-215633390D01*
X79360714Y-215633390D02*
X79265476Y-215681009D01*
X79265476Y-215681009D02*
X79217857Y-215728628D01*
X79217857Y-215728628D02*
X79170238Y-215823866D01*
X79170238Y-215823866D02*
X79170238Y-216014342D01*
X79170238Y-216014342D02*
X79217857Y-216109580D01*
X79217857Y-216109580D02*
X79265476Y-216157200D01*
X79265476Y-216157200D02*
X79360714Y-216204819D01*
X79360714Y-216204819D02*
X79551190Y-216204819D01*
X79551190Y-216204819D02*
X79646428Y-216157200D01*
X79646428Y-216157200D02*
X79694047Y-216109580D01*
X79694047Y-216109580D02*
X79741666Y-216014342D01*
X79741666Y-216014342D02*
X79741666Y-215823866D01*
X79741666Y-215823866D02*
X79694047Y-215728628D01*
X79694047Y-215728628D02*
X79646428Y-215681009D01*
X79646428Y-215681009D02*
X79551190Y-215633390D01*
X83954819Y-213158333D02*
X84669104Y-213158333D01*
X84669104Y-213158333D02*
X84811961Y-213205952D01*
X84811961Y-213205952D02*
X84907200Y-213301190D01*
X84907200Y-213301190D02*
X84954819Y-213444047D01*
X84954819Y-213444047D02*
X84954819Y-213539285D01*
X84954819Y-212634523D02*
X84954819Y-212444047D01*
X84954819Y-212444047D02*
X84907200Y-212348809D01*
X84907200Y-212348809D02*
X84859580Y-212301190D01*
X84859580Y-212301190D02*
X84716723Y-212205952D01*
X84716723Y-212205952D02*
X84526247Y-212158333D01*
X84526247Y-212158333D02*
X84145295Y-212158333D01*
X84145295Y-212158333D02*
X84050057Y-212205952D01*
X84050057Y-212205952D02*
X84002438Y-212253571D01*
X84002438Y-212253571D02*
X83954819Y-212348809D01*
X83954819Y-212348809D02*
X83954819Y-212539285D01*
X83954819Y-212539285D02*
X84002438Y-212634523D01*
X84002438Y-212634523D02*
X84050057Y-212682142D01*
X84050057Y-212682142D02*
X84145295Y-212729761D01*
X84145295Y-212729761D02*
X84383390Y-212729761D01*
X84383390Y-212729761D02*
X84478628Y-212682142D01*
X84478628Y-212682142D02*
X84526247Y-212634523D01*
X84526247Y-212634523D02*
X84573866Y-212539285D01*
X84573866Y-212539285D02*
X84573866Y-212348809D01*
X84573866Y-212348809D02*
X84526247Y-212253571D01*
X84526247Y-212253571D02*
X84478628Y-212205952D01*
X84478628Y-212205952D02*
X84383390Y-212158333D01*
X78741666Y-196704819D02*
X78741666Y-197419104D01*
X78741666Y-197419104D02*
X78694047Y-197561961D01*
X78694047Y-197561961D02*
X78598809Y-197657200D01*
X78598809Y-197657200D02*
X78455952Y-197704819D01*
X78455952Y-197704819D02*
X78360714Y-197704819D01*
X79646428Y-197038152D02*
X79646428Y-197704819D01*
X79408333Y-196657200D02*
X79170238Y-197371485D01*
X79170238Y-197371485D02*
X79789285Y-197371485D01*
X64954819Y-186508333D02*
X65669104Y-186508333D01*
X65669104Y-186508333D02*
X65811961Y-186555952D01*
X65811961Y-186555952D02*
X65907200Y-186651190D01*
X65907200Y-186651190D02*
X65954819Y-186794047D01*
X65954819Y-186794047D02*
X65954819Y-186889285D01*
X65050057Y-186079761D02*
X65002438Y-186032142D01*
X65002438Y-186032142D02*
X64954819Y-185936904D01*
X64954819Y-185936904D02*
X64954819Y-185698809D01*
X64954819Y-185698809D02*
X65002438Y-185603571D01*
X65002438Y-185603571D02*
X65050057Y-185555952D01*
X65050057Y-185555952D02*
X65145295Y-185508333D01*
X65145295Y-185508333D02*
X65240533Y-185508333D01*
X65240533Y-185508333D02*
X65383390Y-185555952D01*
X65383390Y-185555952D02*
X65954819Y-186127380D01*
X65954819Y-186127380D02*
X65954819Y-185508333D01*
X83954819Y-194658333D02*
X84669104Y-194658333D01*
X84669104Y-194658333D02*
X84811961Y-194705952D01*
X84811961Y-194705952D02*
X84907200Y-194801190D01*
X84907200Y-194801190D02*
X84954819Y-194944047D01*
X84954819Y-194944047D02*
X84954819Y-195039285D01*
X83954819Y-193753571D02*
X83954819Y-193944047D01*
X83954819Y-193944047D02*
X84002438Y-194039285D01*
X84002438Y-194039285D02*
X84050057Y-194086904D01*
X84050057Y-194086904D02*
X84192914Y-194182142D01*
X84192914Y-194182142D02*
X84383390Y-194229761D01*
X84383390Y-194229761D02*
X84764342Y-194229761D01*
X84764342Y-194229761D02*
X84859580Y-194182142D01*
X84859580Y-194182142D02*
X84907200Y-194134523D01*
X84907200Y-194134523D02*
X84954819Y-194039285D01*
X84954819Y-194039285D02*
X84954819Y-193848809D01*
X84954819Y-193848809D02*
X84907200Y-193753571D01*
X84907200Y-193753571D02*
X84859580Y-193705952D01*
X84859580Y-193705952D02*
X84764342Y-193658333D01*
X84764342Y-193658333D02*
X84526247Y-193658333D01*
X84526247Y-193658333D02*
X84431009Y-193705952D01*
X84431009Y-193705952D02*
X84383390Y-193753571D01*
X84383390Y-193753571D02*
X84335771Y-193848809D01*
X84335771Y-193848809D02*
X84335771Y-194039285D01*
X84335771Y-194039285D02*
X84383390Y-194134523D01*
X84383390Y-194134523D02*
X84431009Y-194182142D01*
X84431009Y-194182142D02*
X84526247Y-194229761D01*
%TO.C,J7*%
X54300000Y-208750000D02*
X54300000Y-206400000D01*
X54300000Y-208750000D02*
X54300000Y-211100000D01*
X62700000Y-208750000D02*
X62700000Y-206400000D01*
X62700000Y-208750000D02*
X62700000Y-211100000D01*
X54311121Y-206406222D02*
G75*
G02*
X58500000Y-203950000I4188879J-2343778D01*
G01*
X58500000Y-203950000D02*
G75*
G02*
X62688879Y-206406222I0J-4800000D01*
G01*
X58500000Y-213550000D02*
G75*
G02*
X54311121Y-211093778I2J4800003D01*
G01*
X62688879Y-211093778D02*
G75*
G02*
X58500000Y-213550000I-4188881J2343781D01*
G01*
%TO.C,J5*%
X87300000Y-171750000D02*
X87300000Y-169400000D01*
X87300000Y-171750000D02*
X87300000Y-174100000D01*
X95700000Y-171750000D02*
X95700000Y-169400000D01*
X95700000Y-171750000D02*
X95700000Y-174100000D01*
X87311121Y-169406222D02*
G75*
G02*
X91500000Y-166950000I4188881J-2343781D01*
G01*
X91500000Y-166950000D02*
G75*
G02*
X95688879Y-169406222I-2J-4800003D01*
G01*
X91500000Y-176550000D02*
G75*
G02*
X87311121Y-174093778I0J4800000D01*
G01*
X95688879Y-174093778D02*
G75*
G02*
X91500000Y-176550000I-4188879J2343778D01*
G01*
%TO.C,J1*%
X54300000Y-171750000D02*
X54300000Y-169400000D01*
X54300000Y-171750000D02*
X54300000Y-174100000D01*
X62700000Y-171750000D02*
X62700000Y-169400000D01*
X62700000Y-171750000D02*
X62700000Y-174100000D01*
X54311121Y-169406222D02*
G75*
G02*
X58500000Y-166950000I4188879J-2343778D01*
G01*
X58500000Y-166950000D02*
G75*
G02*
X62688879Y-169406222I0J-4800000D01*
G01*
X58500000Y-176550000D02*
G75*
G02*
X54311121Y-174093778I2J4800003D01*
G01*
X62688879Y-174093778D02*
G75*
G02*
X58500000Y-176550000I-4188881J2343781D01*
G01*
%TO.C,J3*%
X75000000Y-167550000D02*
X72650000Y-167550000D01*
X75000000Y-167550000D02*
X77350000Y-167550000D01*
X75000000Y-175950000D02*
X72650000Y-175950000D01*
X75000000Y-175950000D02*
X77350000Y-175950000D01*
X70200000Y-171750000D02*
G75*
G02*
X72656222Y-167561121I4800003J-2D01*
G01*
X72656222Y-175938879D02*
G75*
G02*
X70200000Y-171750000I2343781J4188881D01*
G01*
X77343778Y-167561121D02*
G75*
G02*
X79800000Y-171750000I-2343778J-4188879D01*
G01*
X79800000Y-171750000D02*
G75*
G02*
X77343778Y-175938879I-4800000J0D01*
G01*
%TO.C,J8*%
X75000000Y-204550000D02*
X72650000Y-204550000D01*
X75000000Y-204550000D02*
X77350000Y-204550000D01*
X75000000Y-212950000D02*
X72650000Y-212950000D01*
X75000000Y-212950000D02*
X77350000Y-212950000D01*
X70200000Y-208750000D02*
G75*
G02*
X72656222Y-204561121I4800003J-2D01*
G01*
X72656222Y-212938879D02*
G75*
G02*
X70200000Y-208750000I2343781J4188881D01*
G01*
X77343778Y-204561121D02*
G75*
G02*
X79800000Y-208750000I-2343778J-4188879D01*
G01*
X79800000Y-208750000D02*
G75*
G02*
X77343778Y-212938879I-4800000J0D01*
G01*
%TO.C,J9*%
X87300000Y-208750000D02*
X87300000Y-206400000D01*
X87300000Y-208750000D02*
X87300000Y-211100000D01*
X95700000Y-208750000D02*
X95700000Y-206400000D01*
X95700000Y-208750000D02*
X95700000Y-211100000D01*
X87311121Y-206406222D02*
G75*
G02*
X91500000Y-203950000I4188881J-2343781D01*
G01*
X91500000Y-203950000D02*
G75*
G02*
X95688879Y-206406222I-2J-4800003D01*
G01*
X91500000Y-213550000D02*
G75*
G02*
X87311121Y-211093778I0J4800000D01*
G01*
X95688879Y-211093778D02*
G75*
G02*
X91500000Y-213550000I-4188879J2343778D01*
G01*
D11*
%TO.C,J70*%
X83620000Y-159770000D02*
X83620000Y-162430000D01*
X96380000Y-159770000D02*
X83620000Y-159770000D01*
X96380000Y-159770000D02*
X96380000Y-162430000D01*
X96380000Y-162430000D02*
X83620000Y-162430000D01*
X97650000Y-159770000D02*
X98980000Y-159770000D01*
X98980000Y-159770000D02*
X98980000Y-161100000D01*
D10*
%TO.C,J4*%
X75000000Y-186050000D02*
X72650000Y-186050000D01*
X75000000Y-186050000D02*
X77350000Y-186050000D01*
X75000000Y-194450000D02*
X72650000Y-194450000D01*
X75000000Y-194450000D02*
X77350000Y-194450000D01*
X70200000Y-190250000D02*
G75*
G02*
X72656222Y-186061121I4800003J-2D01*
G01*
X72656222Y-194438879D02*
G75*
G02*
X70200000Y-190250000I2343781J4188881D01*
G01*
X77343778Y-186061121D02*
G75*
G02*
X79800000Y-190250000I-2343778J-4188879D01*
G01*
X79800000Y-190250000D02*
G75*
G02*
X77343778Y-194438879I-4800000J0D01*
G01*
D11*
%TO.C,J50*%
X51020000Y-162430000D02*
X51020000Y-161100000D01*
X52350000Y-162430000D02*
X51020000Y-162430000D01*
X53620000Y-159770000D02*
X66380000Y-159770000D01*
X53620000Y-162430000D02*
X53620000Y-159770000D01*
X53620000Y-162430000D02*
X66380000Y-162430000D01*
X66380000Y-162430000D02*
X66380000Y-159770000D01*
D10*
%TO.C,J2*%
X54300000Y-190250000D02*
X54300000Y-187900000D01*
X54300000Y-190250000D02*
X54300000Y-192600000D01*
X62700000Y-190250000D02*
X62700000Y-187900000D01*
X62700000Y-190250000D02*
X62700000Y-192600000D01*
X54311121Y-187906222D02*
G75*
G02*
X58500000Y-185450000I4188879J-2343778D01*
G01*
X58500000Y-185450000D02*
G75*
G02*
X62688879Y-187906222I0J-4800000D01*
G01*
X58500000Y-195050000D02*
G75*
G02*
X54311121Y-192593778I2J4800003D01*
G01*
X62688879Y-192593778D02*
G75*
G02*
X58500000Y-195050000I-4188881J2343781D01*
G01*
D11*
%TO.C,J60*%
X67320000Y-159770000D02*
X67320000Y-162430000D01*
X80080000Y-159770000D02*
X67320000Y-159770000D01*
X80080000Y-159770000D02*
X80080000Y-162430000D01*
X80080000Y-162430000D02*
X67320000Y-162430000D01*
X81350000Y-159770000D02*
X82680000Y-159770000D01*
X82680000Y-159770000D02*
X82680000Y-161100000D01*
D10*
%TO.C,J6*%
X87300000Y-190250000D02*
X87300000Y-187900000D01*
X87300000Y-190250000D02*
X87300000Y-192600000D01*
X95700000Y-190250000D02*
X95700000Y-187900000D01*
X95700000Y-190250000D02*
X95700000Y-192600000D01*
X87311121Y-187906222D02*
G75*
G02*
X91500000Y-185450000I4188881J-2343781D01*
G01*
X91500000Y-185450000D02*
G75*
G02*
X95688879Y-187906222I-2J-4800003D01*
G01*
X91500000Y-195050000D02*
G75*
G02*
X87311121Y-192593778I0J4800000D01*
G01*
X95688879Y-192593778D02*
G75*
G02*
X91500000Y-195050000I-4188879J2343778D01*
G01*
%TD*%
%LPC*%
D12*
%TO.C,J7*%
X63096190Y-204153810D03*
D13*
X59000000Y-215250000D03*
D14*
X65000000Y-211250000D03*
%TD*%
D12*
%TO.C,J5*%
X86903810Y-176346190D03*
D13*
X91000000Y-165250000D03*
D14*
X85000000Y-169250000D03*
%TD*%
D12*
%TO.C,J1*%
X63096190Y-167153810D03*
D13*
X59000000Y-178250000D03*
D14*
X65000000Y-174250000D03*
%TD*%
D15*
%TO.C,J3*%
X79596190Y-176346190D03*
D14*
X68500000Y-172250000D03*
D13*
X72500000Y-178250000D03*
%TD*%
D15*
%TO.C,J8*%
X79596190Y-213346190D03*
D14*
X68500000Y-209250000D03*
D13*
X72500000Y-215250000D03*
%TD*%
D12*
%TO.C,J9*%
X86903810Y-213346190D03*
D13*
X91000000Y-202250000D03*
D14*
X85000000Y-206250000D03*
%TD*%
D16*
%TO.C,J70*%
X97650000Y-161100000D03*
D17*
X95110000Y-161100000D03*
X92570000Y-161100000D03*
X90030000Y-161100000D03*
X87490000Y-161100000D03*
X84950000Y-161100000D03*
%TD*%
D15*
%TO.C,J4*%
X79596190Y-194846190D03*
D14*
X68500000Y-190750000D03*
D13*
X72500000Y-196750000D03*
%TD*%
D16*
%TO.C,J50*%
X52350000Y-161100000D03*
D17*
X54890000Y-161100000D03*
X57430000Y-161100000D03*
X59970000Y-161100000D03*
X62510000Y-161100000D03*
X65050000Y-161100000D03*
%TD*%
D12*
%TO.C,J2*%
X63096190Y-185653810D03*
D13*
X59000000Y-196750000D03*
D14*
X65000000Y-192750000D03*
%TD*%
D16*
%TO.C,J60*%
X81350000Y-161100000D03*
D17*
X78810000Y-161100000D03*
X76270000Y-161100000D03*
X73730000Y-161100000D03*
X71190000Y-161100000D03*
X68650000Y-161100000D03*
%TD*%
D12*
%TO.C,J6*%
X86903810Y-194846190D03*
D13*
X91000000Y-183750000D03*
D14*
X85000000Y-187750000D03*
%TD*%
%LPD*%
M02*
