M48
; DRILL file {KiCad 8.0.5} date 2024-12-04T18:38:02+0100
; FORMAT={-:-/ absolute / metric / decimal}
; #@! TF.CreationDate,2024-12-04T18:38:02+01:00
; #@! TF.GenerationSoftware,Kicad,Pcbnew,8.0.5
; #@! TF.FileFunction,Plated,1,2,PTH
FMAT,2
METRIC
; #@! TA.AperFunction,Plated,PTH,ComponentDrill
T1C0.750
; #@! TA.AperFunction,Plated,PTH,ComponentDrill
T2C0.800
; #@! TA.AperFunction,Plated,PTH,ComponentDrill
T3C0.900
; #@! TA.AperFunction,Plated,PTH,ComponentDrill
T4C1.000
; #@! TA.AperFunction,Plated,PTH,ComponentDrill
T5C1.100
; #@! TA.AperFunction,Plated,PTH,ComponentDrill
T6C1.500
%
G90
G05
T1
X83.25Y-96.7
X83.25Y-97.97
X83.25Y-99.24
T2
X52.39Y-44.2
X52.39Y-47.2
X52.39Y-50.2
X52.39Y-53.2
X52.39Y-56.2
X52.39Y-59.2
X52.46Y-63.84
X52.55Y-80.865
X52.55Y-88.485
X52.6Y-75.8
X54.1Y-106.89
X54.1Y-114.51
X54.1Y-116.69
X54.1Y-124.31
X55.0Y-63.84
X55.19Y-102.2
X55.58Y-83.775
X55.58Y-86.315
X55.58Y-88.855
X55.58Y-91.395
X55.58Y-93.935
X55.58Y-96.475
X55.58Y-99.015
X57.54Y-63.84
X57.6Y-75.8
X60.0Y-150.58
X60.0Y-158.2
X60.01Y-44.2
X60.01Y-47.2
X60.01Y-50.2
X60.01Y-53.2
X60.01Y-56.2
X60.01Y-59.2
X60.2Y-73.49
X60.2Y-81.11
X60.5Y-63.9
X60.5Y-68.9
X62.29Y-131.4
X62.81Y-102.2
X63.2Y-62.59
X63.2Y-70.21
X63.2Y-73.49
X63.2Y-81.11
X63.2Y-83.775
X63.2Y-86.315
X63.2Y-88.855
X63.2Y-91.395
X63.2Y-93.935
X63.2Y-96.475
X63.2Y-99.015
X63.3Y-44.2
X63.3Y-47.2
X63.3Y-50.2
X63.3Y-53.2
X63.3Y-56.2
X63.3Y-59.2
X65.0Y-150.565
X65.0Y-158.185
X66.0Y-86.4
X66.0Y-91.4
X66.2Y-62.59
X66.2Y-70.21
X66.2Y-73.49
X66.2Y-81.11
X66.3Y-93.59
X66.3Y-101.21
X68.0Y-136.59
X68.0Y-144.21
X68.3Y-44.2
X68.3Y-47.2
X68.3Y-50.2
X68.3Y-53.2
X68.3Y-56.2
X68.3Y-59.2
X68.4Y-86.4
X68.4Y-91.4
X69.91Y-131.4
X70.0Y-150.59
X70.0Y-158.21
X70.7Y-101.9
X71.18Y-83.775
X71.18Y-86.315
X71.18Y-88.855
X71.18Y-91.395
X71.18Y-93.935
X71.18Y-96.475
X71.18Y-99.015
X71.19Y-105.0
X71.19Y-109.4
X71.58Y-61.2
X71.59Y-58.2
X71.59Y-64.2
X72.66Y-52.0
X72.99Y-131.4
X73.0Y-150.59
X73.0Y-158.21
X75.2Y-52.0
X75.7Y-101.9
X76.0Y-150.59
X76.0Y-158.21
X77.5Y-136.59
X77.5Y-144.21
X77.74Y-52.0
X78.8Y-83.775
X78.8Y-86.315
X78.8Y-88.855
X78.8Y-91.395
X78.8Y-93.935
X78.8Y-96.475
X78.8Y-99.015
X78.81Y-105.0
X78.81Y-109.4
X79.2Y-43.8
X79.2Y-48.8
X79.2Y-61.2
X79.21Y-58.2
X79.21Y-64.2
X80.61Y-131.4
X81.6Y-88.975
X81.6Y-93.975
X83.1Y-68.19
X83.1Y-75.81
X83.3Y-58.4
X83.3Y-63.4
X83.69Y-126.7
X83.69Y-131.4
X84.0Y-86.4
X84.0Y-91.4
X84.145Y-48.875
X84.155Y-54.475
X84.89Y-80.6
X85.0Y-120.7
X86.1Y-58.4
X86.1Y-63.4
X86.145Y-48.875
X86.155Y-54.475
X86.78Y-83.775
X86.78Y-86.315
X86.78Y-88.855
X86.78Y-91.395
X86.78Y-93.935
X86.78Y-96.475
X86.78Y-99.015
X86.89Y-71.8
X86.89Y-74.6
X88.1Y-101.9
X88.2Y-77.6
X90.0Y-120.7
X91.31Y-126.7
X91.31Y-131.4
X92.51Y-80.6
X93.1Y-101.9
X93.2Y-77.6
X94.4Y-83.775
X94.4Y-86.315
X94.4Y-88.855
X94.4Y-91.395
X94.4Y-93.935
X94.4Y-96.475
X94.4Y-99.015
X94.51Y-71.8
X94.51Y-74.6
X97.5Y-71.615
X97.5Y-79.235
X97.5Y-83.8
X97.5Y-91.42
X97.5Y-101.79
X97.5Y-109.41
X97.5Y-112.7
X97.5Y-120.32
X97.5Y-136.79
X97.5Y-144.41
T3
X73.725Y-47.5
X76.265Y-47.5
T4
X52.35Y-161.1
X54.89Y-161.1
X55.0Y-73.2
X57.43Y-161.1
X59.97Y-161.1
X60.0Y-115.725
X62.5Y-115.725
X62.51Y-161.1
X65.0Y-115.725
X65.05Y-161.1
X68.65Y-161.1
X71.19Y-161.1
X72.5Y-78.475
X73.73Y-161.1
X75.0Y-78.475
X76.27Y-161.1
X77.5Y-78.475
X78.81Y-161.1
X81.35Y-161.1
X83.17Y-151.812
X83.17Y-154.352
X84.95Y-161.1
X85.0Y-115.725
X85.71Y-151.812
X85.71Y-154.352
X87.49Y-161.1
X87.5Y-115.725
X88.25Y-151.812
X88.25Y-154.352
X90.0Y-115.725
X90.03Y-161.1
X90.79Y-151.812
X90.79Y-154.352
X92.57Y-161.1
X92.647Y-51.52
X92.647Y-54.06
X92.647Y-56.6
X92.647Y-59.14
X92.647Y-61.68
X93.33Y-151.812
X93.33Y-154.352
X95.11Y-161.1
X95.188Y-51.52
X95.188Y-54.06
X95.188Y-56.6
X95.188Y-59.14
X95.188Y-61.68
X97.65Y-161.1
T5
X87.12Y-44.2
X87.12Y-68.9
X97.28Y-44.2
X97.28Y-68.9
T6
X62.5Y-137.8
X62.5Y-142.5
X62.5Y-147.2
X83.69Y-139.96
X90.04Y-137.42
T5
X57.7Y-108.575G85X57.7Y-107.875
G05
X67.3Y-108.575G85X67.3Y-107.875
G05
X70.2Y-71.325G85X70.2Y-70.625
G05
X79.8Y-71.325G85X79.8Y-70.625
G05
X82.7Y-108.575G85X82.7Y-107.875
G05
X92.3Y-108.575G85X92.3Y-107.875
G05
M30
