%TF.GenerationSoftware,KiCad,Pcbnew,8.0.5*%
%TF.CreationDate,2024-12-04T18:37:58+01:00*%
%TF.ProjectId,DMH_S_H_Noise_PCB,444d485f-535f-4485-9f4e-6f6973655f50,1*%
%TF.SameCoordinates,Original*%
%TF.FileFunction,Legend,Top*%
%TF.FilePolarity,Positive*%
%FSLAX46Y46*%
G04 Gerber Fmt 4.6, Leading zero omitted, Abs format (unit mm)*
G04 Created by KiCad (PCBNEW 8.0.5) date 2024-12-04 18:37:58*
%MOMM*%
%LPD*%
G01*
G04 APERTURE LIST*
G04 Aperture macros list*
%AMRoundRect*
0 Rectangle with rounded corners*
0 $1 Rounding radius*
0 $2 $3 $4 $5 $6 $7 $8 $9 X,Y pos of 4 corners*
0 Add a 4 corners polygon primitive as box body*
4,1,4,$2,$3,$4,$5,$6,$7,$8,$9,$2,$3,0*
0 Add four circle primitives for the rounded corners*
1,1,$1+$1,$2,$3*
1,1,$1+$1,$4,$5*
1,1,$1+$1,$6,$7*
1,1,$1+$1,$8,$9*
0 Add four rect primitives between the rounded corners*
20,1,$1+$1,$2,$3,$4,$5,0*
20,1,$1+$1,$4,$5,$6,$7,0*
20,1,$1+$1,$6,$7,$8,$9,0*
20,1,$1+$1,$8,$9,$2,$3,0*%
G04 Aperture macros list end*
%ADD10C,0.150000*%
%ADD11C,0.120000*%
%ADD12R,1.800000X1.800000*%
%ADD13C,1.800000*%
%ADD14O,2.720000X3.240000*%
%ADD15C,1.700000*%
%ADD16C,4.000000*%
%ADD17C,2.200000*%
%ADD18C,2.500000*%
%ADD19R,1.700000X1.700000*%
%ADD20R,1.600000X1.600000*%
%ADD21C,1.600000*%
%ADD22O,1.600000X1.600000*%
%ADD23R,2.200000X2.200000*%
%ADD24O,2.200000X2.200000*%
%ADD25O,1.700000X1.700000*%
%ADD26RoundRect,0.250000X0.600000X-0.600000X0.600000X0.600000X-0.600000X0.600000X-0.600000X-0.600000X0*%
%ADD27R,1.500000X1.500000*%
%ADD28C,1.500000*%
%ADD29R,1.500000X1.050000*%
%ADD30O,1.500000X1.050000*%
%ADD31RoundRect,0.250000X-0.600000X-0.600000X0.600000X-0.600000X0.600000X0.600000X-0.600000X0.600000X0*%
G04 APERTURE END LIST*
D10*
X74256905Y-44994819D02*
X74256905Y-43994819D01*
X74256905Y-43994819D02*
X74495000Y-43994819D01*
X74495000Y-43994819D02*
X74637857Y-44042438D01*
X74637857Y-44042438D02*
X74733095Y-44137676D01*
X74733095Y-44137676D02*
X74780714Y-44232914D01*
X74780714Y-44232914D02*
X74828333Y-44423390D01*
X74828333Y-44423390D02*
X74828333Y-44566247D01*
X74828333Y-44566247D02*
X74780714Y-44756723D01*
X74780714Y-44756723D02*
X74733095Y-44851961D01*
X74733095Y-44851961D02*
X74637857Y-44947200D01*
X74637857Y-44947200D02*
X74495000Y-44994819D01*
X74495000Y-44994819D02*
X74256905Y-44994819D01*
X75161667Y-43994819D02*
X75780714Y-43994819D01*
X75780714Y-43994819D02*
X75447381Y-44375771D01*
X75447381Y-44375771D02*
X75590238Y-44375771D01*
X75590238Y-44375771D02*
X75685476Y-44423390D01*
X75685476Y-44423390D02*
X75733095Y-44471009D01*
X75733095Y-44471009D02*
X75780714Y-44566247D01*
X75780714Y-44566247D02*
X75780714Y-44804342D01*
X75780714Y-44804342D02*
X75733095Y-44899580D01*
X75733095Y-44899580D02*
X75685476Y-44947200D01*
X75685476Y-44947200D02*
X75590238Y-44994819D01*
X75590238Y-44994819D02*
X75304524Y-44994819D01*
X75304524Y-44994819D02*
X75209286Y-44947200D01*
X75209286Y-44947200D02*
X75161667Y-44899580D01*
X69754819Y-76995238D02*
X69278628Y-77328571D01*
X69754819Y-77566666D02*
X68754819Y-77566666D01*
X68754819Y-77566666D02*
X68754819Y-77185714D01*
X68754819Y-77185714D02*
X68802438Y-77090476D01*
X68802438Y-77090476D02*
X68850057Y-77042857D01*
X68850057Y-77042857D02*
X68945295Y-76995238D01*
X68945295Y-76995238D02*
X69088152Y-76995238D01*
X69088152Y-76995238D02*
X69183390Y-77042857D01*
X69183390Y-77042857D02*
X69231009Y-77090476D01*
X69231009Y-77090476D02*
X69278628Y-77185714D01*
X69278628Y-77185714D02*
X69278628Y-77566666D01*
X68754819Y-76709523D02*
X69754819Y-76376190D01*
X69754819Y-76376190D02*
X68754819Y-76042857D01*
X69754819Y-75185714D02*
X69754819Y-75757142D01*
X69754819Y-75471428D02*
X68754819Y-75471428D01*
X68754819Y-75471428D02*
X68897676Y-75566666D01*
X68897676Y-75566666D02*
X68992914Y-75661904D01*
X68992914Y-75661904D02*
X69040533Y-75757142D01*
X80300057Y-77542856D02*
X80252438Y-77495237D01*
X80252438Y-77495237D02*
X80204819Y-77399999D01*
X80204819Y-77399999D02*
X80204819Y-77161904D01*
X80204819Y-77161904D02*
X80252438Y-77066666D01*
X80252438Y-77066666D02*
X80300057Y-77019047D01*
X80300057Y-77019047D02*
X80395295Y-76971428D01*
X80395295Y-76971428D02*
X80490533Y-76971428D01*
X80490533Y-76971428D02*
X80633390Y-77019047D01*
X80633390Y-77019047D02*
X81204819Y-77590475D01*
X81204819Y-77590475D02*
X81204819Y-76971428D01*
X80204819Y-76066666D02*
X80204819Y-76542856D01*
X80204819Y-76542856D02*
X80681009Y-76590475D01*
X80681009Y-76590475D02*
X80633390Y-76542856D01*
X80633390Y-76542856D02*
X80585771Y-76447618D01*
X80585771Y-76447618D02*
X80585771Y-76209523D01*
X80585771Y-76209523D02*
X80633390Y-76114285D01*
X80633390Y-76114285D02*
X80681009Y-76066666D01*
X80681009Y-76066666D02*
X80776247Y-76019047D01*
X80776247Y-76019047D02*
X81014342Y-76019047D01*
X81014342Y-76019047D02*
X81109580Y-76066666D01*
X81109580Y-76066666D02*
X81157200Y-76114285D01*
X81157200Y-76114285D02*
X81204819Y-76209523D01*
X81204819Y-76209523D02*
X81204819Y-76447618D01*
X81204819Y-76447618D02*
X81157200Y-76542856D01*
X81157200Y-76542856D02*
X81109580Y-76590475D01*
X80204819Y-75399999D02*
X80204819Y-75304761D01*
X80204819Y-75304761D02*
X80252438Y-75209523D01*
X80252438Y-75209523D02*
X80300057Y-75161904D01*
X80300057Y-75161904D02*
X80395295Y-75114285D01*
X80395295Y-75114285D02*
X80585771Y-75066666D01*
X80585771Y-75066666D02*
X80823866Y-75066666D01*
X80823866Y-75066666D02*
X81014342Y-75114285D01*
X81014342Y-75114285D02*
X81109580Y-75161904D01*
X81109580Y-75161904D02*
X81157200Y-75209523D01*
X81157200Y-75209523D02*
X81204819Y-75304761D01*
X81204819Y-75304761D02*
X81204819Y-75399999D01*
X81204819Y-75399999D02*
X81157200Y-75495237D01*
X81157200Y-75495237D02*
X81109580Y-75542856D01*
X81109580Y-75542856D02*
X81014342Y-75590475D01*
X81014342Y-75590475D02*
X80823866Y-75638094D01*
X80823866Y-75638094D02*
X80585771Y-75638094D01*
X80585771Y-75638094D02*
X80395295Y-75590475D01*
X80395295Y-75590475D02*
X80300057Y-75542856D01*
X80300057Y-75542856D02*
X80252438Y-75495237D01*
X80252438Y-75495237D02*
X80204819Y-75399999D01*
X81204819Y-74638094D02*
X80204819Y-74638094D01*
X80823866Y-74542856D02*
X81204819Y-74257142D01*
X80538152Y-74257142D02*
X80919104Y-74638094D01*
X74036904Y-80954819D02*
X73763094Y-80478628D01*
X73465475Y-80954819D02*
X73590475Y-79954819D01*
X73590475Y-79954819D02*
X73971428Y-79954819D01*
X73971428Y-79954819D02*
X74060713Y-80002438D01*
X74060713Y-80002438D02*
X74102380Y-80050057D01*
X74102380Y-80050057D02*
X74138094Y-80145295D01*
X74138094Y-80145295D02*
X74120237Y-80288152D01*
X74120237Y-80288152D02*
X74060713Y-80383390D01*
X74060713Y-80383390D02*
X74007142Y-80431009D01*
X74007142Y-80431009D02*
X73905952Y-80478628D01*
X73905952Y-80478628D02*
X73524999Y-80478628D01*
X74894047Y-80954819D02*
X74959523Y-80431009D01*
X74959523Y-80431009D02*
X74923809Y-80335771D01*
X74923809Y-80335771D02*
X74834523Y-80288152D01*
X74834523Y-80288152D02*
X74644047Y-80288152D01*
X74644047Y-80288152D02*
X74542856Y-80335771D01*
X74899999Y-80907200D02*
X74798809Y-80954819D01*
X74798809Y-80954819D02*
X74560713Y-80954819D01*
X74560713Y-80954819D02*
X74471428Y-80907200D01*
X74471428Y-80907200D02*
X74435713Y-80811961D01*
X74435713Y-80811961D02*
X74447618Y-80716723D01*
X74447618Y-80716723D02*
X74507142Y-80621485D01*
X74507142Y-80621485D02*
X74608333Y-80573866D01*
X74608333Y-80573866D02*
X74846428Y-80573866D01*
X74846428Y-80573866D02*
X74947618Y-80526247D01*
X75310714Y-80288152D02*
X75691666Y-80288152D01*
X75495237Y-79954819D02*
X75388095Y-80811961D01*
X75388095Y-80811961D02*
X75423809Y-80907200D01*
X75423809Y-80907200D02*
X75513095Y-80954819D01*
X75513095Y-80954819D02*
X75608333Y-80954819D01*
X76328571Y-80907200D02*
X76227381Y-80954819D01*
X76227381Y-80954819D02*
X76036904Y-80954819D01*
X76036904Y-80954819D02*
X75947619Y-80907200D01*
X75947619Y-80907200D02*
X75911904Y-80811961D01*
X75911904Y-80811961D02*
X75959524Y-80431009D01*
X75959524Y-80431009D02*
X76019047Y-80335771D01*
X76019047Y-80335771D02*
X76120238Y-80288152D01*
X76120238Y-80288152D02*
X76310714Y-80288152D01*
X76310714Y-80288152D02*
X76400000Y-80335771D01*
X76400000Y-80335771D02*
X76435714Y-80431009D01*
X76435714Y-80431009D02*
X76423809Y-80526247D01*
X76423809Y-80526247D02*
X75935714Y-80621485D01*
X57254819Y-114195238D02*
X56778628Y-114528571D01*
X57254819Y-114766666D02*
X56254819Y-114766666D01*
X56254819Y-114766666D02*
X56254819Y-114385714D01*
X56254819Y-114385714D02*
X56302438Y-114290476D01*
X56302438Y-114290476D02*
X56350057Y-114242857D01*
X56350057Y-114242857D02*
X56445295Y-114195238D01*
X56445295Y-114195238D02*
X56588152Y-114195238D01*
X56588152Y-114195238D02*
X56683390Y-114242857D01*
X56683390Y-114242857D02*
X56731009Y-114290476D01*
X56731009Y-114290476D02*
X56778628Y-114385714D01*
X56778628Y-114385714D02*
X56778628Y-114766666D01*
X56254819Y-113909523D02*
X57254819Y-113576190D01*
X57254819Y-113576190D02*
X56254819Y-113242857D01*
X56350057Y-112957142D02*
X56302438Y-112909523D01*
X56302438Y-112909523D02*
X56254819Y-112814285D01*
X56254819Y-112814285D02*
X56254819Y-112576190D01*
X56254819Y-112576190D02*
X56302438Y-112480952D01*
X56302438Y-112480952D02*
X56350057Y-112433333D01*
X56350057Y-112433333D02*
X56445295Y-112385714D01*
X56445295Y-112385714D02*
X56540533Y-112385714D01*
X56540533Y-112385714D02*
X56683390Y-112433333D01*
X56683390Y-112433333D02*
X57254819Y-113004761D01*
X57254819Y-113004761D02*
X57254819Y-112385714D01*
X68704819Y-114171428D02*
X68704819Y-114742856D01*
X68704819Y-114457142D02*
X67704819Y-114457142D01*
X67704819Y-114457142D02*
X67847676Y-114552380D01*
X67847676Y-114552380D02*
X67942914Y-114647618D01*
X67942914Y-114647618D02*
X67990533Y-114742856D01*
X67704819Y-113552380D02*
X67704819Y-113457142D01*
X67704819Y-113457142D02*
X67752438Y-113361904D01*
X67752438Y-113361904D02*
X67800057Y-113314285D01*
X67800057Y-113314285D02*
X67895295Y-113266666D01*
X67895295Y-113266666D02*
X68085771Y-113219047D01*
X68085771Y-113219047D02*
X68323866Y-113219047D01*
X68323866Y-113219047D02*
X68514342Y-113266666D01*
X68514342Y-113266666D02*
X68609580Y-113314285D01*
X68609580Y-113314285D02*
X68657200Y-113361904D01*
X68657200Y-113361904D02*
X68704819Y-113457142D01*
X68704819Y-113457142D02*
X68704819Y-113552380D01*
X68704819Y-113552380D02*
X68657200Y-113647618D01*
X68657200Y-113647618D02*
X68609580Y-113695237D01*
X68609580Y-113695237D02*
X68514342Y-113742856D01*
X68514342Y-113742856D02*
X68323866Y-113790475D01*
X68323866Y-113790475D02*
X68085771Y-113790475D01*
X68085771Y-113790475D02*
X67895295Y-113742856D01*
X67895295Y-113742856D02*
X67800057Y-113695237D01*
X67800057Y-113695237D02*
X67752438Y-113647618D01*
X67752438Y-113647618D02*
X67704819Y-113552380D01*
X67704819Y-112599999D02*
X67704819Y-112504761D01*
X67704819Y-112504761D02*
X67752438Y-112409523D01*
X67752438Y-112409523D02*
X67800057Y-112361904D01*
X67800057Y-112361904D02*
X67895295Y-112314285D01*
X67895295Y-112314285D02*
X68085771Y-112266666D01*
X68085771Y-112266666D02*
X68323866Y-112266666D01*
X68323866Y-112266666D02*
X68514342Y-112314285D01*
X68514342Y-112314285D02*
X68609580Y-112361904D01*
X68609580Y-112361904D02*
X68657200Y-112409523D01*
X68657200Y-112409523D02*
X68704819Y-112504761D01*
X68704819Y-112504761D02*
X68704819Y-112599999D01*
X68704819Y-112599999D02*
X68657200Y-112695237D01*
X68657200Y-112695237D02*
X68609580Y-112742856D01*
X68609580Y-112742856D02*
X68514342Y-112790475D01*
X68514342Y-112790475D02*
X68323866Y-112838094D01*
X68323866Y-112838094D02*
X68085771Y-112838094D01*
X68085771Y-112838094D02*
X67895295Y-112790475D01*
X67895295Y-112790475D02*
X67800057Y-112742856D01*
X67800057Y-112742856D02*
X67752438Y-112695237D01*
X67752438Y-112695237D02*
X67704819Y-112599999D01*
X68704819Y-111838094D02*
X67704819Y-111838094D01*
X68323866Y-111742856D02*
X68704819Y-111457142D01*
X68038152Y-111457142D02*
X68419104Y-111838094D01*
X58465475Y-118254819D02*
X58590475Y-117254819D01*
X59024999Y-117588152D02*
X58941665Y-118254819D01*
X59013094Y-117683390D02*
X59066665Y-117635771D01*
X59066665Y-117635771D02*
X59167856Y-117588152D01*
X59167856Y-117588152D02*
X59310713Y-117588152D01*
X59310713Y-117588152D02*
X59399999Y-117635771D01*
X59399999Y-117635771D02*
X59435713Y-117731009D01*
X59435713Y-117731009D02*
X59370237Y-118254819D01*
X59929761Y-117588152D02*
X59804761Y-118588152D01*
X59923808Y-117635771D02*
X60024999Y-117588152D01*
X60024999Y-117588152D02*
X60215475Y-117588152D01*
X60215475Y-117588152D02*
X60304761Y-117635771D01*
X60304761Y-117635771D02*
X60346427Y-117683390D01*
X60346427Y-117683390D02*
X60382142Y-117778628D01*
X60382142Y-117778628D02*
X60346427Y-118064342D01*
X60346427Y-118064342D02*
X60286904Y-118159580D01*
X60286904Y-118159580D02*
X60233332Y-118207200D01*
X60233332Y-118207200D02*
X60132142Y-118254819D01*
X60132142Y-118254819D02*
X59941665Y-118254819D01*
X59941665Y-118254819D02*
X59852380Y-118207200D01*
X61263094Y-117588152D02*
X61179761Y-118254819D01*
X60834523Y-117588152D02*
X60769047Y-118111961D01*
X60769047Y-118111961D02*
X60804761Y-118207200D01*
X60804761Y-118207200D02*
X60894047Y-118254819D01*
X60894047Y-118254819D02*
X61036904Y-118254819D01*
X61036904Y-118254819D02*
X61138094Y-118207200D01*
X61138094Y-118207200D02*
X61191666Y-118159580D01*
X61596428Y-117588152D02*
X61977380Y-117588152D01*
X61780951Y-117254819D02*
X61673809Y-118111961D01*
X61673809Y-118111961D02*
X61709523Y-118207200D01*
X61709523Y-118207200D02*
X61798809Y-118254819D01*
X61798809Y-118254819D02*
X61894047Y-118254819D01*
X63465476Y-118254819D02*
X62989285Y-118254819D01*
X62989285Y-118254819D02*
X63114285Y-117254819D01*
X64185714Y-118207200D02*
X64084524Y-118254819D01*
X64084524Y-118254819D02*
X63894047Y-118254819D01*
X63894047Y-118254819D02*
X63804762Y-118207200D01*
X63804762Y-118207200D02*
X63769047Y-118111961D01*
X63769047Y-118111961D02*
X63816667Y-117731009D01*
X63816667Y-117731009D02*
X63876190Y-117635771D01*
X63876190Y-117635771D02*
X63977381Y-117588152D01*
X63977381Y-117588152D02*
X64167857Y-117588152D01*
X64167857Y-117588152D02*
X64257143Y-117635771D01*
X64257143Y-117635771D02*
X64292857Y-117731009D01*
X64292857Y-117731009D02*
X64280952Y-117826247D01*
X64280952Y-117826247D02*
X63792857Y-117921485D01*
X64644048Y-117588152D02*
X64798810Y-118254819D01*
X64798810Y-118254819D02*
X65120238Y-117588152D01*
X65804762Y-118207200D02*
X65703572Y-118254819D01*
X65703572Y-118254819D02*
X65513095Y-118254819D01*
X65513095Y-118254819D02*
X65423810Y-118207200D01*
X65423810Y-118207200D02*
X65388095Y-118111961D01*
X65388095Y-118111961D02*
X65435715Y-117731009D01*
X65435715Y-117731009D02*
X65495238Y-117635771D01*
X65495238Y-117635771D02*
X65596429Y-117588152D01*
X65596429Y-117588152D02*
X65786905Y-117588152D01*
X65786905Y-117588152D02*
X65876191Y-117635771D01*
X65876191Y-117635771D02*
X65911905Y-117731009D01*
X65911905Y-117731009D02*
X65900000Y-117826247D01*
X65900000Y-117826247D02*
X65411905Y-117921485D01*
X66417858Y-118254819D02*
X66328572Y-118207200D01*
X66328572Y-118207200D02*
X66292858Y-118111961D01*
X66292858Y-118111961D02*
X66400000Y-117254819D01*
X82254819Y-114195238D02*
X81778628Y-114528571D01*
X82254819Y-114766666D02*
X81254819Y-114766666D01*
X81254819Y-114766666D02*
X81254819Y-114385714D01*
X81254819Y-114385714D02*
X81302438Y-114290476D01*
X81302438Y-114290476D02*
X81350057Y-114242857D01*
X81350057Y-114242857D02*
X81445295Y-114195238D01*
X81445295Y-114195238D02*
X81588152Y-114195238D01*
X81588152Y-114195238D02*
X81683390Y-114242857D01*
X81683390Y-114242857D02*
X81731009Y-114290476D01*
X81731009Y-114290476D02*
X81778628Y-114385714D01*
X81778628Y-114385714D02*
X81778628Y-114766666D01*
X81254819Y-113909523D02*
X82254819Y-113576190D01*
X82254819Y-113576190D02*
X81254819Y-113242857D01*
X81254819Y-113004761D02*
X81254819Y-112385714D01*
X81254819Y-112385714D02*
X81635771Y-112719047D01*
X81635771Y-112719047D02*
X81635771Y-112576190D01*
X81635771Y-112576190D02*
X81683390Y-112480952D01*
X81683390Y-112480952D02*
X81731009Y-112433333D01*
X81731009Y-112433333D02*
X81826247Y-112385714D01*
X81826247Y-112385714D02*
X82064342Y-112385714D01*
X82064342Y-112385714D02*
X82159580Y-112433333D01*
X82159580Y-112433333D02*
X82207200Y-112480952D01*
X82207200Y-112480952D02*
X82254819Y-112576190D01*
X82254819Y-112576190D02*
X82254819Y-112861904D01*
X82254819Y-112861904D02*
X82207200Y-112957142D01*
X82207200Y-112957142D02*
X82159580Y-113004761D01*
X93704819Y-114171428D02*
X93704819Y-114742856D01*
X93704819Y-114457142D02*
X92704819Y-114457142D01*
X92704819Y-114457142D02*
X92847676Y-114552380D01*
X92847676Y-114552380D02*
X92942914Y-114647618D01*
X92942914Y-114647618D02*
X92990533Y-114742856D01*
X92704819Y-113552380D02*
X92704819Y-113457142D01*
X92704819Y-113457142D02*
X92752438Y-113361904D01*
X92752438Y-113361904D02*
X92800057Y-113314285D01*
X92800057Y-113314285D02*
X92895295Y-113266666D01*
X92895295Y-113266666D02*
X93085771Y-113219047D01*
X93085771Y-113219047D02*
X93323866Y-113219047D01*
X93323866Y-113219047D02*
X93514342Y-113266666D01*
X93514342Y-113266666D02*
X93609580Y-113314285D01*
X93609580Y-113314285D02*
X93657200Y-113361904D01*
X93657200Y-113361904D02*
X93704819Y-113457142D01*
X93704819Y-113457142D02*
X93704819Y-113552380D01*
X93704819Y-113552380D02*
X93657200Y-113647618D01*
X93657200Y-113647618D02*
X93609580Y-113695237D01*
X93609580Y-113695237D02*
X93514342Y-113742856D01*
X93514342Y-113742856D02*
X93323866Y-113790475D01*
X93323866Y-113790475D02*
X93085771Y-113790475D01*
X93085771Y-113790475D02*
X92895295Y-113742856D01*
X92895295Y-113742856D02*
X92800057Y-113695237D01*
X92800057Y-113695237D02*
X92752438Y-113647618D01*
X92752438Y-113647618D02*
X92704819Y-113552380D01*
X92704819Y-112599999D02*
X92704819Y-112504761D01*
X92704819Y-112504761D02*
X92752438Y-112409523D01*
X92752438Y-112409523D02*
X92800057Y-112361904D01*
X92800057Y-112361904D02*
X92895295Y-112314285D01*
X92895295Y-112314285D02*
X93085771Y-112266666D01*
X93085771Y-112266666D02*
X93323866Y-112266666D01*
X93323866Y-112266666D02*
X93514342Y-112314285D01*
X93514342Y-112314285D02*
X93609580Y-112361904D01*
X93609580Y-112361904D02*
X93657200Y-112409523D01*
X93657200Y-112409523D02*
X93704819Y-112504761D01*
X93704819Y-112504761D02*
X93704819Y-112599999D01*
X93704819Y-112599999D02*
X93657200Y-112695237D01*
X93657200Y-112695237D02*
X93609580Y-112742856D01*
X93609580Y-112742856D02*
X93514342Y-112790475D01*
X93514342Y-112790475D02*
X93323866Y-112838094D01*
X93323866Y-112838094D02*
X93085771Y-112838094D01*
X93085771Y-112838094D02*
X92895295Y-112790475D01*
X92895295Y-112790475D02*
X92800057Y-112742856D01*
X92800057Y-112742856D02*
X92752438Y-112695237D01*
X92752438Y-112695237D02*
X92704819Y-112599999D01*
X93704819Y-111838094D02*
X92704819Y-111838094D01*
X93323866Y-111742856D02*
X93704819Y-111457142D01*
X93038152Y-111457142D02*
X93419104Y-111838094D01*
X86000000Y-118207200D02*
X86136904Y-118254819D01*
X86136904Y-118254819D02*
X86375000Y-118254819D01*
X86375000Y-118254819D02*
X86476190Y-118207200D01*
X86476190Y-118207200D02*
X86529762Y-118159580D01*
X86529762Y-118159580D02*
X86589285Y-118064342D01*
X86589285Y-118064342D02*
X86601190Y-117969104D01*
X86601190Y-117969104D02*
X86565476Y-117873866D01*
X86565476Y-117873866D02*
X86523809Y-117826247D01*
X86523809Y-117826247D02*
X86434524Y-117778628D01*
X86434524Y-117778628D02*
X86250000Y-117731009D01*
X86250000Y-117731009D02*
X86160714Y-117683390D01*
X86160714Y-117683390D02*
X86119047Y-117635771D01*
X86119047Y-117635771D02*
X86083333Y-117540533D01*
X86083333Y-117540533D02*
X86095238Y-117445295D01*
X86095238Y-117445295D02*
X86154762Y-117350057D01*
X86154762Y-117350057D02*
X86208333Y-117302438D01*
X86208333Y-117302438D02*
X86309524Y-117254819D01*
X86309524Y-117254819D02*
X86547619Y-117254819D01*
X86547619Y-117254819D02*
X86684524Y-117302438D01*
X87136905Y-118254819D02*
X87047619Y-118207200D01*
X87047619Y-118207200D02*
X87011905Y-118111961D01*
X87011905Y-118111961D02*
X87119047Y-117254819D01*
X87904762Y-118207200D02*
X87803572Y-118254819D01*
X87803572Y-118254819D02*
X87613095Y-118254819D01*
X87613095Y-118254819D02*
X87523810Y-118207200D01*
X87523810Y-118207200D02*
X87488095Y-118111961D01*
X87488095Y-118111961D02*
X87535715Y-117731009D01*
X87535715Y-117731009D02*
X87595238Y-117635771D01*
X87595238Y-117635771D02*
X87696429Y-117588152D01*
X87696429Y-117588152D02*
X87886905Y-117588152D01*
X87886905Y-117588152D02*
X87976191Y-117635771D01*
X87976191Y-117635771D02*
X88011905Y-117731009D01*
X88011905Y-117731009D02*
X88000000Y-117826247D01*
X88000000Y-117826247D02*
X87511905Y-117921485D01*
X88363096Y-117588152D02*
X88470238Y-118254819D01*
X88470238Y-118254819D02*
X88720238Y-117778628D01*
X88720238Y-117778628D02*
X88851191Y-118254819D01*
X88851191Y-118254819D02*
X89125000Y-117588152D01*
X86166667Y-135033200D02*
X86309524Y-135080819D01*
X86309524Y-135080819D02*
X86547619Y-135080819D01*
X86547619Y-135080819D02*
X86642857Y-135033200D01*
X86642857Y-135033200D02*
X86690476Y-134985580D01*
X86690476Y-134985580D02*
X86738095Y-134890342D01*
X86738095Y-134890342D02*
X86738095Y-134795104D01*
X86738095Y-134795104D02*
X86690476Y-134699866D01*
X86690476Y-134699866D02*
X86642857Y-134652247D01*
X86642857Y-134652247D02*
X86547619Y-134604628D01*
X86547619Y-134604628D02*
X86357143Y-134557009D01*
X86357143Y-134557009D02*
X86261905Y-134509390D01*
X86261905Y-134509390D02*
X86214286Y-134461771D01*
X86214286Y-134461771D02*
X86166667Y-134366533D01*
X86166667Y-134366533D02*
X86166667Y-134271295D01*
X86166667Y-134271295D02*
X86214286Y-134176057D01*
X86214286Y-134176057D02*
X86261905Y-134128438D01*
X86261905Y-134128438D02*
X86357143Y-134080819D01*
X86357143Y-134080819D02*
X86595238Y-134080819D01*
X86595238Y-134080819D02*
X86738095Y-134128438D01*
X87071429Y-134080819D02*
X87309524Y-135080819D01*
X87309524Y-135080819D02*
X87500000Y-134366533D01*
X87500000Y-134366533D02*
X87690476Y-135080819D01*
X87690476Y-135080819D02*
X87928572Y-134080819D01*
X88833333Y-135080819D02*
X88261905Y-135080819D01*
X88547619Y-135080819D02*
X88547619Y-134080819D01*
X88547619Y-134080819D02*
X88452381Y-134223676D01*
X88452381Y-134223676D02*
X88357143Y-134318914D01*
X88357143Y-134318914D02*
X88261905Y-134366533D01*
X61166667Y-134907200D02*
X61309524Y-134954819D01*
X61309524Y-134954819D02*
X61547619Y-134954819D01*
X61547619Y-134954819D02*
X61642857Y-134907200D01*
X61642857Y-134907200D02*
X61690476Y-134859580D01*
X61690476Y-134859580D02*
X61738095Y-134764342D01*
X61738095Y-134764342D02*
X61738095Y-134669104D01*
X61738095Y-134669104D02*
X61690476Y-134573866D01*
X61690476Y-134573866D02*
X61642857Y-134526247D01*
X61642857Y-134526247D02*
X61547619Y-134478628D01*
X61547619Y-134478628D02*
X61357143Y-134431009D01*
X61357143Y-134431009D02*
X61261905Y-134383390D01*
X61261905Y-134383390D02*
X61214286Y-134335771D01*
X61214286Y-134335771D02*
X61166667Y-134240533D01*
X61166667Y-134240533D02*
X61166667Y-134145295D01*
X61166667Y-134145295D02*
X61214286Y-134050057D01*
X61214286Y-134050057D02*
X61261905Y-134002438D01*
X61261905Y-134002438D02*
X61357143Y-133954819D01*
X61357143Y-133954819D02*
X61595238Y-133954819D01*
X61595238Y-133954819D02*
X61738095Y-134002438D01*
X62071429Y-133954819D02*
X62309524Y-134954819D01*
X62309524Y-134954819D02*
X62500000Y-134240533D01*
X62500000Y-134240533D02*
X62690476Y-134954819D01*
X62690476Y-134954819D02*
X62928572Y-133954819D01*
X63261905Y-134050057D02*
X63309524Y-134002438D01*
X63309524Y-134002438D02*
X63404762Y-133954819D01*
X63404762Y-133954819D02*
X63642857Y-133954819D01*
X63642857Y-133954819D02*
X63738095Y-134002438D01*
X63738095Y-134002438D02*
X63785714Y-134050057D01*
X63785714Y-134050057D02*
X63833333Y-134145295D01*
X63833333Y-134145295D02*
X63833333Y-134240533D01*
X63833333Y-134240533D02*
X63785714Y-134383390D01*
X63785714Y-134383390D02*
X63214286Y-134954819D01*
X63214286Y-134954819D02*
X63833333Y-134954819D01*
X54666666Y-70324819D02*
X54666666Y-71039104D01*
X54666666Y-71039104D02*
X54619047Y-71181961D01*
X54619047Y-71181961D02*
X54523809Y-71277200D01*
X54523809Y-71277200D02*
X54380952Y-71324819D01*
X54380952Y-71324819D02*
X54285714Y-71324819D01*
X55333333Y-70324819D02*
X55428571Y-70324819D01*
X55428571Y-70324819D02*
X55523809Y-70372438D01*
X55523809Y-70372438D02*
X55571428Y-70420057D01*
X55571428Y-70420057D02*
X55619047Y-70515295D01*
X55619047Y-70515295D02*
X55666666Y-70705771D01*
X55666666Y-70705771D02*
X55666666Y-70943866D01*
X55666666Y-70943866D02*
X55619047Y-71134342D01*
X55619047Y-71134342D02*
X55571428Y-71229580D01*
X55571428Y-71229580D02*
X55523809Y-71277200D01*
X55523809Y-71277200D02*
X55428571Y-71324819D01*
X55428571Y-71324819D02*
X55333333Y-71324819D01*
X55333333Y-71324819D02*
X55238095Y-71277200D01*
X55238095Y-71277200D02*
X55190476Y-71229580D01*
X55190476Y-71229580D02*
X55142857Y-71134342D01*
X55142857Y-71134342D02*
X55095238Y-70943866D01*
X55095238Y-70943866D02*
X55095238Y-70705771D01*
X55095238Y-70705771D02*
X55142857Y-70515295D01*
X55142857Y-70515295D02*
X55190476Y-70420057D01*
X55190476Y-70420057D02*
X55238095Y-70372438D01*
X55238095Y-70372438D02*
X55333333Y-70324819D01*
D11*
%TO.C,D3*%
X73435000Y-46264000D02*
X73435000Y-46420000D01*
X73435000Y-48580000D02*
X73435000Y-48736000D01*
X73435000Y-46264484D02*
G75*
G02*
X76667335Y-46421392I1560000J-1235516D01*
G01*
X73954039Y-46420000D02*
G75*
G02*
X76036130Y-46420163I1040961J-1080000D01*
G01*
X76036130Y-48579837D02*
G75*
G02*
X73954039Y-48580000I-1041130J1079837D01*
G01*
X76667335Y-48578608D02*
G75*
G02*
X73435000Y-48735516I-1672335J1078608D01*
G01*
%TO.C,RV1*%
X70120000Y-77595000D02*
X70120000Y-72875000D01*
X70130000Y-69065000D02*
X70130000Y-66005000D01*
X71310000Y-77595000D02*
X70130000Y-77595000D01*
X74210000Y-77595000D02*
X73680000Y-77595000D01*
X76660000Y-77595000D02*
X75830000Y-77595000D01*
X79870000Y-66005000D02*
X70130000Y-66005000D01*
X79870000Y-69065000D02*
X79870000Y-66005000D01*
X79870000Y-77595000D02*
X78380000Y-77595000D01*
X79870000Y-77595000D02*
X79870000Y-72875000D01*
%TO.C,RV2*%
X57620000Y-114845000D02*
X57620000Y-110125000D01*
X57630000Y-106315000D02*
X57630000Y-103255000D01*
X58810000Y-114845000D02*
X57630000Y-114845000D01*
X61710000Y-114845000D02*
X61180000Y-114845000D01*
X64160000Y-114845000D02*
X63330000Y-114845000D01*
X67370000Y-103255000D02*
X57630000Y-103255000D01*
X67370000Y-106315000D02*
X67370000Y-103255000D01*
X67370000Y-114845000D02*
X65880000Y-114845000D01*
X67370000Y-114845000D02*
X67370000Y-110125000D01*
%TO.C,RV3*%
X82620000Y-114845000D02*
X82620000Y-110125000D01*
X82630000Y-106315000D02*
X82630000Y-103255000D01*
X83810000Y-114845000D02*
X82630000Y-114845000D01*
X86710000Y-114845000D02*
X86180000Y-114845000D01*
X89160000Y-114845000D02*
X88330000Y-114845000D01*
X92370000Y-103255000D02*
X82630000Y-103255000D01*
X92370000Y-106315000D02*
X92370000Y-103255000D01*
X92370000Y-114845000D02*
X90880000Y-114845000D01*
X92370000Y-114845000D02*
X92370000Y-110125000D01*
%TO.C,SW1*%
X80515000Y-135515000D02*
X94485000Y-135515000D01*
X80515000Y-149485000D02*
X80515000Y-135515000D01*
X94485000Y-135515000D02*
X94485000Y-149485000D01*
X94485000Y-149485000D02*
X80515000Y-149485000D01*
%TO.C,SW2*%
X58900000Y-135900000D02*
X66100000Y-135900000D01*
X66100000Y-149100000D01*
X58900000Y-149100000D01*
X58900000Y-135900000D01*
%TO.C,J0*%
X53670000Y-71870000D02*
X55000000Y-71870000D01*
X53670000Y-73200000D02*
X53670000Y-71870000D01*
X53670000Y-74470000D02*
X53670000Y-74530000D01*
X53670000Y-74470000D02*
X56330000Y-74470000D01*
X53670000Y-74530000D02*
X56330000Y-74530000D01*
X56330000Y-74470000D02*
X56330000Y-74530000D01*
%TD*%
%LPC*%
D12*
%TO.C,D3*%
X73725000Y-47500000D03*
D13*
X76265000Y-47500000D03*
%TD*%
D14*
%TO.C,RV1*%
X70200000Y-70975000D03*
X79800000Y-70975000D03*
D12*
X72500000Y-78475000D03*
D13*
X75000000Y-78475000D03*
X77500000Y-78475000D03*
%TD*%
D14*
%TO.C,RV2*%
X57700000Y-108225000D03*
X67300000Y-108225000D03*
D12*
X60000000Y-115725000D03*
D13*
X62500000Y-115725000D03*
X65000000Y-115725000D03*
%TD*%
D14*
%TO.C,RV3*%
X82700000Y-108225000D03*
X92300000Y-108225000D03*
D12*
X85000000Y-115725000D03*
D13*
X87500000Y-115725000D03*
X90000000Y-115725000D03*
%TD*%
D15*
%TO.C,SW1*%
X82420000Y-142500000D03*
D16*
X87500000Y-142500000D03*
D15*
X92580000Y-142500000D03*
D17*
X90040000Y-137420000D03*
X83690000Y-139960000D03*
%TD*%
D18*
%TO.C,SW2*%
X62500000Y-147200000D03*
X62500000Y-142500000D03*
X62500000Y-137800000D03*
%TD*%
D19*
%TO.C,J0*%
X55000000Y-73200000D03*
%TD*%
D20*
%TO.C,C1*%
X84144888Y-48875000D03*
D21*
X86144888Y-48875000D03*
%TD*%
D20*
%TO.C,U1*%
X94400000Y-83775000D03*
D22*
X94400000Y-86315000D03*
X94400000Y-88855000D03*
X94400000Y-91395000D03*
X94400000Y-93935000D03*
X94400000Y-96475000D03*
X94400000Y-99015000D03*
X86780000Y-99015000D03*
X86780000Y-96475000D03*
X86780000Y-93935000D03*
X86780000Y-91395000D03*
X86780000Y-88855000D03*
X86780000Y-86315000D03*
X86780000Y-83775000D03*
%TD*%
D23*
%TO.C,D1*%
X97280000Y-68900000D03*
D24*
X87120000Y-68900000D03*
%TD*%
D21*
%TO.C,R5*%
X91310000Y-126700000D03*
D22*
X83690000Y-126700000D03*
%TD*%
D20*
%TO.C,D6*%
X78810000Y-109400000D03*
D22*
X71190000Y-109400000D03*
%TD*%
D21*
%TO.C,R32*%
X52390000Y-47200000D03*
D22*
X60010000Y-47200000D03*
%TD*%
D21*
%TO.C,R26*%
X60010000Y-56200000D03*
D22*
X52390000Y-56200000D03*
%TD*%
D21*
%TO.C,C8*%
X68400000Y-86400000D03*
X68400000Y-91400000D03*
%TD*%
D19*
%TO.C,J50*%
X52350000Y-161100000D03*
D25*
X54890000Y-161100000D03*
X57430000Y-161100000D03*
X59970000Y-161100000D03*
X62510000Y-161100000D03*
X65050000Y-161100000D03*
%TD*%
D21*
%TO.C,C3*%
X79200000Y-43800000D03*
X79200000Y-48800000D03*
%TD*%
%TO.C,C16*%
X68300000Y-53200000D03*
X63300000Y-53200000D03*
%TD*%
%TO.C,C14*%
X85000000Y-120700000D03*
X90000000Y-120700000D03*
%TD*%
%TO.C,C20*%
X68300000Y-47200000D03*
X63300000Y-47200000D03*
%TD*%
%TO.C,C19*%
X68300000Y-50200000D03*
X63300000Y-50200000D03*
%TD*%
%TO.C,R37*%
X70000000Y-158210000D03*
D22*
X70000000Y-150590000D03*
%TD*%
D21*
%TO.C,R34*%
X52550000Y-88485000D03*
D22*
X52550000Y-80865000D03*
%TD*%
D21*
%TO.C,C12*%
X83300000Y-58400000D03*
X83300000Y-63400000D03*
%TD*%
%TO.C,R29*%
X55190000Y-102200000D03*
D22*
X62810000Y-102200000D03*
%TD*%
D21*
%TO.C,R19*%
X63200000Y-70210000D03*
D22*
X63200000Y-62590000D03*
%TD*%
D21*
%TO.C,R10*%
X83100000Y-68190000D03*
D22*
X83100000Y-75810000D03*
%TD*%
D21*
%TO.C,R15*%
X71190000Y-105000000D03*
D22*
X78810000Y-105000000D03*
%TD*%
D21*
%TO.C,R14*%
X71580000Y-61200000D03*
D22*
X79200000Y-61200000D03*
%TD*%
D21*
%TO.C,R22*%
X66200000Y-73490000D03*
D22*
X66200000Y-81110000D03*
%TD*%
D26*
%TO.C,J200*%
X93330000Y-154352500D03*
D15*
X90790000Y-154352500D03*
X88250000Y-154352500D03*
X85710000Y-154352500D03*
X83170000Y-154352500D03*
X93330000Y-151812500D03*
X90790000Y-151812500D03*
X88250000Y-151812500D03*
X85710000Y-151812500D03*
X83170000Y-151812500D03*
%TD*%
D20*
%TO.C,U3*%
X63200000Y-83775000D03*
D22*
X63200000Y-86315000D03*
X63200000Y-88855000D03*
X63200000Y-91395000D03*
X63200000Y-93935000D03*
X63200000Y-96475000D03*
X63200000Y-99015000D03*
X55580000Y-99015000D03*
X55580000Y-96475000D03*
X55580000Y-93935000D03*
X55580000Y-91395000D03*
X55580000Y-88855000D03*
X55580000Y-86315000D03*
X55580000Y-83775000D03*
%TD*%
D21*
%TO.C,C15*%
X60500000Y-63900000D03*
X60500000Y-68900000D03*
%TD*%
%TO.C,C17*%
X68300000Y-56200000D03*
X63300000Y-56200000D03*
%TD*%
%TO.C,C18*%
X68300000Y-59200000D03*
X63300000Y-59200000D03*
%TD*%
%TO.C,R4*%
X60000000Y-150580000D03*
D22*
X60000000Y-158200000D03*
%TD*%
D21*
%TO.C,R17*%
X77500000Y-144210000D03*
D22*
X77500000Y-136590000D03*
%TD*%
D27*
%TO.C,Q3*%
X52460000Y-63840000D03*
D28*
X55000000Y-63840000D03*
X57540000Y-63840000D03*
%TD*%
D21*
%TO.C,R25*%
X60010000Y-53200000D03*
D22*
X52390000Y-53200000D03*
%TD*%
D21*
%TO.C,R28*%
X66300000Y-93590000D03*
D22*
X66300000Y-101210000D03*
%TD*%
D21*
%TO.C,R1*%
X84890000Y-80600000D03*
D22*
X92510000Y-80600000D03*
%TD*%
D21*
%TO.C,R16*%
X97500000Y-144410000D03*
D22*
X97500000Y-136790000D03*
%TD*%
D21*
%TO.C,C10*%
X52600000Y-75800000D03*
X57600000Y-75800000D03*
%TD*%
%TO.C,R33*%
X52390000Y-44200000D03*
D22*
X60010000Y-44200000D03*
%TD*%
D21*
%TO.C,R11*%
X94510000Y-74600000D03*
D22*
X86890000Y-74600000D03*
%TD*%
D21*
%TO.C,R7*%
X69910000Y-131400000D03*
D22*
X62290000Y-131400000D03*
%TD*%
D21*
%TO.C,R13*%
X97500000Y-101790000D03*
D22*
X97500000Y-109410000D03*
%TD*%
D21*
%TO.C,C13*%
X75700000Y-101900000D03*
X70700000Y-101900000D03*
%TD*%
D20*
%TO.C,C2*%
X86155114Y-54475000D03*
D21*
X84155114Y-54475000D03*
%TD*%
%TO.C,C21*%
X68300000Y-44200000D03*
X63300000Y-44200000D03*
%TD*%
%TO.C,R23*%
X73000000Y-158210000D03*
D22*
X73000000Y-150590000D03*
%TD*%
D27*
%TO.C,Q1*%
X72660000Y-52000000D03*
D28*
X75200000Y-52000000D03*
X77740000Y-52000000D03*
%TD*%
D21*
%TO.C,R21*%
X60200000Y-81110000D03*
D22*
X60200000Y-73490000D03*
%TD*%
D21*
%TO.C,C7*%
X81600000Y-88975000D03*
X81600000Y-93975000D03*
%TD*%
D29*
%TO.C,Q2*%
X83250000Y-96700000D03*
D30*
X83250000Y-97970000D03*
X83250000Y-99240000D03*
%TD*%
D21*
%TO.C,R31*%
X52390000Y-50200000D03*
D22*
X60010000Y-50200000D03*
%TD*%
D21*
%TO.C,R2*%
X97500000Y-79235000D03*
D22*
X97500000Y-71615000D03*
%TD*%
D21*
%TO.C,R3*%
X97500000Y-83800000D03*
D22*
X97500000Y-91420000D03*
%TD*%
D20*
%TO.C,D5*%
X94510000Y-71800000D03*
D22*
X86890000Y-71800000D03*
%TD*%
D23*
%TO.C,D2*%
X87120000Y-44200000D03*
D24*
X97280000Y-44200000D03*
%TD*%
D21*
%TO.C,R36*%
X54100000Y-114510000D03*
D22*
X54100000Y-106890000D03*
%TD*%
D21*
%TO.C,R38*%
X79210000Y-58200000D03*
D22*
X71590000Y-58200000D03*
%TD*%
D21*
%TO.C,R8*%
X80610000Y-131400000D03*
D22*
X72990000Y-131400000D03*
%TD*%
D21*
%TO.C,R9*%
X71590000Y-64200000D03*
D22*
X79210000Y-64200000D03*
%TD*%
D21*
%TO.C,R35*%
X54100000Y-116690000D03*
D22*
X54100000Y-124310000D03*
%TD*%
D19*
%TO.C,J60*%
X81350000Y-161100000D03*
D25*
X78810000Y-161100000D03*
X76270000Y-161100000D03*
X73730000Y-161100000D03*
X71190000Y-161100000D03*
X68650000Y-161100000D03*
%TD*%
D31*
%TO.C,J100*%
X92647500Y-61680000D03*
D15*
X95187500Y-61680000D03*
X92647500Y-59140000D03*
X95187500Y-59140000D03*
X92647500Y-56600000D03*
X95187500Y-56600000D03*
X92647500Y-54060000D03*
X95187500Y-54060000D03*
X92647500Y-51520000D03*
X95187500Y-51520000D03*
%TD*%
D21*
%TO.C,R27*%
X60010000Y-59200000D03*
D22*
X52390000Y-59200000D03*
%TD*%
D20*
%TO.C,U2*%
X78800000Y-83775000D03*
D22*
X78800000Y-86315000D03*
X78800000Y-88855000D03*
X78800000Y-91395000D03*
X78800000Y-93935000D03*
X78800000Y-96475000D03*
X78800000Y-99015000D03*
X71180000Y-99015000D03*
X71180000Y-96475000D03*
X71180000Y-93935000D03*
X71180000Y-91395000D03*
X71180000Y-88855000D03*
X71180000Y-86315000D03*
X71180000Y-83775000D03*
%TD*%
D21*
%TO.C,C6*%
X84000000Y-86400000D03*
X84000000Y-91400000D03*
%TD*%
%TO.C,R18*%
X65000000Y-158185000D03*
D22*
X65000000Y-150565000D03*
%TD*%
D20*
%TO.C,D4*%
X68000000Y-136590000D03*
D22*
X68000000Y-144210000D03*
%TD*%
D21*
%TO.C,R6*%
X91310000Y-131400000D03*
D22*
X83690000Y-131400000D03*
%TD*%
D21*
%TO.C,R12*%
X97500000Y-112700000D03*
D22*
X97500000Y-120320000D03*
%TD*%
D21*
%TO.C,C11*%
X88200000Y-77600000D03*
X93200000Y-77600000D03*
%TD*%
%TO.C,C4*%
X86100000Y-58400000D03*
X86100000Y-63400000D03*
%TD*%
%TO.C,C9*%
X66000000Y-91400000D03*
X66000000Y-86400000D03*
%TD*%
%TO.C,R20*%
X66200000Y-70210000D03*
D22*
X66200000Y-62590000D03*
%TD*%
D21*
%TO.C,R30*%
X76000000Y-158210000D03*
D22*
X76000000Y-150590000D03*
%TD*%
D21*
%TO.C,R24*%
X63200000Y-73490000D03*
D22*
X63200000Y-81110000D03*
%TD*%
D19*
%TO.C,J70*%
X97650000Y-161100000D03*
D25*
X95110000Y-161100000D03*
X92570000Y-161100000D03*
X90030000Y-161100000D03*
X87490000Y-161100000D03*
X84950000Y-161100000D03*
%TD*%
D21*
%TO.C,C5*%
X93100000Y-101900000D03*
X88100000Y-101900000D03*
%TD*%
%LPD*%
M02*
