%TF.GenerationSoftware,KiCad,Pcbnew,8.0.5*%
%TF.CreationDate,2024-12-04T18:37:58+01:00*%
%TF.ProjectId,DMH_S_H_Noise_PCB,444d485f-535f-4485-9f4e-6f6973655f50,1*%
%TF.SameCoordinates,Original*%
%TF.FileFunction,Soldermask,Top*%
%TF.FilePolarity,Negative*%
%FSLAX46Y46*%
G04 Gerber Fmt 4.6, Leading zero omitted, Abs format (unit mm)*
G04 Created by KiCad (PCBNEW 8.0.5) date 2024-12-04 18:37:58*
%MOMM*%
%LPD*%
G01*
G04 APERTURE LIST*
G04 Aperture macros list*
%AMRoundRect*
0 Rectangle with rounded corners*
0 $1 Rounding radius*
0 $2 $3 $4 $5 $6 $7 $8 $9 X,Y pos of 4 corners*
0 Add a 4 corners polygon primitive as box body*
4,1,4,$2,$3,$4,$5,$6,$7,$8,$9,$2,$3,0*
0 Add four circle primitives for the rounded corners*
1,1,$1+$1,$2,$3*
1,1,$1+$1,$4,$5*
1,1,$1+$1,$6,$7*
1,1,$1+$1,$8,$9*
0 Add four rect primitives between the rounded corners*
20,1,$1+$1,$2,$3,$4,$5,0*
20,1,$1+$1,$4,$5,$6,$7,0*
20,1,$1+$1,$6,$7,$8,$9,0*
20,1,$1+$1,$8,$9,$2,$3,0*%
G04 Aperture macros list end*
%ADD10R,1.800000X1.800000*%
%ADD11C,1.800000*%
%ADD12O,2.720000X3.240000*%
%ADD13C,1.700000*%
%ADD14C,4.000000*%
%ADD15C,2.200000*%
%ADD16C,2.500000*%
%ADD17R,1.700000X1.700000*%
%ADD18R,1.600000X1.600000*%
%ADD19C,1.600000*%
%ADD20O,1.600000X1.600000*%
%ADD21R,2.200000X2.200000*%
%ADD22O,2.200000X2.200000*%
%ADD23O,1.700000X1.700000*%
%ADD24RoundRect,0.250000X0.600000X-0.600000X0.600000X0.600000X-0.600000X0.600000X-0.600000X-0.600000X0*%
%ADD25R,1.500000X1.500000*%
%ADD26C,1.500000*%
%ADD27R,1.500000X1.050000*%
%ADD28O,1.500000X1.050000*%
%ADD29RoundRect,0.250000X-0.600000X-0.600000X0.600000X-0.600000X0.600000X0.600000X-0.600000X0.600000X0*%
G04 APERTURE END LIST*
D10*
%TO.C,D3*%
X73725000Y-47500000D03*
D11*
X76265000Y-47500000D03*
%TD*%
D12*
%TO.C,RV1*%
X70200000Y-70975000D03*
X79800000Y-70975000D03*
D10*
X72500000Y-78475000D03*
D11*
X75000000Y-78475000D03*
X77500000Y-78475000D03*
%TD*%
D12*
%TO.C,RV2*%
X57700000Y-108225000D03*
X67300000Y-108225000D03*
D10*
X60000000Y-115725000D03*
D11*
X62500000Y-115725000D03*
X65000000Y-115725000D03*
%TD*%
D12*
%TO.C,RV3*%
X82700000Y-108225000D03*
X92300000Y-108225000D03*
D10*
X85000000Y-115725000D03*
D11*
X87500000Y-115725000D03*
X90000000Y-115725000D03*
%TD*%
D13*
%TO.C,SW1*%
X82420000Y-142500000D03*
D14*
X87500000Y-142500000D03*
D13*
X92580000Y-142500000D03*
D15*
X90040000Y-137420000D03*
X83690000Y-139960000D03*
%TD*%
D16*
%TO.C,SW2*%
X62500000Y-147200000D03*
X62500000Y-142500000D03*
X62500000Y-137800000D03*
%TD*%
D17*
%TO.C,J0*%
X55000000Y-73200000D03*
%TD*%
D18*
%TO.C,C1*%
X84144888Y-48875000D03*
D19*
X86144888Y-48875000D03*
%TD*%
D18*
%TO.C,U1*%
X94400000Y-83775000D03*
D20*
X94400000Y-86315000D03*
X94400000Y-88855000D03*
X94400000Y-91395000D03*
X94400000Y-93935000D03*
X94400000Y-96475000D03*
X94400000Y-99015000D03*
X86780000Y-99015000D03*
X86780000Y-96475000D03*
X86780000Y-93935000D03*
X86780000Y-91395000D03*
X86780000Y-88855000D03*
X86780000Y-86315000D03*
X86780000Y-83775000D03*
%TD*%
D21*
%TO.C,D1*%
X97280000Y-68900000D03*
D22*
X87120000Y-68900000D03*
%TD*%
D19*
%TO.C,R5*%
X91310000Y-126700000D03*
D20*
X83690000Y-126700000D03*
%TD*%
D18*
%TO.C,D6*%
X78810000Y-109400000D03*
D20*
X71190000Y-109400000D03*
%TD*%
D19*
%TO.C,R32*%
X52390000Y-47200000D03*
D20*
X60010000Y-47200000D03*
%TD*%
D19*
%TO.C,R26*%
X60010000Y-56200000D03*
D20*
X52390000Y-56200000D03*
%TD*%
D19*
%TO.C,C8*%
X68400000Y-86400000D03*
X68400000Y-91400000D03*
%TD*%
D17*
%TO.C,J50*%
X52350000Y-161100000D03*
D23*
X54890000Y-161100000D03*
X57430000Y-161100000D03*
X59970000Y-161100000D03*
X62510000Y-161100000D03*
X65050000Y-161100000D03*
%TD*%
D19*
%TO.C,C3*%
X79200000Y-43800000D03*
X79200000Y-48800000D03*
%TD*%
%TO.C,C16*%
X68300000Y-53200000D03*
X63300000Y-53200000D03*
%TD*%
%TO.C,C14*%
X85000000Y-120700000D03*
X90000000Y-120700000D03*
%TD*%
%TO.C,C20*%
X68300000Y-47200000D03*
X63300000Y-47200000D03*
%TD*%
%TO.C,C19*%
X68300000Y-50200000D03*
X63300000Y-50200000D03*
%TD*%
%TO.C,R37*%
X70000000Y-158210000D03*
D20*
X70000000Y-150590000D03*
%TD*%
D19*
%TO.C,R34*%
X52550000Y-88485000D03*
D20*
X52550000Y-80865000D03*
%TD*%
D19*
%TO.C,C12*%
X83300000Y-58400000D03*
X83300000Y-63400000D03*
%TD*%
%TO.C,R29*%
X55190000Y-102200000D03*
D20*
X62810000Y-102200000D03*
%TD*%
D19*
%TO.C,R19*%
X63200000Y-70210000D03*
D20*
X63200000Y-62590000D03*
%TD*%
D19*
%TO.C,R10*%
X83100000Y-68190000D03*
D20*
X83100000Y-75810000D03*
%TD*%
D19*
%TO.C,R15*%
X71190000Y-105000000D03*
D20*
X78810000Y-105000000D03*
%TD*%
D19*
%TO.C,R14*%
X71580000Y-61200000D03*
D20*
X79200000Y-61200000D03*
%TD*%
D19*
%TO.C,R22*%
X66200000Y-73490000D03*
D20*
X66200000Y-81110000D03*
%TD*%
D24*
%TO.C,J200*%
X93330000Y-154352500D03*
D13*
X90790000Y-154352500D03*
X88250000Y-154352500D03*
X85710000Y-154352500D03*
X83170000Y-154352500D03*
X93330000Y-151812500D03*
X90790000Y-151812500D03*
X88250000Y-151812500D03*
X85710000Y-151812500D03*
X83170000Y-151812500D03*
%TD*%
D18*
%TO.C,U3*%
X63200000Y-83775000D03*
D20*
X63200000Y-86315000D03*
X63200000Y-88855000D03*
X63200000Y-91395000D03*
X63200000Y-93935000D03*
X63200000Y-96475000D03*
X63200000Y-99015000D03*
X55580000Y-99015000D03*
X55580000Y-96475000D03*
X55580000Y-93935000D03*
X55580000Y-91395000D03*
X55580000Y-88855000D03*
X55580000Y-86315000D03*
X55580000Y-83775000D03*
%TD*%
D19*
%TO.C,C15*%
X60500000Y-63900000D03*
X60500000Y-68900000D03*
%TD*%
%TO.C,C17*%
X68300000Y-56200000D03*
X63300000Y-56200000D03*
%TD*%
%TO.C,C18*%
X68300000Y-59200000D03*
X63300000Y-59200000D03*
%TD*%
%TO.C,R4*%
X60000000Y-150580000D03*
D20*
X60000000Y-158200000D03*
%TD*%
D19*
%TO.C,R17*%
X77500000Y-144210000D03*
D20*
X77500000Y-136590000D03*
%TD*%
D25*
%TO.C,Q3*%
X52460000Y-63840000D03*
D26*
X55000000Y-63840000D03*
X57540000Y-63840000D03*
%TD*%
D19*
%TO.C,R25*%
X60010000Y-53200000D03*
D20*
X52390000Y-53200000D03*
%TD*%
D19*
%TO.C,R28*%
X66300000Y-93590000D03*
D20*
X66300000Y-101210000D03*
%TD*%
D19*
%TO.C,R1*%
X84890000Y-80600000D03*
D20*
X92510000Y-80600000D03*
%TD*%
D19*
%TO.C,R16*%
X97500000Y-144410000D03*
D20*
X97500000Y-136790000D03*
%TD*%
D19*
%TO.C,C10*%
X52600000Y-75800000D03*
X57600000Y-75800000D03*
%TD*%
%TO.C,R33*%
X52390000Y-44200000D03*
D20*
X60010000Y-44200000D03*
%TD*%
D19*
%TO.C,R11*%
X94510000Y-74600000D03*
D20*
X86890000Y-74600000D03*
%TD*%
D19*
%TO.C,R7*%
X69910000Y-131400000D03*
D20*
X62290000Y-131400000D03*
%TD*%
D19*
%TO.C,R13*%
X97500000Y-101790000D03*
D20*
X97500000Y-109410000D03*
%TD*%
D19*
%TO.C,C13*%
X75700000Y-101900000D03*
X70700000Y-101900000D03*
%TD*%
D18*
%TO.C,C2*%
X86155114Y-54475000D03*
D19*
X84155114Y-54475000D03*
%TD*%
%TO.C,C21*%
X68300000Y-44200000D03*
X63300000Y-44200000D03*
%TD*%
%TO.C,R23*%
X73000000Y-158210000D03*
D20*
X73000000Y-150590000D03*
%TD*%
D25*
%TO.C,Q1*%
X72660000Y-52000000D03*
D26*
X75200000Y-52000000D03*
X77740000Y-52000000D03*
%TD*%
D19*
%TO.C,R21*%
X60200000Y-81110000D03*
D20*
X60200000Y-73490000D03*
%TD*%
D19*
%TO.C,C7*%
X81600000Y-88975000D03*
X81600000Y-93975000D03*
%TD*%
D27*
%TO.C,Q2*%
X83250000Y-96700000D03*
D28*
X83250000Y-97970000D03*
X83250000Y-99240000D03*
%TD*%
D19*
%TO.C,R31*%
X52390000Y-50200000D03*
D20*
X60010000Y-50200000D03*
%TD*%
D19*
%TO.C,R2*%
X97500000Y-79235000D03*
D20*
X97500000Y-71615000D03*
%TD*%
D19*
%TO.C,R3*%
X97500000Y-83800000D03*
D20*
X97500000Y-91420000D03*
%TD*%
D18*
%TO.C,D5*%
X94510000Y-71800000D03*
D20*
X86890000Y-71800000D03*
%TD*%
D21*
%TO.C,D2*%
X87120000Y-44200000D03*
D22*
X97280000Y-44200000D03*
%TD*%
D19*
%TO.C,R36*%
X54100000Y-114510000D03*
D20*
X54100000Y-106890000D03*
%TD*%
D19*
%TO.C,R38*%
X79210000Y-58200000D03*
D20*
X71590000Y-58200000D03*
%TD*%
D19*
%TO.C,R8*%
X80610000Y-131400000D03*
D20*
X72990000Y-131400000D03*
%TD*%
D19*
%TO.C,R9*%
X71590000Y-64200000D03*
D20*
X79210000Y-64200000D03*
%TD*%
D19*
%TO.C,R35*%
X54100000Y-116690000D03*
D20*
X54100000Y-124310000D03*
%TD*%
D17*
%TO.C,J60*%
X81350000Y-161100000D03*
D23*
X78810000Y-161100000D03*
X76270000Y-161100000D03*
X73730000Y-161100000D03*
X71190000Y-161100000D03*
X68650000Y-161100000D03*
%TD*%
D29*
%TO.C,J100*%
X92647500Y-61680000D03*
D13*
X95187500Y-61680000D03*
X92647500Y-59140000D03*
X95187500Y-59140000D03*
X92647500Y-56600000D03*
X95187500Y-56600000D03*
X92647500Y-54060000D03*
X95187500Y-54060000D03*
X92647500Y-51520000D03*
X95187500Y-51520000D03*
%TD*%
D19*
%TO.C,R27*%
X60010000Y-59200000D03*
D20*
X52390000Y-59200000D03*
%TD*%
D18*
%TO.C,U2*%
X78800000Y-83775000D03*
D20*
X78800000Y-86315000D03*
X78800000Y-88855000D03*
X78800000Y-91395000D03*
X78800000Y-93935000D03*
X78800000Y-96475000D03*
X78800000Y-99015000D03*
X71180000Y-99015000D03*
X71180000Y-96475000D03*
X71180000Y-93935000D03*
X71180000Y-91395000D03*
X71180000Y-88855000D03*
X71180000Y-86315000D03*
X71180000Y-83775000D03*
%TD*%
D19*
%TO.C,C6*%
X84000000Y-86400000D03*
X84000000Y-91400000D03*
%TD*%
%TO.C,R18*%
X65000000Y-158185000D03*
D20*
X65000000Y-150565000D03*
%TD*%
D18*
%TO.C,D4*%
X68000000Y-136590000D03*
D20*
X68000000Y-144210000D03*
%TD*%
D19*
%TO.C,R6*%
X91310000Y-131400000D03*
D20*
X83690000Y-131400000D03*
%TD*%
D19*
%TO.C,R12*%
X97500000Y-112700000D03*
D20*
X97500000Y-120320000D03*
%TD*%
D19*
%TO.C,C11*%
X88200000Y-77600000D03*
X93200000Y-77600000D03*
%TD*%
%TO.C,C4*%
X86100000Y-58400000D03*
X86100000Y-63400000D03*
%TD*%
%TO.C,C9*%
X66000000Y-91400000D03*
X66000000Y-86400000D03*
%TD*%
%TO.C,R20*%
X66200000Y-70210000D03*
D20*
X66200000Y-62590000D03*
%TD*%
D19*
%TO.C,R30*%
X76000000Y-158210000D03*
D20*
X76000000Y-150590000D03*
%TD*%
D19*
%TO.C,R24*%
X63200000Y-73490000D03*
D20*
X63200000Y-81110000D03*
%TD*%
D17*
%TO.C,J70*%
X97650000Y-161100000D03*
D23*
X95110000Y-161100000D03*
X92570000Y-161100000D03*
X90030000Y-161100000D03*
X87490000Y-161100000D03*
X84950000Y-161100000D03*
%TD*%
D19*
%TO.C,C5*%
X93100000Y-101900000D03*
X88100000Y-101900000D03*
%TD*%
M02*
