%TF.GenerationSoftware,KiCad,Pcbnew,8.0.5*%
%TF.CreationDate,2024-12-04T18:38:04+01:00*%
%TF.ProjectId,DMH_S_H_Noise_PCB,444d485f-535f-4485-9f4e-6f6973655f50,1*%
%TF.SameCoordinates,Original*%
%TF.FileFunction,Drillmap*%
%TF.FilePolarity,Positive*%
%FSLAX45Y45*%
G04 Gerber Fmt 4.5, Leading zero omitted, Abs format (unit mm)*
G04 Created by KiCad (PCBNEW 8.0.5) date 2024-12-04 18:38:04*
%MOMM*%
%LPD*%
G01*
G04 APERTURE LIST*
%ADD10C,0.050000*%
%ADD11C,0.200000*%
%ADD12C,0.170000*%
%ADD13C,0.400000*%
G04 APERTURE END LIST*
D10*
X5100000Y-4250000D02*
X9900000Y-4250000D01*
X9900000Y-16300000D01*
X5100000Y-16300000D01*
X5100000Y-4250000D01*
D11*
D12*
X8157000Y-14165000D02*
X8327000Y-14335000D01*
X8327000Y-14165000D02*
X8157000Y-14335000D01*
X9173000Y-14165000D02*
X9343000Y-14335000D01*
X9343000Y-14165000D02*
X9173000Y-14335000D01*
D13*
X8950000Y-14250000D02*
G75*
G02*
X8550000Y-14250000I-200000J0D01*
G01*
X8550000Y-14250000D02*
G75*
G02*
X8950000Y-14250000I200000J0D01*
G01*
D11*
X5358277Y-16613984D02*
X5358277Y-16413984D01*
X5358277Y-16413984D02*
X5405896Y-16413984D01*
X5405896Y-16413984D02*
X5434467Y-16423508D01*
X5434467Y-16423508D02*
X5453515Y-16442555D01*
X5453515Y-16442555D02*
X5463039Y-16461603D01*
X5463039Y-16461603D02*
X5472563Y-16499698D01*
X5472563Y-16499698D02*
X5472563Y-16528269D01*
X5472563Y-16528269D02*
X5463039Y-16566365D01*
X5463039Y-16566365D02*
X5453515Y-16585412D01*
X5453515Y-16585412D02*
X5434467Y-16604460D01*
X5434467Y-16604460D02*
X5405896Y-16613984D01*
X5405896Y-16613984D02*
X5358277Y-16613984D01*
X5558277Y-16613984D02*
X5558277Y-16480650D01*
X5558277Y-16518746D02*
X5567801Y-16499698D01*
X5567801Y-16499698D02*
X5577324Y-16490174D01*
X5577324Y-16490174D02*
X5596372Y-16480650D01*
X5596372Y-16480650D02*
X5615420Y-16480650D01*
X5682086Y-16613984D02*
X5682086Y-16480650D01*
X5682086Y-16413984D02*
X5672562Y-16423508D01*
X5672562Y-16423508D02*
X5682086Y-16433031D01*
X5682086Y-16433031D02*
X5691610Y-16423508D01*
X5691610Y-16423508D02*
X5682086Y-16413984D01*
X5682086Y-16413984D02*
X5682086Y-16433031D01*
X5805896Y-16613984D02*
X5786848Y-16604460D01*
X5786848Y-16604460D02*
X5777324Y-16585412D01*
X5777324Y-16585412D02*
X5777324Y-16413984D01*
X5910658Y-16613984D02*
X5891610Y-16604460D01*
X5891610Y-16604460D02*
X5882086Y-16585412D01*
X5882086Y-16585412D02*
X5882086Y-16413984D01*
X6139229Y-16613984D02*
X6139229Y-16413984D01*
X6139229Y-16413984D02*
X6205896Y-16556841D01*
X6205896Y-16556841D02*
X6272562Y-16413984D01*
X6272562Y-16413984D02*
X6272562Y-16613984D01*
X6453515Y-16613984D02*
X6453515Y-16509222D01*
X6453515Y-16509222D02*
X6443991Y-16490174D01*
X6443991Y-16490174D02*
X6424943Y-16480650D01*
X6424943Y-16480650D02*
X6386848Y-16480650D01*
X6386848Y-16480650D02*
X6367801Y-16490174D01*
X6453515Y-16604460D02*
X6434467Y-16613984D01*
X6434467Y-16613984D02*
X6386848Y-16613984D01*
X6386848Y-16613984D02*
X6367801Y-16604460D01*
X6367801Y-16604460D02*
X6358277Y-16585412D01*
X6358277Y-16585412D02*
X6358277Y-16566365D01*
X6358277Y-16566365D02*
X6367801Y-16547317D01*
X6367801Y-16547317D02*
X6386848Y-16537793D01*
X6386848Y-16537793D02*
X6434467Y-16537793D01*
X6434467Y-16537793D02*
X6453515Y-16528269D01*
X6548753Y-16480650D02*
X6548753Y-16680650D01*
X6548753Y-16490174D02*
X6567801Y-16480650D01*
X6567801Y-16480650D02*
X6605896Y-16480650D01*
X6605896Y-16480650D02*
X6624943Y-16490174D01*
X6624943Y-16490174D02*
X6634467Y-16499698D01*
X6634467Y-16499698D02*
X6643991Y-16518746D01*
X6643991Y-16518746D02*
X6643991Y-16575888D01*
X6643991Y-16575888D02*
X6634467Y-16594936D01*
X6634467Y-16594936D02*
X6624943Y-16604460D01*
X6624943Y-16604460D02*
X6605896Y-16613984D01*
X6605896Y-16613984D02*
X6567801Y-16613984D01*
X6567801Y-16613984D02*
X6548753Y-16604460D01*
X6729705Y-16594936D02*
X6739229Y-16604460D01*
X6739229Y-16604460D02*
X6729705Y-16613984D01*
X6729705Y-16613984D02*
X6720182Y-16604460D01*
X6720182Y-16604460D02*
X6729705Y-16594936D01*
X6729705Y-16594936D02*
X6729705Y-16613984D01*
X6729705Y-16490174D02*
X6739229Y-16499698D01*
X6739229Y-16499698D02*
X6729705Y-16509222D01*
X6729705Y-16509222D02*
X6720182Y-16499698D01*
X6720182Y-16499698D02*
X6729705Y-16490174D01*
X6729705Y-16490174D02*
X6729705Y-16509222D01*
D12*
X4927500Y-16857500D02*
X5097500Y-17027500D01*
X5097500Y-16857500D02*
X4927500Y-17027500D01*
D11*
X5463039Y-17033984D02*
X5348753Y-17033984D01*
X5405896Y-17033984D02*
X5405896Y-16833984D01*
X5405896Y-16833984D02*
X5386848Y-16862555D01*
X5386848Y-16862555D02*
X5367801Y-16881603D01*
X5367801Y-16881603D02*
X5348753Y-16891127D01*
X5548753Y-17014936D02*
X5558277Y-17024460D01*
X5558277Y-17024460D02*
X5548753Y-17033984D01*
X5548753Y-17033984D02*
X5539229Y-17024460D01*
X5539229Y-17024460D02*
X5548753Y-17014936D01*
X5548753Y-17014936D02*
X5548753Y-17033984D01*
X5624943Y-16833984D02*
X5758277Y-16833984D01*
X5758277Y-16833984D02*
X5672562Y-17033984D01*
X5872562Y-16833984D02*
X5891610Y-16833984D01*
X5891610Y-16833984D02*
X5910658Y-16843508D01*
X5910658Y-16843508D02*
X5920182Y-16853031D01*
X5920182Y-16853031D02*
X5929705Y-16872079D01*
X5929705Y-16872079D02*
X5939229Y-16910174D01*
X5939229Y-16910174D02*
X5939229Y-16957793D01*
X5939229Y-16957793D02*
X5929705Y-16995889D01*
X5929705Y-16995889D02*
X5920182Y-17014936D01*
X5920182Y-17014936D02*
X5910658Y-17024460D01*
X5910658Y-17024460D02*
X5891610Y-17033984D01*
X5891610Y-17033984D02*
X5872562Y-17033984D01*
X5872562Y-17033984D02*
X5853515Y-17024460D01*
X5853515Y-17024460D02*
X5843991Y-17014936D01*
X5843991Y-17014936D02*
X5834467Y-16995889D01*
X5834467Y-16995889D02*
X5824943Y-16957793D01*
X5824943Y-16957793D02*
X5824943Y-16910174D01*
X5824943Y-16910174D02*
X5834467Y-16872079D01*
X5834467Y-16872079D02*
X5843991Y-16853031D01*
X5843991Y-16853031D02*
X5853515Y-16843508D01*
X5853515Y-16843508D02*
X5872562Y-16833984D01*
X6063039Y-16833984D02*
X6082086Y-16833984D01*
X6082086Y-16833984D02*
X6101134Y-16843508D01*
X6101134Y-16843508D02*
X6110658Y-16853031D01*
X6110658Y-16853031D02*
X6120182Y-16872079D01*
X6120182Y-16872079D02*
X6129705Y-16910174D01*
X6129705Y-16910174D02*
X6129705Y-16957793D01*
X6129705Y-16957793D02*
X6120182Y-16995889D01*
X6120182Y-16995889D02*
X6110658Y-17014936D01*
X6110658Y-17014936D02*
X6101134Y-17024460D01*
X6101134Y-17024460D02*
X6082086Y-17033984D01*
X6082086Y-17033984D02*
X6063039Y-17033984D01*
X6063039Y-17033984D02*
X6043991Y-17024460D01*
X6043991Y-17024460D02*
X6034467Y-17014936D01*
X6034467Y-17014936D02*
X6024943Y-16995889D01*
X6024943Y-16995889D02*
X6015420Y-16957793D01*
X6015420Y-16957793D02*
X6015420Y-16910174D01*
X6015420Y-16910174D02*
X6024943Y-16872079D01*
X6024943Y-16872079D02*
X6034467Y-16853031D01*
X6034467Y-16853031D02*
X6043991Y-16843508D01*
X6043991Y-16843508D02*
X6063039Y-16833984D01*
X6215420Y-17033984D02*
X6215420Y-16900650D01*
X6215420Y-16919698D02*
X6224943Y-16910174D01*
X6224943Y-16910174D02*
X6243991Y-16900650D01*
X6243991Y-16900650D02*
X6272563Y-16900650D01*
X6272563Y-16900650D02*
X6291610Y-16910174D01*
X6291610Y-16910174D02*
X6301134Y-16929222D01*
X6301134Y-16929222D02*
X6301134Y-17033984D01*
X6301134Y-16929222D02*
X6310658Y-16910174D01*
X6310658Y-16910174D02*
X6329705Y-16900650D01*
X6329705Y-16900650D02*
X6358277Y-16900650D01*
X6358277Y-16900650D02*
X6377324Y-16910174D01*
X6377324Y-16910174D02*
X6386848Y-16929222D01*
X6386848Y-16929222D02*
X6386848Y-17033984D01*
X6482086Y-17033984D02*
X6482086Y-16900650D01*
X6482086Y-16919698D02*
X6491610Y-16910174D01*
X6491610Y-16910174D02*
X6510658Y-16900650D01*
X6510658Y-16900650D02*
X6539229Y-16900650D01*
X6539229Y-16900650D02*
X6558277Y-16910174D01*
X6558277Y-16910174D02*
X6567801Y-16929222D01*
X6567801Y-16929222D02*
X6567801Y-17033984D01*
X6567801Y-16929222D02*
X6577324Y-16910174D01*
X6577324Y-16910174D02*
X6596372Y-16900650D01*
X6596372Y-16900650D02*
X6624943Y-16900650D01*
X6624943Y-16900650D02*
X6643991Y-16910174D01*
X6643991Y-16910174D02*
X6653515Y-16929222D01*
X6653515Y-16929222D02*
X6653515Y-17033984D01*
X7043991Y-16824460D02*
X6872563Y-17081603D01*
X7301134Y-16833984D02*
X7320182Y-16833984D01*
X7320182Y-16833984D02*
X7339229Y-16843508D01*
X7339229Y-16843508D02*
X7348753Y-16853031D01*
X7348753Y-16853031D02*
X7358277Y-16872079D01*
X7358277Y-16872079D02*
X7367801Y-16910174D01*
X7367801Y-16910174D02*
X7367801Y-16957793D01*
X7367801Y-16957793D02*
X7358277Y-16995889D01*
X7358277Y-16995889D02*
X7348753Y-17014936D01*
X7348753Y-17014936D02*
X7339229Y-17024460D01*
X7339229Y-17024460D02*
X7320182Y-17033984D01*
X7320182Y-17033984D02*
X7301134Y-17033984D01*
X7301134Y-17033984D02*
X7282086Y-17024460D01*
X7282086Y-17024460D02*
X7272563Y-17014936D01*
X7272563Y-17014936D02*
X7263039Y-16995889D01*
X7263039Y-16995889D02*
X7253515Y-16957793D01*
X7253515Y-16957793D02*
X7253515Y-16910174D01*
X7253515Y-16910174D02*
X7263039Y-16872079D01*
X7263039Y-16872079D02*
X7272563Y-16853031D01*
X7272563Y-16853031D02*
X7282086Y-16843508D01*
X7282086Y-16843508D02*
X7301134Y-16833984D01*
X7453515Y-17014936D02*
X7463039Y-17024460D01*
X7463039Y-17024460D02*
X7453515Y-17033984D01*
X7453515Y-17033984D02*
X7443991Y-17024460D01*
X7443991Y-17024460D02*
X7453515Y-17014936D01*
X7453515Y-17014936D02*
X7453515Y-17033984D01*
X7586848Y-16833984D02*
X7605896Y-16833984D01*
X7605896Y-16833984D02*
X7624944Y-16843508D01*
X7624944Y-16843508D02*
X7634467Y-16853031D01*
X7634467Y-16853031D02*
X7643991Y-16872079D01*
X7643991Y-16872079D02*
X7653515Y-16910174D01*
X7653515Y-16910174D02*
X7653515Y-16957793D01*
X7653515Y-16957793D02*
X7643991Y-16995889D01*
X7643991Y-16995889D02*
X7634467Y-17014936D01*
X7634467Y-17014936D02*
X7624944Y-17024460D01*
X7624944Y-17024460D02*
X7605896Y-17033984D01*
X7605896Y-17033984D02*
X7586848Y-17033984D01*
X7586848Y-17033984D02*
X7567801Y-17024460D01*
X7567801Y-17024460D02*
X7558277Y-17014936D01*
X7558277Y-17014936D02*
X7548753Y-16995889D01*
X7548753Y-16995889D02*
X7539229Y-16957793D01*
X7539229Y-16957793D02*
X7539229Y-16910174D01*
X7539229Y-16910174D02*
X7548753Y-16872079D01*
X7548753Y-16872079D02*
X7558277Y-16853031D01*
X7558277Y-16853031D02*
X7567801Y-16843508D01*
X7567801Y-16843508D02*
X7586848Y-16833984D01*
X7824944Y-16833984D02*
X7786848Y-16833984D01*
X7786848Y-16833984D02*
X7767801Y-16843508D01*
X7767801Y-16843508D02*
X7758277Y-16853031D01*
X7758277Y-16853031D02*
X7739229Y-16881603D01*
X7739229Y-16881603D02*
X7729706Y-16919698D01*
X7729706Y-16919698D02*
X7729706Y-16995889D01*
X7729706Y-16995889D02*
X7739229Y-17014936D01*
X7739229Y-17014936D02*
X7748753Y-17024460D01*
X7748753Y-17024460D02*
X7767801Y-17033984D01*
X7767801Y-17033984D02*
X7805896Y-17033984D01*
X7805896Y-17033984D02*
X7824944Y-17024460D01*
X7824944Y-17024460D02*
X7834467Y-17014936D01*
X7834467Y-17014936D02*
X7843991Y-16995889D01*
X7843991Y-16995889D02*
X7843991Y-16948270D01*
X7843991Y-16948270D02*
X7834467Y-16929222D01*
X7834467Y-16929222D02*
X7824944Y-16919698D01*
X7824944Y-16919698D02*
X7805896Y-16910174D01*
X7805896Y-16910174D02*
X7767801Y-16910174D01*
X7767801Y-16910174D02*
X7748753Y-16919698D01*
X7748753Y-16919698D02*
X7739229Y-16929222D01*
X7739229Y-16929222D02*
X7729706Y-16948270D01*
X8015420Y-16833984D02*
X7977325Y-16833984D01*
X7977325Y-16833984D02*
X7958277Y-16843508D01*
X7958277Y-16843508D02*
X7948753Y-16853031D01*
X7948753Y-16853031D02*
X7929706Y-16881603D01*
X7929706Y-16881603D02*
X7920182Y-16919698D01*
X7920182Y-16919698D02*
X7920182Y-16995889D01*
X7920182Y-16995889D02*
X7929706Y-17014936D01*
X7929706Y-17014936D02*
X7939229Y-17024460D01*
X7939229Y-17024460D02*
X7958277Y-17033984D01*
X7958277Y-17033984D02*
X7996372Y-17033984D01*
X7996372Y-17033984D02*
X8015420Y-17024460D01*
X8015420Y-17024460D02*
X8024944Y-17014936D01*
X8024944Y-17014936D02*
X8034467Y-16995889D01*
X8034467Y-16995889D02*
X8034467Y-16948270D01*
X8034467Y-16948270D02*
X8024944Y-16929222D01*
X8024944Y-16929222D02*
X8015420Y-16919698D01*
X8015420Y-16919698D02*
X7996372Y-16910174D01*
X7996372Y-16910174D02*
X7958277Y-16910174D01*
X7958277Y-16910174D02*
X7939229Y-16919698D01*
X7939229Y-16919698D02*
X7929706Y-16929222D01*
X7929706Y-16929222D02*
X7920182Y-16948270D01*
X8129706Y-17033984D02*
X8167801Y-17033984D01*
X8167801Y-17033984D02*
X8186848Y-17024460D01*
X8186848Y-17024460D02*
X8196372Y-17014936D01*
X8196372Y-17014936D02*
X8215420Y-16986365D01*
X8215420Y-16986365D02*
X8224944Y-16948270D01*
X8224944Y-16948270D02*
X8224944Y-16872079D01*
X8224944Y-16872079D02*
X8215420Y-16853031D01*
X8215420Y-16853031D02*
X8205896Y-16843508D01*
X8205896Y-16843508D02*
X8186848Y-16833984D01*
X8186848Y-16833984D02*
X8148753Y-16833984D01*
X8148753Y-16833984D02*
X8129706Y-16843508D01*
X8129706Y-16843508D02*
X8120182Y-16853031D01*
X8120182Y-16853031D02*
X8110658Y-16872079D01*
X8110658Y-16872079D02*
X8110658Y-16919698D01*
X8110658Y-16919698D02*
X8120182Y-16938746D01*
X8120182Y-16938746D02*
X8129706Y-16948270D01*
X8129706Y-16948270D02*
X8148753Y-16957793D01*
X8148753Y-16957793D02*
X8186848Y-16957793D01*
X8186848Y-16957793D02*
X8205896Y-16948270D01*
X8205896Y-16948270D02*
X8215420Y-16938746D01*
X8215420Y-16938746D02*
X8224944Y-16919698D01*
X8301134Y-16833984D02*
X8301134Y-16872079D01*
X8377325Y-16833984D02*
X8377325Y-16872079D01*
X8672563Y-17110174D02*
X8663039Y-17100650D01*
X8663039Y-17100650D02*
X8643991Y-17072079D01*
X8643991Y-17072079D02*
X8634468Y-17053031D01*
X8634468Y-17053031D02*
X8624944Y-17024460D01*
X8624944Y-17024460D02*
X8615420Y-16976841D01*
X8615420Y-16976841D02*
X8615420Y-16938746D01*
X8615420Y-16938746D02*
X8624944Y-16891127D01*
X8624944Y-16891127D02*
X8634468Y-16862555D01*
X8634468Y-16862555D02*
X8643991Y-16843508D01*
X8643991Y-16843508D02*
X8663039Y-16814936D01*
X8663039Y-16814936D02*
X8672563Y-16805412D01*
X8739230Y-16853031D02*
X8748753Y-16843508D01*
X8748753Y-16843508D02*
X8767801Y-16833984D01*
X8767801Y-16833984D02*
X8815420Y-16833984D01*
X8815420Y-16833984D02*
X8834468Y-16843508D01*
X8834468Y-16843508D02*
X8843991Y-16853031D01*
X8843991Y-16853031D02*
X8853515Y-16872079D01*
X8853515Y-16872079D02*
X8853515Y-16891127D01*
X8853515Y-16891127D02*
X8843991Y-16919698D01*
X8843991Y-16919698D02*
X8729706Y-17033984D01*
X8729706Y-17033984D02*
X8853515Y-17033984D01*
X9091611Y-17033984D02*
X9091611Y-16833984D01*
X9177325Y-17033984D02*
X9177325Y-16929222D01*
X9177325Y-16929222D02*
X9167801Y-16910174D01*
X9167801Y-16910174D02*
X9148753Y-16900650D01*
X9148753Y-16900650D02*
X9120182Y-16900650D01*
X9120182Y-16900650D02*
X9101134Y-16910174D01*
X9101134Y-16910174D02*
X9091611Y-16919698D01*
X9301134Y-17033984D02*
X9282087Y-17024460D01*
X9282087Y-17024460D02*
X9272563Y-17014936D01*
X9272563Y-17014936D02*
X9263039Y-16995889D01*
X9263039Y-16995889D02*
X9263039Y-16938746D01*
X9263039Y-16938746D02*
X9272563Y-16919698D01*
X9272563Y-16919698D02*
X9282087Y-16910174D01*
X9282087Y-16910174D02*
X9301134Y-16900650D01*
X9301134Y-16900650D02*
X9329706Y-16900650D01*
X9329706Y-16900650D02*
X9348753Y-16910174D01*
X9348753Y-16910174D02*
X9358277Y-16919698D01*
X9358277Y-16919698D02*
X9367801Y-16938746D01*
X9367801Y-16938746D02*
X9367801Y-16995889D01*
X9367801Y-16995889D02*
X9358277Y-17014936D01*
X9358277Y-17014936D02*
X9348753Y-17024460D01*
X9348753Y-17024460D02*
X9329706Y-17033984D01*
X9329706Y-17033984D02*
X9301134Y-17033984D01*
X9482087Y-17033984D02*
X9463039Y-17024460D01*
X9463039Y-17024460D02*
X9453515Y-17005412D01*
X9453515Y-17005412D02*
X9453515Y-16833984D01*
X9634468Y-17024460D02*
X9615420Y-17033984D01*
X9615420Y-17033984D02*
X9577325Y-17033984D01*
X9577325Y-17033984D02*
X9558277Y-17024460D01*
X9558277Y-17024460D02*
X9548753Y-17005412D01*
X9548753Y-17005412D02*
X9548753Y-16929222D01*
X9548753Y-16929222D02*
X9558277Y-16910174D01*
X9558277Y-16910174D02*
X9577325Y-16900650D01*
X9577325Y-16900650D02*
X9615420Y-16900650D01*
X9615420Y-16900650D02*
X9634468Y-16910174D01*
X9634468Y-16910174D02*
X9643992Y-16929222D01*
X9643992Y-16929222D02*
X9643992Y-16948270D01*
X9643992Y-16948270D02*
X9548753Y-16967317D01*
X9720182Y-17024460D02*
X9739230Y-17033984D01*
X9739230Y-17033984D02*
X9777325Y-17033984D01*
X9777325Y-17033984D02*
X9796373Y-17024460D01*
X9796373Y-17024460D02*
X9805896Y-17005412D01*
X9805896Y-17005412D02*
X9805896Y-16995889D01*
X9805896Y-16995889D02*
X9796373Y-16976841D01*
X9796373Y-16976841D02*
X9777325Y-16967317D01*
X9777325Y-16967317D02*
X9748753Y-16967317D01*
X9748753Y-16967317D02*
X9729706Y-16957793D01*
X9729706Y-16957793D02*
X9720182Y-16938746D01*
X9720182Y-16938746D02*
X9720182Y-16929222D01*
X9720182Y-16929222D02*
X9729706Y-16910174D01*
X9729706Y-16910174D02*
X9748753Y-16900650D01*
X9748753Y-16900650D02*
X9777325Y-16900650D01*
X9777325Y-16900650D02*
X9796373Y-16910174D01*
X9872563Y-17110174D02*
X9882087Y-17100650D01*
X9882087Y-17100650D02*
X9901134Y-17072079D01*
X9901134Y-17072079D02*
X9910658Y-17053031D01*
X9910658Y-17053031D02*
X9920182Y-17024460D01*
X9920182Y-17024460D02*
X9929706Y-16976841D01*
X9929706Y-16976841D02*
X9929706Y-16938746D01*
X9929706Y-16938746D02*
X9920182Y-16891127D01*
X9920182Y-16891127D02*
X9910658Y-16862555D01*
X9910658Y-16862555D02*
X9901134Y-16843508D01*
X9901134Y-16843508D02*
X9882087Y-16814936D01*
X9882087Y-16814936D02*
X9872563Y-16805412D01*
X10234468Y-17110174D02*
X10224944Y-17100650D01*
X10224944Y-17100650D02*
X10205896Y-17072079D01*
X10205896Y-17072079D02*
X10196373Y-17053031D01*
X10196373Y-17053031D02*
X10186849Y-17024460D01*
X10186849Y-17024460D02*
X10177325Y-16976841D01*
X10177325Y-16976841D02*
X10177325Y-16938746D01*
X10177325Y-16938746D02*
X10186849Y-16891127D01*
X10186849Y-16891127D02*
X10196373Y-16862555D01*
X10196373Y-16862555D02*
X10205896Y-16843508D01*
X10205896Y-16843508D02*
X10224944Y-16814936D01*
X10224944Y-16814936D02*
X10234468Y-16805412D01*
X10310658Y-16900650D02*
X10310658Y-17033984D01*
X10310658Y-16919698D02*
X10320182Y-16910174D01*
X10320182Y-16910174D02*
X10339230Y-16900650D01*
X10339230Y-16900650D02*
X10367801Y-16900650D01*
X10367801Y-16900650D02*
X10386849Y-16910174D01*
X10386849Y-16910174D02*
X10396373Y-16929222D01*
X10396373Y-16929222D02*
X10396373Y-17033984D01*
X10520182Y-17033984D02*
X10501134Y-17024460D01*
X10501134Y-17024460D02*
X10491611Y-17014936D01*
X10491611Y-17014936D02*
X10482087Y-16995889D01*
X10482087Y-16995889D02*
X10482087Y-16938746D01*
X10482087Y-16938746D02*
X10491611Y-16919698D01*
X10491611Y-16919698D02*
X10501134Y-16910174D01*
X10501134Y-16910174D02*
X10520182Y-16900650D01*
X10520182Y-16900650D02*
X10548754Y-16900650D01*
X10548754Y-16900650D02*
X10567801Y-16910174D01*
X10567801Y-16910174D02*
X10577325Y-16919698D01*
X10577325Y-16919698D02*
X10586849Y-16938746D01*
X10586849Y-16938746D02*
X10586849Y-16995889D01*
X10586849Y-16995889D02*
X10577325Y-17014936D01*
X10577325Y-17014936D02*
X10567801Y-17024460D01*
X10567801Y-17024460D02*
X10548754Y-17033984D01*
X10548754Y-17033984D02*
X10520182Y-17033984D01*
X10643992Y-16900650D02*
X10720182Y-16900650D01*
X10672563Y-16833984D02*
X10672563Y-17005412D01*
X10672563Y-17005412D02*
X10682087Y-17024460D01*
X10682087Y-17024460D02*
X10701134Y-17033984D01*
X10701134Y-17033984D02*
X10720182Y-17033984D01*
X10939230Y-16900650D02*
X10939230Y-17100650D01*
X10939230Y-16910174D02*
X10958277Y-16900650D01*
X10958277Y-16900650D02*
X10996373Y-16900650D01*
X10996373Y-16900650D02*
X11015420Y-16910174D01*
X11015420Y-16910174D02*
X11024944Y-16919698D01*
X11024944Y-16919698D02*
X11034468Y-16938746D01*
X11034468Y-16938746D02*
X11034468Y-16995889D01*
X11034468Y-16995889D02*
X11024944Y-17014936D01*
X11024944Y-17014936D02*
X11015420Y-17024460D01*
X11015420Y-17024460D02*
X10996373Y-17033984D01*
X10996373Y-17033984D02*
X10958277Y-17033984D01*
X10958277Y-17033984D02*
X10939230Y-17024460D01*
X11148754Y-17033984D02*
X11129706Y-17024460D01*
X11129706Y-17024460D02*
X11120182Y-17005412D01*
X11120182Y-17005412D02*
X11120182Y-16833984D01*
X11310658Y-17033984D02*
X11310658Y-16929222D01*
X11310658Y-16929222D02*
X11301134Y-16910174D01*
X11301134Y-16910174D02*
X11282087Y-16900650D01*
X11282087Y-16900650D02*
X11243992Y-16900650D01*
X11243992Y-16900650D02*
X11224944Y-16910174D01*
X11310658Y-17024460D02*
X11291611Y-17033984D01*
X11291611Y-17033984D02*
X11243992Y-17033984D01*
X11243992Y-17033984D02*
X11224944Y-17024460D01*
X11224944Y-17024460D02*
X11215420Y-17005412D01*
X11215420Y-17005412D02*
X11215420Y-16986365D01*
X11215420Y-16986365D02*
X11224944Y-16967317D01*
X11224944Y-16967317D02*
X11243992Y-16957793D01*
X11243992Y-16957793D02*
X11291611Y-16957793D01*
X11291611Y-16957793D02*
X11310658Y-16948270D01*
X11377325Y-16900650D02*
X11453515Y-16900650D01*
X11405896Y-16833984D02*
X11405896Y-17005412D01*
X11405896Y-17005412D02*
X11415420Y-17024460D01*
X11415420Y-17024460D02*
X11434468Y-17033984D01*
X11434468Y-17033984D02*
X11453515Y-17033984D01*
X11596373Y-17024460D02*
X11577325Y-17033984D01*
X11577325Y-17033984D02*
X11539230Y-17033984D01*
X11539230Y-17033984D02*
X11520182Y-17024460D01*
X11520182Y-17024460D02*
X11510658Y-17005412D01*
X11510658Y-17005412D02*
X11510658Y-16929222D01*
X11510658Y-16929222D02*
X11520182Y-16910174D01*
X11520182Y-16910174D02*
X11539230Y-16900650D01*
X11539230Y-16900650D02*
X11577325Y-16900650D01*
X11577325Y-16900650D02*
X11596373Y-16910174D01*
X11596373Y-16910174D02*
X11605896Y-16929222D01*
X11605896Y-16929222D02*
X11605896Y-16948270D01*
X11605896Y-16948270D02*
X11510658Y-16967317D01*
X11777325Y-17033984D02*
X11777325Y-16833984D01*
X11777325Y-17024460D02*
X11758277Y-17033984D01*
X11758277Y-17033984D02*
X11720182Y-17033984D01*
X11720182Y-17033984D02*
X11701134Y-17024460D01*
X11701134Y-17024460D02*
X11691611Y-17014936D01*
X11691611Y-17014936D02*
X11682087Y-16995889D01*
X11682087Y-16995889D02*
X11682087Y-16938746D01*
X11682087Y-16938746D02*
X11691611Y-16919698D01*
X11691611Y-16919698D02*
X11701134Y-16910174D01*
X11701134Y-16910174D02*
X11720182Y-16900650D01*
X11720182Y-16900650D02*
X11758277Y-16900650D01*
X11758277Y-16900650D02*
X11777325Y-16910174D01*
X11853515Y-17110174D02*
X11863039Y-17100650D01*
X11863039Y-17100650D02*
X11882087Y-17072079D01*
X11882087Y-17072079D02*
X11891611Y-17053031D01*
X11891611Y-17053031D02*
X11901134Y-17024460D01*
X11901134Y-17024460D02*
X11910658Y-16976841D01*
X11910658Y-16976841D02*
X11910658Y-16938746D01*
X11910658Y-16938746D02*
X11901134Y-16891127D01*
X11901134Y-16891127D02*
X11891611Y-16862555D01*
X11891611Y-16862555D02*
X11882087Y-16843508D01*
X11882087Y-16843508D02*
X11863039Y-16814936D01*
X11863039Y-16814936D02*
X11853515Y-16805412D01*
X5097500Y-17232500D02*
G75*
G02*
X4897500Y-17232500I-100000J0D01*
G01*
X4897500Y-17232500D02*
G75*
G02*
X5097500Y-17232500I100000J0D01*
G01*
X5443991Y-17190650D02*
X5443991Y-17323984D01*
X5396372Y-17114460D02*
X5348753Y-17257317D01*
X5348753Y-17257317D02*
X5472563Y-17257317D01*
X5548753Y-17304936D02*
X5558277Y-17314460D01*
X5558277Y-17314460D02*
X5548753Y-17323984D01*
X5548753Y-17323984D02*
X5539229Y-17314460D01*
X5539229Y-17314460D02*
X5548753Y-17304936D01*
X5548753Y-17304936D02*
X5548753Y-17323984D01*
X5682086Y-17123984D02*
X5701134Y-17123984D01*
X5701134Y-17123984D02*
X5720182Y-17133508D01*
X5720182Y-17133508D02*
X5729705Y-17143031D01*
X5729705Y-17143031D02*
X5739229Y-17162079D01*
X5739229Y-17162079D02*
X5748753Y-17200174D01*
X5748753Y-17200174D02*
X5748753Y-17247793D01*
X5748753Y-17247793D02*
X5739229Y-17285889D01*
X5739229Y-17285889D02*
X5729705Y-17304936D01*
X5729705Y-17304936D02*
X5720182Y-17314460D01*
X5720182Y-17314460D02*
X5701134Y-17323984D01*
X5701134Y-17323984D02*
X5682086Y-17323984D01*
X5682086Y-17323984D02*
X5663039Y-17314460D01*
X5663039Y-17314460D02*
X5653515Y-17304936D01*
X5653515Y-17304936D02*
X5643991Y-17285889D01*
X5643991Y-17285889D02*
X5634467Y-17247793D01*
X5634467Y-17247793D02*
X5634467Y-17200174D01*
X5634467Y-17200174D02*
X5643991Y-17162079D01*
X5643991Y-17162079D02*
X5653515Y-17143031D01*
X5653515Y-17143031D02*
X5663039Y-17133508D01*
X5663039Y-17133508D02*
X5682086Y-17123984D01*
X5872562Y-17123984D02*
X5891610Y-17123984D01*
X5891610Y-17123984D02*
X5910658Y-17133508D01*
X5910658Y-17133508D02*
X5920182Y-17143031D01*
X5920182Y-17143031D02*
X5929705Y-17162079D01*
X5929705Y-17162079D02*
X5939229Y-17200174D01*
X5939229Y-17200174D02*
X5939229Y-17247793D01*
X5939229Y-17247793D02*
X5929705Y-17285889D01*
X5929705Y-17285889D02*
X5920182Y-17304936D01*
X5920182Y-17304936D02*
X5910658Y-17314460D01*
X5910658Y-17314460D02*
X5891610Y-17323984D01*
X5891610Y-17323984D02*
X5872562Y-17323984D01*
X5872562Y-17323984D02*
X5853515Y-17314460D01*
X5853515Y-17314460D02*
X5843991Y-17304936D01*
X5843991Y-17304936D02*
X5834467Y-17285889D01*
X5834467Y-17285889D02*
X5824943Y-17247793D01*
X5824943Y-17247793D02*
X5824943Y-17200174D01*
X5824943Y-17200174D02*
X5834467Y-17162079D01*
X5834467Y-17162079D02*
X5843991Y-17143031D01*
X5843991Y-17143031D02*
X5853515Y-17133508D01*
X5853515Y-17133508D02*
X5872562Y-17123984D01*
X6063039Y-17123984D02*
X6082086Y-17123984D01*
X6082086Y-17123984D02*
X6101134Y-17133508D01*
X6101134Y-17133508D02*
X6110658Y-17143031D01*
X6110658Y-17143031D02*
X6120182Y-17162079D01*
X6120182Y-17162079D02*
X6129705Y-17200174D01*
X6129705Y-17200174D02*
X6129705Y-17247793D01*
X6129705Y-17247793D02*
X6120182Y-17285889D01*
X6120182Y-17285889D02*
X6110658Y-17304936D01*
X6110658Y-17304936D02*
X6101134Y-17314460D01*
X6101134Y-17314460D02*
X6082086Y-17323984D01*
X6082086Y-17323984D02*
X6063039Y-17323984D01*
X6063039Y-17323984D02*
X6043991Y-17314460D01*
X6043991Y-17314460D02*
X6034467Y-17304936D01*
X6034467Y-17304936D02*
X6024943Y-17285889D01*
X6024943Y-17285889D02*
X6015420Y-17247793D01*
X6015420Y-17247793D02*
X6015420Y-17200174D01*
X6015420Y-17200174D02*
X6024943Y-17162079D01*
X6024943Y-17162079D02*
X6034467Y-17143031D01*
X6034467Y-17143031D02*
X6043991Y-17133508D01*
X6043991Y-17133508D02*
X6063039Y-17123984D01*
X6215420Y-17323984D02*
X6215420Y-17190650D01*
X6215420Y-17209698D02*
X6224943Y-17200174D01*
X6224943Y-17200174D02*
X6243991Y-17190650D01*
X6243991Y-17190650D02*
X6272563Y-17190650D01*
X6272563Y-17190650D02*
X6291610Y-17200174D01*
X6291610Y-17200174D02*
X6301134Y-17219222D01*
X6301134Y-17219222D02*
X6301134Y-17323984D01*
X6301134Y-17219222D02*
X6310658Y-17200174D01*
X6310658Y-17200174D02*
X6329705Y-17190650D01*
X6329705Y-17190650D02*
X6358277Y-17190650D01*
X6358277Y-17190650D02*
X6377324Y-17200174D01*
X6377324Y-17200174D02*
X6386848Y-17219222D01*
X6386848Y-17219222D02*
X6386848Y-17323984D01*
X6482086Y-17323984D02*
X6482086Y-17190650D01*
X6482086Y-17209698D02*
X6491610Y-17200174D01*
X6491610Y-17200174D02*
X6510658Y-17190650D01*
X6510658Y-17190650D02*
X6539229Y-17190650D01*
X6539229Y-17190650D02*
X6558277Y-17200174D01*
X6558277Y-17200174D02*
X6567801Y-17219222D01*
X6567801Y-17219222D02*
X6567801Y-17323984D01*
X6567801Y-17219222D02*
X6577324Y-17200174D01*
X6577324Y-17200174D02*
X6596372Y-17190650D01*
X6596372Y-17190650D02*
X6624943Y-17190650D01*
X6624943Y-17190650D02*
X6643991Y-17200174D01*
X6643991Y-17200174D02*
X6653515Y-17219222D01*
X6653515Y-17219222D02*
X6653515Y-17323984D01*
X7043991Y-17114460D02*
X6872563Y-17371603D01*
X7301134Y-17123984D02*
X7320182Y-17123984D01*
X7320182Y-17123984D02*
X7339229Y-17133508D01*
X7339229Y-17133508D02*
X7348753Y-17143031D01*
X7348753Y-17143031D02*
X7358277Y-17162079D01*
X7358277Y-17162079D02*
X7367801Y-17200174D01*
X7367801Y-17200174D02*
X7367801Y-17247793D01*
X7367801Y-17247793D02*
X7358277Y-17285889D01*
X7358277Y-17285889D02*
X7348753Y-17304936D01*
X7348753Y-17304936D02*
X7339229Y-17314460D01*
X7339229Y-17314460D02*
X7320182Y-17323984D01*
X7320182Y-17323984D02*
X7301134Y-17323984D01*
X7301134Y-17323984D02*
X7282086Y-17314460D01*
X7282086Y-17314460D02*
X7272563Y-17304936D01*
X7272563Y-17304936D02*
X7263039Y-17285889D01*
X7263039Y-17285889D02*
X7253515Y-17247793D01*
X7253515Y-17247793D02*
X7253515Y-17200174D01*
X7253515Y-17200174D02*
X7263039Y-17162079D01*
X7263039Y-17162079D02*
X7272563Y-17143031D01*
X7272563Y-17143031D02*
X7282086Y-17133508D01*
X7282086Y-17133508D02*
X7301134Y-17123984D01*
X7453515Y-17304936D02*
X7463039Y-17314460D01*
X7463039Y-17314460D02*
X7453515Y-17323984D01*
X7453515Y-17323984D02*
X7443991Y-17314460D01*
X7443991Y-17314460D02*
X7453515Y-17304936D01*
X7453515Y-17304936D02*
X7453515Y-17323984D01*
X7653515Y-17323984D02*
X7539229Y-17323984D01*
X7596372Y-17323984D02*
X7596372Y-17123984D01*
X7596372Y-17123984D02*
X7577325Y-17152555D01*
X7577325Y-17152555D02*
X7558277Y-17171603D01*
X7558277Y-17171603D02*
X7539229Y-17181127D01*
X7834467Y-17123984D02*
X7739229Y-17123984D01*
X7739229Y-17123984D02*
X7729706Y-17219222D01*
X7729706Y-17219222D02*
X7739229Y-17209698D01*
X7739229Y-17209698D02*
X7758277Y-17200174D01*
X7758277Y-17200174D02*
X7805896Y-17200174D01*
X7805896Y-17200174D02*
X7824944Y-17209698D01*
X7824944Y-17209698D02*
X7834467Y-17219222D01*
X7834467Y-17219222D02*
X7843991Y-17238270D01*
X7843991Y-17238270D02*
X7843991Y-17285889D01*
X7843991Y-17285889D02*
X7834467Y-17304936D01*
X7834467Y-17304936D02*
X7824944Y-17314460D01*
X7824944Y-17314460D02*
X7805896Y-17323984D01*
X7805896Y-17323984D02*
X7758277Y-17323984D01*
X7758277Y-17323984D02*
X7739229Y-17314460D01*
X7739229Y-17314460D02*
X7729706Y-17304936D01*
X7910658Y-17123984D02*
X8043991Y-17123984D01*
X8043991Y-17123984D02*
X7958277Y-17323984D01*
X8215420Y-17123984D02*
X8120182Y-17123984D01*
X8120182Y-17123984D02*
X8110658Y-17219222D01*
X8110658Y-17219222D02*
X8120182Y-17209698D01*
X8120182Y-17209698D02*
X8139229Y-17200174D01*
X8139229Y-17200174D02*
X8186848Y-17200174D01*
X8186848Y-17200174D02*
X8205896Y-17209698D01*
X8205896Y-17209698D02*
X8215420Y-17219222D01*
X8215420Y-17219222D02*
X8224944Y-17238270D01*
X8224944Y-17238270D02*
X8224944Y-17285889D01*
X8224944Y-17285889D02*
X8215420Y-17304936D01*
X8215420Y-17304936D02*
X8205896Y-17314460D01*
X8205896Y-17314460D02*
X8186848Y-17323984D01*
X8186848Y-17323984D02*
X8139229Y-17323984D01*
X8139229Y-17323984D02*
X8120182Y-17314460D01*
X8120182Y-17314460D02*
X8110658Y-17304936D01*
X8301134Y-17123984D02*
X8301134Y-17162079D01*
X8377325Y-17123984D02*
X8377325Y-17162079D01*
X8672563Y-17400174D02*
X8663039Y-17390650D01*
X8663039Y-17390650D02*
X8643991Y-17362079D01*
X8643991Y-17362079D02*
X8634468Y-17343031D01*
X8634468Y-17343031D02*
X8624944Y-17314460D01*
X8624944Y-17314460D02*
X8615420Y-17266841D01*
X8615420Y-17266841D02*
X8615420Y-17228746D01*
X8615420Y-17228746D02*
X8624944Y-17181127D01*
X8624944Y-17181127D02*
X8634468Y-17152555D01*
X8634468Y-17152555D02*
X8643991Y-17133508D01*
X8643991Y-17133508D02*
X8663039Y-17104936D01*
X8663039Y-17104936D02*
X8672563Y-17095412D01*
X8853515Y-17323984D02*
X8739230Y-17323984D01*
X8796372Y-17323984D02*
X8796372Y-17123984D01*
X8796372Y-17123984D02*
X8777325Y-17152555D01*
X8777325Y-17152555D02*
X8758277Y-17171603D01*
X8758277Y-17171603D02*
X8739230Y-17181127D01*
X9091611Y-17323984D02*
X9091611Y-17123984D01*
X9177325Y-17323984D02*
X9177325Y-17219222D01*
X9177325Y-17219222D02*
X9167801Y-17200174D01*
X9167801Y-17200174D02*
X9148753Y-17190650D01*
X9148753Y-17190650D02*
X9120182Y-17190650D01*
X9120182Y-17190650D02*
X9101134Y-17200174D01*
X9101134Y-17200174D02*
X9091611Y-17209698D01*
X9301134Y-17323984D02*
X9282087Y-17314460D01*
X9282087Y-17314460D02*
X9272563Y-17304936D01*
X9272563Y-17304936D02*
X9263039Y-17285889D01*
X9263039Y-17285889D02*
X9263039Y-17228746D01*
X9263039Y-17228746D02*
X9272563Y-17209698D01*
X9272563Y-17209698D02*
X9282087Y-17200174D01*
X9282087Y-17200174D02*
X9301134Y-17190650D01*
X9301134Y-17190650D02*
X9329706Y-17190650D01*
X9329706Y-17190650D02*
X9348753Y-17200174D01*
X9348753Y-17200174D02*
X9358277Y-17209698D01*
X9358277Y-17209698D02*
X9367801Y-17228746D01*
X9367801Y-17228746D02*
X9367801Y-17285889D01*
X9367801Y-17285889D02*
X9358277Y-17304936D01*
X9358277Y-17304936D02*
X9348753Y-17314460D01*
X9348753Y-17314460D02*
X9329706Y-17323984D01*
X9329706Y-17323984D02*
X9301134Y-17323984D01*
X9482087Y-17323984D02*
X9463039Y-17314460D01*
X9463039Y-17314460D02*
X9453515Y-17295412D01*
X9453515Y-17295412D02*
X9453515Y-17123984D01*
X9634468Y-17314460D02*
X9615420Y-17323984D01*
X9615420Y-17323984D02*
X9577325Y-17323984D01*
X9577325Y-17323984D02*
X9558277Y-17314460D01*
X9558277Y-17314460D02*
X9548753Y-17295412D01*
X9548753Y-17295412D02*
X9548753Y-17219222D01*
X9548753Y-17219222D02*
X9558277Y-17200174D01*
X9558277Y-17200174D02*
X9577325Y-17190650D01*
X9577325Y-17190650D02*
X9615420Y-17190650D01*
X9615420Y-17190650D02*
X9634468Y-17200174D01*
X9634468Y-17200174D02*
X9643992Y-17219222D01*
X9643992Y-17219222D02*
X9643992Y-17238270D01*
X9643992Y-17238270D02*
X9548753Y-17257317D01*
X9710658Y-17400174D02*
X9720182Y-17390650D01*
X9720182Y-17390650D02*
X9739230Y-17362079D01*
X9739230Y-17362079D02*
X9748753Y-17343031D01*
X9748753Y-17343031D02*
X9758277Y-17314460D01*
X9758277Y-17314460D02*
X9767801Y-17266841D01*
X9767801Y-17266841D02*
X9767801Y-17228746D01*
X9767801Y-17228746D02*
X9758277Y-17181127D01*
X9758277Y-17181127D02*
X9748753Y-17152555D01*
X9748753Y-17152555D02*
X9739230Y-17133508D01*
X9739230Y-17133508D02*
X9720182Y-17104936D01*
X9720182Y-17104936D02*
X9710658Y-17095412D01*
X10072563Y-17400174D02*
X10063039Y-17390650D01*
X10063039Y-17390650D02*
X10043992Y-17362079D01*
X10043992Y-17362079D02*
X10034468Y-17343031D01*
X10034468Y-17343031D02*
X10024944Y-17314460D01*
X10024944Y-17314460D02*
X10015420Y-17266841D01*
X10015420Y-17266841D02*
X10015420Y-17228746D01*
X10015420Y-17228746D02*
X10024944Y-17181127D01*
X10024944Y-17181127D02*
X10034468Y-17152555D01*
X10034468Y-17152555D02*
X10043992Y-17133508D01*
X10043992Y-17133508D02*
X10063039Y-17104936D01*
X10063039Y-17104936D02*
X10072563Y-17095412D01*
X10148753Y-17190650D02*
X10148753Y-17323984D01*
X10148753Y-17209698D02*
X10158277Y-17200174D01*
X10158277Y-17200174D02*
X10177325Y-17190650D01*
X10177325Y-17190650D02*
X10205896Y-17190650D01*
X10205896Y-17190650D02*
X10224944Y-17200174D01*
X10224944Y-17200174D02*
X10234468Y-17219222D01*
X10234468Y-17219222D02*
X10234468Y-17323984D01*
X10358277Y-17323984D02*
X10339230Y-17314460D01*
X10339230Y-17314460D02*
X10329706Y-17304936D01*
X10329706Y-17304936D02*
X10320182Y-17285889D01*
X10320182Y-17285889D02*
X10320182Y-17228746D01*
X10320182Y-17228746D02*
X10329706Y-17209698D01*
X10329706Y-17209698D02*
X10339230Y-17200174D01*
X10339230Y-17200174D02*
X10358277Y-17190650D01*
X10358277Y-17190650D02*
X10386849Y-17190650D01*
X10386849Y-17190650D02*
X10405896Y-17200174D01*
X10405896Y-17200174D02*
X10415420Y-17209698D01*
X10415420Y-17209698D02*
X10424944Y-17228746D01*
X10424944Y-17228746D02*
X10424944Y-17285889D01*
X10424944Y-17285889D02*
X10415420Y-17304936D01*
X10415420Y-17304936D02*
X10405896Y-17314460D01*
X10405896Y-17314460D02*
X10386849Y-17323984D01*
X10386849Y-17323984D02*
X10358277Y-17323984D01*
X10482087Y-17190650D02*
X10558277Y-17190650D01*
X10510658Y-17123984D02*
X10510658Y-17295412D01*
X10510658Y-17295412D02*
X10520182Y-17314460D01*
X10520182Y-17314460D02*
X10539230Y-17323984D01*
X10539230Y-17323984D02*
X10558277Y-17323984D01*
X10777325Y-17190650D02*
X10777325Y-17390650D01*
X10777325Y-17200174D02*
X10796373Y-17190650D01*
X10796373Y-17190650D02*
X10834468Y-17190650D01*
X10834468Y-17190650D02*
X10853515Y-17200174D01*
X10853515Y-17200174D02*
X10863039Y-17209698D01*
X10863039Y-17209698D02*
X10872563Y-17228746D01*
X10872563Y-17228746D02*
X10872563Y-17285889D01*
X10872563Y-17285889D02*
X10863039Y-17304936D01*
X10863039Y-17304936D02*
X10853515Y-17314460D01*
X10853515Y-17314460D02*
X10834468Y-17323984D01*
X10834468Y-17323984D02*
X10796373Y-17323984D01*
X10796373Y-17323984D02*
X10777325Y-17314460D01*
X10986849Y-17323984D02*
X10967801Y-17314460D01*
X10967801Y-17314460D02*
X10958277Y-17295412D01*
X10958277Y-17295412D02*
X10958277Y-17123984D01*
X11148754Y-17323984D02*
X11148754Y-17219222D01*
X11148754Y-17219222D02*
X11139230Y-17200174D01*
X11139230Y-17200174D02*
X11120182Y-17190650D01*
X11120182Y-17190650D02*
X11082087Y-17190650D01*
X11082087Y-17190650D02*
X11063039Y-17200174D01*
X11148754Y-17314460D02*
X11129706Y-17323984D01*
X11129706Y-17323984D02*
X11082087Y-17323984D01*
X11082087Y-17323984D02*
X11063039Y-17314460D01*
X11063039Y-17314460D02*
X11053515Y-17295412D01*
X11053515Y-17295412D02*
X11053515Y-17276365D01*
X11053515Y-17276365D02*
X11063039Y-17257317D01*
X11063039Y-17257317D02*
X11082087Y-17247793D01*
X11082087Y-17247793D02*
X11129706Y-17247793D01*
X11129706Y-17247793D02*
X11148754Y-17238270D01*
X11215420Y-17190650D02*
X11291611Y-17190650D01*
X11243992Y-17123984D02*
X11243992Y-17295412D01*
X11243992Y-17295412D02*
X11253515Y-17314460D01*
X11253515Y-17314460D02*
X11272563Y-17323984D01*
X11272563Y-17323984D02*
X11291611Y-17323984D01*
X11434468Y-17314460D02*
X11415420Y-17323984D01*
X11415420Y-17323984D02*
X11377325Y-17323984D01*
X11377325Y-17323984D02*
X11358277Y-17314460D01*
X11358277Y-17314460D02*
X11348753Y-17295412D01*
X11348753Y-17295412D02*
X11348753Y-17219222D01*
X11348753Y-17219222D02*
X11358277Y-17200174D01*
X11358277Y-17200174D02*
X11377325Y-17190650D01*
X11377325Y-17190650D02*
X11415420Y-17190650D01*
X11415420Y-17190650D02*
X11434468Y-17200174D01*
X11434468Y-17200174D02*
X11443992Y-17219222D01*
X11443992Y-17219222D02*
X11443992Y-17238270D01*
X11443992Y-17238270D02*
X11348753Y-17257317D01*
X11615420Y-17323984D02*
X11615420Y-17123984D01*
X11615420Y-17314460D02*
X11596373Y-17323984D01*
X11596373Y-17323984D02*
X11558277Y-17323984D01*
X11558277Y-17323984D02*
X11539230Y-17314460D01*
X11539230Y-17314460D02*
X11529706Y-17304936D01*
X11529706Y-17304936D02*
X11520182Y-17285889D01*
X11520182Y-17285889D02*
X11520182Y-17228746D01*
X11520182Y-17228746D02*
X11529706Y-17209698D01*
X11529706Y-17209698D02*
X11539230Y-17200174D01*
X11539230Y-17200174D02*
X11558277Y-17190650D01*
X11558277Y-17190650D02*
X11596373Y-17190650D01*
X11596373Y-17190650D02*
X11615420Y-17200174D01*
X11691611Y-17400174D02*
X11701134Y-17390650D01*
X11701134Y-17390650D02*
X11720182Y-17362079D01*
X11720182Y-17362079D02*
X11729706Y-17343031D01*
X11729706Y-17343031D02*
X11739230Y-17314460D01*
X11739230Y-17314460D02*
X11748753Y-17266841D01*
X11748753Y-17266841D02*
X11748753Y-17228746D01*
X11748753Y-17228746D02*
X11739230Y-17181127D01*
X11739230Y-17181127D02*
X11729706Y-17152555D01*
X11729706Y-17152555D02*
X11720182Y-17133508D01*
X11720182Y-17133508D02*
X11701134Y-17104936D01*
X11701134Y-17104936D02*
X11691611Y-17095412D01*
M02*
